<?xml version="1.0" encoding="utf-8"?>
<!-- Svg Vector Icons : http://www.onlinewebfonts.com/icon -->
<!DOCTYPE svg PUBLIC "-//W3C//DTD SVG 1.1//EN" "http://www.w3.org/Graphics/SVG/1.1/DTD/svg11.dtd">
<svg version="1.1" xmlns="http://www.w3.org/2000/svg" xmlns:xlink="http://www.w3.org/1999/xlink" x="0px" y="0px" viewBox="0 0 256 256" enable-background="new 0 0 256 256" xml:space="preserve">
<metadata> Svg Vector Icons : http://www.onlinewebfonts.com/icon </metadata>
<g> <path fill="#da544a" d="M211.4,182.2H46.1c-8.5,0-15.5-7-15.5-15.5v-1.4c0-8.5,7-15.5,15.5-15.5h165.3c8.5,0,15.5,7,15.5,15.5v1.4 C226.9,175.2,219.9,182.2,211.4,182.2z"/> <path fill="#a73c39" d="M210.7,149.8H190c8.9,0,16.2,7.3,16.2,16.2c0,8.9-7.3,16.2-16.2,16.2h20.7c8.9,0,16.2-7.3,16.2-16.2 C226.9,157.1,219.6,149.8,210.7,149.8z"/> <path fill="#af5822" d="M211.4,136.1H46.1c-8.5,0-15.5-7-15.5-15.5v-1.4c0-8.5,7-15.5,15.5-15.5h165.3c8.5,0,15.5,7,15.5,15.5v1.4 C226.9,129.1,219.9,136.1,211.4,136.1z"/> <path fill="#f5ba39" d="M197.4,218H60.1c-16.2,0-29.5-13.3-29.5-29.5v-3.3c0-1.7,1.4-3,3-3h190.3c1.7,0,3,1.4,3,3v3.3 C226.9,204.8,213.6,218,197.4,218L197.4,218z"/> <path fill="#c58d21" d="M198.9,182.2c0,0,1.6,32.1-24.7,32.1c0,0,17.3,3.8,27.3,3.8c18.4,0,25.4-17.1,25.4-32.7 C226.9,174.8,198.9,182.2,198.9,182.2L198.9,182.2z"/> <path fill="#562a14" d="M211.4,186.7H46.1c-11.1,0-20-9-20-20v-1.4c0-11.1,9-20,20-20h165.3c11.1,0,20,9,20,20v1.4 C231.4,177.7,222.4,186.7,211.4,186.7z M46.1,154.3c-6.1,0-11,4.9-11,11v1.4c0,6.1,4.9,11,11,11h165.3c6.1,0,11-4.9,11-11v-1.4 c0-6.1-4.9-11-11-11H46.1z"/> <path fill="#562a14" d="M197.4,222.5H60.1c-18.8,0-34-15.3-34-34v-3.3c0-4.1,3.4-7.5,7.5-7.5h190.3c4.1,0,7.5,3.4,7.5,7.5v3.3 C231.4,207.3,216.2,222.5,197.4,222.5z M35.1,186.7v1.8c0,13.8,11.2,25,25,25h137.3c13.8,0,25-11.2,25-25v-1.8H35.1z"/> <path fill="#894926" d="M210.7,103.7H190c8.9,0,16.2,7.3,16.2,16.2c0,8.9-7.3,16.2-16.2,16.2h20.7c8.9,0,16.2-7.3,16.2-16.2 C226.9,111,219.6,103.7,210.7,103.7L210.7,103.7z"/> <path fill="#f5ba39" d="M225.5,103.7H32c-1.6,0-2.9-1-2.9-2.2c0-34.9,33.7-63.5,99.6-63.5c65.9,0,99.6,28.5,99.6,63.5 C228.3,102.7,227,103.7,225.5,103.7L225.5,103.7z"/> <path fill="#c58d21" d="M143.7,38.5c0,0,58.3,21.8,58.3,65.2h26.3c0,0,0.4-32.8-22.1-44.9S178.4,42.9,143.7,38.5L143.7,38.5z"/> <path fill="#562a14" d="M225.5,108.2H32c-4.1,0-7.4-3-7.4-6.8c0-31.4,27.3-68,104.1-68c76.8,0,104.1,36.6,104.1,68 C232.9,105.1,229.5,108.2,225.5,108.2z M33.7,99.1h190c-1.6-34.5-38.5-56.6-95-56.6C72.2,42.5,35.3,64.7,33.7,99.1z"/> <path fill="#562a14" d="M211.4,140.6H46.1c-11.1,0-20-9-20-20v-1.4c0-11.1,9-20,20-20h165.3c11.1,0,20,9,20,20v1.4 C231.4,131.6,222.4,140.6,211.4,140.6z M46.1,108.2c-6.1,0-11,4.9-11,11v1.4c0,6.1,4.9,11,11,11h165.3c6.1,0,11-4.9,11-11v-1.4 c0-6.1-4.9-11-11-11H46.1z"/> <path fill="#40a348" d="M41.3,132.2c0,0-21.7-2-24.8,1.7c-5.1,6.3-3.7,16.3,6.9,16.3c13.7,0,22.6-5.8,25.2-2.6s-2.6,16.2,17.9,11 c20.5-5.2,19.9-14.8,32.6-10c12.6,4.8,10.6,18.4,28.1,14.2c17.6-4.2,16-16.8,32.3-17.3c16.3-0.5,14.6,8.5,33.9,14.7 c9.7,3.1,15-5.1,22.7-5.8c7.7-0.7,10.8,7.5,18.5,4.2c1.6-0.7,2.2-4.6,1.7-7.2c-0.7-4-0.3-7.4,3.4-9.1c1.9-0.8,3.4-2.3,3.4-4.8 c0-6.8-16.1-11-16.1-11s-32.2,10-39.6,10c-7.4,0-27.8-7.1-44.6-4.3c-16.8,2.8-49.4,3.5-59.9,1.7C72.3,132.1,41.3,132.2,41.3,132.2 L41.3,132.2z"/> <path fill="#72bc52" d="M120.9,157.7c-3.2,0-4.5-6.8-7.5-10.4c-2.8-3.3-6.2-7.4-12.7-9.9c-2.4-0.9-4.6-1.5-6.7-1.7 c2.4,0.1,4.8,0.1,6.9,0.1c11.8,0,29.9-0.7,42.2-2.8c2.3-0.4,4.7-0.6,7.4-0.6c8.3,0,17,1.8,24.1,3.2c5.1,1,9.1,1.8,12.1,1.8 c7.3,0,31.4-7.2,39.6-9.7c3.6,1.1,7.1,2.8,8.9,4.1c-2.7,1.6-4.8,3.8-6.2,6.5c-1.6,3.4-5.4,5.1-9.1,4.5c-1.2-0.2-2.3-0.3-3.5-0.3 c-0.5,0-1.1,0-1.6,0.1c-4.3,0.4-7.8,2.2-10.9,3.9c-2.6,1.4-4.8,2.6-7.1,2.6c-0.8,0-1.5-0.1-2.3-0.4c-7.6-2.5-11.3-5.2-14.9-7.9 c-4.6-3.5-9.4-7.1-19.6-7.1c-0.5,0-1,0-1.5,0c-11,0.4-15.9,5.2-20.3,9.6c-3.5,3.4-6.2,12-12.9,13.7 C123.7,157.5,122.2,157.7,120.9,157.7z M55.3,145.2c-0.3-2.1-0.6-4.7-2.4-7c-1.2-1.5-3.5-3.2-7.4-3.2c-2.4,0-4.9,0.6-7.8,1.4 c-4,1-9,2.2-14.8,2.2c-1,0-2.8-0.2-3.3-1.2c-0.4-0.9-0.2-2.6,0.7-4.1c0.9-0.2,3.3-0.7,8.5-0.7c5.7,0,11.3,0.5,11.4,0.5l0.3,0h0.3 c0.3,0,30.6,0,40.5,1.6c2.9,0.5,6.8,0.7,10.8,0.9c-4.8,0.1-8.4,2.4-11.7,4.5c-3.5,2.2-11.6,10.4-19.4,13 C52.1,156,55.4,146.1,55.3,145.2z"/> <path fill="#562a14" d="M121.3,166.6c-7.7,0-11.3-4.2-14.4-8c-2.4-2.9-4.7-5.6-8.9-7.2c-5.7-2.2-7.6-1-12.2,2 c-3.8,2.4-9.1,5.8-18.6,8.1c-7.6,1.9-12.7,1.7-16.1-0.6c-3.6-2.5-4.1-6.6-4.4-9.3c-0.1-0.6-0.2-1.5-0.3-2c-1-0.1-3.7,0.6-5.8,1.1 c-4.2,1.1-10.1,2.5-17.1,2.5c-6.1,0-11-3.2-12.7-8.4c-1.7-4.8-0.1-10.2,3.9-13.3c7-5.4,23.9-2.9,26.9-2.4c3.3,0,31.5,0.1,41.7,1.8 c10.1,1.6,42.2,1,58.9-1.7c11.8-2,25.1,0.7,34.8,2.7c4.4,0.9,8.2,1.7,10.3,1.7c5,0,25.9-5.9,38.7-9.9c0.5-0.2,1.1-0.2,1.7,0 c3.1,0.8,18.4,5.2,18.4,13.9c0,3.5-1.8,6.1-5.1,7.6l-0.8,0.3c-3.6,1.5-3.6,1.8-3.4,2.9c0.1,0.4,0.4,1.2,0.7,1.9 c1.1,2.5,3.4,7.6-1.1,10.8c-4.2,2.9-8.5,0.7-12-1.2c-2.6-1.4-5.2-2.8-8-2.5c-2.4,0.2-4.7,1.5-7.2,2.8c-4.3,2.3-9.6,5.1-16.7,2.9 c-9.1-3-13.8-6.5-17.6-9.4c-4.4-3.3-7.3-5.5-15.2-5.2c-7.3,0.2-10.2,3-14.1,6.9c-3.9,3.8-8.3,8.1-17.5,10.4 C125.4,166.3,123.2,166.6,121.3,166.6z M93.1,144.2c2,0,4.3,0.4,7.1,1.5c5.6,2.2,8.8,5.9,11.3,8.9c3.8,4.5,6.1,7.3,15,5.1 c7.6-1.8,11.2-5.3,14.7-8.8c4.2-4.1,8.5-8.3,18.2-8.6c10.1-0.3,14.2,2.8,19.1,6.4c3.6,2.7,7.7,5.8,15.9,8.4c4.6,1.5,8-0.3,11.9-2.4 c2.9-1.6,5.9-3.2,9.6-3.5c4.4-0.4,8.2,1.6,11.3,3.2c3.2,1.7,4.7,2.3,5.8,1.6c0.1-0.1,0.1-0.1,0.1-0.1c0.2-0.5-0.7-2.4-1.1-3.3 c-0.5-1.1-1-2.2-1.2-3.3c-1-6,3.6-8,7-9.4l0.7-0.3c1.4-0.6,1.5-1.3,1.5-2c0-2.5-6.7-6.1-13.1-7.9c-5.9,1.8-32.5,9.9-39.6,9.9 c-2.7,0-6.6-0.8-11.5-1.8c-9.3-1.9-21.9-4.4-32.7-2.6c-17.7,2.9-50.3,3.5-60.9,1.7c-10.2-1.7-40.7-1.7-41-1.7c-0.2,0-0.4,0-0.5,0 c-6.6-1.2-18.5-1.9-22.4,1.1c-2,1.6-2.8,4.1-2,6.6c0.9,2.7,3.5,4.3,7,4.3c6.3,0,11.5-1.3,15.6-2.3c5.2-1.3,9.3-2.3,11.9,0.8 c1.2,1.5,1.5,3.4,1.7,5.2c0.3,2.5,0.6,4.1,1.9,5c1,0.7,3.9,1.6,11.3-0.2c8.5-2.2,13.1-5,16.8-7.4C86,146.1,88.9,144.2,93.1,144.2 L93.1,144.2z"/> <path fill="#f6ea5d" d="M105.9,105.4c0,0,38.6,7.3,56,32.4l31.5-32.4H105.9L105.9,105.4z"/> <path fill="#562a14" d="M161.9,140.8h-0.3c-0.9-0.1-1.7-0.6-2.2-1.3c-16.4-23.8-53.7-31.1-54-31.2c-1.5-0.3-2.6-1.7-2.5-3.3 c0.1-1.6,1.5-2.7,3-2.7h87.5c1.2,0,2.3,0.7,2.8,1.9c0.5,1.1,0.2,2.4-0.6,3.3L164,139.9C163.5,140.5,162.7,140.8,161.9,140.8z  M126.1,108.4c0.8,0.3,1.6,0.7,2.5,1c10.3,4.3,24.2,11.9,33.6,23.7l24.1-24.7H126.1z"/> <path fill="#f6ea5d" d="M61.8,105.2c0,0,7.9,9.9,0,19.9c-4.5,5.7,7.1,13.4,12.6,6.3c5.5-7.1-3.9-9.9,0-14.8 c3.9-4.9,16.6-11.5,16.6-11.5H61.8z"/> <path fill="#562a14" d="M68.7,137.3c-0.5,0-1,0-1.5-0.1c-3.9-0.6-7.5-3.2-8.8-6.4c-1-2.6-0.6-5.3,1.1-7.5c6.3-8.1,0.3-15.9,0-16.2 c-0.7-0.9-0.9-2.2-0.4-3.2c0.5-1,1.6-1.7,2.7-1.7h29.1c1.4,0,2.6,1,2.9,2.3c0.3,1.4-0.3,2.8-1.5,3.4c-3.4,1.7-12.7,7-15.6,10.7 c-0.5,0.6-0.5,0.7,0.6,2.7c1.4,2.5,3.7,6.7-0.5,12.1C74.8,135.9,71.9,137.3,68.7,137.3z M66.9,108.2c1.9,5,2.5,12.1-2.7,18.8 c-0.4,0.5-0.5,0.9-0.2,1.5c0.5,1.1,2.1,2.5,4,2.7c1.6,0.2,3-0.3,4-1.6c1.8-2.3,1.2-3.3,0-5.5c-1.1-2.1-3.1-5.5,0-9.4 c1.7-2.2,4.8-4.5,7.8-6.5H66.9z M121.1,59h-6.5c-1.9,0-3.4-1.5-3.4-3.4v-0.3c0-1.9,1.5-3.4,3.4-3.4h6.5c1.9,0,3.4,1.5,3.4,3.4v0.3 C124.5,57.5,123,59,121.1,59z M137.9,71.1h-6.5c-1.9,0-3.4-1.5-3.4-3.4v-0.3c0-1.9,1.5-3.4,3.4-3.4h6.5c1.9,0,3.4,1.5,3.4,3.4v0.3 C141.3,69.6,139.8,71.1,137.9,71.1z M168.6,86.8h-8.3c-2.4,0-4.3-2-4.3-4.3V82c0-2.4,2-4.3,4.3-4.3h8.3c2.4,0,4.3,2,4.3,4.3v0.4 C172.9,84.8,171,86.8,168.6,86.8z M87,78.8h-2.9c-1.9,0-3.4-1.5-3.4-3.4v-0.3c0-1.9,1.5-3.4,3.4-3.4H87c1.9,0,3.4,1.5,3.4,3.4v0.3 C90.4,77.2,88.9,78.8,87,78.8z M75.4,71.1h-2.9c-1.9,0-3.4-1.5-3.4-3.4v-0.3c0-1.9,1.5-3.4,3.4-3.4h2.9c1.9,0,3.4,1.5,3.4,3.4v0.3 C78.8,69.6,77.3,71.1,75.4,71.1z"/> <path fill="#562a14" d="M182.6,64h-2.9c-1.9,0-3.4-1.5-3.4-3.4v-0.3c0-1.9,1.5-3.4,3.4-3.4h2.9c1.9,0,3.4,1.5,3.4,3.4v0.3 C186,62.5,184.5,64,182.6,64z"/> <path fill="#562a14" d="M122.4,89.3l-2.6-1.3c-1.7-0.9-2.3-2.9-1.5-4.6l0.1-0.3c0.9-1.7,2.9-2.3,4.6-1.5l2.6,1.3 c1.7,0.9,2.3,2.9,1.5,4.6l-0.1,0.3C126.2,89.4,124.1,90.1,122.4,89.3z"/></g>
</svg>