<?xml version="1.0" encoding="utf-8"?>
<!-- Svg Vector Icons : http://www.onlinewebfonts.com/icon -->
<!DOCTYPE svg PUBLIC "-//W3C//DTD SVG 1.1//EN" "http://www.w3.org/Graphics/SVG/1.1/DTD/svg11.dtd">
<svg version="1.1" xmlns="http://www.w3.org/2000/svg" xmlns:xlink="http://www.w3.org/1999/xlink" x="0px" y="0px" viewBox="0 0 256 256" enable-background="new 0 0 256 256" xml:space="preserve">
<metadata> Svg Vector Icons : http://www.onlinewebfonts.com/icon </metadata>
<g> <path fill="#434c67" d="M128,93.9c-3.1,0-5.7-2.6-5.7-5.7V73.7c0-3.1,2.6-5.7,5.7-5.7c3.1,0,5.7,2.6,5.7,5.7v14.5 C133.7,91.4,131.1,93.9,128,93.9z"/> <path fill="#efc523" d="M128,85.9c-53.2,0-96.3,43.1-96.3,96.3h192.7C224.3,129.1,181.2,85.9,128,85.9z"/> <path fill="#434c67" d="M230,188H26v-5.7c0-13.8,2.7-27.1,8-39.7c5.1-12.1,12.5-23.1,21.9-32.4c9.4-9.3,20.3-16.7,32.5-21.9 c12.6-5.3,25.9-8,39.7-8c13.8,0,27.1,2.7,39.7,8c12.1,5.1,23.1,12.5,32.4,21.9c9.4,9.4,16.7,20.3,21.9,32.4c5.3,12.6,8,25.9,8,39.7 L230,188L230,188z M37.5,176.6h180.9c-1.4-22.1-10.6-42.6-26.4-58.4C175,101.1,152.2,91.6,128,91.6c-24.2,0-47,9.4-64.1,26.5 C48.1,134,38.9,154.5,37.5,176.6z"/> <path fill="#434c67" d="M240.3,188H15.7c-3.1,0-5.7-2.6-5.7-5.7c0-3.1,2.6-5.7,5.7-5.7h224.6c3.1,0,5.7,2.6,5.7,5.7 C246,185.4,243.4,188,240.3,188z"/> <path fill="#ffffff" d="M70.1,137c-1.3,0-2.5-0.4-3.6-1.3c-2.5-2-2.9-5.6-0.9-8c13.5-17,33.7-27,55.4-27.4c3.1-0.1,5.8,2.4,5.8,5.6 c0.1,3.1-2.4,5.8-5.6,5.8c-18.3,0.4-35.3,8.8-46.7,23.1C73.4,136.3,71.7,137,70.1,137L70.1,137z"/> <path fill="#ffffff" d="M54.3,148.6c0.1,3.2,2.7,5.8,6,5.7c3.2-0.1,5.8-2.7,5.7-6c0,0,0,0,0,0c-0.1-3.2-2.7-5.8-6-5.7 C56.8,142.7,54.2,145.3,54.3,148.6C54.3,148.6,54.3,148.6,54.3,148.6z"/></g>
</svg>