<?xml version="1.0" encoding="utf-8"?>
<!-- Svg Vector Icons : http://www.onlinewebfonts.com/icon -->
<!DOCTYPE svg PUBLIC "-//W3C//DTD SVG 1.1//EN" "http://www.w3.org/Graphics/SVG/1.1/DTD/svg11.dtd">
<svg version="1.1" xmlns="http://www.w3.org/2000/svg" xmlns:xlink="http://www.w3.org/1999/xlink" x="0px" y="0px" viewBox="0 0 256 256" enable-background="new 0 0 256 256" xml:space="preserve">
<metadata> Svg Vector Icons : http://www.onlinewebfonts.com/icon </metadata>
<g> <path fill="#f9cca8" d="M11,98.7v94.7c0,0,21.9,53.9,116.6,48l117.4-90l-5.5-95.1L11,98.7z"/> <path fill="#f9cca8" d="M11,98.7c0,0,19.1,44.4,115.8,42.3l113.1-84.5"/> <path fill="#040000" d="M113.9,242.6c-82.7,0-103.4-48.5-103.6-49l-0.1-0.3V97.9l0.7-0.1l229.5-42.6l0.1,1l5.5,95.6l-0.4,0.3 L128,242.2h-0.2C122.9,242.5,118.3,242.6,113.9,242.6z M11.9,193.1c1.4,3.1,25.2,52.8,115.5,47.4L244.2,151l-5.4-93.7L11.9,99.4 V193.1z"/> <path fill="#ecb38d" d="M239.6,56.2l-9.7,1.8l5.1,87.7l-117.5,90c-35.2,2.2-60.3-3.9-78-12.4c17.8,11.2,45.6,20.6,88.2,18l117.4-90 L239.6,56.2L239.6,56.2z"/> <path fill="#040000" d="M120.3,141.8C29.8,141.8,10.4,99.4,10.2,99l1.6-0.7c0.2,0.4,20.1,43.7,114.7,41.7l112.8-84.5l1,1.4 l-113.3,84.8h-0.3C124.6,141.8,122.4,141.8,120.3,141.8z"/> <path fill="#040000" d="M126,140.9l1.7,0l0.8,100.4l-1.7,0L126,140.9z"/> <path fill="#e41812" d="M184.5,197.5c0.6-2.4,1-4.9,1.1-7.5c0.5-11.9-5.1-20.1-12.5-18.4c-7.5,1.7-13.9,12.7-14.4,24.6 c-0.3,7.6,1.8,13.8,5.4,16.7L184.5,197.5L184.5,197.5z"/> <path fill="#040000" d="M164.1,213.6l-0.4-0.3c-3.8-3.2-6-9.7-5.6-17.3c0.5-12.2,7.2-23.5,14.9-25.2c2.8-0.6,5.4,0,7.7,1.8 c3.9,3.2,6,9.7,5.6,17.2c-0.1,2.6-0.5,5.2-1.1,7.7l-0.1,0.2L164.1,213.6L164.1,213.6z M175,171.9c-0.6,0-1.2,0.1-1.8,0.2 c-7.2,1.6-13.4,12.4-13.9,24c-0.3,6.9,1.5,12.8,4.8,15.9l19.8-14.9c0.6-2.3,0.9-4.8,1-7.2c0.3-7.2-1.6-13.3-5.2-16.2 C178.3,172.5,176.7,171.9,175,171.9L175,171.9z"/> <path fill="#3471b8" d="M169.8,109c5.3,0.8,10.1,6.8,9.7,14.7c-0.4,9.6-6.5,18.7-13.6,20.3c-7.1,1.6-12.5-4.8-12.1-14.4 c0.1-3.5,1.1-7.6,2.6-10.7L169.8,109z"/> <path fill="#040000" d="M163.8,144.9c-2.2,0-4.2-0.7-5.9-2.1c-3.2-2.7-5-7.5-4.7-13.2c0.1-3.7,1.2-7.8,2.6-10.9l0.2-0.2l13.7-10.2 l0.3,0c5.3,0.8,10.7,6.8,10.3,15.4c-0.4,9.8-6.8,19.2-14.1,20.9C165.3,144.8,164.6,144.9,163.8,144.9L163.8,144.9z M156.9,119.4 c-1.3,2.9-2.3,6.8-2.4,10.3c-0.2,5.3,1.3,9.7,4.3,12.1c2,1.7,4.4,2.2,7.1,1.6c6.8-1.6,12.7-10.4,13.1-19.7c0.3-7.7-4.2-13.1-8.9-14 L156.9,119.4L156.9,119.4z"/> <path fill="#3471b8" d="M207,128.9c4.9-1.1,8.6,2.5,8.3,8.1c-0.2,5.6-4.4,11.1-9.2,12.2c-4.9,1.1-8.6-2.5-8.3-8.1 C198,135.4,202.2,130,207,128.9z"/> <path fill="#040000" d="M204.4,150c-1.7,0-3.2-0.5-4.4-1.6c-2-1.6-3-4.3-2.9-7.5c0.2-5.9,4.6-11.6,9.7-12.8 c2.3-0.5,4.6-0.1,6.3,1.3c2,1.6,3,4.3,2.9,7.5c-0.2,5.9-4.6,11.6-9.7,12.8C205.6,149.9,205,150,204.4,150L204.4,150z M207.2,129.5 c-4.6,1.1-8.5,6.3-8.7,11.6c-0.1,2.7,0.7,5,2.4,6.4c1.4,1.1,3.2,1.5,5.2,1.1c4.6-1.1,8.5-6.3,8.7-11.6c0.1-2.7-0.7-5-2.4-6.4 C210.9,129.4,209.1,129,207.2,129.5z M16.6,135l3.8,31.1L56,177.2l11.5-27.5l3.3,0.9l3.4,31.8l33.9,9.8l13.5-27l-7.4-5.7 l-97.4-26.8L16.6,135z"/> <path fill="#3471b8" d="M35.4,143.2c0.1,0.9,1.2,3.9,1.2,3.9l-6.1-1.8l7.3,24.1l3.7,1.1l-7.1-21.7l5.5,1.6l-2.6-7.1"/> <path fill="#e41812" d="M38.4,144.4c0,0.2,4.3,9.5,4.3,9.5l-5.4-1.6l6,19.5l4.1,1.2l-5.8-17.1l7,2l-7.2-12.6L38.4,144.4z  M88.6,158.8c0,0.2,4.3,9.5,4.3,9.5l-5.4-1.6l6,19.5l4.1,1.2l-5.8-17.1l7,2l-7.2-12.7L88.6,158.8z"/> <path fill="#3471b8" d="M88.6,162l-8.2-2.3l7.4,24.1l3.4,1l-6.5-21.2l5.1,1.5L88.6,162z"/> <path fill="#040000" d="M127.1,168.8c0,0-44.1-8.9-58.9-13.2c-14.4-4.1-57-20-57-20v-8.1c0,0,44.4,16.1,59,20.3 c14.7,4.2,57,13.3,57,13.3L127.1,168.8z"/> <path fill="#ffffff" d="M69,199.2c2.8,5.4,1.4,11.4-3.2,13.3c-4.6,1.9-10.6-1-13.5-6.5c-2.8-5.4-1.4-11.4,3.2-13.3 C60.1,190.9,66.1,193.8,69,199.2z"/> <path fill="#040000" d="M62.8,213.9c-4.3,0-8.9-2.9-11.3-7.5c-1.7-3.2-2-6.7-1-9.6c0.8-2.2,2.5-3.9,4.6-4.8c5-2,11.5,1,14.6,6.9 c1.7,3.2,2,6.7,1,9.6c-0.8,2.2-2.5,3.9-4.6,4.8C65.1,213.7,64,213.9,62.8,213.9z M58.5,193c-0.9,0-1.8,0.2-2.7,0.5 c-1.7,0.7-2.9,2-3.6,3.8c-0.9,2.5-0.6,5.5,0.9,8.2c2.6,5,8.2,7.8,12.4,6.1c1.7-0.7,2.9-2,3.6-3.8c0.9-2.5,0.6-5.5-0.9-8.2 C66.1,195.6,62.2,193,58.5,193z"/> <path fill="#e41812" d="M22,112.6l217.6-56.4L11,98.7C11,98.7,15.5,106.6,22,112.6z"/> <path fill="#040000" d="M21.8,113.3l-0.2-0.2c-6.5-6-11-14-11.1-14.1L10,98.2l229.5-42.6l0.3,1.2L21.8,113.3z M12.1,99.1 c1.3,2.1,5.1,8,10.1,12.8l199.4-51.6L12.1,99.1z"/> <path fill="#3471b8" d="M22,112.6c0,0,9.4,8.2,15.2,10.7l202.4-67L22,112.6z"/> <path fill="#040000" d="M37.1,124l-0.2-0.1c-5.8-2.5-15-10.5-15.4-10.8l-0.9-0.8l1.2-0.3l217.6-56.4l0.4,1.2L37.1,124L37.1,124z  M23.4,112.9c2.5,2.1,9.3,7.6,13.8,9.7l183.7-60.9L23.4,112.9L23.4,112.9z"/> <path fill="#e41812" d="M37.2,123.3c0,0,14,7.4,19.8,8.8l182.6-75.8L37.2,123.3z"/> <path fill="#040000" d="M57,132.7l-0.2,0c-5.8-1.4-19.4-8.5-20-8.8l-1.3-0.7l203.9-67.5l0.5,1.2L57,132.7L57,132.7z M38.8,123.4 c3.6,1.8,13.4,6.8,18.1,8l166.3-69L38.8,123.4L38.8,123.4z"/> <path fill="#3471b8" d="M57,132.1c0,0,19.4,5.6,29.6,6.7l153-82.5L57,132.1L57,132.1z"/> <path fill="#040000" d="M86.7,139.4l-0.2,0c-10.2-1.1-29.5-6.6-29.7-6.7l-1.8-0.5l184.3-76.5l0.6,1.2L86.7,139.4z M59,132 c5,1.4,19.2,5.2,27.5,6.1l141.6-76.4L59,132z"/> <path fill="#e41812" d="M87.4,138.7c0,0,25.4,3.3,39.4,2.2l112.8-84.1L87.4,138.7z"/> <path fill="#040000" d="M120.3,141.8c-14.1,0-32.7-2.3-32.9-2.4l-2-0.3l153.9-82.9l0.7,1.1l-112.9,84.2h-0.2 C124.9,141.7,122.6,141.8,120.3,141.8z M89.6,138.4c6.3,0.7,25.5,2.8,37.1,1.9l105.6-78.7L89.6,138.4z"/> <path fill="#e41812" d="M45,201.9c0,0-14.9,4.5-33.8-10.5v-9.5C11.2,181.9,24.6,198.8,45,201.9z"/> <path fill="#040000" d="M39.1,203.2c-6.1,0-16.5-1.8-28.3-11.3l-0.2-0.2v-11.7l1.1,1.5c0.1,0.2,13.5,16.7,33.3,19.8l2.8,0.4 l-2.7,0.8C44.9,202.5,42.8,203.2,39.1,203.2L39.1,203.2z M11.9,191c12.8,10.1,23.8,11.1,29.3,10.7c-15.1-3.6-25.9-14.4-29.3-18.2 V191z"/> <path fill="#3471b8" d="M54.8,220.6c4.4,2.5,9.9,1,12.4-3.3c2.5-4.4,1-9.9-3.3-12.4c0,0,0,0,0,0c-4.4-2.5-9.9-1-12.4,3.3 C48.9,212.5,50.4,218.1,54.8,220.6z"/> <path fill="#040000" d="M59.3,222.5c-1.6,0-3.3-0.4-4.8-1.3c-2.3-1.3-3.9-3.4-4.5-5.9c-0.7-2.5-0.3-5.2,1-7.4 c1.3-2.3,3.4-3.9,5.9-4.5c2.5-0.7,5.2-0.3,7.4,1c2.3,1.3,3.9,3.4,4.5,5.9c0.7,2.5,0.3,5.2-1,7.4C66,220.7,62.7,222.5,59.3,222.5z  M59.3,204.3c-0.7,0-1.5,0.1-2.2,0.3c-2.2,0.6-4,2-5.1,3.9c-1.1,2-1.4,4.2-0.9,6.4c0.6,2.2,2,4,3.9,5.1c4.1,2.3,9.2,0.9,11.5-3.1 c1.1-2,1.4-4.2,0.8-6.4c-0.6-2.2-2-4-3.9-5.1C62.2,204.7,60.8,204.3,59.3,204.3z"/> <path fill="#040000" d="M62,221.5l1.2-0.5l9.2,21l-1.2,0.5L62,221.5z"/> <path fill="#e41812" d="M65.5,232.3c0,0,14.9,19.2,61.9,5.2v-17C127.4,220.5,114.4,243.5,65.5,232.3z"/> <path fill="#040000" d="M96.1,243.3c-22.5,0-30.7-10-31.1-10.6l-1.1-1.4l1.8,0.4c47.8,10.9,61.1-11.2,61.2-11.5l1.2-2.1V238 l-0.5,0.1C114.9,241.9,104.5,243.3,96.1,243.3z M67.6,233.4c4.8,4.2,21.7,14.6,59.2,3.6v-14.5C122.7,227.7,107.3,241.9,67.6,233.4z "/> <path fill="#f9cca8" d="M66.4,40.3v59.2c0,0,13.7,33.7,73,30.1l73.5-56.3l-3.4-59.5L66.4,40.3z"/> <path fill="#f9cca8" d="M66.4,40.3c0,0,12,27.8,72.4,26.4l70.8-52.9"/> <path fill="#040000" d="M134.6,67.6c-56.7,0-68.6-25.9-69-27l1.6-0.7c0.1,0.3,12.5,27.1,71.4,25.9L209,13.1l1,1.4l-71,53.1h-0.3 C137.4,67.6,136,67.6,134.6,67.6z"/> <path fill="#040000" d="M138,66.7l1.7,0l0.5,62.9l-1.7,0L138,66.7z"/> <path fill="#e41812" d="M174.9,102.1c0.4-1.5,0.6-3.1,0.7-4.7c0.3-7.5-3.2-12.6-7.9-11.5s-8.7,8-9,15.4c-0.2,4.8,1.1,8.6,3.4,10.5 L174.9,102.1z"/> <path fill="#040000" d="M162.1,112.5l-0.4-0.3c-2.5-2.1-3.8-6.2-3.6-11c0.4-7.8,4.5-14.9,9.5-16c1.8-0.4,3.6,0,5,1.2 c2.5,2.1,3.8,6.2,3.6,11c-0.1,1.6-0.3,3.3-0.7,4.9l-0.1,0.2L162.1,112.5z M169,86.3c-0.4,0-0.7,0-1,0.1c-4.4,1-8.2,7.6-8.5,14.8 c-0.2,4.2,0.9,7.7,2.8,9.6l12.2-9.2c0.4-1.4,0.6-2.9,0.6-4.4c0.2-4.4-1-8.1-3.2-9.9C171,86.7,170,86.3,169,86.3L169,86.3z"/> <path fill="#3471b8" d="M165.7,46.7c3.3,0.5,6.3,4.3,6.1,9.2c-0.2,6-4.1,11.7-8.5,12.7c-4.4,1-7.9-3-7.6-9c0.1-2.2,0.7-4.8,1.6-6.6 L165.7,46.7z"/> <path fill="#040000" d="M162,69.5c-1.4,0-2.7-0.5-3.8-1.4c-2.1-1.7-3.2-4.8-3.1-8.4c0.1-2.3,0.7-5,1.7-6.9l0.2-0.2l8.6-6.4l0.3,0 c3.4,0.5,6.9,4.4,6.6,9.9c-0.3,6.3-4.3,12.2-9,13.3C163,69.4,162.5,69.5,162,69.5z M157.8,53.4c-0.8,1.8-1.4,4.2-1.5,6.3 c-0.1,3.2,0.8,5.9,2.6,7.4c1.2,1,2.7,1.3,4.2,1c4.2-1,7.8-6.4,8-12.1c0.2-4.7-2.5-7.9-5.3-8.5L157.8,53.4z"/> <path fill="#3471b8" d="M189,59.2c3.1-0.7,5.4,1.6,5.2,5.1c-0.1,3.5-2.7,6.9-5.8,7.6c-3.1,0.7-5.4-1.6-5.2-5.1 C183.4,63.2,186,59.8,189,59.2z"/> <path fill="#040000" d="M187.4,72.6c-1.1,0-2.1-0.4-2.9-1c-1.3-1.1-2-2.8-1.9-4.9c0.2-3.8,3-7.5,6.3-8.2c1.6-0.4,3,0,4.2,0.9 c1.3,1.1,2,2.8,1.9,4.9c-0.2,3.8-3,7.5-6.3,8.2C188.2,72.6,187.8,72.6,187.4,72.6z M190.1,59.7c-0.3,0-0.6,0-0.9,0.1 c-2.8,0.6-5.2,3.8-5.3,7c-0.1,1.6,0.5,3,1.4,3.8c0.8,0.7,1.9,0.9,3,0.6c2.8-0.6,5.2-3.8,5.3-7c0.1-1.6-0.5-3-1.4-3.8 C191.6,59.9,190.9,59.7,190.1,59.7z M69.8,63l2.3,19.4l22.3,7l7.2-17.2l2.1,0.6l2.1,19.9l21.2,6.1l8.5-16.9l-4.6-3.6L70,61.5 L69.8,63z"/> <path fill="#3471b8" d="M81.6,68.1c0,0.5,0.8,2.4,0.8,2.4l-3.8-1.1l4.5,15.1l2.3,0.7l-4.4-13.6l3.4,1l-1.6-4.5"/> <path fill="#e41812" d="M83.5,68.9c0,0.1,2.7,5.9,2.7,5.9l-3.4-1L86.5,86l2.5,0.7L85.4,76l4.4,1.3l-4.5-7.9L83.5,68.9z M114.9,77.9 c0,0.1,2.7,5.9,2.7,5.9l-3.4-1l3.7,12.2l2.5,0.7L116.8,85l4.4,1.3l-4.5-7.9L114.9,77.9z"/> <path fill="#3471b8" d="M114.9,79.9l-5.1-1.5l4.6,15.1l2.1,0.6l-4.1-13.3l3.2,0.9L114.9,79.9z"/> <path fill="#040000" d="M139,84.2c0,0-27.6-5.6-36.9-8.2c-9-2.6-35.6-12.5-35.6-12.5v-5c0,0,27.8,10.1,36.9,12.7 c9.2,2.6,35.7,8.3,35.7,8.3L139,84.2z"/> <path fill="#ffffff" d="M100.5,101.9c1.8,3.4,0.9,7.1-2,8.3s-6.6-0.6-8.4-4.1c-1.8-3.4-0.9-7.1,2-8.3 C94.9,96.6,98.7,98.5,100.5,101.9z"/> <path fill="#040000" d="M96.6,111.4c-2.8,0-5.8-1.9-7.4-4.9c-1.1-2.1-1.3-4.4-0.6-6.3c0.5-1.5,1.6-2.6,3-3.2 c3.3-1.3,7.5,0.6,9.5,4.4c1.1,2.1,1.3,4.4,0.6,6.3c-0.5,1.5-1.6,2.6-3.1,3.2C98.1,111.2,97.4,111.4,96.6,111.4z M93.9,98.3 c-0.5,0-1.1,0.1-1.6,0.3c-1,0.4-1.7,1.2-2.1,2.2c-0.5,1.5-0.4,3.2,0.5,4.9c1.6,3,4.9,4.7,7.4,3.7c1-0.4,1.7-1.2,2.1-2.2 c0.5-1.5,0.4-3.2-0.5-4.9C98.4,99.8,96.1,98.3,93.9,98.3z"/> <path fill="#e41812" d="M73.2,49l136.2-35.2l-143,26.5C66.4,40.3,69.2,45.2,73.2,49z"/> <path fill="#040000" d="M73.1,49.7l-0.2-0.2c-4.1-3.8-6.9-8.7-7-8.9l-0.5-0.8l143.9-26.7l0.3,1.2L73.1,49.7z M67.4,40.7 c0.9,1.5,3.2,4.8,6,7.5l118-30.6L67.4,40.7z"/> <path fill="#3471b8" d="M73.2,49c0,0,5.9,5.1,9.5,6.7l126.7-42L73.2,49L73.2,49z"/> <path fill="#040000" d="M82.7,56.4l-0.2-0.1c-3.7-1.6-9.4-6.6-9.7-6.8l-0.9-0.8l1.2-0.3l136.2-35.2l0.4,1.2L82.7,56.4z M74.6,49.3 c1.7,1.5,5.5,4.5,8.2,5.7l108-35.8L74.6,49.3z"/> <path fill="#e41812" d="M82.7,55.7c0,0,8.8,4.6,12.4,5.5l114.3-47.4L82.7,55.7z"/> <path fill="#040000" d="M95.2,61.9l-0.2,0c-3.7-0.9-12.2-5.4-12.5-5.5l-1.4-0.7l128.1-42.5l0.5,1.2L95.2,61.9z M84.4,55.8 c2.5,1.3,8,4,10.7,4.7L193,19.8L84.4,55.8L84.4,55.8z"/> <path fill="#3471b8" d="M95.1,61.2c0,0,12.1,3.5,18.5,4.2l95.8-51.6L95.1,61.2z"/> <path fill="#040000" d="M113.8,66l-0.2,0c-6.4-0.7-18.1-4.1-18.6-4.2l-1.8-0.5l116-48.2l0.6,1.2L113.8,66L113.8,66z M97.1,61 c3.6,1,11.6,3.1,16.4,3.6l84.3-45.5L97.1,61z"/> <path fill="#e41812" d="M114.2,65.3c0,0,15.9,2,24.7,1.4l70.6-52.6L114.2,65.3L114.2,65.3z"/> <path fill="#040000" d="M134.7,67.5c-8.8,0-20.5-1.5-20.6-1.5l-2-0.2l97-52.2l0.7,1.1l-70.7,52.7h-0.2 C137.6,67.4,136.2,67.5,134.7,67.5z M116.3,65c4.5,0.5,15.5,1.6,22.3,1.1L202,18.8L116.3,65z"/> <path fill="#040000" d="M130.7,130.7c-52,0-65-30.6-65.2-30.9l-0.1-0.3V39.5l144.7-26.8l3.5,60.9l-0.4,0.3l-73.7,56.4h-0.2 C136.4,130.6,133.5,130.7,130.7,130.7L130.7,130.7z M67.2,99.3c1.1,2.4,16.1,32.7,71.8,29.4l72.9-55.9l-3.3-58.1L67.2,41V99.3z"/></g>
</svg>