<?xml version="1.0" encoding="utf-8"?>
<!-- Svg Vector Icons : http://www.onlinewebfonts.com/icon -->
<!DOCTYPE svg PUBLIC "-//W3C//DTD SVG 1.1//EN" "http://www.w3.org/Graphics/SVG/1.1/DTD/svg11.dtd">
<svg version="1.1" xmlns="http://www.w3.org/2000/svg" xmlns:xlink="http://www.w3.org/1999/xlink" x="0px" y="0px" viewBox="0 0 256 256" enable-background="new 0 0 256 256" xml:space="preserve">
<metadata> Svg Vector Icons : http://www.onlinewebfonts.com/icon </metadata>
<g> <path fill="#faf5be" d="M205.5,158.6c-20.9,20.6-102.6,11.6-126.3,6.9c-16.6-3.3-37.5-65.9-37.5-65.9l191-3.8 C232.7,95.8,220.7,143.7,205.5,158.6L205.5,158.6z"/> <path fill="#040000" d="M146.6,173.6c-1.1,0-2.1,0-3.2,0c-26.3-0.3-53-3.8-64.5-6.1c-4.3-0.9-8.9-4.9-14-12.5 c-3.9-5.7-8-13.4-12.3-22.8c-7.3-16-12.5-31.8-12.6-31.9l-0.9-2.6l196-3.9l-0.6,2.6c-0.5,2-12.3,48.6-27.7,63.9 c-5.1,5-13.9,8.7-26.2,10.9C171.2,172.7,159.8,173.6,146.6,173.6L146.6,173.6z M44.4,101.5c1.8,5.1,6.1,17,11.5,28.9 c9.1,20.1,17.5,31.9,23.6,33.1c11.4,2.3,37.9,5.8,63.9,6c31.3,0.3,52.3-4,60.8-12.4l1.3,1.5l-1.3-1.5c12.6-12.4,23.2-49.3,26-59.4 L44.4,101.5z"/> <path fill="#f8f199" d="M170.5,168.3c-22.8,5.1-84.4,4-108.5,0c-16.1-2.7-36.2-60.5-36.2-60.5h180.9 C206.8,107.9,186.5,164.8,170.5,168.3z"/> <path fill="#040000" d="M120.6,173.7c-1.3,0-2.5,0-3.8,0c-22-0.1-43.1-1.4-55-3.4c-4.2-0.7-8.7-4.4-13.6-11.3 c-3.7-5.2-7.7-12.3-11.8-21c-7-14.7-12.1-29.3-12.1-29.4l-0.9-2.7h186.2l-1,2.7c-0.1,0.1-5.2,14.5-12.2,29.1 c-9.6,20-18.2,31-25.4,32.6l-0.4-2l0.4,2C161,172.5,142.8,173.7,120.6,173.7z M28.6,109.9c1.8,4.9,5.9,15.6,11,26.3 c8.8,18.5,16.9,29.2,22.7,30.1c25,4.1,86,4.8,107.8,0c5.9-1.3,14-12.1,22.8-30.5c5.1-10.7,9.2-21.2,11.1-26H28.6z"/> <path fill="#ffffff" d="M229.1,114c-44.8,2.4-155.2,0.7-215.2,0C3.3,113.9,37.4,87.2,48,86.9c45.7-1.5,145-5,194.1,0 C249.2,87.6,236.2,113.6,229.1,114z"/> <path fill="#040000" d="M154.7,117.3c-40.4,0-86.3-0.6-121.8-1c-6.7-0.1-13.1-0.2-19-0.2c-3.6,0-3.8-2.7-3.9-3.3 c0-1.3,0.5-3.4,4.9-7.8c2.7-2.7,6.4-5.8,10.5-8.7c7.4-5.4,17.2-11.2,22.5-11.4l2.5-0.1C97,83.2,194,80,242.3,84.9 c0.9,0.1,3.8,0.7,3.7,5.3c-0.2,7.8-9.8,25.4-16.8,25.8C211.9,116.9,184.8,117.3,154.7,117.3L154.7,117.3z M14,112 c5.9,0.1,12.2,0.2,18.9,0.2c62,0.8,155.7,2,196.1-0.2c1.1-0.1,3.3-1.5,6.2-5.5c2.4-3.4,4.7-7.6,6-11.4c1.5-4.3,1.1-6,0.9-6.2 c0,0,0,0-0.2,0c-48-4.9-144.9-1.6-191.4-0.1l-2.5,0.1c-3.6,0.1-11.8,4.3-20.2,10.4c-3.9,2.8-7.5,5.7-10.1,8.3 C15.5,109.8,14.5,111.2,14,112L14,112z"/> <path fill="#dd594d" d="M229.1,112.1c-23.8,3.3-63,1.9-102.5,1.5c-45.6-0.4-91.4,0-111.3-1c-8.2-0.4,22.6-23.8,32.1-24 c44.2-1.4,153.4-5.8,193.7-0.3C247,89.2,235.3,111.3,229.1,112.1z"/> <path fill="#fdfada" d="M43.6,100.8c0,5.1,7.1,9.2,15.8,9.2s15.8-4.1,15.8-9.2c0-5.1-7.1-9.2-15.8-9.2S43.6,95.8,43.6,100.8z"/> <path fill="#fdfada" d="M71.6,100.8c0,4.7,5.8,8.5,12.9,8.5c7.1,0,12.9-3.8,12.9-8.5c0-4.7-5.8-8.5-12.9-8.5 C77.4,92.3,71.6,96.1,71.6,100.8z"/> <path fill="#24a839" d="M93.1,106.2l-43.6-3.9c-1.3-0.1-2.3-1.4-2.2-2.8l0.1-1.3c0.1-1.4,1.3-2.5,2.6-2.4l43.6,3.9 c1.3,0.1,2.3,1.4,2.2,2.8l-0.1,1.3C95.6,105.3,94.4,106.4,93.1,106.2z"/> <path fill="#f4d730" d="M179.1,157.4c-4.8,6.3-12.3,11.3-33.4,11.3c-21.1,0-38.5,2.2-38.5-5.9c0-5.2,17.1-20.3,38.2-20.3 C166.5,142.5,184.3,150.6,179.1,157.4z"/> <path fill="#040000" d="M169.4,92.6c1.7-0.1,3.5-0.4,5.2-0.7c0.5,0,1.1-0.1,1.6-0.1c1.9,0.2,4.5-0.4,5,2.3c0.8,3.4-1.3,6-3.6,6.7 c-0.5,0.2-1,0.2-1.5,0.2c-0.5,0.1-1,0.2-1.5,0.3c0.5,0.3,0.9,0.6,1.3,0.8c0.5,0.3,0.9,0.6,1.4,0.9c2.3,1.5,4.7,2.9,7,4.9 c1,1-0.8,2-1.3,1.6c-2.2-1.2-3.9-2.8-5.9-4.1c-0.4-0.2-0.8-0.5-1.2-0.7c-3.7-2.3-7.9-2.8-11.8-3.9c3.7-2.6,8.4-0.7,12.5-1.7 c0.5-0.2,1.1-0.5,1.6-0.8c1.1-1,1.1-3,0.3-4.4c-0.8-0.7-1.5-1.4-2.6-1.2c-0.6-0.1-1.3,0-2,0.1c-3.5,1.1-7.9,1-10.1,5.6 c-2.2,4,3.3,6.9,4.2,10.3c0.2,0.7-1.1,1-1.6,0.6c-2.6-2.4-4.8-5.9-4.3-9.9c0.3-3.7,3.2-5.6,5.8-7.1L169.4,92.6L169.4,92.6z"/> <path fill="#040000" d="M183.3,110.4c-0.2,0-0.4,0-0.6-0.2c-1.3-0.7-2.4-1.6-3.5-2.4c-0.8-0.6-1.6-1.2-2.4-1.7 c-0.4-0.3-0.8-0.5-1.2-0.7l0,0c-2.6-1.6-5.5-2.3-8.4-3c-1-0.2-2-0.5-3.1-0.8c0.4,1,1.1,2,2.1,3.3c1,1.2,2,2.4,2.4,3.8 c0.1,0.4,0,0.9-0.3,1.2c-0.5,0.5-1.5,0.5-2.1,0.2l-0.1-0.1c-2.4-2.3-5.1-5.9-4.4-10.5c0.4-4.3,4.1-6.4,6-7.5L168,92l1.4,0.1 c1.7-0.1,3.5-0.4,5.1-0.7h0c0.6-0.1,1.2-0.1,1.7-0.1h0.1c0.3,0,0.7,0,1.1,0.1c1.6,0,3.9,0.1,4.4,2.7c0.9,3.7-1.4,6.6-4,7.4 c-0.5,0.2-1,0.2-1.5,0.2c0.5,0.3,0.9,0.6,1.4,0.9c0.6,0.4,1.2,0.8,1.7,1.1c1.7,1.1,3.5,2.3,5.3,3.8l0,0c0.6,0.6,0.6,1.3,0.2,1.9 C184.6,110.1,183.9,110.4,183.3,110.4L183.3,110.4z M183.3,109.2c0.2,0,0.7-0.2,0.8-0.4c0,0,0-0.1-0.1-0.2 c-1.7-1.5-3.5-2.6-5.2-3.7c-0.6-0.4-1.2-0.7-1.7-1.1c-0.5-0.3-0.9-0.6-1.4-0.9c-0.2-0.1-0.5-0.3-0.7-0.5l-1.8-1.2l2-0.4 c0.3-0.1,0.6-0.1,0.9-0.2l0.1,0h0.1c0.4,0,0.9-0.1,1.3-0.2c2.1-0.7,4-3,3.2-6v0c-0.3-1.6-1.4-1.7-3.2-1.8c0.6,0.3,1.1,0.7,1.5,1.1 l0.1,0.1l0,0.1c0.8,1.5,0.9,3.9-0.5,5.1l-0.1,0.1c-0.5,0.3-1.1,0.7-1.7,0.9l-0.1,0c-1.7,0.4-3.4,0.3-5.1,0.3 c-2.1-0.1-4.1-0.1-5.9,0.6c0.6,0.2,1.2,0.3,1.8,0.4c2.9,0.7,5.9,1.4,8.7,3.1c0.4,0.2,0.8,0.4,1.2,0.7c0.9,0.5,1.7,1.2,2.5,1.8 C181,107.7,182.1,108.6,183.3,109.2L183.3,109.2z M166.9,109.1c0.2,0.1,0.5,0,0.7,0c-0.3-1.1-1.2-2.2-2.1-3.3 c-1.1-1.3-2.3-2.8-2.6-4.4l-0.1,0C163,104.6,165,107.3,166.9,109.1L166.9,109.1z M168.2,93.2c-2.4,1.4-5,3.2-5.3,6.5v0 c-0.1,0.5-0.1,1-0.1,1.5l0.1-0.1c-0.1-0.9,0-1.8,0.5-2.8c1.8-3.9,5.1-4.6,8.1-5.3c0.2,0,0.4-0.1,0.6-0.1c-0.9,0.1-1.8,0.2-2.6,0.3 h0L168.2,93.2L168.2,93.2z M174.1,93.6c-0.8,0.2-1.6,0.4-2.4,0.6c-2.8,0.6-5.7,1.3-7.3,4.7l0,0c-0.3,0.5-0.4,1-0.4,1.5 c2.4-1.6,5.1-1.5,7.7-1.4c1.6,0,3.3,0.1,4.8-0.3c0.5-0.2,0.9-0.5,1.4-0.8c0.7-0.7,0.8-2.3,0.2-3.5c-0.7-0.6-1.3-1.1-2.1-1l-0.1,0 h-0.1C175.4,93.5,174.8,93.5,174.1,93.6L174.1,93.6z"/> <path fill="#ffffff" d="M183.3,110.3c-0.2,0-0.3,0-0.4-0.1c-1.2-0.7-2.4-1.5-3.5-2.4c-0.8-0.6-1.6-1.2-2.4-1.7 c-0.4-0.3-0.8-0.5-1.2-0.7l0,0c-2.6-1.7-5.6-2.4-8.5-3.1c-1.1-0.3-2.2-0.5-3.2-0.8l-0.2-0.1c0.3,1.2,1.3,2.4,2.3,3.7 c1,1.2,2,2.4,2.3,3.7c0.1,0.3,0.1,0.6-0.1,0.9c-0.4,0.5-1.4,0.6-1.9,0.3l0,0c-2.4-2.2-5-5.9-4.4-10.3c0.3-3.9,3.2-5.8,6-7.4l0.1,0 l1.4,0.1c1.7-0.1,3.5-0.4,5.1-0.7c0.6-0.1,1.2-0.1,1.7-0.1h0c0.4,0,0.7,0,1.1,0.1c1.7,0,3.7,0.1,4.1,2.6c0.3,1.4,0.2,2.8-0.3,4 c-0.7,1.5-2,2.8-3.5,3.2c-0.5,0.2-1,0.2-1.5,0.2c-0.2,0-0.3,0.1-0.5,0.1c0.1,0.1,0.3,0.2,0.4,0.3c0.5,0.3,0.9,0.6,1.4,0.9 c0.6,0.4,1.2,0.8,1.7,1.1c1.7,1.1,3.5,2.3,5.3,3.8l0,0c0.6,0.6,0.4,1.3,0.3,1.5C184.6,109.9,183.9,110.3,183.3,110.3L183.3,110.3z  M176,104.6c0.4,0.2,0.8,0.4,1.2,0.7c0.9,0.5,1.7,1.2,2.5,1.8c1.1,0.8,2.2,1.6,3.4,2.3l0,0c0.2,0.1,1-0.1,1.2-0.5 c0-0.1,0.1-0.2-0.1-0.4c-1.7-1.5-3.5-2.7-5.2-3.8c-0.6-0.4-1.2-0.7-1.7-1.1c-0.5-0.3-0.9-0.6-1.4-0.9c-0.2-0.2-0.5-0.3-0.8-0.5 l-1.4-0.9l1.5-0.3c0.3-0.1,0.6-0.1,1-0.2h0c0.5,0,0.9-0.1,1.4-0.2c1.4-0.4,2.6-1.5,3.2-2.9c0.4-1,0.5-2.2,0.2-3.3v0 c-0.3-1.7-1.6-1.9-3.5-2c-0.4,0-0.8,0-1.2-0.1c-0.5,0-1,0-1.6,0.1c-1.6,0.3-3.5,0.6-5.2,0.7h0l-1.3-0.1c-2.5,1.5-5.2,3.3-5.5,6.7v0 c-0.6,4,1.9,7.4,4.1,9.5c0.3,0.2,1,0.1,1.1-0.1c-0.3-1.2-1.3-2.3-2.2-3.4c-1.7-2-3.5-4.4-2-7.2c1.8-3.8,4.9-4.5,7.9-5.2 c0.8-0.2,1.6-0.4,2.4-0.6h0c0.7-0.1,1.4-0.1,2-0.1c1.2-0.3,2,0.5,2.8,1.2l0,0l0,0.1c0.5,0.8,0.7,1.9,0.5,2.9c-0.1,0.8-0.4,1.6-1,2 l0,0c-0.5,0.3-1.1,0.7-1.6,0.9h0c-1.7,0.4-3.4,0.3-5.1,0.3c-2.3-0.1-4.5-0.1-6.5,0.9c0.8,0.2,1.5,0.4,2.3,0.6 C170.3,102.2,173.3,102.9,176,104.6L176,104.6z M174.1,93.5c-0.8,0.2-1.6,0.4-2.4,0.6c-2.9,0.7-5.9,1.3-7.5,4.8l0,0 c-0.4,0.7-0.5,1.3-0.4,1.9l0.2-0.2c2.3-1.6,5-1.5,7.7-1.5c1.6,0,3.3,0.1,4.9-0.3c0.5-0.2,1-0.5,1.5-0.8c0.5-0.4,0.6-1,0.7-1.5 c0.1-0.7-0.1-1.6-0.4-2.2c-0.7-0.7-1.4-1.3-2.4-1H176C175.4,93.3,174.7,93.3,174.1,93.5L174.1,93.5z"/> <path fill="#040000" d="M183.3,110.9c-0.3,0-0.5-0.1-0.7-0.2c-1.3-0.7-2.4-1.6-3.5-2.4c-0.8-0.6-1.6-1.2-2.4-1.7 c-0.4-0.3-0.8-0.5-1.1-0.6l-0.1,0c-2.6-1.6-5.5-2.3-8.3-3c-0.8-0.2-1.6-0.4-2.4-0.6c0.4,0.8,1.1,1.6,1.7,2.4c1,1.2,2,2.5,2.4,3.9 c0.2,0.5,0.1,1.1-0.2,1.5c-0.6,0.8-1.9,0.8-2.6,0.4l-0.1-0.1c-2.5-2.3-5.3-6.1-4.6-10.8c0.4-4.1,3.4-6.2,6.2-7.8l0.2-0.1l1.5,0.1 c1.7-0.1,3.5-0.4,5.1-0.7h0c0.6-0.1,1.2-0.1,1.7-0.1h0.1c0.3,0,0.7,0,1.1,0.1c1.7,0,4.1,0.1,4.6,3c0.4,1.5,0.2,3-0.3,4.4 c-0.7,1.7-2.2,3-3.9,3.6c-0.2,0.1-0.3,0.1-0.5,0.1c0.1,0.1,0.3,0.2,0.4,0.3c0.6,0.4,1.2,0.8,1.7,1.1c1.8,1.1,3.6,2.3,5.4,3.9l0,0 c0.7,0.8,0.7,1.6,0.4,2.2C185,110.3,184.1,110.8,183.3,110.9L183.3,110.9z M176.3,104.1c0.4,0.2,0.8,0.4,1.3,0.7 c0.9,0.6,1.7,1.2,2.5,1.8c1.1,0.8,2.1,1.6,3.3,2.3c0.1,0,0.2,0,0.3-0.1c-1.6-1.4-3.3-2.5-4.9-3.5c-0.6-0.4-1.2-0.8-1.8-1.1 c-0.4-0.3-0.9-0.6-1.4-0.9c-0.2-0.1-0.4-0.3-0.6-0.4l-2.8-1.8l1.4-0.3c-0.6,0-1.2,0-1.8,0c-1.5,0-3-0.1-4.4,0.2 c0.1,0,0.2,0.1,0.3,0.1C170.5,101.6,173.5,102.3,176.3,104.1L176.3,104.1z M167.1,108.7L167.1,108.7c-0.3-0.9-1.1-1.8-1.8-2.7 c-0.5-0.6-1.1-1.3-1.6-2.1C164.5,105.9,165.8,107.5,167.1,108.7L167.1,108.7z M174.2,94c-0.8,0.2-1.6,0.4-2.4,0.6 c-2.9,0.7-5.6,1.3-7.1,4.5l0,0c-0.1,0.2-0.2,0.3-0.2,0.5c2.3-1.2,4.8-1.2,7.3-1.1c1.6,0,3.3,0.1,4.8-0.3c0.4-0.2,0.9-0.4,1.3-0.7 c0.3-0.3,0.4-0.8,0.5-1.1c0.1-0.6,0-1.2-0.3-1.8c-0.7-0.6-1.2-1-1.8-0.8l-0.1,0l-0.1,0C175.4,93.9,174.8,93.9,174.2,94L174.2,94z  M178.8,93.1c0.1,0.1,0.2,0.2,0.3,0.3l0.1,0.1l0.1,0.1c0.5,1,0.8,2.2,0.6,3.3c-0.1,0.8-0.4,1.5-0.8,2c0.4-0.4,0.8-0.9,1-1.4 c0.4-0.9,0.5-1.9,0.2-2.9l0-0.1C180.2,93.6,179.8,93.2,178.8,93.1z"/> <path fill="#040000" d="M188.8,107c0.2,1,1.5,1.7,0.7,3c-0.5,0.3-1.3,0.6-1.6,0.3c-2-3.4-3.8-7.9-2.9-12.2c0-0.7,0.7-1,1.4-1 c0.2,0,0.7,0,0.9,0.4c0.5,2.7-0.6,5.4,0.7,7.7C188.3,105.7,188.6,106.3,188.8,107z M190,93.7c-0.2-0.5-0.5-0.9-0.4-1.6 c0.6-2,2.4-2.6,3.7-1.6c1.8,1.1-0.8,2.3-1.7,2.9C190.9,93.6,190.4,93.7,190,93.7z"/> <path fill="#040000" d="M188.3,111c-0.3,0-0.6-0.1-0.8-0.4l0-0.1c-2.7-4.6-3.7-8.9-3-12.6c0-0.4,0.2-0.7,0.4-0.9 c0.4-0.4,0.9-0.6,1.6-0.6c0.6,0,1.1,0.2,1.4,0.6l0.1,0.1l0,0.1c0.2,1.2,0.1,2.3,0.1,3.4c-0.1,1.5-0.2,2.9,0.5,4.1l0,0.1l0.1,0.3 c0.2,0.5,0.4,1,0.6,1.5l0,0.1c0.1,0.2,0.2,0.5,0.4,0.7c0.4,0.6,1,1.6,0.3,2.8l-0.1,0.1l-0.1,0.1C189.5,110.7,188.9,111,188.3,111 L188.3,111z M186.4,97.7c-0.3,0-0.6,0.1-0.7,0.2c-0.1,0.1-0.1,0.1-0.1,0.1l0,0.1c-0.7,3.4,0.3,7.4,2.8,11.7c0.1,0,0.4-0.1,0.8-0.3 c0.2-0.4,0.1-0.7-0.3-1.3c-0.2-0.3-0.4-0.7-0.5-1.1c-0.2-0.5-0.4-1-0.6-1.5l-0.1-0.3c-0.8-1.5-0.7-3.2-0.6-4.7 c0.1-0.9,0.1-1.9,0-2.9C186.8,97.7,186.7,97.7,186.4,97.7C186.5,97.7,186.4,97.7,186.4,97.7L186.4,97.7z M190.1,94.3H190l-0.4,0 l-0.1-0.4c0-0.1-0.1-0.2-0.1-0.4c-0.2-0.4-0.3-0.8-0.3-1.4V92l0-0.1c0.3-1.2,1.1-2,2-2.4c0.9-0.3,1.8-0.1,2.5,0.5 c0.6,0.4,0.9,0.8,0.9,1.3c0,1.1-1.3,1.8-2.3,2.4c-0.1,0.1-0.2,0.1-0.3,0.2l-0.1,0l-0.1,0C191.3,94.1,190.6,94.3,190.1,94.3 L190.1,94.3z M190.2,92.2c0,0.3,0.1,0.5,0.2,0.8v0c0.2,0,0.5-0.1,1-0.2c0.1,0,0.2-0.1,0.3-0.2c1.4-0.8,1.7-1.2,1.7-1.3 c0,0,0-0.1-0.3-0.3l-0.1,0c-0.5-0.4-1-0.5-1.5-0.3C190.8,90.9,190.4,91.5,190.2,92.2L190.2,92.2z"/> <path fill="#ffffff" d="M188.4,110.8c-0.2,0-0.5-0.1-0.6-0.3l0,0c-2.7-4.6-3.7-8.8-3-12.5c0-0.9,0.9-1.3,1.7-1.3 c0.2,0,0.8,0,1.2,0.5l0.1,0.1l0,0.1c0.2,1.1,0.1,2.3,0.1,3.3c-0.1,1.5-0.2,2.9,0.5,4.2l0,0l0.1,0.3c0.2,0.5,0.4,1,0.6,1.5l0,0.1 c0.1,0.3,0.2,0.5,0.4,0.8c0.4,0.6,1,1.5,0.3,2.6l0,0.1l-0.1,0C189.4,110.5,188.8,110.8,188.4,110.8L188.4,110.8z M188.2,110 c0.1,0.1,0.5,0,1.1-0.3c0.3-0.5,0.1-0.9-0.3-1.5c-0.2-0.3-0.4-0.6-0.5-1c-0.2-0.5-0.4-1-0.6-1.5l-0.1-0.3c-0.8-1.5-0.7-3.1-0.6-4.7 c0.1-1,0.1-2,0-3c-0.1-0.1-0.3-0.2-0.7-0.2c-0.6,0-1.1,0.2-1.1,0.6v0.1C184.7,101.6,185.6,105.6,188.2,110L188.2,110z M190.2,94.1 h-0.3l-0.1-0.2c0-0.1-0.1-0.2-0.1-0.4c-0.2-0.4-0.3-0.8-0.3-1.4v-0.1l0-0.1c0.3-1,0.9-1.8,1.7-2.1c0.8-0.4,1.7-0.2,2.5,0.3 c0.5,0.3,0.8,0.7,0.8,1.2c0,0.9-1,1.6-2.2,2.2c-0.1,0.1-0.2,0.1-0.3,0.2l-0.1,0C191,94,190.5,94.1,190.2,94.1z M189.9,92.2 c0,0.3,0.1,0.6,0.2,0.9c0,0.1,0.1,0.1,0.1,0.2c0.3,0,0.7-0.1,1.3-0.2c0.1-0.1,0.2-0.1,0.3-0.2c0.4-0.3,1.8-1,1.8-1.5 c0-0.1-0.1-0.2-0.4-0.4l0,0c-0.6-0.5-1.3-0.6-1.9-0.3C190.6,90.9,190.1,91.5,189.9,92.2z"/> <path fill="#040000" d="M188.4,111.4c-0.5,0-0.9-0.3-1-0.5l-0.1-0.1c-2.8-4.7-3.8-9.1-3.1-12.9c0.1-1.3,1.2-1.9,2.3-1.8 c0.7,0,1.2,0.3,1.6,0.7l0.1,0.2l0,0.3c0.2,1.2,0.1,2.4,0.1,3.5c-0.1,1.5-0.2,2.7,0.4,3.8l0.1,0.1l0.1,0.3c0.2,0.5,0.4,1,0.6,1.5 l0,0.1c0,0.1,0.2,0.4,0.3,0.6c0.4,0.6,1.2,1.8,0.3,3.3l-0.1,0.2l-0.2,0.1C189.5,111.1,188.9,111.4,188.4,111.4 C188.4,111.4,188.4,111.4,188.4,111.4L188.4,111.4z M185.9,98.2L185.9,98.2c-0.7,3.3,0.2,7.1,2.6,11.2c0.1,0,0.2-0.1,0.4-0.2 c0-0.1,0-0.3-0.3-0.7c-0.2-0.3-0.5-0.7-0.6-1.2c-0.2-0.5-0.4-1-0.6-1.4l-0.1-0.3c-0.9-1.6-0.8-3.4-0.7-5c0-0.8,0.1-1.7,0-2.5 c0,0-0.1,0-0.2,0C186.2,98.1,186,98.1,185.9,98.2L185.9,98.2z M190.1,94.7H190l-0.5,0l-0.2-0.6c0-0.1-0.1-0.2-0.1-0.3 c-0.2-0.4-0.4-0.9-0.4-1.7V92l0-0.1c0.3-1.2,1-2.1,2-2.5c1-0.4,2.1-0.3,3,0.4c0.9,0.5,1,1.2,1,1.7c0,1.2-1.2,2-2.5,2.8 c-0.1,0.1-0.2,0.1-0.3,0.2l-0.2,0.1C191.1,94.6,190.6,94.7,190.1,94.7C190.2,94.7,190.1,94.7,190.1,94.7L190.1,94.7z M190.5,92.3 c0,0.1,0,0.2,0.1,0.3c0.2,0,0.5-0.1,0.7-0.2c0.1,0,0.2-0.1,0.2-0.1c0.8-0.4,1.1-0.7,1.3-0.9l-0.1-0.1c-0.4-0.3-0.9-0.4-1.4-0.2 C191,91.4,190.7,91.8,190.5,92.3z"/> <path fill="#040000" d="M198.5,110.6c-3.2,0.3-5.7-3.5-5.4-7.5c0.3-2.3,1.1-4,2.7-5.3c0.4-0.3,0.9-0.5,1.4-0.7 c1.5-0.5,3.3-1.8,4.3,0.3c0.5,0.7,0.7,3.1-0.3,3.4c-1.6,1-2-3.4-4-2.2c-0.4,0.2-0.8,0.6-1.1,1.1c-0.7,1-1.2,2.5-1.4,3.9 c0,1.7,0.7,3.4,1.7,4.4c0.9,0.7,1.9,0.8,2.8,0.6c0.5-0.1,0.9-0.3,1.4-0.5c1.5,0.1,2.9-2.5,3.9-0.8c0.8,1.4-1.1,2-2,2.6 c-0.5,0.2-0.9,0.4-1.4,0.5c-0.5,0.1-1,0.2-1.5,0.2C199.2,110.6,198.8,110.6,198.5,110.6L198.5,110.6z"/> <path fill="#040000" d="M198.1,111.2c-1.3,0-2.5-0.6-3.5-1.7c-1.5-1.6-2.3-4.1-2.1-6.5v0c0.3-2.6,1.2-4.3,2.9-5.7l0,0 c0.4-0.3,0.9-0.6,1.5-0.8l0,0c0.2-0.1,0.5-0.2,0.8-0.3c1.3-0.5,3.1-1.3,4.2,0.8c0.5,0.7,0.7,2.2,0.4,3.1c-0.2,0.6-0.5,1-0.9,1.1 c-1.1,0.6-1.9-0.5-2.4-1.3c-0.7-1-1-1.3-1.5-1l0,0c-0.3,0.2-0.6,0.5-0.9,0.9c-0.6,0.9-1.1,2.3-1.3,3.6c0,1.4,0.6,2.9,1.5,3.9 c0.7,0.5,1.4,0.6,2.3,0.4c0.4-0.1,0.8-0.2,1.3-0.4l0.1,0h0.1c0.4,0,1-0.3,1.5-0.7c0.6-0.4,1.2-0.9,1.9-0.7c0.4,0.1,0.7,0.4,1,0.8 c0.3,0.5,0.3,0.9,0.2,1.3c-0.2,0.9-1.1,1.3-1.8,1.8c-0.2,0.1-0.4,0.2-0.6,0.3l-0.1,0c-0.5,0.2-1,0.4-1.5,0.6 c-0.5,0.1-1,0.2-1.6,0.3c-0.4,0-0.7,0-1.1,0C198.4,111.2,198.2,111.2,198.1,111.2L198.1,111.2z M193.6,103.1 c-0.2,2.1,0.5,4.2,1.7,5.6c0.9,0.9,1.9,1.4,3,1.3h0.1c0.3,0,0.7,0,1,0c0.5,0,0.9-0.1,1.4-0.2c0.4-0.1,0.9-0.3,1.3-0.5 c0.2-0.1,0.4-0.2,0.6-0.4c0.5-0.3,1.2-0.7,1.3-1c0,0,0-0.2-0.1-0.4c-0.1-0.1-0.2-0.3-0.3-0.3c-0.2,0-0.7,0.3-1,0.5 c-0.6,0.4-1.2,0.9-2,0.9c-0.5,0.2-1,0.4-1.4,0.5c-1.2,0.3-2.3,0.1-3.2-0.7l-0.1-0.1c-1.2-1.2-2-3.1-1.9-4.9v-0.1 c0.2-1.4,0.7-3,1.5-4.1c0.4-0.6,0.9-1,1.3-1.3c1.5-0.9,2.4,0.5,3,1.3c0.6,0.9,0.8,1,1,0.9l0.1,0l0.1,0c0.1,0,0.2-0.1,0.2-0.3 c0.2-0.7,0-1.7-0.2-2.1l-0.1-0.1c-0.5-1.1-1.3-0.9-2.9-0.3c-0.3,0.1-0.5,0.2-0.8,0.3c-0.5,0.2-0.9,0.4-1.3,0.7 C194.7,99.4,193.9,100.9,193.6,103.1L193.6,103.1z"/> <path fill="#ffffff" d="M198.2,111c-1.4,0-2.8-0.8-3.8-2.2c-1.1-1.6-1.7-3.7-1.5-5.8c0.3-2.5,1.2-4.3,2.8-5.6l0,0 c0.4-0.3,0.9-0.5,1.4-0.8c0.3-0.1,0.5-0.2,0.8-0.3c1.3-0.5,2.9-1.2,3.9,0.7c0.4,0.6,0.6,1.9,0.4,2.8c-0.1,0.6-0.4,1-0.9,1.2 c-0.9,0.5-1.6-0.4-2.1-1.2c-0.7-1-1.1-1.5-1.9-1l0,0c-0.3,0.2-0.7,0.5-1,1c-0.7,1-1.2,2.4-1.3,3.6c0,1.4,0.6,3,1.6,4.1 c0.8,0.6,1.6,0.7,2.6,0.5c0.4-0.1,0.8-0.2,1.3-0.5l0.1,0h0.1c0.5,0,1.1-0.4,1.6-0.7c0.8-0.6,1.7-1.2,2.5,0.1 c0.2,0.4,0.3,0.8,0.2,1.2c-0.2,0.8-1,1.3-1.8,1.7c-0.2,0.1-0.4,0.2-0.6,0.3l0,0c-0.5,0.2-1,0.4-1.5,0.6c-0.5,0.1-1,0.2-1.5,0.3 c-0.4,0-0.7,0-1.1,0H198.2L198.2,111z M195.9,98.1c-1.5,1.2-2.3,2.7-2.5,5c-0.2,1.9,0.3,3.7,1.4,5.1c1,1.3,2.3,2,3.7,1.9h0 c0.4,0,0.7,0,1.1,0c0.5,0,1-0.1,1.4-0.2c0.5-0.1,0.9-0.3,1.4-0.5c0.2-0.1,0.4-0.2,0.6-0.4c0.6-0.3,1.3-0.7,1.4-1.2 c0,0,0-0.2-0.1-0.5c-0.4-0.7-0.8-0.5-1.7,0.2c-0.6,0.4-1.2,0.8-1.9,0.8c-0.5,0.2-1,0.4-1.4,0.5c-1.1,0.3-2.1,0.1-3-0.6l0,0 c-1.2-1.2-1.9-3.1-1.9-4.8v-0.1c0.2-1.4,0.7-3,1.5-4.1c0.4-0.6,0.8-1,1.2-1.2c1.3-0.8,2,0.3,2.6,1.2c0.5,0.8,0.9,1.3,1.4,0.9l0.1,0 c0.1,0,0.3-0.1,0.4-0.6c0.2-0.7,0-1.7-0.3-2.1l0-0.1c-0.7-1.3-1.7-1-3.2-0.4c-0.3,0.1-0.5,0.2-0.8,0.3 C196.8,97.6,196.3,97.8,195.9,98.1L195.9,98.1z"/> <path fill="#040000" d="M198.1,111.6c-1.6,0-3.1-0.9-4.2-2.4c-1.2-1.7-1.8-4-1.6-6.3v0c0.3-2.7,1.3-4.6,3.1-6l0.1,0 c0.4-0.3,1-0.6,1.5-0.8l0,0c0.2-0.1,0.5-0.2,0.8-0.3c1.3-0.5,3.4-1.4,4.6,0.9c0.5,0.8,0.7,2.2,0.5,3.3c-0.2,0.8-0.6,1.4-1.2,1.6 c-1.3,0.7-2.2-0.6-2.7-1.4c-0.8-1.1-0.9-1.1-1.2-0.9l-0.1,0c-0.2,0.1-0.5,0.4-0.8,0.8c-0.6,0.9-1.1,2.2-1.2,3.3 c0,1.3,0.5,2.6,1.4,3.5c0.6,0.5,1.3,0.6,2.1,0.4c0.4-0.1,0.8-0.2,1.3-0.4l0.2-0.1l0.2,0c0.4,0,0.8-0.3,1.3-0.6 c0.6-0.4,1.3-0.9,2.1-0.7c0.5,0.1,0.9,0.4,1.2,1c0.3,0.5,0.4,1.1,0.3,1.6c-0.2,1.1-1.2,1.6-2,2.1c-0.2,0.1-0.4,0.2-0.5,0.3 l-0.1,0.1c-0.5,0.3-1,0.5-1.6,0.6c-0.5,0.1-1.1,0.2-1.6,0.3c-0.4,0-0.7,0.1-1.1,0C198.4,111.6,198.3,111.6,198.1,111.6 C198.1,111.6,198.1,111.6,198.1,111.6z M196.2,108.9c0.7,0.5,1.4,0.7,2.1,0.6h0.1c0.4,0,0.7,0,1,0c0.5,0,0.9-0.1,1.3-0.2 c0.4-0.1,0.8-0.3,1.2-0.5c0.2-0.1,0.4-0.2,0.6-0.4c0.3-0.1,0.9-0.5,1.1-0.8c0,0,0,0,0,0c0-0.1-0.1-0.1-0.1-0.1 c-0.2,0-0.7,0.4-0.8,0.5c-0.6,0.4-1.3,0.9-2.1,0.9c-0.5,0.2-1,0.4-1.4,0.5C198.2,109.7,197.2,109.5,196.2,108.9L196.2,108.9z  M194.7,107.2c0.1,0.3,0.3,0.5,0.4,0.7c0,0,0,0,0,0.1L194.7,107.2z M198.7,97.4c0.6,0.4,1.1,1,1.4,1.5c0.2,0.2,0.5,0.7,0.6,0.8 c0,0,0,0,0,0l0.2-0.1c0,0,0-0.1,0.1-0.2c0.1-0.6-0.1-1.4-0.2-1.5l-0.1-0.2C200.4,97,200,96.9,198.7,97.4L198.7,97.4z"/> <path fill="#040000" d="M221.4,106.7c0,0.4-0.2,0.8-0.6,1.3c-3,3.2-7.5,3.8-10.8,1.6c-1.8-1.4-2.8-3.5-3.3-5.9c-0.2-2,0.1-4,1.7-5 c2.9-1.9,6-1.8,9.2-1.7c1.6,0.1,3.6,2.1,2,4.1c-2.7,2.9-8.1,1.7-8.7,4.4c-0.9,5.4,7,2.6,10.2,0.5 C221.2,106.1,221.4,106.3,221.4,106.7z M209,103.2c2.4-1.9,6.8-0.1,8.2-4.1c-2.6-0.8-5.2,0.2-7.6,1.9 C209.1,101.6,209,102.4,209,103.2L209,103.2z"/> <path fill="#040000" d="M214.3,111.5c-1.6,0-3.2-0.4-4.6-1.4l0,0c-1.8-1.4-3-3.5-3.5-6.2v-0.1c-0.3-2.7,0.4-4.6,1.9-5.6 c3-2,6.3-1.9,9.5-1.8c1.2,0,2.4,1,2.9,2.1c0.4,1,0.2,2.1-0.5,3l0,0c-1.4,1.6-3.5,2-5.3,2.5c-1.6,0.4-3,0.7-3.2,1.7 c-0.2,1.5,0.3,1.9,0.5,2c1.6,1.2,6.4-0.5,8.8-2.2l0.1-0.1l0.2,0c0.5,0,1,0.4,1,1.2c0,0.6-0.3,1.1-0.8,1.7 C219.3,110.5,216.8,111.5,214.3,111.5L214.3,111.5z M210.2,109.2c3.2,2,7.4,1.4,10.1-1.5c0.3-0.3,0.4-0.5,0.5-0.7 c-2.5,1.5-7.4,3.4-9.6,1.9c-0.6-0.4-1.3-1.4-1-3.2v0c0.4-1.7,2.2-2.2,4.1-2.6c1.7-0.4,3.5-0.8,4.7-2.1c0.4-0.5,0.5-1.1,0.3-1.7 c-0.3-0.8-1.2-1.4-1.9-1.4c-3.1-0.1-6.1-0.2-8.9,1.6c-1.2,0.7-1.6,2.2-1.4,4.4C207.7,106.1,208.7,108,210.2,109.2z M208.4,104.4 l0-1.2c0-1,0.2-1.9,0.7-2.6l0.1-0.1l0.1-0.1c2.7-2,5.5-2.7,8-1.9l0.6,0.2l-0.2,0.6c-1,2.8-3.2,3.1-5.2,3.4c-1.2,0.2-2.4,0.3-3.2,1 L208.4,104.4L208.4,104.4z M210,101.4c-0.1,0.2-0.3,0.4-0.3,0.7c0.8-0.4,1.8-0.5,2.7-0.6c1.7-0.2,3.2-0.5,4-2 C214.4,99.2,212.2,99.8,210,101.4L210,101.4z"/> <path fill="#ffffff" d="M214.4,111.3c-1.6,0-3.2-0.4-4.6-1.3l0,0c-1.7-1.4-2.9-3.4-3.4-6.1v0c-0.3-2.6,0.3-4.5,1.8-5.4 c3-2,6.2-1.9,9.3-1.7c1,0,2.4,0.9,2.8,2.3c0.3,0.9,0,1.8-0.6,2.5c-1.4,1.5-3.4,2-5.2,2.4c-1.7,0.4-3.2,0.7-3.4,1.8 c-0.1,0.9,0,1.6,0.4,2c1.5,1.6,6.6-0.2,9.3-2l0.1,0h0.1c0.5,0,0.7,0.4,0.7,1c0,0.5-0.3,1.1-0.8,1.6 C219.1,110.3,216.7,111.3,214.4,111.3L214.4,111.3z M210.1,109.3c3.3,2.1,7.6,1.5,10.5-1.6c0.3-0.4,0.5-0.7,0.5-1 c0-0.1,0-0.2-0.1-0.2c-2.6,1.7-8,3.8-9.9,1.9c-0.4-0.4-0.9-1.3-0.6-2.8c0.3-1.6,2-2,3.9-2.4c1.7-0.4,3.6-0.8,4.9-2.2 c0.4-0.5,0.6-1.1,0.4-1.6c-0.3-0.9-1.3-1.7-2.2-1.8c-3-0.1-6.2-0.2-9,1.7c-1.2,0.8-1.7,2.3-1.5,4.6 C207.4,106.2,208.5,108.1,210.1,109.3L210.1,109.3z M208.7,103.9l0-0.7c0-1,0.2-1.9,0.7-2.5l0,0l0,0c2.7-2,5.4-2.6,7.8-1.9l0.4,0.1 l-0.2,0.5c-0.9,2.6-3,2.9-5,3.2c-1.3,0.2-2.4,0.3-3.3,1.1L208.7,103.9z M209.8,101.3c-0.2,0.3-0.4,0.7-0.5,1.2 c0.9-0.5,2-0.7,3.1-0.8c1.8-0.3,3.4-0.5,4.3-2.3C214.5,98.9,212.2,99.6,209.8,101.3L209.8,101.3z"/> <path fill="#040000" d="M214.3,111.9c-1.7,0-3.3-0.5-4.8-1.4l-0.1,0c-1.8-1.4-3.1-3.6-3.6-6.5l0-0.1c-0.4-3.7,0.9-5.3,2.1-6 c3.1-2,6.4-1.9,9.6-1.8c1.3,0,2.8,1.1,3.3,2.7c0.3,1.1,0.1,2.2-0.7,3.1l0,0c-1.5,1.7-3.6,2.1-5.4,2.6c-1.5,0.3-2.8,0.6-3,1.4 c-0.2,1,0.1,1.3,0.2,1.4c1.2,1.2,5.8-0.2,8.7-2.1l0.2-0.1l0.3,0c0.8,0,1.3,0.7,1.3,1.7c0,0.7-0.3,1.3-0.9,2 C219.4,110.8,216.9,112,214.3,111.9C214.3,111.9,214.3,111.9,214.3,111.9L214.3,111.9z M210.4,108.8c2.7,1.7,6.2,1.4,8.8-0.6 c-2.9,1.3-6.7,2.3-8.4,0.6c-0.5-0.5-1.1-1.5-0.8-3.4v0c0.3-1.2,1-1.8,2-2.2c-1,0.1-1.8,0.3-2.5,0.9l-1.3,1.1l0-1.9 c0-1.2,0.3-2.1,0.8-2.9l0.1-0.1l0.1-0.1c1.2-0.9,2.5-1.6,3.7-1.9c-1.4,0.2-2.8,0.6-4.1,1.5c-1,0.6-1.4,1.9-1.2,3.9 C208,105.9,208.9,107.7,210.4,108.8z M218.3,98.4l-0.4,1.1c-0.4,1.3-1.1,2.1-1.9,2.6c1.1-0.3,2.1-0.8,2.8-1.6 c0.4-0.5,0.3-0.9,0.3-1.1C219,99.1,218.7,98.7,218.3,98.4z M215.3,99.9c-1.4,0-3,0.5-4.5,1.5c0.5-0.1,1-0.2,1.6-0.3 c1.4-0.2,2.6-0.4,3.4-1.2C215.6,99.9,215.4,99.9,215.3,99.9z M217.2,98.1c0,0,0.1,0,0.1,0l0.9,0.3c-0.3-0.2-0.6-0.3-0.9-0.3 C217.4,98.1,217.3,98.1,217.2,98.1L217.2,98.1z"/></g>
</svg>