<?xml version="1.0" encoding="utf-8"?>
<!-- Svg Vector Icons : http://www.onlinewebfonts.com/icon -->
<!DOCTYPE svg PUBLIC "-//W3C//DTD SVG 1.1//EN" "http://www.w3.org/Graphics/SVG/1.1/DTD/svg11.dtd">
<svg version="1.1" xmlns="http://www.w3.org/2000/svg" xmlns:xlink="http://www.w3.org/1999/xlink" x="0px" y="0px" viewBox="0 0 256 256" enable-background="new 0 0 256 256" xml:space="preserve">
<metadata> Svg Vector Icons : http://www.onlinewebfonts.com/icon </metadata>
<g> <path fill="#5f81c1" d="M173.8,238.2H95.4c-12.8,0-23.3-10.5-23.3-23.3V63.6c0-12.8,10.5-31.1,23.3-31.1h78.4 c12.8,0,23.3,18.2,23.3,31.1v143.6C197.1,220,186.6,238.2,173.8,238.2z"/> <path fill="#040000" d="M161.4,32.5c17.1,0,31.1,14,31.1,31.1v143.6c0,17.1-14,31.1-31.1,31.1H94.6c-17.1,0-31.1-14-31.1-31.1V63.6 c0-17.1,14-31.1,31.1-31.1H161.4 M161.4,24.8H94.6c-21.3,0-38.8,17.5-38.8,38.8v143.6c0,21.3,17.5,38.8,38.8,38.8h66.8 c21.3,0,38.8-17.5,38.8-38.8V63.6C200.2,42.2,182.7,24.8,161.4,24.8z"/> <path fill="#040000" d="M125.3,77.9c-10.1,0-18.6-0.4-26-1.6c-7.4-0.8-14.4-2.3-20.2-3.9c-1.9-0.4-3.5-2.7-2.7-4.7 c0.4-1.9,2.7-3.5,4.7-2.7c5.8,1.6,12.4,3.1,19.4,3.9c7.4,1.2,15.1,1.6,25.2,1.6c26.8,0,52.8-5.8,64.4-14c1.9-1.2,4.3-0.8,5.4,0.8 c1.2,1.9,0.8,4.3-0.8,5.4C181.2,71.7,154,77.9,125.3,77.9z"/> <path fill="#506a9f" d="M134.2,194c-21.7,0-39.6-17.9-39.6-39.6s17.9-39.6,39.6-39.6c21.7,0,39.6,17.9,39.6,39.6 S155.9,194,134.2,194z M134.2,122.6c-17.5,0-31.8,14.4-31.8,31.8s14.4,31.8,31.8,31.8c17.5,0,31.8-14.4,31.8-31.8 S151.7,122.6,134.2,122.6z"/> <path fill="#506a9f" d="M133,144.7c-10.5,0-20.6-4.3-27.9-11.6c-1.6-1.6-1.6-3.9,0-5.4c7.4-8.2,17.9-12.8,29.1-12.8 c10.5,0,20.6,4.3,27.9,11.6c1.6,1.6,1.6,3.9,0,5.4C154.4,140,143.9,144.7,133,144.7z M113.6,130.3c5.4,4.3,12.4,6.6,19.4,6.6 c7.4,0,14.8-2.7,20.6-7.8c-5.4-4.3-12.4-6.6-19.4-6.6C126.4,122.6,119.1,125.3,113.6,130.3z M134.6,193.6 c-12.8,0-24.5-5.8-31.8-15.9c-1.2-1.6-1.2-3.1,0-4.7c7-9.3,18.6-14.7,30.7-14.7c12.4,0,24.1,5.8,31.8,15.9c1.2,1.6,1.2,3.5,0,4.7 C158.3,188.2,146.6,193.6,134.6,193.6z M110.9,175.4c5.8,6.6,14.4,10.5,23.7,10.5c8.5,0,16.7-3.5,22.5-9.3 c-6.2-6.6-14.8-10.5-23.7-10.5C124.9,166,116.4,169.5,110.9,175.4z"/> <path fill="#ffffff" d="M73.3,30.2c0,9,24.5,16.3,54.7,16.3s54.7-7.3,54.7-16.3l0,0c0-9-24.5-16.3-54.7-16.3S73.3,21.2,73.3,30.2 L73.3,30.2z"/> <path fill="#040000" d="M128,50.4c-29.1,0-58.6-7-58.6-20.2C69.4,17,98.9,10,128,10c29.1,0,58.6,7,58.6,20.2 C186.6,43.4,157.1,50.4,128,50.4z M128,17.8c-33,0-50.8,8.2-50.8,12.4c0,4.3,17.9,12.4,50.8,12.4c33,0,50.8-8.2,50.8-12.4 C178.8,25.9,161,17.8,128,17.8z"/> <path fill="#ffffff" d="M130.7,30.2c0,3,8,5.4,17.9,5.4c9.9,0,17.9-2.4,17.9-5.4s-8-5.4-17.9-5.4C138.7,24.8,130.7,27.2,130.7,30.2 z"/> <path fill="#040000" d="M148.6,39.5c-3.5,0-21.7-0.4-21.7-9.3c0-8.9,18.2-9.3,21.7-9.3c3.5,0,21.7,0.4,21.7,9.3 C170.3,39.1,152.1,39.5,148.6,39.5z M136.5,30.2c2.3,0.8,6.6,1.6,12,1.6c5.4,0,9.7-0.8,12-1.6c-2.3-0.8-6.6-1.6-12-1.6 C143.1,28.6,138.9,29.4,136.5,30.2z"/></g>
</svg>