<?xml version="1.0" encoding="utf-8"?>
<!-- Svg Vector Icons : http://www.onlinewebfonts.com/icon -->
<!DOCTYPE svg PUBLIC "-//W3C//DTD SVG 1.1//EN" "http://www.w3.org/Graphics/SVG/1.1/DTD/svg11.dtd">
<svg version="1.1" xmlns="http://www.w3.org/2000/svg" xmlns:xlink="http://www.w3.org/1999/xlink" x="0px" y="0px" viewBox="0 0 256 256" enable-background="new 0 0 256 256" xml:space="preserve">
<metadata> Svg Vector Icons : http://www.onlinewebfonts.com/icon </metadata>
<g> <path fill="#cf887f" d="M223.7,1.3L10.3,56l177.4,88.4c29.1-18.3,49.2-41.7,55.9-68.3C250.3,49.6,242.5,23.8,223.7,1.3z"/> <path fill="#b3766c" d="M245.9,59.7c0,1-0.1,1.9-0.1,2.8c0,0.2,0,0.5,0,0.7c0,0.7-0.1,1.5-0.2,2.2c0,0.3,0,0.5-0.1,0.8 c-0.1,1-0.2,1.9-0.4,2.8c-0.1,1-0.3,1.9-0.5,2.9c-0.1,0.4-0.2,0.9-0.3,1.3l-0.1,0.7c-0.1,0.7-0.3,1.4-0.5,2.2 c-0.2,0.8-0.4,1.6-0.6,2.4c-0.1,0.3-0.1,0.5-0.2,0.8c-0.1,0.5-0.3,1.1-0.5,1.6c-0.1,0.3-0.2,0.6-0.3,0.9c-0.1,0.5-0.3,1-0.5,1.4 c-0.1,0.3-0.2,0.6-0.4,1c-0.1,0.4-0.3,0.8-0.5,1.2c-0.4,0.9-0.7,1.8-1.1,2.7c0,0,0,0.1-0.1,0.2c-0.4,1-0.8,1.9-1.3,2.8l-0.4,0.8 c-0.3,0.7-0.7,1.4-1.1,2.1l-0.4,0.8c-0.5,0.9-1,1.8-1.5,2.7c0,0,0,0,0,0.1c-0.6,1-1.1,2-1.8,3c-0.1,0.3-0.3,0.5-0.5,0.8 c-0.5,0.9-1.1,1.8-1.7,2.7c0,0.1-0.1,0.2-0.2,0.3c-0.6,1-1.3,1.9-2,2.9c-0.2,0.2-0.4,0.5-0.6,0.7c-0.6,0.8-1.2,1.6-1.9,2.5 c-0.1,0.1-0.2,0.3-0.4,0.5l-0.6,0.7l-1.1,1.4c-0.2,0.3-0.5,0.5-0.6,0.8c-0.4,0.4-0.7,0.8-1.1,1.2c-0.2,0.3-0.5,0.5-0.7,0.8 c-0.4,0.4-0.7,0.8-1.1,1.2c-0.2,0.3-0.5,0.5-0.7,0.8c-0.4,0.4-0.7,0.8-1.1,1.2c-0.2,0.3-0.5,0.5-0.8,0.8c-0.4,0.4-0.8,0.8-1.2,1.2 c-0.2,0.2-0.5,0.5-0.7,0.7l-1.4,1.4c-0.2,0.2-0.4,0.4-0.6,0.5c-0.6,0.6-1.3,1.3-2,1.9c-0.8,0.8-1.6,1.5-2.5,2.3 c-0.3,0.2-0.5,0.5-0.8,0.7c-0.6,0.5-1.2,1.1-1.8,1.6c-0.3,0.3-0.6,0.5-0.9,0.8c-0.6,0.5-1.2,1-1.9,1.5c-0.3,0.2-0.5,0.5-0.9,0.7 c-0.9,0.7-1.7,1.4-2.7,2.1c0,0-0.1,0.1-0.1,0.1c-0.9,0.7-1.9,1.4-2.8,2.1c-0.3,0.2-0.6,0.4-0.9,0.6c-0.7,0.5-1.4,1-2.1,1.5 c-0.3,0.2-0.7,0.5-1.1,0.7c-0.7,0.5-1.4,1-2.1,1.4c-0.3,0.2-0.6,0.4-1,0.6c-1,0.7-2.1,1.3-3.1,2l-0.3,109.9c1.1-0.6,2.1-1.3,3.1-2 c0.3-0.2,0.6-0.4,1-0.6c0.7-0.5,1.4-1,2.1-1.4c0.4-0.2,0.7-0.5,1.1-0.7c0.7-0.5,1.4-1,2.1-1.5c0.3-0.2,0.6-0.4,0.9-0.6 c1-0.7,1.9-1.4,2.8-2.1c0,0,0.1-0.1,0.1-0.1l2.6-2.1c0.3-0.2,0.6-0.5,0.9-0.7c0.6-0.5,1.2-1,1.9-1.5c0.3-0.3,0.6-0.5,0.9-0.8 c0.6-0.5,1.2-1.1,1.8-1.6c0.3-0.2,0.5-0.5,0.8-0.7c0.9-0.7,1.7-1.5,2.5-2.3l0,0c0.7-0.6,1.3-1.2,2-1.9c0.2-0.2,0.4-0.4,0.6-0.5 l1.4-1.4c0.2-0.2,0.5-0.5,0.7-0.7c0.4-0.4,0.8-0.8,1.2-1.2c0.3-0.3,0.5-0.5,0.8-0.8c0.4-0.4,0.7-0.8,1.1-1.2 c0.3-0.3,0.5-0.6,0.7-0.8c0.4-0.4,0.7-0.8,1.1-1.2c0.2-0.3,0.5-0.6,0.7-0.8c0.4-0.4,0.7-0.8,1.1-1.2c0.2-0.3,0.5-0.5,0.6-0.8 l1.1-1.4l0.5-0.7c0,0,0.1-0.1,0.1-0.1c0.1-0.1,0.2-0.2,0.2-0.3c0.6-0.8,1.3-1.6,1.9-2.5c0.2-0.2,0.4-0.5,0.5-0.7 c0.7-1,1.4-1.9,2-2.9c0-0.1,0.1-0.2,0.2-0.3c0.6-0.9,1.2-1.8,1.7-2.7c0.1-0.3,0.3-0.5,0.5-0.8c0.6-1,1.2-2,1.8-3c0,0,0,0,0,0 c0.5-0.9,1-1.8,1.5-2.7l0.4-0.8c0.4-0.7,0.7-1.4,1.1-2.1l0.4-0.8c0.5-1,0.9-1.9,1.3-2.8c0,0,0-0.1,0.1-0.2c0.4-0.9,0.7-1.8,1.1-2.7 c0-0.1,0.1-0.2,0.1-0.4c0.1-0.3,0.2-0.6,0.3-0.9c0.1-0.3,0.2-0.6,0.4-1c0.2-0.5,0.3-1,0.5-1.4c0.1-0.3,0.2-0.6,0.3-0.9 c0.2-0.5,0.3-1.1,0.5-1.6c0.1-0.3,0.1-0.5,0.2-0.8c0.2-0.8,0.5-1.6,0.6-2.4c0.2-0.7,0.4-1.4,0.5-2.2l0.1-0.7c0-0.3,0.1-0.6,0.2-1 c0-0.1,0-0.2,0-0.3c0.2-1,0.4-1.9,0.5-2.9c0.1-1,0.3-1.9,0.4-2.8c0-0.3,0-0.5,0.1-0.8c0.1-0.7,0.1-1.5,0.2-2.2c0-0.2,0-0.5,0-0.7 c0-1,0.1-1.9,0.1-2.8v-0.1c0-0.6,0-1.3,0-2l0.3-109.9C246,58.3,246,59,245.9,59.7L245.9,59.7z"/> <path fill="#f9e7c8" d="M10.5,56.4l-0.3,109.9l177.4,88.3l0.3-109.9L10.5,56.4z"/> <path fill="#c28f8d" d="M188.3,144.3l-6.4-3L10.3,55.8L10,74.4l27.4,13.6c2.5,1.2,4,3.8,4,6.5v11.2c0,1.8,1.3,3.4,3.1,3.5 c1.9,0.1,3.5-1.4,3.5-3.3v-2.6c0.3-1.5,1.6-2.7,3.3-2.7c1.6,0,2.9,1.1,3.3,2.7v5.8c0,1.8,1.3,3.4,3.1,3.5c1.9,0.1,3.5-1.4,3.5-3.3 v-6v4.1c0-1.9,1.6-3.4,3.5-3.3c1.8,0.1,3.1,1.7,3.1,3.5v3.1c0,1.6,1.1,3,2.6,3.3c2.1,0.4,4-1.2,4-3.3v-2.7c0-0.8,0.8-1.3,1.6-1 l97.8,48.7l-0.1,28.6L10.3,103.3L10,122.7l77.3,38.5c1.3,0.6,2.1,2,2.1,3.4v6.8c0,1.8,1.3,3.4,3.1,3.5c1.9,0.1,3.5-1.4,3.5-3.3 v-0.9c0.3-1.5,1.6-2.7,3.3-2.7c1.6,0,2.9,1.1,3.3,2.7v8.6c0,1.8,1.3,3.4,3.1,3.5c1.9,0.1,3.5-1.4,3.5-3.3v-1.6 c0-1.8,1.3-3.4,3.1-3.5c1.9-0.1,3.5,1.4,3.5,3.3v3.1c0,1.8,1.3,3.4,3.1,3.5c1.9,0.1,3.5-1.4,3.5-3.3v-1.4c0-0.5,0.5-0.7,0.9-0.5 l50.4,25.1l-0.1,24.6L10.3,147.4L10,166l177.4,88.3v-0.5l0.5,0.2L188.3,144.3z M54.6,102.3L54.6,102.3L54.6,102.3z M102.6,172.4 C102.6,172.3,102.6,172.4,102.6,172.4z"/> <path fill="#c28f8d" d="M74.4,123.2v-3.1c0-1.9-1.6-3.4-3.5-3.3c-1.8,0.1-3.1,1.6-3.1,3.4v2.8c0,1.8,1.3,3.3,3.1,3.4 C72.8,126.6,74.4,125.1,74.4,123.2z M109.1,189.8v-2.2c0-1.8-1.5-3.3-3.3-3.3s-3.3,1.5-3.3,3.3v2.2c0,1.8,1.5,3.3,3.3,3.3 S109.1,191.7,109.1,189.8z"/> <path fill="#b3746a" d="M119.4,65.2c0,6.3,14.3,11.4,32,11.4s32-5.1,32-11.4c0-6.3-14.3-11.4-32-11.4 C133.7,53.8,119.4,58.9,119.4,65.2C119.4,65.2,119.4,65.2,119.4,65.2z"/> <path fill="#b3746a" d="M98,47.1c0,4.3,9.8,7.8,21.9,7.8c12.1,0,21.9-3.5,21.9-7.8c0,0,0,0,0,0c0-4.3-9.8-7.8-21.9-7.8 C107.8,39.3,98,42.8,98,47.1z"/> <path fill="#813d4d" d="M97.3,25.9c0,12.5,10.1,22.7,22.7,22.7c12.5,0,22.7-10.1,22.7-22.7l0,0c0-12.5-10.1-22.7-22.7-22.7 C107.4,3.2,97.3,13.4,97.3,25.9L97.3,25.9z"/> <path fill="#7c3040" d="M122,3.7c6.9,2.7,11.8,9.5,11.8,17.3c0,10.3-8.3,18.6-18.6,18.6c-8.5,0-15.7-5.7-17.9-13.5 c0,12.5,10.2,22.7,22.7,22.7c12.5,0,22.7-10.2,22.7-22.7C142.6,14.4,133.5,4.7,122,3.7L122,3.7z"/> <path fill="#9e6e7a" d="M103.9,17.4c0,3.1,2.5,5.6,5.6,5.6c3.1,0,5.6-2.5,5.6-5.6c0-3.1-2.5-5.6-5.6-5.6 C106.4,11.8,103.9,14.3,103.9,17.4z"/> <path fill="#813d4d" d="M126.4,42.4c0,13.6,11,24.6,24.6,24.6c13.6,0,24.6-11,24.6-24.6c0,0,0,0,0,0c0-13.6-11-24.6-24.6-24.6 C137.4,17.7,126.4,28.7,126.4,42.4z"/> <path fill="#7b2f3e" d="M153.2,18.2c7.5,3,12.9,10.3,12.9,18.9c0,11.2-9.1,20.3-20.3,20.3c-9.2,0-17-6.2-19.5-14.6 c0,13.6,11,24.6,24.6,24.6c13.6,0,24.6-11,24.6-24.6C175.6,29.9,165.8,19.4,153.2,18.2L153.2,18.2z"/> <path fill="#9e717d" d="M133.6,33.2c0,3.4,2.7,6.1,6.1,6.1c3.4,0,6.1-2.7,6.1-6.1c0,0,0,0,0,0c0-3.4-2.7-6.1-6.1-6.1 C136.3,27.1,133.6,29.8,133.6,33.2C133.6,33.2,133.6,33.2,133.6,33.2z"/> <path fill="#a4cc94" d="M163.4,57.7c0-4.3,3-9.2,6-9.2c3,0,6,4.9,6,9.2s-3,7.8-6,7.8C166.4,65.6,163.4,62,163.4,57.7z"/> <path fill="#94c57c" d="M165.7,56c0.1,0.1,0.4,0.1,0.5,0l2.6-2.6v5.5l-2.2,2.2c-0.1,0.1-0.1,0.4,0,0.5c0.1,0.1,0.4,0.1,0.5,0 l1.6-1.6v3.1c0,0.2,0.2,0.4,0.4,0.4c0.2,0,0.4-0.2,0.4-0.4v-8l3.3,3.3c0.1,0.1,0.4,0.1,0.6,0s0.1-0.4,0-0.5l-3.9-3.9v-5 c0-0.2-0.2-0.4-0.4-0.4s-0.4,0.2-0.4,0.4v3.3l0,0l-3.1,3.1C165.6,55.6,165.6,55.9,165.7,56L165.7,56z"/> <path fill="#a5cd95" d="M179.9,56.2c-5.5,0-11.8-3.8-11.8-7.6s6.2-7.6,11.8-7.6s10,3.8,10,7.6C189.9,52.3,185.4,56.2,179.9,56.2z" /> <path fill="#94c57c" d="M177.6,53.2c0.2-0.2,0.2-0.5,0-0.7l-3.3-3.3h7l2.8,2.8c0.2,0.2,0.5,0.2,0.7,0c0.2-0.2,0.2-0.5,0-0.7 l-2.1-2.1h4c0.3,0,0.5-0.2,0.5-0.5c0-0.3-0.2-0.5-0.5-0.5h-10.3l4.3-4.3c0.2-0.2,0.2-0.5,0-0.7c-0.2-0.2-0.5-0.2-0.7,0l-5,5h-6.4 c-0.3,0-0.5,0.2-0.5,0.5c0,0.3,0.2,0.5,0.5,0.5h4.2c0,0,0,0,0,0l4,4C177.1,53.4,177.5,53.4,177.6,53.2L177.6,53.2z"/></g>
</svg>