<?xml version="1.0" encoding="utf-8"?>
<!-- Svg Vector Icons : http://www.onlinewebfonts.com/icon -->
<!DOCTYPE svg PUBLIC "-//W3C//DTD SVG 1.1//EN" "http://www.w3.org/Graphics/SVG/1.1/DTD/svg11.dtd">
<svg version="1.1" xmlns="http://www.w3.org/2000/svg" xmlns:xlink="http://www.w3.org/1999/xlink" x="0px" y="0px" viewBox="0 0 256 256" enable-background="new 0 0 256 256" xml:space="preserve">
<metadata> Svg Vector Icons : http://www.onlinewebfonts.com/icon </metadata>
<g> <path fill="#a06a39" d="M46,183.8c-15.8,0-28.6-12.8-28.6-28.6V88.5c0-2.2-0.6-4.3-1.7-6.2C11.9,76.5,10,70.1,10,63.7 c0-7.9,3-15.8,8.5-22.7c4.8-5.9,11.5-11.1,19.8-15.5C54.2,17.2,75.1,12.7,97,12.7s42.8,4.6,58.7,12.8c8.4,4.4,15,9.6,19.8,15.5 c5.6,6.9,8.5,14.7,8.5,22.7c0,6.5-1.9,12.8-5.6,18.7c-1.1,1.8-1.7,4-1.7,6.2v66.7c0,15.8-12.8,28.6-28.6,28.6L46,183.8L46,183.8z" /> <path fill="#a7753e" d="M108,243.3c-15.8,0-28.6-12.8-28.6-28.6V148c0-2.2-0.6-4.3-1.7-6.2c-3.7-5.8-5.6-12.2-5.6-18.7 c0-7.9,3-15.8,8.5-22.7C85.3,94.6,92,89.4,100.3,85c15.9-8.3,36.7-12.8,58.7-12.8s42.8,4.6,58.7,12.8c8.4,4.4,15,9.6,19.8,15.5 c5.6,6.9,8.5,14.7,8.5,22.7c0,6.5-1.9,12.8-5.6,18.7c-1.1,1.8-1.7,4-1.7,6.2v66.7c0,15.8-12.8,28.7-28.6,28.7L108,243.3L108,243.3z "/> <path fill="#e2c792" d="M234.3,123.2c0-21.7-33.7-39.3-75.3-39.3c-41.6,0-75.3,17.6-75.3,39.3c0,5,1.8,9.9,5.2,14.3 c1.5,2,2.3,4.4,2.3,6.9v70.2c0,9.4,7.6,17,17,17h101.9c9.4,0,17-7.6,17-17v-70.2c0-2.5,0.8-4.9,2.3-6.9 C232.5,133.1,234.3,128.3,234.3,123.2L234.3,123.2z"/></g>
</svg>