<?xml version="1.0" encoding="utf-8"?>
<!-- Svg Vector Icons : http://www.onlinewebfonts.com/icon -->
<!DOCTYPE svg PUBLIC "-//W3C//DTD SVG 1.1//EN" "http://www.w3.org/Graphics/SVG/1.1/DTD/svg11.dtd">
<svg version="1.1" xmlns="http://www.w3.org/2000/svg" xmlns:xlink="http://www.w3.org/1999/xlink" x="0px" y="0px" viewBox="0 0 256 256" enable-background="new 0 0 256 256" xml:space="preserve">
<metadata> Svg Vector Icons : http://www.onlinewebfonts.com/icon </metadata>
<g> <path fill="#e2c756" d="M10,150.3L177.3,23c0,0,68.7,38.8,68.7,91L10,150.3z"/> <path fill="#eba826" d="M10,150.3v98.1l236-36.3V114L10,150.3z"/> <path fill="#f4ebd9" d="M10,206.3v27.2l236-36.3V170L10,206.3z M115.9,59.9c0,0-9.5,35.7,50.3,27.5c21.9-3.4,63.2-4.7,56.7-27.5 c-3.4-8.2-10.5-14.9-12.3-15.5c1.8-3.4,6.9-12.7-5-18.1c-6.8-2.3-13.7-3.2-17.9-4c-4.3-1.9-8.9-8.5-3.5-14.5 c-6-1-23.8,0.8-34.3,19.7c-3.5-0.3-14.3-0.7-17.1,6.1c-2.1,6-0.8,10.6,0.8,13.5C128.1,48.1,118.4,53.1,115.9,59.9z"/> <path fill="#5a2b20" d="M152.5,50.9c0,10.4,8.5,18.9,18.9,18.9c10.4,0,18.9-8.5,18.9-18.9c0-10.4-8.5-18.9-18.9-18.9 C161,32,152.5,40.4,152.5,50.9z"/> <path fill="#754621" d="M46.6,130c0,2.8,2.2,5,5,5c2.8,0,5-2.2,5-5l0,0c0-2.8-2.2-5-5-5C48.9,125,46.6,127.2,46.6,130 C46.6,130,46.6,130,46.6,130z"/> <path fill="#754621" d="M59.8,119c0,2.8,2.2,5,5,5c2.8,0,5-2.2,5-5c0,0,0,0,0,0c0-2.8-2.2-5-5-5C62,114,59.8,116.2,59.8,119 C59.8,119,59.8,119,59.8,119z"/> <path fill="#754621" d="M118,120c0,2.8,2.2,5,5,5c2.8,0,5-2.2,5-5c0-2.8-2.2-5-5-5C120.2,115,118,117.2,118,120 C118,120,118,120,118,120z"/></g>
</svg>