<?xml version="1.0" encoding="utf-8"?>
<!-- Svg Vector Icons : http://www.onlinewebfonts.com/icon -->
<!DOCTYPE svg PUBLIC "-//W3C//DTD SVG 1.1//EN" "http://www.w3.org/Graphics/SVG/1.1/DTD/svg11.dtd">
<svg version="1.1" xmlns="http://www.w3.org/2000/svg" xmlns:xlink="http://www.w3.org/1999/xlink" x="0px" y="0px" viewBox="0 0 256 256" enable-background="new 0 0 256 256" xml:space="preserve">
<metadata> Svg Vector Icons : http://www.onlinewebfonts.com/icon </metadata>
<g><g><g><path fill="#000000" d="M11.3,15.1c-1.7,1.7-1.7,4.6,0,5.9c1.2,1,1.8,1,16.5,1h15.1l0.3,1.3c0.1,0.8,4.7,29.6,10.1,64.2C59,124.3,63.5,151.4,64,153c1.6,4.6,3.8,8,8.1,12.3c4.3,4.3,7.7,6.6,13.1,8.7c6.8,2.8,4.3,2.7,71.8,2.7h62.2l1.1-1.2c1.6-1.6,1.6-4,0-5.5l-1.2-1.1l-63.1-0.2l-63.1-0.2l-2.8-1c-4.1-1.6-8.3-3.9-10.5-5.9l-2-1.8l3.1-0.5c1.7-0.3,35.2-5.6,74.5-11.8c39.3-6.2,71.8-11.4,72.3-11.5c0.5-0.1,1.1-0.8,1.5-1.3c0.8-1.1,17-81.1,17-83.7c0-2.1-0.4-3-2-3.7c-1.1-0.6-13.8-0.7-95.1-0.7H55.1l-1.3-8.5C50.2,15,50.4,16.2,49,15l-1.3-1.1H30.1H12.4L11.3,15.1z M236.9,55c0,0.7-14.4,73.1-14.6,73.4c-0.1,0.2-148.1,23.5-149.2,23.5c-0.7,0-1.1-0.6-1.7-2.5c-0.4-1.3-3.9-22.6-7.6-47.1C60,77.7,56.7,56.8,56.6,56l-0.3-1.5h90.3C218.5,54.5,236.9,54.6,236.9,55z"/><path fill="#000000" d="M84.7,71.9c-0.6,0.4-1.1,1.3-1.3,2.1c-0.1,0.7,1.6,14.5,4,30.6c4.2,29,4.2,29.4,5.5,30.5c0.7,0.6,1.9,1.1,2.7,1.1c1.8,0,3.8-1.9,3.8-3.7c0-0.7-1.8-14.2-4.1-30c-3.2-22.2-4.3-28.9-5-29.8C89.3,71.1,86.3,70.7,84.7,71.9z"/><path fill="#000000" d="M112.8,72.4c-0.6,0.7-1,1.8-1,2.5c0,3.6,3.9,52.6,4.3,54.2c0.4,1.4,0.9,2,2.1,2.5c1.8,0.7,2.8,0.5,4.4-0.9c1.4-1.3,1.4-1.3-0.9-30.7c-1.1-13.6-1.9-25.1-1.9-25.6c0-1.7-2.1-3.3-4.3-3.3C114.2,71.2,113.6,71.5,112.8,72.4z"/><path fill="#000000" d="M141.5,72.3l-1.1,1.1v26.2v26.1l1.2,1.1c1.5,1.5,3.6,1.5,5.3,0l1.3-1.1l0.1-25.3c0-13.8,0-25.7-0.1-26.3C147.6,71.2,143.6,70.1,141.5,72.3z"/><path fill="#000000" d="M170.2,72.1c-0.6,0.5-1.1,1.5-1.2,2.1c-0.1,0.6-1.1,11.3-2.2,23.9l-2.1,22.8l1,1.3c2,2.6,6.5,1.7,7.1-1.4c0.4-2.4,4.1-43.2,4.1-45.5c0-1.5-0.3-2.3-1.1-3.1C174.2,70.9,171.5,70.8,170.2,72.1z"/><path fill="#000000" d="M198.7,72c-0.9,0.8-1.6,3.6-5.3,22.1c-2.3,11.7-4.3,21.6-4.3,22.1c0,1.3,2.6,3.7,4.1,3.7c0.8,0,1.8-0.5,2.6-1.3c1.2-1.2,1.6-2.8,5.4-22.1c2.3-11.4,4.2-21.3,4.2-21.8c0-0.6-0.4-1.6-1-2.3C203.2,70.9,200.4,70.7,198.7,72z"/><path fill="#000000" d="M91.3,185.4c-11.6,1.7-21.3,10.8-23.7,22.4c-3.2,15.2,6.8,30.5,22.3,33.7c14.5,3.1,29.4-6.3,33.1-20.7c1-3.7,1-10.6,0-14.2c-1.3-5.2-3.4-8.8-7.6-12.9c-3-3-4.7-4.3-7.5-5.5C102.4,185.5,96.9,184.5,91.3,185.4z M103.9,195.1c3.3,1.6,6.8,4.7,8.8,7.8c3.5,5.5,3.9,13.6,1.1,19.4c-3,6.1-8.5,10.2-15.3,11.4c-10.8,1.9-21.2-5.8-23.1-17c-1.7-9.7,4.3-19.3,14.2-22.6c1.2-0.4,3.6-0.6,6.7-0.5C100.4,193.7,101.4,193.9,103.9,195.1z"/><path fill="#000000" d="M189.4,185.3c-8.8,1.2-17.1,7-21.4,15.1c-4.6,8.7-4.2,19.5,1,28c4.8,7.9,14.9,13.7,23.9,13.7c6.8,0,15-3.2,19.7-7.8c5.7-5.4,8.5-11.5,8.8-19.2c0.3-5.9-0.6-9.9-3.1-14.7C212.9,189.9,201.2,183.8,189.4,185.3z M202.1,195.4c4.4,2.2,7.5,5.4,9.6,9.7c2.8,5.9,2.3,13.7-1.2,19.2c-3,4.7-8.4,8.2-14,9.3c-10,1.9-20.4-5.2-23.1-15.6c-0.9-3.7-0.3-9.3,1.4-12.9c2.4-5.1,5.8-8.3,11.5-10.6c2.3-1,3.3-1.1,7.5-1C198.2,193.7,198.8,193.8,202.1,195.4z"/></g></g></g>
</svg>