<!--?xml version="1.0" encoding="utf-8"?-->
<!-- Svg Vector Icons : http://www.onlinewebfonts.com/icon -->

<svg version="1.1" xmlns="http://www.w3.org/2000/svg" xmlns:xlink="http://www.w3.org/1999/xlink" x="0px" y="0px" viewBox="0 0 256 256" enable-background="new 0 0 256 256" xml:space="preserve">
<metadata> Svg Vector Icons : http://www.onlinewebfonts.com/icon </metadata>
<g><g><g><g><path fill="#29974D" data-title="Layer 0" xs="0" d="M238.2,17.8c-5.2-5.2-11.5-7.8-19-7.8H36.8c-7.5,0-13.8,2.6-19,7.8C12.6,23,10,29.3,10,36.8v182.4c0,7.5,2.6,13.8,7.8,19c5.2,5.2,11.5,7.8,19,7.8h182.4c7.5,0,13.8-2.6,19-7.8c5.2-5.2,7.8-11.5,7.8-19V36.8C246,29.3,243.4,23,238.2,17.8z M162.6,125.2c-13.8,18.5-25,39-33.8,61.5l-11,27.9L98.5,191c-3.9-4.8-8.3-9.6-13-14.2c-4.7-4.6-8.8-8.5-12.2-11.5c-3.4-3-8.2-7.2-14.4-12.5c-6.2-5.3-11-9.5-14.4-12.7L62,110.3c2.3,2,6.7,5.9,13.3,11.7c6.5,5.8,12.4,11,17.6,15.7c5.2,4.6,9.9,8.9,14.2,12.9c9.7-18.8,21.9-36.6,36.9-53.5c14.9-16.9,32.8-35.1,53.8-54.6l16.1,26.8C193.4,88,176.3,106.7,162.6,125.2z"/></g></g><g></g><g></g><g></g><g></g><g></g><g></g><g></g><g></g><g></g><g></g><g></g><g></g><g></g><g></g><g></g></g></g>
</svg>