<?xml version="1.0" encoding="utf-8"?>
<!-- Svg Vector Icons : http://www.onlinewebfonts.com/icon -->
<!DOCTYPE svg PUBLIC "-//W3C//DTD SVG 1.1//EN" "http://www.w3.org/Graphics/SVG/1.1/DTD/svg11.dtd">
<svg version="1.1" xmlns="http://www.w3.org/2000/svg" xmlns:xlink="http://www.w3.org/1999/xlink" x="0px" y="0px" viewBox="0 0 256 256" enable-background="new 0 0 256 256" xml:space="preserve">
<metadata> Svg Vector Icons : http://www.onlinewebfonts.com/icon </metadata>
<g> <path fill="#b7c9cb" d="M14.9,212.6c0,15,49.2,27.2,109.9,27.2s109.9-12.2,109.9-27.2c0-15-49.2-27.2-109.9-27.2 S14.9,197.5,14.9,212.6z"/> <path fill="#f0e298" d="M237,71.6V187L15.7,219.1V103.8"/> <path fill="#894422" d="M17.8,226c-3.8,0-6.9-3.1-6.9-6.9V103.8c0-3.8,3.1-6.9,6.9-6.9s6.9,3.1,6.9,6.9v107.3L232.2,181V71.6 c0-3.8,3.1-6.9,6.9-6.9s6.9,3.1,6.9,6.9V187c0,3.4-2.5,6.3-5.9,6.8L18.8,225.9C18.4,226,18.1,226,17.8,226z"/> <path fill="#f0e298" d="M16.9,103.8v-2.7l107.4-77.8c0,0,38.8-2.7,77,13.6c22.7,9.7,35.7,32,35.7,32"/> <path fill="#894422" d="M16.9,110.7c-3.8,0-6.9-3.1-6.9-6.9v-2.7c0-2.2,1.1-4.3,2.9-5.6l107.4-77.8c1-0.8,2.3-1.2,3.6-1.3 c1.6-0.1,40.9-2.6,80.2,14.2c24.6,10.5,38.4,33.9,39,34.9c1.8,3.4,0.6,7.6-2.8,9.4c-3.2,1.7-7.2,0.7-9.2-2.4 c-0.1-0.2-12.2-20.5-32.5-29.1c-31.5-13.4-63.8-13.4-71.9-13.2L23.8,104.7C23.3,108.1,20.4,110.7,16.9,110.7z"/> <path fill="#894422" d="M16.9,111.1c-2.5,0-4.6-2.1-4.6-4.6c0-2.3,1.7-4.2,3.9-4.5l220.1-32.2c2.5-0.4,4.9,1.3,5.3,3.8 c0.4,2.5-1.3,4.9-3.8,5.3c-0.1,0-0.1,0-0.2,0L17.6,111C17.4,111.1,17.1,111.1,16.9,111.1z M62.9,167.8c-13.3,0-24.2-10.9-24.2-24.2 c0-13.3,10.9-24.2,24.2-24.2c13.3,0,24.2,10.9,24.2,24.2C87.2,156.9,76.3,167.8,62.9,167.8z M62.9,128.6c-8.3,0-15,6.7-15,15 c0,8.3,6.7,15,15,15c8.3,0,15-6.7,15-15C77.9,135.3,71.2,128.6,62.9,128.6z"/> <path fill="#894422" d="M77.9,152.8c-2.5,0-4.6-2.1-4.6-4.6c0-8.3-6.7-15-15-15c-2.5,0-4.6-2.1-4.6-4.6c0-2.5,2.1-4.6,4.6-4.6 c13.3,0,24.2,10.9,24.2,24.2C82.5,150.7,80.5,152.8,77.9,152.8z"/> <path fill="#894422" d="M187.4,175.3c-15.9,0-28.8-12.9-28.8-28.8s12.9-28.8,28.8-28.8c15.9,0,28.8,12.9,28.8,28.8 S203.3,175.3,187.4,175.3z M187.4,126.9c-10.8,0-19.6,8.8-19.6,19.6c0,10.8,8.8,19.6,19.6,19.6c10.8,0,19.6-8.8,19.6-19.6 C207,135.6,198.2,126.9,187.4,126.9z"/> <path fill="#894422" d="M208.2,155.7c-3.8,0-6.9-3.1-6.9-6.9c0-9.5-7.8-17.3-17.3-17.3c-3.8,0-6.9-3.1-6.9-6.9s3.1-6.9,6.9-6.9 c17.2,0,31.1,14,31.1,31.1C215.1,152.6,212,155.7,208.2,155.7z"/> <path fill="#894422" d="M111.4,184.5c-9.5,0-17.3-7.8-17.3-17.3c0-9.5,7.8-17.3,17.3-17.3c9.5,0,17.3,7.8,17.3,17.3 C128.7,176.7,120.9,184.5,111.4,184.5z M111.4,159.1c-4.4,0-8.1,3.6-8.1,8.1c0,4.5,3.6,8.1,8.1,8.1c4.4,0,8.1-3.6,8.1-8.1 C119.4,162.7,115.8,159.1,111.4,159.1z"/> <path fill="#894422" d="M120.6,174.1c-2.5,0-4.6-2.1-4.6-4.6c0-4.4-3.6-8.1-8.1-8.1c-2.5,0-4.6-2.1-4.6-4.6c0-2.5,2.1-4.6,4.6-4.6 c9.5,0,17.3,7.8,17.3,17.3C125.2,172,123.1,174.1,120.6,174.1z M144.8,132c-2.5,0-4.6-2.1-4.6-4.6c0-4.4-3.6-8.1-8.1-8.1 c-2.5,0-4.6-2.1-4.6-4.6c0-2.5,2.1-4.6,4.6-4.6c9.5,0,17.3,7.8,17.3,17.3C149.4,129.9,147.3,132,144.8,132z"/> <path fill="#894422" d="M136.7,138.4c-8.3,0-15-6.7-15-15c0-8.3,6.7-15,15-15c8.3,0,15,6.7,15,15 C151.7,131.7,145,138.4,136.7,138.4z M136.7,117.6c-3.2,0-5.8,2.6-5.8,5.8c0,3.2,2.6,5.8,5.8,5.8c3.2,0,5.8-2.6,5.8-5.8 C142.5,120.2,139.9,117.6,136.7,117.6z"/></g>
</svg>