<?xml version="1.0" encoding="utf-8"?>
<!-- Svg Vector Icons : http://www.onlinewebfonts.com/icon -->
<!DOCTYPE svg PUBLIC "-//W3C//DTD SVG 1.1//EN" "http://www.w3.org/Graphics/SVG/1.1/DTD/svg11.dtd">
<svg version="1.1" xmlns="http://www.w3.org/2000/svg" xmlns:xlink="http://www.w3.org/1999/xlink" x="0px" y="0px" viewBox="0 0 256 256" enable-background="new 0 0 256 256" xml:space="preserve">
<metadata> Svg Vector Icons : http://www.onlinewebfonts.com/icon </metadata>
<g> <path fill="#d0790f" d="M75.6,95.2c0,47.1,38.1,85.2,85.2,85.3c47.1,0,85.2-38.1,85.3-85.2c0,0,0,0,0-0.1 c0-47.1-38.2-85.2-85.2-85.2C113.7,10,75.6,48.2,75.6,95.2L75.6,95.2z"/> <path fill="#f5ae18" d="M10,160.8c0,47.1,38.2,85.2,85.2,85.2c47.1,0,85.2-38.2,85.2-85.2c0-47.1-38.2-85.2-85.2-85.2 C48.2,75.6,10,113.7,10,160.8z"/> <path fill="#663529" d="M69,157.5c0,9.1,7.3,16.4,16.4,16.4c9.1,0,16.4-7.3,16.4-16.4c0,0,0,0,0,0c0-9.1-7.3-16.4-16.4-16.4 C76.3,141.1,69,148.4,69,157.5C69,157.5,69,157.5,69,157.5z"/> <path fill="#663529" d="M88.7,111.6c0,5.4,4.4,9.8,9.8,9.8s9.8-4.4,9.8-9.8c0-5.4-4.4-9.8-9.8-9.8S88.7,106.2,88.7,111.6z"/> <path fill="#663529" d="M108.3,193.6c0,7.2,5.9,13.1,13.1,13.1c7.2,0,13.1-5.9,13.1-13.1c0,0,0,0,0,0c0-7.2-5.9-13.1-13.1-13.1 S108.3,186.3,108.3,193.6z"/> <path fill="#663529" d="M36.2,170.6c0,5.4,4.4,9.8,9.8,9.8c5.4,0,9.8-4.4,9.8-9.8c0,0,0,0,0,0c0-5.4-4.4-9.8-9.8-9.8 C40.6,160.8,36.2,165.2,36.2,170.6z"/> <path fill="#663529" d="M128,150.9c0,5.4,4.4,9.8,9.8,9.8s9.8-4.4,9.8-9.8c0-5.4-4.4-9.8-9.8-9.8S128,145.5,128,150.9z"/> <path fill="#663529" d="M69,206.7c0,3.6,2.9,6.6,6.6,6.6c3.6,0,6.6-2.9,6.6-6.6c0,0,0,0,0,0c0-3.6-2.9-6.6-6.6-6.6S69,203,69,206.7 C69,206.7,69,206.7,69,206.7z"/> <path fill="#4b2114" d="M128,49.3c0,7.2,5.9,13.1,13.1,13.1c7.2,0,13.1-5.9,13.1-13.1c0,0,0,0,0,0c0-7.2-5.9-13.1-13.1-13.1 S128,42.1,128,49.3z"/> <path fill="#4b2114" d="M167.3,78.8c0,5.4,4.4,9.8,9.8,9.8c5.4,0,9.8-4.4,9.8-9.8s-4.4-9.8-9.8-9.8C171.7,69,167.3,73.4,167.3,78.8 z"/> <path fill="#4b2114" d="M173.9,39.5c0,5.4,4.4,9.8,9.8,9.8s9.8-4.4,9.8-9.8s-4.4-9.8-9.8-9.8S173.9,34.1,173.9,39.5z"/> <path fill="#4b2114" d="M200.1,108.3c0,3.6,2.9,6.6,6.6,6.6s6.6-2.9,6.6-6.6l0,0c0-3.6-2.9-6.6-6.6-6.6S200.1,104.7,200.1,108.3z" /></g>
</svg>