<?xml version="1.0" encoding="utf-8"?>
<!-- Svg Vector Icons : http://www.onlinewebfonts.com/icon -->
<!DOCTYPE svg PUBLIC "-//W3C//DTD SVG 1.1//EN" "http://www.w3.org/Graphics/SVG/1.1/DTD/svg11.dtd">
<svg version="1.1" xmlns="http://www.w3.org/2000/svg" xmlns:xlink="http://www.w3.org/1999/xlink" x="0px" y="0px" viewBox="0 0 256 256" enable-background="new 0 0 256 256" xml:space="preserve">
<metadata> Svg Vector Icons : http://www.onlinewebfonts.com/icon </metadata>
<g> <path fill="#ecc64c" d="M239.3,110.5c0.4,5.5-2.1,10.7-6.9,13.9c-0.6,0.4-1.1,0.7-1.7,1c-4.5,2.3-9.9,2.4-14.4,0.2 c-11.2-5.4-23-6.3-27.5-6.4c-1.4-0.1-2.8-0.4-4-1c-2.1,2.6-4.7,4.9-7.8,6.5c-2.8,1.5-5.8,2.3-8.9,2.5c-4.9,0.4-9.3,1.6-12.2,2.5 c-0.9,0.3-1.7,0.4-2.6,0.5c-1.1,5.8-4.8,11-10.3,13.9c-1.2,0.6-2.4,1.1-3.6,1.4c-3.2,0.9-6.4,2.2-9.6,3.8c-3.1,1.6-6,3.5-8.6,5.6 c-1,0.8-2.1,1.5-3.3,2.1c-5.5,2.8-11.9,2.8-17.2,0.4c-0.6,0.6-1.1,1.2-1.8,1.7c-2.4,1.8-6,4.6-9.1,8.4c-2,2.4-4.5,4.4-7.3,5.8 c-2.7,1.4-5.6,2.2-8.6,2.5c-0.2,1.5-0.7,3-1.6,4.3c-2.5,3.8-8.6,13.8-10.7,26.1c-0.8,4.9-4.1,9.2-8.6,11.5 c-0.6,0.3-1.2,0.6-1.8,0.8c-5.4,2-11.1,1.2-15.4-2.4c-32.6-27.3-21.8-57.4-17.7-66c0.2-0.5,0.5-1,0.8-1.5 c-5.9-5.6-7.8-14.4-4.1-22.3c7-15.1,18.4-26.5,23-30.7c0.2-0.2,0.4-0.3,0.6-0.4c-3-6-2.4-13.4,2-19.2c4.5-6,9.9-11.5,16.1-16.5 c6.1-5,12.9-9.5,20.2-13.2c14.7-7.6,30.3-11.8,45.3-12.3c2.1-0.1,4.1,0.2,6.1,0.8c4.8,1.4,8.6,4.6,10.8,8.7 c0.3-0.1,0.6-0.2,0.9-0.3c6-1.3,21.9-4,38.3-1c8.1,1.5,14.1,7.6,15.6,15.2c0.7-0.1,1.4-0.1,2.2,0.1 C205.2,59.4,236.1,68,239.3,110.5z"/> <path fill="#e7863b" d="M96,82.6c47-24.2,100.5-20,138.5,6.5c-9.8-24.2-31.1-30-38.7-31.3c-0.7-0.2-1.5-0.2-2.2-0.1 c-1.5-7.5-7.4-13.7-15.6-15.2c-16.3-3-32.2-0.3-38.3,1c-0.3,0.1-0.6,0.2-0.9,0.3c-2.2-4.1-6-7.3-10.8-8.7c-2-0.6-4-0.8-6.1-0.8 c-14.9,0.5-30.6,4.7-45.3,12.3c-7.3,3.8-14.1,8.2-20.2,13.2c-6.1,5-11.5,10.5-16.1,16.5c-4.4,5.8-5,13.2-2,19.2 c-0.2,0.2-0.4,0.3-0.6,0.4c-4.6,4.2-16,15.6-23,30.7c-3.6,7.9-1.8,16.8,4.1,22.3c-0.3,0.5-0.6,0.9-0.8,1.5 c-3.2,6.8-10.6,27.2,2.7,49C21.3,153,49,106.9,96,82.6z"/> <path fill="#3d2b1f" d="M24.1,156.3l18.3,11.1l18.3,11l2.6,1.6c-3.3,5.2-10,17.3-12.3,32.3c-0.3,2.2-1.8,4-3.9,4.8 c-0.7,0.2-1.3,0.4-2,0.4c-1.3,0-2.6-0.5-3.6-1.4C12.3,190.7,20.4,164.7,24.1,156.3 M24.1,147c-0.9,0-1.9,0.1-2.8,0.4 c-2.5,0.8-4.6,2.6-5.7,5.1c-4.1,9-14.6,40.8,19.8,70.6c2.7,2.3,6.2,3.7,9.7,3.7c1.8,0,3.6-0.3,5.3-0.9c5.2-1.9,9-6.6,9.8-12.2 c2-13.6,8.3-24.5,10.9-28.7c1.3-2.1,1.8-4.7,1.2-7.1c-0.6-2.4-2.1-4.5-4.2-5.8l-2.4-1.5c-0.1,0-0.1-0.1-0.1-0.1l-18.3-11 l-18.3-11.1C27.5,147.5,25.8,147,24.1,147L24.1,147z"/> <path fill="#3d2b1f" d="M41.4,101l52.2,53.8c-3,2.2-7.4,5.9-11.4,10.9c-2.5,3.2-6.4,4.8-10.3,4.8c-2.5,0-5-0.7-7.2-2l-20.3-12.2 l-19.9-12c-4.7-2.8-6.6-8.8-4.3-13.9C26.5,115.9,37,105.1,41.4,101 M41.4,91.7c-2.3,0-4.6,0.8-6.4,2.5 c-4.7,4.4-16.3,16.3-23.4,32.4c-4.1,9.4-0.6,20.4,8,25.6l19.9,12l20.3,12.2c3.6,2.2,7.8,3.3,12,3.3c6.9,0,13.3-3,17.5-8.3 c3.3-4.2,7.1-7.3,9.7-9.2c2.2-1.6,3.5-4,3.7-6.7c0.2-2.7-0.7-5.3-2.6-7.2L48.1,94.5C46.2,92.6,43.8,91.7,41.4,91.7z"/> <path fill="#3d2b1f" d="M122.1,38.6c1,0,2,0.2,2.9,0.4c3.2,1,5.7,3.7,6.4,7.3l0.3,1.6L146,126l0.4,2c0.9,5-2,9.9-6.7,11.1 c-8.2,2.2-16.4,6.5-23,11.8c-1.7,1.4-3.7,2-5.8,2c-2.6,0-5.2-1-7.1-3L47,91.5l-1.1-1.1c-3.2-3.3-3.5-8.4-0.8-12.1 c17.1-23.3,48-39.3,76.9-39.7H122.1 M122.1,29.3h-0.3c-31.6,0.4-65.5,17.8-84.2,43.4c-5.4,7.4-4.7,17.5,1.6,24.1l1.1,1.2l56.7,58.5 c3.6,3.7,8.6,5.9,13.8,5.9c4.3,0,8.4-1.5,11.7-4.1c5.6-4.6,12.5-8.2,19.6-10.1c9.3-2.5,15.2-12.1,13.4-21.8l-0.4-2l-14.3-78 c0-0.1,0-0.2-0.1-0.3l-0.3-1.5c-1.2-6.8-6.1-12.3-12.7-14.4C125.9,29.6,124.1,29.3,122.1,29.3L122.1,29.3z"/> <path fill="#3d2b1f" d="M162.2,46.8c5.2,0,11,0.4,16.8,1.7c5.5,1.1,9.3,6.1,8.9,11.6l-3.6,46.8c-0.5,6.8-5.9,12.2-12.4,12.6 c-6.4,0.4-12,1.9-15.5,3l-13.6-73.7C146.5,47.9,153.6,46.8,162.2,46.8 M162.2,37.5c-9.5,0-17.4,1.3-21.3,2.1c-5,1-8.2,5.8-7.3,10.8 l13.6,73.7c0.5,2.6,2.1,4.9,4.4,6.3c1.5,0.9,3.1,1.3,4.7,1.3c1,0,2-0.2,2.9-0.4c3.1-1,7.8-2.3,13.1-2.6 c11.2-0.6,20.3-9.7,21.2-21.2l3.6-46.8c0.8-10.1-6.2-19.3-16.2-21.4C175,38.1,168.7,37.5,162.2,37.5z"/> <path fill="#3d2b1f" d="M198.1,65.4c9,1.8,35,10.3,38.6,48.8c0.2,2.1-0.7,4-2.5,5.2c-1,0.7-2.2,1.1-3.4,1.1c-0.9,0-1.9-0.2-2.8-0.7 c-13.5-6.9-27.2-8.4-33.4-8.7L198.1,65.4 M198.1,56.1c-2,0-4,0.7-5.6,1.9c-2.1,1.6-3.4,4-3.6,6.7l-3.5,45.7c-0.2,2.5,0.6,5,2.3,6.8 c1.7,1.9,4,3,6.5,3.1c4.9,0.3,17.5,1.5,29.7,7.7c2.2,1.1,4.6,1.7,7,1.7c3.1,0,6-0.9,8.6-2.7c4.6-3.1,7-8.3,6.5-13.7 c-4.3-45.3-36.3-55.1-46-57.1C199.3,56.2,198.7,56.1,198.1,56.1L198.1,56.1z"/></g>
</svg>