<?xml version="1.0" encoding="utf-8"?>
<!-- Svg Vector Icons : http://www.onlinewebfonts.com/icon -->
<!DOCTYPE svg PUBLIC "-//W3C//DTD SVG 1.1//EN" "http://www.w3.org/Graphics/SVG/1.1/DTD/svg11.dtd">
<svg version="1.1" xmlns="http://www.w3.org/2000/svg" xmlns:xlink="http://www.w3.org/1999/xlink" x="0px" y="0px" viewBox="0 0 256 256" enable-background="new 0 0 256 256" xml:space="preserve">
<metadata> Svg Vector Icons : http://www.onlinewebfonts.com/icon </metadata>
<g> <path fill="#f6b178" d="M121.3,49l26.6-16c38.8,8.4,71.3,24.5,92.2,45.1l-0.1,0.1L15.8,112.2L121.3,49z M240,129.9v30L15.8,193.9 v-52.2c20.9-2.2,23.9,16.2,45.6,13.1c22.1-3.1,19.4-22.3,41.6-25.5c22.1-3.1,24.8,16.1,47,13c22.1-3.1,19.4-22.3,41.6-25.5 c22.1-3.1,24.8,16.1,47,13H240L240,129.9z"/> <path fill="#e84a8a" d="M240,78.3v51.6h-1.5c-22.1,3.1-24.8-16.1-47-13c-22.1,3.1-19.4,22.3-41.6,25.5c-22.1,3.1-24.8-16.1-47-13 c-22.1,3.1-19.4,22.3-41.6,25.5c-21.7,3.1-24.7-15.3-45.6-13.1v-29.5L240,78.3L240,78.3z"/> <path fill="#4b4499" d="M15.8,199.7c-3.2,0-5.8-2.6-5.8-5.8v-81.7c0-2.9,2.1-5.3,4.9-5.7l224.2-33.9c3.2-0.5,6.1,1.7,6.6,4.9 c0,0.3,0.1,0.6,0.1,0.9V160c0,2.9-2.1,5.3-4.9,5.7L16.7,199.6C16.4,199.7,16.1,199.7,15.8,199.7z M21.6,117.2v69.9L234.2,155V85 L21.6,117.2z"/> <path fill="#4b4499" d="M15.8,118c-3.2,0-5.8-2.6-5.8-5.8c0-2,1.1-3.9,2.8-5L118.3,44l26.6-16c2.7-1.6,6.3-0.8,7.9,2 c1.6,2.7,0.8,6.3-2,7.9l-26.6,16L18.8,117.2C17.9,117.7,16.9,118,15.8,118z"/> <path fill="#4b4499" d="M240.2,84.1c-1.5,0-2.9-0.6-4-1.6c-0.1-0.1-0.2-0.2-0.3-0.3c-20.2-20-51.9-35.4-89.2-43.5 c-3.1-0.7-5.1-3.8-4.4-6.9c0.7-3.1,3.7-5.1,6.8-4.4c39.5,8.5,73.3,25.1,95,46.7l0.1,0.1l0.1,0.1c2.3,2.3,2.3,5.9,0,8.2 C243.2,83.5,241.7,84.1,240.2,84.1z M13.6,136.2c0.5-0.1,1-0.1,1.4-0.2l0.1,0c12.3-1.3,19.5,3.4,25.9,7.6 c5.9,3.8,10.6,6.9,19.5,5.6c8.9-1.3,12.6-5.5,17.2-10.8c5.2-6,11.1-12.8,24.3-14.7c13.2-1.9,20.8,3,27.4,7.4 c5.9,3.8,10.6,6.9,19.5,5.6c8.9-1.3,12.6-5.5,17.2-10.8c5.2-6,11.1-12.8,24.3-14.7c13.2-1.9,20.8,3,27.4,7.4 c5.9,3.8,10.6,6.9,19.5,5.6c3.2-0.4,6.1,1.8,6.5,4.9c0.4,3.2-1.8,6.1-4.9,6.5l0,0c-13.2,1.9-20.8-3-27.5-7.4 c-5.9-3.8-10.6-6.9-19.5-5.6c-8.9,1.3-12.6,5.5-17.2,10.8c-5.2,6-11.1,12.8-24.3,14.7c-13.2,1.9-20.8-3-27.4-7.4 c-5.9-3.8-10.6-6.9-19.5-5.6c-8.9,1.3-12.6,5.5-17.2,10.8c-5.2,6-11.1,12.8-24.3,14.7c-2,0.3-3.8,0.4-5.6,0.4 c-9.9,0-16.2-4.1-21.9-7.8c-5.7-3.7-10.2-6.6-18.4-5.8l-0.1,0c-0.3,0-0.7,0.1-1,0.1 M15.8,228.8c-3.2,0-5.8-2.6-5.8-5.8 c0-2.9,2.1-5.3,4.9-5.7l224.2-33.9c3.2-0.5,6.1,1.7,6.6,4.8c0.5,3.2-1.7,6.1-4.8,6.6c0,0,0,0-0.1,0L16.7,228.7 C16.4,228.8,16.1,228.8,15.8,228.8z M147.9,64.5c-0.7,0-1.4-0.1-2-0.4l-26.6-9.8c-3-1.1-4.5-4.4-3.4-7.4c1.1-3,4.4-4.5,7.4-3.4 l26.6,9.8c3.2,0,5.8,2.6,5.8,5.8c0,3.2-2.6,5.8-5.8,5.8C149.2,64.9,148.6,64.8,147.9,64.5L147.9,64.5z"/></g>
</svg>