<?xml version="1.0" encoding="utf-8"?>
<!-- Svg Vector Icons : http://www.onlinewebfonts.com/icon -->
<!DOCTYPE svg PUBLIC "-//W3C//DTD SVG 1.1//EN" "http://www.w3.org/Graphics/SVG/1.1/DTD/svg11.dtd">
<svg version="1.1" xmlns="http://www.w3.org/2000/svg" xmlns:xlink="http://www.w3.org/1999/xlink" x="0px" y="0px" viewBox="0 0 256 256" enable-background="new 0 0 256 256" xml:space="preserve">
<metadata> Svg Vector Icons : http://www.onlinewebfonts.com/icon </metadata>
<g> <path fill="#f6cc88" d="M61.8,98.3h125.3v14.7H61.8V98.3z"/> <path fill="#ed9027" d="M61.8,98.3H165v14.7H61.8V98.3z"/> <path fill="#17a196" d="M175.9,91c0-28.5-23-51.6-51.5-51.6S72.9,62.5,72.9,91v7.5h103V91L175.9,91z"/> <path fill="#65c2bb" d="M124.5,39.4c-3.1,0-6.2,0.4-9.2,0.9c24.1,4.3,42.4,32.7,42.4,58.1h18.4C176.1,69.7,153,39.4,124.5,39.4z"/> <path fill="#ed9027" d="M72.9,112.9L84,241.7H165l11.1-128.9"/> <path fill="#b41d23" d="M124.2,172.2h33.5l-3.7,58.9H95l-3.7-58.9h18"/> <path fill="#e72d2d" d="M146.6,172.2l-3.7,58.9h11.1l3.7-58.9H146.6z"/> <path fill="#f6cc88" d="M161.3,112.8l-11.1,128.9H165l11.1-128.9H161.3z"/> <path fill="#65c2bb" d="M72.9,113.1h103.2v11.1H72.9V113.1z"/> <path fill="#17a196" d="M72.9,113.1h88.4v11.1H72.9V113.1z"/> <path fill="#f18f2a" d="M150.5,10.3h29.2v7.2h-29.2V10.3z"/> <path fill="#040000" d="M183.6,10.3h14.4v7.2h-14.4V10.3z M135.7,194.3h7.7v7.2h-7.7V194.3z M128,216.8h7.7v7.2H128V216.8z  M120.8,201.9h7.2v7.2h-7.2V201.9z"/> <path fill="#040000" d="M124.2,176.1h29.6l-0.2,3.4h-6.9v7.2h6.5l-1,15.3h-8.9v7.2h8.4l-1.2,18.7H98.4l-0.2-3.8h4.5v-7.2h-4.9 l-1.4-22.5h6.3v-7.2h-6.8l-0.7-11h14.2v-7.2H87.5l4.1,66.1h65.7l4.1-66.1h-37.3V176.1z"/> <path fill="#040000" d="M190.8,95.1h-64.8l3.7-52c24,2.6,42.8,23.1,42.8,47.7h7.2c0-28.3-21.7-52-49.5-54.9l0.7-10.3 c0.3-4.7,4.3-8.4,9-8.4h6.6V10h-6.6c-8.5,0-15.6,6.6-16.2,15.1L123,35.6c-29.7,0.8-53.7,25.5-53.7,55.1h7.2 c0-25.7,20.4-46.9,46-47.9l-3.7,52.3H91.6v7.2h26.6l-0.5,7.2H65.2v-7.2h18.7v-7.2H58.1v21.6h11.5L80.7,246h87.6l11.1-129.3h11.4 V95.1z M117.2,116.7l-0.3,3.8H77.1l-0.3-3.8H117.2z M161.7,238.8H87.3l-9.5-111.1h38.7l-6.6,92l7.2,0.5l6.6-92.5h47.6L161.7,238.8z  M171.8,120.5h-47.7l0.3-3.8h47.8L171.8,120.5L171.8,120.5z M183.6,109.5h-58.7l0.5-7.2h58.1L183.6,109.5L183.6,109.5z"/> <path fill="#ffffff" d="M161.2,83.6H154c0-12.5-9.8-22.2-22.2-22.2v-7.2C148.1,54.2,161.2,67.3,161.2,83.6z"/></g>
</svg>