<?xml version="1.0" encoding="utf-8"?>
<!-- Svg Vector Icons : http://www.onlinewebfonts.com/icon -->
<!DOCTYPE svg PUBLIC "-//W3C//DTD SVG 1.1//EN" "http://www.w3.org/Graphics/SVG/1.1/DTD/svg11.dtd">
<svg version="1.1" xmlns="http://www.w3.org/2000/svg" xmlns:xlink="http://www.w3.org/1999/xlink" x="0px" y="0px" viewBox="0 0 256 256" enable-background="new 0 0 256 256" xml:space="preserve">
<metadata> Svg Vector Icons : http://www.onlinewebfonts.com/icon </metadata>
<g> <path fill="#faefd8" d="M160.6,64c8.1,0,14.7-6.6,14.7-14.7c0-8.1-6.6-14.7-14.7-14.7c-4,0-7.7,1.5-10.3,4.4 c-2.2-9.5-10.3-16.5-20.2-16.5c-9.9,0-18.4,7-20.2,16.1c-2.9-3.7-7.3-6.2-12.5-6.2c-5.9,0-11,3.3-13.6,8.1 c-2.6-4.8-7.7-8.1-13.6-8.1c-8.8,0-15.8,7-15.8,15.8c0,8.8,7,15.8,15.8,15.8"/> <path fill="#f1ae1b" d="M167.5,171.5c-1.8-13.6-2.9-36.3-3.3-53.6c0-8.1,3.7-58.7,3.7-58.7H63.7c0,0,3.7,50.6,3.7,58.7 c-0.4,17.6-1.5,40.4-3.3,53.6l-5.1,54c-1.5,8.8,5.5,16.9,14.7,16.9H158c8.8,0,15.8-8.1,14.7-16.9L167.5,171.5z"/> <path fill="#c9941a" d="M151.4,115.7c-2.2,0-3.7-1.8-3.7-4l1.1-19.5c0-2.2,1.8-3.7,4-3.3c2.2,0,3.7,1.8,3.3,4l-1.1,19.5 C155.1,114.2,153.2,115.7,151.4,115.7L151.4,115.7z M152.5,179.9c-1.8,0-3.7-1.5-3.7-3.3c-1.1-11.7-1.8-27.5-2.2-43.7 c0-2.2,1.5-3.7,3.7-3.7c1.8,0,3.7,1.5,3.7,3.7c0.4,15.8,1.1,31.6,2.2,42.9C156.2,178.1,154.7,179.9,152.5,179.9 C152.9,179.9,152.5,179.9,152.5,179.9z"/> <path fill="#faefd8" d="M85,109.8c-4.8,0-8.8-3.7-8.8-8.1V52.2c0-4.4,4-8.1,8.8-8.1c4.8,0,8.8,3.7,8.8,8.1v49.2 C93.4,106.2,89.7,109.8,85,109.8z"/> <path fill="#040000" d="M205.3,121.9l-0.4-2.2c-0.7-4.8-1.5-8.4-2.2-11.7c-2.2-9.2-10.3-15.8-19.8-15.8H173 c1.1-15.8,2.2-33.4,2.2-33.4c0-1.1-0.4-1.8-1.1-2.9c-0.7-0.7-1.8-1.1-2.6-1.1h-76c-2.2,0-3.7,1.5-3.7,3.7c0,2.2,1.5,3.7,3.7,3.7 h71.9c-0.7,12.1-3.3,48.1-3.3,55.1c0.4,16.9,1.5,40,3.3,54l2.2,22.4c-0.4,1.1-0.4,2.2,0,3.3c0,0.4,0.4,0.7,0.4,0.7l2.6,27.5 c0.4,3.3-0.7,6.6-2.9,8.8c-2.2,2.6-5.1,3.7-8.1,3.7H62.6c-3.3,0-6.6-1.5-8.8-4s-2.9-5.5-2.2-8.8l5.1-54.3c1.8-13.9,2.9-37.1,3.3-54 c0-7-2.6-42.9-3.3-55.1h15.8v37.8c0,5.9,4.8,10.6,10.6,10.6s10.6-4.8,10.6-10.6V85.6c0-2.2-1.5-3.7-3.7-3.7c-2.2,0-3.7,1.5-3.7,3.7 v13.6c0,1.5-1.1,3.3-3.3,3.3c-1.5,0-3.3-1.1-3.3-3.3V60.3c0.4-0.4,0.4-1.1,0.4-1.5c0-2.2-1.5-3.7-3.7-3.7H52.7 c-1.1,0-1.8,0.4-2.6,1.1S49,58.1,49,59.2c0,0.4,3.7,50.6,3.7,58.4c-0.4,16.1-1.5,39.6-3.3,53.2l-5.1,54c-0.7,5.1,0.7,10.6,4,14.7 c3.7,4,8.8,6.6,14.3,6.6h99.1c5.1,0,10.3-2.2,13.6-6.2c3.7-4,5.1-9.5,4.8-14.7l-2.2-24.6l20.2-6.6c8.4-2.6,14.3-11,13.9-20.2 C210.8,160.8,209,148.7,205.3,121.9L205.3,121.9z M194.3,183.6l-18,5.9l-1.8-18.7c-1.8-13.9-2.9-37.4-3.3-53.2 c0-2.2,0.4-7.3,0.7-13.9h10.6c4.4,0,8.1,2.9,8.8,7.3c0.7,2.9,1.5,6.6,2.2,11l0.4,1.8c3.7,26.4,5.5,38.5,6.2,50.6 C200.9,178.5,198.4,182.5,194.3,183.6z M52.7,43.8c2.2,0,3.7-1.5,3.7-3.7c0-7,5.1-12.1,12.1-12.1c4.4,0,8.4,2.2,10.3,6.2 c0.7,1.1,1.8,1.8,3.3,1.8s2.6-0.7,3.3-1.8c2.2-3.7,5.9-6.2,10.3-6.2c3.7,0,7,1.8,9.5,4.8c0.7,1.1,2.2,1.5,3.7,1.1 c1.5-0.4,2.6-1.5,2.6-2.9c1.5-7.7,8.4-13.2,16.5-13.2c8.1,0,14.7,5.5,16.5,13.6c0.4,1.5,1.5,2.6,2.6,2.6c1.5,0.4,2.6,0,3.7-1.1 c2.2-2.6,5.5-3.3,7.3-3.3c6.2,0,11,4.8,11,11c0,2.2,1.5,3.7,3.7,3.7s3.7-1.5,3.7-3.7c0-10.3-8.1-18.4-18.4-18.4 c-2.9,0-5.9,0.7-8.4,2.2c-4-8.4-12.5-14.3-22-14.3c-9.5,0-18,5.5-21.7,13.2c-3.3-2.2-7-3.3-11-3.3c-5.1,0-9.9,2.2-13.6,5.5 c-3.7-3.7-8.4-5.5-13.6-5.5c-11,0-19.5,8.4-19.5,19.5C49,42.3,50.5,43.8,52.7,43.8L52.7,43.8z"/></g>
</svg>