<?xml version="1.0" encoding="utf-8"?>
<!-- Svg Vector Icons : http://www.onlinewebfonts.com/icon -->
<!DOCTYPE svg PUBLIC "-//W3C//DTD SVG 1.1//EN" "http://www.w3.org/Graphics/SVG/1.1/DTD/svg11.dtd">
<svg version="1.1" xmlns="http://www.w3.org/2000/svg" xmlns:xlink="http://www.w3.org/1999/xlink" x="0px" y="0px" viewBox="0 0 256 256" enable-background="new 0 0 256 256" xml:space="preserve">
<metadata> Svg Vector Icons : http://www.onlinewebfonts.com/icon </metadata>
<g> <path fill="#ffffff" d="M193.7,103.3c-7.8-24.6,4.1-57.7,4.1-57.7H96.4c0,0,11.9,33.5,4.1,57.7c-7.1,22-15.6,49.9,16,73 c5.6,4.1,15.3,7.1,22,7.1H156c7.8,0,15.6-2.6,22-7.1C209.3,153.2,200.7,125.7,193.7,103.3z"/> <path fill="#f4cb53" d="M102.4,73.9c-1.9-13-5.2-23.1-5.2-23.5c-0.4-1.1-0.4-2.2,0.4-3.4c0.7-1.1,1.9-1.5,3-1.5h19.4 c0-14.5-10.1-27.9-25-31.3C77.8,10.6,60.7,21,56.6,38.5c-3.7,17.1,6.7,34.3,24.2,38.4c7.1,1.5,13.8,0.7,20.1-1.9 C101.3,74.6,101.6,74.3,102.4,73.9z"/> <path fill="#ffffff" d="M87.9,77.6c-1.1,0-1.9-0.7-1.9-1.9V16.1c0-1.1,0.7-1.9,1.9-1.9c1.1,0,1.9,0.7,1.9,1.9v59.6 C89.7,76.9,89,77.6,87.9,77.6z"/> <path fill="#ffffff" d="M117.7,47.8H58.1c-1.1,0-1.9-0.7-1.9-1.9s0.7-1.9,1.9-1.9h59.6c1.1,0,1.9,0.7,1.9,1.9 S118.8,47.8,117.7,47.8z"/> <path fill="#ffffff" d="M66.6,68.7c-0.4,0-1.1,0-1.5-0.4c-0.7-0.7-0.7-1.9,0-2.6l42.1-42.5c0.7-0.7,1.9-0.7,2.6,0 c0.7,0.7,0.7,1.9,0,2.6L68.1,68.3C67.7,68.7,67,68.7,66.6,68.7z"/> <path fill="#ffffff" d="M108.7,68.7c-0.4,0-1.1,0-1.5-0.4L65.1,26.2c-0.7-0.7-0.7-1.9,0-2.6c0.7-0.7,1.9-0.7,2.6,0l42.5,41.7 c0.7,0.7,0.7,1.9,0,2.6C109.8,68.7,109.1,68.7,108.7,68.7z"/> <path fill="#040000" d="M87.9,81c-2.6,0-5.2-0.4-7.8-0.7c-19-4.1-31.3-23.5-27.2-42.8c1.9-8.9,7.1-16.8,14.9-21.6 c8.2-5.2,18.3-7.1,27.9-4.8c16.4,3.7,27.9,18.3,27.9,35.4c0,2.2-1.5,3.7-3.7,3.7c-2.2,0-3.7-1.5-3.7-3.7c0-13.4-8.9-25-22-27.9 c-7.5-1.5-15.6-0.4-22,4.1c-6,4.1-10.4,10.1-11.9,17.1c-3.4,15.3,6.3,30.5,21.2,33.9c6,1.1,12.3,0.7,17.9-1.5 c1.9-0.7,4.1,0,4.8,1.9c0.7,1.9,0,4.1-1.9,4.8C97.9,79.8,93.1,81,87.9,81z"/> <path fill="#f4cb53" d="M194.8,66.1H121c-4.1,0-7.5,3.4-7.5,7.5c0,6-0.7,23.5-2.6,29.8c-7.8,23.8-17.1,54.4,25,78.6 c1.5,1.1,7.5,1.5,9.3,1.5h21.6c1.9,0,3.7-0.4,5.6-1.5c42.1-24.2,32.4-54.8,25-78.6C194,94.4,194,74.3,194.8,66.1z"/> <path fill="#040000" d="M146.7,230.4c-2.2,0-3.7-1.5-3.7-3.7v-39.1c0-2.2,1.5-3.7,3.7-3.7s3.7,1.5,3.7,3.7v39.1 C150.4,228.9,149,230.4,146.7,230.4z"/> <path fill="#040000" d="M149.7,246H146c-4.8,0-29.4-0.4-29.4-10.1s25-10.1,29.8-10.1c8.9,0,29.8,1.1,29.8,10.1 c0,6.7-10.1,8.2-13,8.9C158.3,245.6,153.8,246,149.7,246L149.7,246z M125.9,235.9c3.4,1.1,10.4,2.6,20.5,2.6 c4.8,0.4,10.1,0,15.3-1.1c2.6-0.4,4.5-1.1,5.6-1.5c-3-1.1-9.7-2.6-20.9-2.6C136.7,233.3,129.6,234.8,125.9,235.9L125.9,235.9z  M156,187.1h-17.5c-7.8,0-18.3-3.4-24.2-7.8c-34.3-25-24.2-56.3-17.5-77.1c7.5-22.7-4.1-55.1-4.1-55.5c-0.4-1.1-0.4-2.2,0.4-3.4 s1.9-1.5,3-1.5h101.3c1.1,0,2.2,0.7,3,1.5c0.7,1.1,0.7,2.2,0.4,3.4c0,0.4-11.5,32.4-4.1,55.5c7.1,22,16.8,52.5-17.1,77.1 C173.2,184.5,164.6,187.1,156,187.1z M101.6,49.3c3,10.4,8.9,35.4,2.6,55.1c-6.7,20.9-15.3,46.9,14.5,68.9 c4.8,3.4,13.8,6.3,19.7,6.3H156c7.1,0,14.2-2.2,19.7-6.3c29.1-21.6,21.2-46.6,14.2-68.9c-6.3-20.1-0.4-44.7,2.6-55.1H101.6z"/> <path fill="#f4cb53" d="M177.3,107c-1.1-3.7-1.9-7.5-2.2-10.8"/> <path fill="#ccab49" d="M177.3,110.8c-1.5,0-3-1.1-3.7-2.6c-1.1-3.7-1.9-7.8-2.2-11.5c-0.4-1.9,1.1-3.7,3.4-4.1 c2.2-0.4,3.7,1.1,4.1,3.4c0.4,3.4,1.1,6.7,2.2,10.1c0.7,1.9-0.4,4.1-2.6,4.5C178,110.8,177.6,110.8,177.3,110.8z"/> <path fill="#f4cb53" d="M182.5,151c2.6-10.1,1.5-20.1-0.7-29.4"/> <path fill="#ccab49" d="M182.5,154.7h-1.1c-1.9-0.4-3.4-2.6-2.6-4.5c2.2-8.2,1.9-16.8-0.7-27.6c-0.4-1.9,0.7-4.1,2.6-4.5 s4.1,0.7,4.5,2.6c3,11.9,3,22,0.7,31.3C185.8,153.6,184,154.7,182.5,154.7z"/> <path fill="#040000" d="M154.5,191.2h-15.3c-2.2,0-3.7-1.5-3.7-3.7s1.5-3.7,3.7-3.7h15.3c2.2,0,3.7,1.5,3.7,3.7 S156.8,191.2,154.5,191.2z"/></g>
</svg>