<?xml version="1.0" encoding="utf-8"?>
<!-- Svg Vector Icons : http://www.onlinewebfonts.com/icon -->
<!DOCTYPE svg PUBLIC "-//W3C//DTD SVG 1.1//EN" "http://www.w3.org/Graphics/SVG/1.1/DTD/svg11.dtd">
<svg version="1.1" xmlns="http://www.w3.org/2000/svg" xmlns:xlink="http://www.w3.org/1999/xlink" x="0px" y="0px" viewBox="0 0 256 256" enable-background="new 0 0 256 256" xml:space="preserve">
<metadata> Svg Vector Icons : http://www.onlinewebfonts.com/icon </metadata>
<g> <path fill="#eaeaea" d="M24.8,238.6c0,4.1,3.3,7.4,7.4,7.4l0,0h73.8c4.1,0,7.4-3.3,7.4-7.4l0,0l7.4-147.5H17.4L24.8,238.6z"/> <path fill="#040000" d="M105.9,238.6H32.1c-2.9,0-6-1.7-7.6-4.1l0.2,4.1c0,4.1,3.3,7.4,7.4,7.4l0,0h73.8c4.1,0,7.4-3.3,7.4-7.4l0,0 l0.2-4.6C112.1,236.7,109,238.6,105.9,238.6z"/> <path fill="#eaeaea" d="M113.3,69H24.8l7.4-7.4h73.8L113.3,69z"/> <path fill="#434854" d="M105.9,10c-12.2,0-22.1,9.9-22.1,22.1v29.5h7.4V32.1c0-8.1,6.6-14.8,14.8-14.8H128V10H105.9z M128,83.8 c0,4.1-3.3,7.4-7.4,7.4H17.4c-4.1,0-7.4-3.3-7.4-7.4v-7.4c0-4.1,3.3-7.4,7.4-7.4h103.3c4.1,0,7.4,3.3,7.4,7.4V83.8z"/> <path fill="#040000" d="M120.3,98.5l0.4-7.4H17.4l0.4,7.4H120.3z"/> <path fill="#5faf48" d="M18.5,113.3l2.9,59h95.1l2.9-59H18.5z"/> <path fill="#ffffff" d="M46.9,142.8c0,12.2,9.9,22.1,22.1,22.1s22.1-9.9,22.1-22.1c0-12.2-9.9-22.1-22.1-22.1 S46.9,130.5,46.9,142.8L46.9,142.8z"/> <path fill="#040000" d="M83.8,54.3h7.4v7.4h-7.4V54.3z"/> <path fill="#db915f" d="M91.1,231.3c0,8.1,6.6,14.8,14.8,14.8h118c8.1,0,14.8-6.6,14.8-14.8v-14.8H91.1V231.3z M164.9,128 c-40.7,0-73.8,10.9-73.8,51.6h147.5C238.6,138.9,205.6,128,164.9,128z"/> <path fill="#3ca570" d="M98.5,179.6h132.8v36.9H98.5V179.6z"/> <path fill="#e24e4c" d="M246,198.1c0,6.1-5,11.1-11.1,11.1l0,0H94.8c-6.1,0-11.1-5-11.1-11.1c0-6.1,5-11.1,11.1-11.1h140.1 C241,187,246,192,246,198.1L246,198.1z"/> <path fill="#040000" d="M234.9,201.8H94.8c-4.7,0-8.8-3-10.4-7.4c-0.4,1.2-0.7,2.4-0.7,3.7c0,6.1,5,11.1,11.1,11.1l0,0h140.1 c6.1,0,11.1-5,11.1-11.1l0,0c0-1.3-0.3-2.5-0.7-3.7C243.8,198.7,239.7,201.8,234.9,201.8L234.9,201.8z"/> <path fill="#040000" d="M165.4,187l-29.1,29.1c-2.9,2.9-7.5,2.9-10.4,0c0,0,0,0,0,0L96.7,187h-5.6l35.2,35.2 c2.9,2.9,7.5,2.9,10.4,0c0,0,0,0,0,0L172,187H165.4L165.4,187z"/> <path fill="#e6d27d" d="M125.8,216.1c2.9,2.9,7.5,2.9,10.4,0c0,0,0,0,0,0l29.1-29.1H96.7L125.8,216.1z M177.8,187l14.4,14.4 c2.9,2.9,7.5,2.9,10.4,0c0,0,0,0,0,0L217,187H177.8z"/> <path fill="#040000" d="M217,187l-14.4,14.4c-2.9,2.9-7.5,2.9-10.4,0c0,0,0,0,0,0L177.8,187h-5.6l20.5,20.5c2.9,2.9,7.5,2.9,10.4,0 c0,0,0,0,0,0l20.5-20.5H217z"/> <path fill="#040000" d="M194.4,153.8c0,2,1.7,3.7,3.7,3.7c2,0,3.7-1.7,3.7-3.7c0-2-1.7-3.7-3.7-3.7 C196.1,150.1,194.4,151.8,194.4,153.8z"/> <path fill="#040000" d="M172.3,168.6c0,2,1.7,3.7,3.7,3.7c2,0,3.7-1.7,3.7-3.7s-1.7-3.7-3.7-3.7 C173.9,164.9,172.3,166.5,172.3,168.6z"/> <path fill="#040000" d="M157.5,146.4c0,2,1.7,3.7,3.7,3.7s3.7-1.7,3.7-3.7c0-2-1.7-3.7-3.7-3.7S157.5,144.4,157.5,146.4 L157.5,146.4z"/> <path fill="#040000" d="M128,153.8c0,2,1.6,3.7,3.7,3.7s3.7-1.6,3.7-3.7c0,0,0,0,0,0c0-2-1.7-3.7-3.7-3.7 C129.7,150.1,128,151.8,128,153.8C128,153.8,128,153.8,128,153.8z"/> <path fill="#040000" d="M91.1,231.3v-14.8h-7.4v14.8c0,8.1,6.6,14.8,14.8,14.8h7.4C97.7,246,91.1,239.4,91.1,231.3z M98.5,209.1 h-3.7c-6.1,0-11.1-5-11.1-11.1c0-6.1,5-11.1,11.1-11.1h3.7v-7.4h-7.4v7.4h-3.7c-6.1,0-11.1,5-11.1,11.1c0,6.1,5,11.1,11.1,11.1h3.7 v7.4h7.4V209.1z M118.5,132.9c-19.5,5.6-34.8,19.4-34.8,46.7h7.4c0-23.4,10-36,27.3-43.9L118.5,132.9z"/></g>
</svg>