<?xml version="1.0" encoding="utf-8"?>
<!-- Svg Vector Icons : http://www.onlinewebfonts.com/icon -->
<!DOCTYPE svg PUBLIC "-//W3C//DTD SVG 1.1//EN" "http://www.w3.org/Graphics/SVG/1.1/DTD/svg11.dtd">
<svg version="1.1" xmlns="http://www.w3.org/2000/svg" xmlns:xlink="http://www.w3.org/1999/xlink" x="0px" y="0px" viewBox="0 0 256 256" enable-background="new 0 0 256 256" xml:space="preserve">
<metadata> Svg Vector Icons : http://www.onlinewebfonts.com/icon </metadata>
<g> <path fill="#73c7cd" d="M19.9,118.2l6.8,95.3c0,12.8,35.6,23.1,79.5,23.1c43.9,0,79.5-10.3,79.5-23.1l6.8-95.3H19.9z"/> <path fill="#4e5152" d="M106.2,239.6c-39.9,0-82.4-9.1-82.4-26l-7-98.3h178.9l-7,98.5C188.7,230.5,146.2,239.6,106.2,239.6 L106.2,239.6z M23.1,121.1l6.6,92.2c0,9.7,32.8,20.4,76.6,20.4c43.8,0,76.6-10.7,76.6-20.2l6.6-92.4H23.1z"/> <path fill="#4e5152" d="M106.2,238.4c-39.9,0-81.2-9.3-81.2-24.8l-6.9-97h176.3l-7,97.2C187.5,229.1,146.2,238.4,106.2,238.4 L106.2,238.4z M21.8,119.9l6.7,93.5c0,10.5,31.3,21.5,77.8,21.5c46.6,0,77.8-11.1,77.8-21.4l6.7-93.6H21.8z"/> <path fill="#fdfefe" d="M200.8,106.3c0,15.2-42.3,31.4-94.5,31.4c-52.2,0-94.5-16.2-94.5-31.4S54,80.6,106.2,80.6 C158.5,80.6,200.8,91.1,200.8,106.3z"/> <path fill="#4e5152" d="M106.2,139.3c-50.4,0-96.2-15.8-96.2-33.1c0-18,48.4-27.4,96.2-27.4c47.8,0,96.2,9.4,96.2,27.4 C202.5,123.6,156.6,139.3,106.2,139.3z M106.2,82.3c-52,0-92.8,10.5-92.8,24c0,16.4,50.8,29.7,92.8,29.7 c42.1,0,92.8-13.2,92.8-29.7C199.1,92.8,158.3,82.3,106.2,82.3z"/> <path fill="#f4e1a7" d="M11.7,102.3c0,15.2,42.3,27.5,94.5,27.5c52.2,0,94.5-12.3,94.5-27.5s-42.3-27.5-94.5-27.5 C54,74.8,11.7,87.1,11.7,102.3z"/> <path fill="#4e5152" d="M106.2,131.5c-54,0-96.2-12.8-96.2-29.2c0-16.3,42.3-29.2,96.2-29.2c54,0,96.2,12.8,96.2,29.2 C202.5,118.7,160.2,131.5,106.2,131.5z M106.2,76.6c-55.5,0-92.8,13.3-92.8,25.8c0,12.4,37.3,25.8,92.8,25.8 c55.5,0,92.8-13.3,92.8-25.8C199.1,89.9,161.8,76.6,106.2,76.6z"/> <path fill="#f6b559" d="M239.5,27.8c0.3,3.1-2.5,5.9-6.3,6.2L59,47.6c-3.8,0.3-6.1-1.8-6.4-4.9c-0.3-3.1,1.5-5.4,5.3-5.7l174-17.7 c3.8-0.3,7,1.9,7.3,5L239.5,27.8L239.5,27.8z"/> <path fill="#4e5152" d="M58.3,50.6c-4.7,0-8.1-3-8.5-7.6c-0.2-2.4,0.4-4.5,1.8-6.1c1.4-1.6,3.5-2.6,6.1-2.8l174-17.6 c5.4-0.5,10.1,2.9,10.5,7.6l0.3,3.5c0.2,2.3-0.7,4.7-2.5,6.5c-1.7,1.6-4,2.7-6.4,2.9L59.2,50.6C58.9,50.6,58.6,50.6,58.3,50.6z  M232.6,22.2c-0.1,0-0.3,0-0.5,0l-174,17.7c-1,0.1-1.8,0.4-2.2,0.8c-0.3,0.4-0.5,1-0.4,1.7c0.2,2.1,1.8,2.4,3.2,2.3L233,31 c1.1-0.1,2.1-0.5,2.8-1.2c0.3-0.3,0.8-1,0.8-1.8l-0.3-3.5C236.2,23.2,234.5,22.2,232.6,22.2L232.6,22.2z"/> <path fill="#f6b559" d="M243.1,36.3c0.3,3.1-2.5,5.9-6.3,6.2L62.6,56.2c-3.8,0.3-6.1-1.8-6.4-4.9c-0.3-3.1,1.5-5.4,5.3-5.7 l174-17.7c3.8-0.3,7,1.9,7.3,5L243.1,36.3z"/> <path fill="#4e5152" d="M61.8,59.1c-2.1,0-4-0.6-5.6-1.9c-1.7-1.4-2.7-3.4-2.9-5.7c-0.4-4.9,2.7-8.5,7.9-8.9l174-17.7 c5.4-0.5,10.1,2.9,10.5,7.6L246,36c0.2,2.3-0.7,4.7-2.5,6.5c-1.7,1.6-4,2.7-6.4,2.9L62.8,59.1C62.5,59.1,62.1,59.1,61.8,59.1z  M236.2,30.7c-0.1,0-0.3,0-0.5,0l-174,17.7c-2.5,0.2-2.7,1.4-2.6,2.6c0.1,0.5,0.2,1.3,0.8,1.7c0.5,0.4,1.4,0.6,2.4,0.5l174.2-13.7 c1.1-0.1,2.1-0.5,2.8-1.2c0.3-0.3,0.8-1,0.8-1.8l-0.3-3.5C239.7,31.8,238.1,30.7,236.2,30.7L236.2,30.7z"/> <path fill="#f6b559" d="M82.1,130.4c3-8-2.5-24.7-7.3-34.8c-4.9-10.1,2-48.2,2-48.2l70.1-7c0,0-6.8,38.1-2,48.2 c4.9,10.1,10.4,26.8,7.3,34.8L82.1,130.4L82.1,130.4z"/> <path fill="#4e5152" d="M77.7,133.8l1.7-4.4c2.4-6.3-1.9-21.4-7.2-32.5c-5.1-10.6,1-46,1.8-50l0.4-2.2l76.1-7.7l-0.7,3.8 c-1.8,10.3-5.9,38.8-2.2,46.4c4.5,9.3,11.1,27.6,7.4,37.1l-0.6,1.7L77.7,133.8z M79.2,50.1c-2,11.7-5.3,37.2-1.8,44.3 c3.8,8,9.3,22.7,8.4,32.7l64.1-6.5c1.2-7-2.8-20.7-7.7-30.8c-4.3-9-0.6-35.8,1.1-46.2L79.2,50.1z"/> <path fill="#f6b559" d="M86.7,45.2c0,0-6.8,38.1-2,48.2c4.9,10.1,10.4,26.8,7.3,34.8"/> <path fill="#4e5152" d="M94.8,129.2l-5.5-2.1c2.4-6.3-1.9-21.4-7.3-32.5c-5.1-10.7,1-46,1.8-50l5.7,1c-1.8,10.3-5.9,38.8-2.2,46.4 C91.8,101.4,98.4,119.7,94.8,129.2z"/> <path fill="#f6b559" d="M95.6,44.1c0,0-6.8,38.1-2,48.2c4.9,10.1,10.4,26.8,7.3,34.8"/> <path fill="#4e5152" d="M103.7,128.2l-5.5-2.1c2.4-6.3-1.9-21.4-7.3-32.5c-5.1-10.6,1-46,1.8-50l5.7,1c-1.8,10.3-5.9,38.8-2.2,46.4 C100.7,100.4,107.3,118.7,103.7,128.2z"/> <path fill="#f6b559" d="M107.3,43.7c0,0-6.8,38.1-2,48.2c4.9,10.1,10.4,26.8,7.3,34.8"/> <path fill="#4e5152" d="M115.3,127.7l-5.5-2.1c2.4-6.3-1.9-21.4-7.2-32.5c-5.1-10.7,1-46,1.8-50l5.7,1c-1.8,10.3-5.9,38.8-2.2,46.4 C112.4,99.9,118.9,118.2,115.3,127.7z"/> <path fill="#f6b559" d="M120.1,42c0,0-6.8,38.1-2,48.2c4.9,10.1,10.4,26.8,7.3,34.8"/> <path fill="#4e5152" d="M128.2,126l-5.5-2.1c2.4-6.3-1.9-21.4-7.2-32.5c-5.1-10.6,1-46,1.8-50l5.7,1c-1.8,10.3-5.9,38.8-2.2,46.4 C125.2,98.2,131.8,116.5,128.2,126z"/> <path fill="#f6b559" d="M135.1,40.3c0,0-6.8,38.1-2,48.2c4.9,10.1,10.4,26.8,7.3,34.8"/> <path fill="#4e5152" d="M143.2,124.4l-5.5-2.1c2.4-6.3-1.9-21.4-7.2-32.5c-5.1-10.7,1-46,1.8-50l5.7,1c-1.8,10.3-5.9,38.8-2.2,46.4 C140.2,96.6,146.8,114.9,143.2,124.4L143.2,124.4z"/> <path fill="#ffffff" d="M29.4,210.2c1.7,1.2,56.4-39.2,155.1-21.1l2-27.7c0,0-67.7-29.9-159.1,17.6 C27.5,178.9,29.4,209.1,29.4,210.2L29.4,210.2z"/></g>
</svg>