<?xml version="1.0" encoding="utf-8"?>
<!-- Svg Vector Icons : http://www.onlinewebfonts.com/icon -->
<!DOCTYPE svg PUBLIC "-//W3C//DTD SVG 1.1//EN" "http://www.w3.org/Graphics/SVG/1.1/DTD/svg11.dtd">
<svg version="1.1" xmlns="http://www.w3.org/2000/svg" xmlns:xlink="http://www.w3.org/1999/xlink" x="0px" y="0px" viewBox="0 0 256 256" enable-background="new 0 0 256 256" xml:space="preserve">
<metadata> Svg Vector Icons : http://www.onlinewebfonts.com/icon </metadata>
<g> <path fill="#040000" d="M50.6,26.6l64.1,139.7l-4.7,2.2L45.9,28.7L50.6,26.6z"/> <path fill="#040000" d="M13.8,54.2l103.4,113.7l-3.8,3.5L10,57.7L13.8,54.2z"/> <path fill="#daaa4a" d="M114.6,216.4c52.6,0,95.2-42.6,95.2-95.2H19.4C19.4,173.8,62,216.4,114.6,216.4z"/> <path fill="#f6cc58" d="M134.3,194.7c41.1,0,74.6-32.2,77-72.7H57.4C59.7,162.4,93.2,194.7,134.3,194.7z"/> <path fill="#040000" d="M15.7,119.3c0,54.5,44.3,98.8,98.8,98.8s98.8-44.3,98.8-98.8H15.7z M114.6,213.9 c-51.4,0-93.1-40.3-93.1-90.2h185.9C207.6,173.4,166,213.9,114.6,213.9z"/> <path fill="#daaa4a" d="M76.7,213.7h75.6V229H76.7V213.7z"/> <path fill="#f7efb2" d="M122.4,137.1c0,3.2,10.9,5.8,24.4,5.8c13.5,0,24.4-2.6,24.4-5.8c0-3.2-10.9-5.8-24.4-5.8 C133.3,131.4,122.4,133.9,122.4,137.1z"/> <path fill="#040000" d="M74.4,213.1v16.3h80v-16.3H74.4z M150.4,225.6H78.7v-8.6h71.8V225.6L150.4,225.6z M18,130.4h167.9v4H18 V130.4z M138,93.5c0,2.3,1.5,4,3.6,4c2.1,0,3.6-1.9,3.6-4c0-3.6,1.2-5.2,2.9-7.7c1.9-2.7,4.4-6.1,4.4-12.9c0-6.5-2.5-10-4.4-12.9 c-1.7-2.5-2.9-4-2.9-7.7c0-3.6,1.2-5.2,2.9-7.7c1.9-2.7,4.4-6.1,4.4-12.9c0-2.3-1.5-4-3.6-4c-2.1,0-3.6,1.9-3.6,4 c0,3.6-1.2,5.2-2.9,7.7c-1.9,2.7-4.4,6.1-4.4,12.9c0,6.5,2.5,10,4.4,12.9c1.7,2.5,2.9,4,2.9,7.7c0,3.6-1.2,5.2-2.9,7.7 C140.3,83.6,138,87,138,93.5z M102.8,93.5c0,2.3,1.5,4,3.6,4c2.1,0,3.6-1.9,3.6-4c0-3.6,1.2-5.2,2.9-7.7c1.9-2.7,4.4-6.1,4.4-12.9 c0-6.5-2.5-10-4.4-12.9c-1.7-2.5-2.9-4-2.9-7.7c0-3.6,1.2-5.2,2.9-7.7c1.9-2.7,4.4-6.1,4.4-12.9c0-2.3-1.5-4-3.6-4 c-2.1,0-3.6,1.9-3.6,4c0,3.6-1.2,5.2-2.9,7.7c-1.9,2.7-4.4,6.1-4.4,12.9c0,6.5,2.5,10,4.4,12.9c1.7,2.5,2.9,4,2.9,7.7 c0,3.6-1.2,5.2-2.9,7.7C105.1,83.6,102.8,87,102.8,93.5z"/> <path fill="#e44b46" d="M179.2,213.3c0,8.1,5.9,14.8,13.2,14.8h39c7.3,0,13.2-6.5,13.2-14.8v-67.4v-1.5h-65.4V213.3z"/> <path fill="#040000" d="M245.8,142.9h-67.7v71.4c0,8.4,6.1,15.2,13.8,15.2h40.3c7.7,0,13.8-6.9,13.8-15.2v-69.9 C246,144,246,143.4,245.8,142.9L245.8,142.9z M241.4,211.6c0,7.5-5.4,13.8-11.9,13.8h-34.9c-6.5,0-11.9-6.1-11.9-13.8v-63.1v-1.3 h58.7V211.6z"/> <path fill="#040000" d="M179.2,155.7h40.5v4h-40.5V155.7z M181.7,208.1h52.2v4h-52.2V208.1z"/> <path fill="#e8605d" d="M224.9,205h-0.4c-1.9,0-3.5-1.5-3.5-3.5v-30.7c0-1.9,1.5-3.5,3.5-3.5h0.4c1.9,0,3.5,1.5,3.5,3.5v30.5 C228.3,203.3,226.8,205,224.9,205z"/></g>
</svg>