<?xml version="1.0" encoding="utf-8"?>
<!-- Svg Vector Icons : http://www.onlinewebfonts.com/icon -->
<!DOCTYPE svg PUBLIC "-//W3C//DTD SVG 1.1//EN" "http://www.w3.org/Graphics/SVG/1.1/DTD/svg11.dtd">
<svg version="1.1" xmlns="http://www.w3.org/2000/svg" xmlns:xlink="http://www.w3.org/1999/xlink" x="0px" y="0px" viewBox="0 0 256 256" enable-background="new 0 0 256 256" xml:space="preserve">
<metadata> Svg Vector Icons : http://www.onlinewebfonts.com/icon </metadata>
<g> <path fill="#e19d44" d="M81.8,147c0,6.2-5,11.2-11.2,11.2l0,0c-6.2,0-11.2-5-11.2-11.2l0,0V37.4c0-6.2,5-11.2,11.2-11.2 c6.2,0,11.2,5,11.2,11.2l0,0V147z M110.5,147c0,6.2-5,11.2-11.2,11.2l0,0c-6.2,0-11.2-5-11.2-11.2l0,0V37.4c0-6.2,5-11.2,11.2-11.2 l0,0c6.2,0,11.2,5,11.2,11.2l0,0V147z M139.3,147c0,6.2-5,11.2-11.2,11.2l0,0c-6.2,0.1-11.3-4.9-11.3-11.1c0,0,0-0.1,0-0.1V37.4 c0-6.2,5-11.2,11.2-11.2c0,0,0.1,0,0.1,0c6.2,0,11.2,5,11.2,11.2l0,0V147z M167.9,147c0,6.2-5,11.2-11.2,11.2l0,0 c-6.2,0-11.2-5-11.2-11.2l0,0V37.4c0-6.2,5-11.2,11.2-11.2l0,0c6.2,0,11.2,5,11.2,11.2l0,0V147z M196.7,147c0,6.2-5,11.2-11.2,11.2 l0,0c-6.2,0-11.2-5-11.2-11.2l0,0V37.4c0-6.2,5-11.2,11.2-11.2l0,0c6.2,0,11.2,5,11.2,11.2l0,0V147z"/> <path fill="#edba55" d="M67.5,130.9c0,6.2-5,11.2-11.2,11.2l0,0c-6.2,0-11.2-5-11.2-11.2l0,0V21.2c0-6.2,5-11.2,11.1-11.2 c6.2-0.1,11.3,4.9,11.3,11.1c0,0,0,0.1,0,0.1V130.9z M95.7,130.9c0,5.9-4.6,10.8-10.5,11.2c-6.2,0.2-11.4-4.7-11.5-10.9 c0-0.1,0-0.2,0-0.3V21.2c0-6.2,5-11.2,11.2-11.2c0.1,0,0.2,0,0.3,0c5.9,0.4,10.5,5.3,10.5,11.2V130.9z M124.9,130.9 c0,6.2-5,11.2-11.2,11.2l0,0c-6.2,0-11.2-5-11.2-11.2l0,0V21.2c0-6.2,5-11.2,11.2-11.2l0,0c6.2,0,11.2,5,11.2,11.2l0,0V130.9z  M153.7,130.9c0,6.2-5,11.2-11.2,11.2l0,0c-6.2,0-11.2-5-11.2-11.2l0,0V21.2c0-6.2,5-11.2,11.1-11.2c6.2,0,11.2,5,11.2,11.2l0,0 L153.7,130.9z M182.3,130.9c0,6.2-5,11.2-11.2,11.2l0,0c-6.2,0-11.2-5-11.2-11.2l0,0V21.2c0-6.2,5-11.2,11.2-11.2l0,0 c6.2,0,11.2,5,11.2,11.2l0,0V130.9z M211.2,130.9c0,6.2-5,11.2-11.2,11.2l0,0c-6.2,0-11.2-5-11.2-11.2l0,0V21.2 c0-6.2,5-11.2,11.1-11.2c6.2-0.1,11.3,4.9,11.3,11.1c0,0,0,0.1,0,0.1V130.9z"/> <path fill="#df3f2a" d="M223.3,93.4L207,246h-13.6c-41-21-89.7-21-130.7,0H49L32.7,93.4H223.3z"/> <path fill="#e9c58c" d="M85,164.3c0,23.8,19.3,43,43,43c23.8,0,43-19.3,43-43c0-23.8-19.3-43-43-43C104.3,121.3,85,140.6,85,164.3z "/></g>
</svg>