<?xml version="1.0" encoding="utf-8"?>
<!-- Svg Vector Icons : http://www.onlinewebfonts.com/icon -->
<!DOCTYPE svg PUBLIC "-//W3C//DTD SVG 1.1//EN" "http://www.w3.org/Graphics/SVG/1.1/DTD/svg11.dtd">
<svg version="1.1" xmlns="http://www.w3.org/2000/svg" xmlns:xlink="http://www.w3.org/1999/xlink" x="0px" y="0px" viewBox="0 0 256 256" enable-background="new 0 0 256 256" xml:space="preserve">
<metadata> Svg Vector Icons : http://www.onlinewebfonts.com/icon </metadata>
<g> <path fill="#d73d34" d="M237.5,209c-5.7,5.7-13.1,8.5-20.5,8.5c0,7.4-2.9,14.8-8.5,20.5c-5.7,5.7-13.1,8.5-20.6,8.5 c-7.4,0-14.9-2.8-20.5-8.5c-10.7-10.6-11.3-27.5-1.9-38.9L147,180.6l-3.1,0.5c-4.6,1.3-9.4,1.9-14.5,1.9 c-17.6,0-33.4-8.4-43.4-21.4C44,161.6,10,127.6,10,85.6C10,43.5,44.1,9.4,86.1,9.4c41.7,0,75.5,33.5,76.1,75 c13.4,10,22,25.9,22,43.9c0,6.7-1.2,13.1-3.4,19l18.3,18.3c5.2-4.1,11.5-6.2,17.9-6.2c7.4,0,14.9,2.8,20.5,8.5 C248.8,179.3,248.8,197.7,237.5,209L237.5,209z"/> <path fill="#eb6762" d="M187.9,241.2c-6.3,0-12.3-2.5-16.8-7c-4.2-4.2-6.7-9.8-7-15.7c-0.3-5.9,1.6-11.6,5.4-16.2l3.1-3.7 l-24.5-24.5l-3.1,1c-5,1.7-10.2,2.5-15.5,2.5c-15.4,0-29.7-7-39.2-19.3l-1.6-2.1h-2.6c-18.9,0-36.7-7.4-50-20.7 c-13.3-13.4-20.7-31.1-20.7-50c0-18.9,7.4-36.7,20.7-50.1c13.4-13.4,31.1-20.7,50.1-20.7c18.7,0,36.4,7.2,49.7,20.4 c13.3,13.1,20.8,30.6,21.1,49.3l0,2.6l2.1,1.6c6,4.5,11,10.5,14.5,17.1c3.6,7,5.4,14.6,5.4,22.5c0,5.9-1,11.7-3.1,17.1l-1.2,3.2 l24.1,24l3.7-2.9c4.1-3.2,9.3-5,14.6-5c6.3,0,12.3,2.5,16.8,7c9.2,9.3,9.2,24.4,0,33.6c-4.5,4.5-10.4,7-16.7,7h-5.3v5.3 c0,6.3-2.5,12.3-7,16.8C200.2,238.8,194.2,241.2,187.9,241.2L187.9,241.2z"/> <path fill="#ffffff" d="M233.7,205.2c-4.5,4.5-10.4,7-16.7,7h-5.3v5.3c0,6.3-2.5,12.3-7,16.8c-4.5,4.5-10.5,7-16.8,7 s-12.3-2.5-16.8-7c-4.2-4.2-6.7-9.8-6.9-15.7c-0.3-5.9,1.6-11.6,5.4-16.2l3.1-3.7l-24.2-24.2c11.9-4.7,21.4-14,26.3-25.8l24,23.9 l3.7-2.9c4.1-3.2,9.3-5,14.6-5c6.3,0,12.3,2.5,16.8,7C243,180.9,243,196,233.7,205.2L233.7,205.2z"/> <path fill="#d73d34" d="M180.3,147.9c-0.6,1.1-1.4,2.4-2.5,3.9l0,0c-1.5,2.3-3.4,4.9-5.8,7.8c-4.5,5.5-11.4,12.6-20.3,18.2l0,0 c-1.5,1-3.1,1.9-4.8,2.7l-3.1,0.5c-0.6-0.3-1.1-0.7-1.4-1.4c-0.6-1.3,0-2.8,1.2-3.4c1.1-0.5,2.1-1.1,3.2-1.7 c15.8-9.1,25.6-23.9,28.9-29.5c0.1-0.2,0.2-0.3,0.3-0.5c0.8-0.8,2.1-1.1,3.2-0.6C180.6,144.8,181.1,146.5,180.3,147.9L180.3,147.9z "/> <path fill="#ffffff" d="M125.4,64.2c-1.3,0.6-2.8,0.2-3.5-1.1c-5.7-10.4-14.4-18.6-25-23.7c-2-1-2-3.8,0-4.7c0.7-0.4,1.6-0.4,2.3,0 c11.2,5.4,20.9,14.2,27.3,25.9C127.3,61.8,126.8,63.5,125.4,64.2z"/></g>
</svg>