<?xml version="1.0" encoding="utf-8"?>
<!-- Svg Vector Icons : http://www.onlinewebfonts.com/icon -->
<!DOCTYPE svg PUBLIC "-//W3C//DTD SVG 1.1//EN" "http://www.w3.org/Graphics/SVG/1.1/DTD/svg11.dtd">
<svg version="1.1" xmlns="http://www.w3.org/2000/svg" xmlns:xlink="http://www.w3.org/1999/xlink" x="0px" y="0px" viewBox="0 0 256 256" enable-background="new 0 0 256 256" xml:space="preserve">
<metadata> Svg Vector Icons : http://www.onlinewebfonts.com/icon </metadata>
<g><g><g><path fill="#000000" d="M61.4,30.7c-10.1,1.4-20.6,5.8-28.7,12C24.2,49.2,16.5,60,13.1,70.3c-5,15.1-3.9,31.5,3,45.4c4.5,9,4.2,8.6,55.1,59.6c53.7,53.7,50,50.5,56.8,50.5c6.9,0,3.1,3.3,56.8-50.5c42.4-42.4,48.2-48.4,50.7-52.2c7.5-11.3,10.4-20.9,10.4-33.8c0-16.5-5.5-30-17.2-41.6c-6.9-6.9-14-11.4-22.6-14.3c-17.9-6-36.8-3.4-52.2,7.1c-3.7,2.5-7.3,5.7-17.7,16c-5.8,5.7-7,6.6-8.2,6.6s-2.4-1-8.9-7.3c-4.1-4.1-8.9-8.7-10.6-10.2c-7.8-7.1-17.5-12-28.3-14.2C75.8,30.4,65.8,30.1,61.4,30.7z M80.8,38.9c2,0.5,5.4,1.6,7.3,2.4c8.2,3.2,11.9,6.1,24.9,19c16,15.8,14,15.8,30.2-0.2c14.8-14.6,19.6-17.8,31.3-20.9c4-1.1,5.4-1.2,12.3-1.2c6.6,0,8.5,0.1,11.8,1c19.6,4.9,33.9,19.2,38.8,38.8c0.9,3.4,1,5.3,1,11.9c0,7.1-0.1,8.3-1.3,12.5c-1.5,5.5-4.4,11.9-7.7,16.7c-1.8,2.8-13.6,14.8-50.2,51.5c-42.7,42.7-48,47.9-49.5,48.2c-4.4,0.8-1,3.9-53-48.2c-36.7-36.7-48.4-48.7-50.2-51.5c-3.3-4.9-6.3-11.4-7.8-16.8c-1.1-4-1.2-5.4-1.2-12.4c0-6.6,0.1-8.5,1-11.8C24,56.1,40.6,41.1,62.7,37.8C66.1,37.3,77.2,38,80.8,38.9z"/><path fill="#000000" d="M184.6,53.5c-0.7,0.7-1.2,1.7-1.2,2.5c0,2.2,1.8,3.7,4.5,3.7c3.7,0,8.5,1.2,12.6,3.3c7.6,3.8,13.7,11.6,15.5,20c0.4,1.8,0.7,4.2,0.7,5.4c0,1.7,0.2,2.4,1.2,3.3c1.5,1.5,3.6,1.5,5.1,0c1.4-1.3,1.5-3.6,0.5-9c-2.8-15.1-14.7-27.1-29.8-29.8C188.2,52,186,52.1,184.6,53.5z"/></g></g></g>
</svg>