<?xml version="1.0" encoding="utf-8"?>
<!-- Svg Vector Icons : http://www.onlinewebfonts.com/icon -->
<!DOCTYPE svg PUBLIC "-//W3C//DTD SVG 1.1//EN" "http://www.w3.org/Graphics/SVG/1.1/DTD/svg11.dtd">
<svg version="1.1" xmlns="http://www.w3.org/2000/svg" xmlns:xlink="http://www.w3.org/1999/xlink" x="0px" y="0px" viewBox="0 0 256 256" enable-background="new 0 0 256 256" xml:space="preserve">
<metadata> Svg Vector Icons : http://www.onlinewebfonts.com/icon </metadata>
<g><g><g><path fill="#000000" d="M61.4,30.7c-9,1.2-17.8,4.5-25.7,9.8c-4.4,3-12.6,11.1-15.6,15.6c-10.3,15.4-13,34.2-7.3,51.4c1.8,5.8,3.8,9.8,7.7,15.6c2.5,3.8,8.3,9.8,50.7,52.2c53.7,53.7,49.9,50.5,56.8,50.5s3.1,3.3,56.8-50.5c42.3-42.4,48.2-48.4,50.7-52.2c7.5-11.3,10.4-20.9,10.4-33.7c0-16.5-5.5-30-17.2-41.6c-6.9-6.9-14-11.4-22.6-14.3c-17.9-6-36.7-3.4-52.3,7.1c-3.4,2.3-7.5,6-18.8,17.1c-4.7,4.6-5.9,5.5-7,5.5c-1.2,0-2.8-1.3-10.8-9.2C107.2,44,104.8,42,99.1,38.6C88,31.9,74.4,29.1,61.4,30.7z M196.5,53.5c7.2,1.8,15,6.9,19.6,12.8c4.7,6,7.4,12.9,7.9,20.5c0.3,3.7,0.2,3.9-0.9,5c-1.5,1.5-3.6,1.6-5.1,0.1c-0.8-0.9-1.1-1.8-1.4-4.8c-1.1-13.3-10.5-23.9-23.5-26.6c-1.9-0.4-4.4-0.7-5.4-0.7c-3.7,0-5.5-3.8-3-6.3c1.2-1.2,1.3-1.2,5-0.9C191.8,52.6,194.9,53.1,196.5,53.5z"/></g></g></g>
</svg>