<?xml version="1.0" encoding="utf-8"?>
<!-- Svg Vector Icons : http://www.onlinewebfonts.com/icon -->
<!DOCTYPE svg PUBLIC "-//W3C//DTD SVG 1.1//EN" "http://www.w3.org/Graphics/SVG/1.1/DTD/svg11.dtd">
<svg version="1.1" xmlns="http://www.w3.org/2000/svg" xmlns:xlink="http://www.w3.org/1999/xlink" x="0px" y="0px" viewBox="0 0 256 256" enable-background="new 0 0 256 256" xml:space="preserve">
<metadata> Svg Vector Icons : http://www.onlinewebfonts.com/icon </metadata>
<g> <path fill="#f5c579" d="M135.3,113l-15.5-13.5l78-89.5l15.5,13.5L135.3,113z"/> <path fill="#a14f3e" d="M149.2,97.1l-15.5-13.5l50.9-58.4l15.5,13.5L149.2,97.1z"/> <path fill="#edb37c" d="M163.3,80.2l-15.5-13.5L170,41.1l15.5,13.5L163.3,80.2z"/> <path fill="#ef9bac" d="M85,67.8c0,21.2,17.2,38.4,38.4,38.4c21.2,0,38.4-17.2,38.4-38.4c0-21.2-17.2-38.4-38.4-38.4 C102.2,29.4,85,46.6,85,67.8z"/> <path fill="#ea7376" d="M102.1,67.8c0-18.3,12.8-33.5,29.8-37.4c-2.8-0.7-5.7-1-8.6-1C102.1,29.4,85,46.6,85,67.8 c0,21.2,17.2,38.4,38.4,38.4c2.9,0,5.8-0.4,8.6-1C114.8,101.3,102.1,86,102.1,67.8z"/> <path fill="#5bb8d5" d="M163.8,233.8h-29.5v-36.6H120v36.6H90.5c-3.4,0-6.1,2.7-6.1,6.1c0,3.4,2.7,6.1,6.1,6.1h73.2 c3.4,0,6.1-2.7,6.1-6.1C169.9,236.5,167.1,233.8,163.8,233.8z"/> <path fill="#f4e16f" d="M51.6,104c0,21.2,17.2,38.4,38.4,38.4c21.2,0,38.4-17.2,38.4-38.4c0-21.2-17.2-38.4-38.4-38.4 C68.8,65.6,51.6,82.8,51.6,104z"/> <path fill="#f2bc35" d="M68.5,104c0-18.3,12.8-33.5,29.8-37.4c-2.8-0.6-5.7-1-8.5-1c-21.2,0-38.4,17.2-38.4,38.4 c0,21.2,17.2,38.4,38.4,38.4c2.9,0,5.8-0.4,8.5-1C81.3,137.5,68.5,122.3,68.5,104z"/> <path fill="#fce7cb" d="M122.1,113.4c0,21.2,17.2,38.4,38.4,38.4c21.2,0,38.4-17.2,38.4-38.4c0,0,0,0,0,0 c0-21.2-17.2-38.4-38.4-38.4C139.3,75,122.1,92.2,122.1,113.4z"/> <path fill="#efd4b1" d="M140.6,113.4c0-18,12.4-33.1,29.1-37.2c-3-0.8-6.1-1.2-9.2-1.2c-21.2,0-38.4,17.2-38.4,38.4 c0,21.2,17.2,38.4,38.4,38.4c3.2,0,6.3-0.4,9.2-1.2C153,146.4,140.6,131.4,140.6,113.4z"/> <path fill="#8ad1ea" d="M50.9,127.3c0,0.7-0.1,1.4-0.1,2.2c0,41.7,33.8,75.5,75.5,75.5c41.7,0,75.5-33.8,75.5-75.5 c0-0.7,0-1.4-0.1-2.2H50.9z"/> <path fill="#5bb8d5" d="M72,129.4c0-0.7,0-1.4,0.1-2.2H48.5c0,0.7-0.1,1.4-0.1,2.2c0,41.7,33.8,75.5,75.5,75.5 c4,0,7.9-0.3,11.8-0.9C99.6,198.4,72,167.1,72,129.4z"/> <path fill="#ffffff" d="M181.6,179.7c12.5-13.5,20.1-31.5,20.1-51.3c0-0.7,0-1.4-0.1-2.2H50.8c0,0.7-0.1,1.4-0.1,2.2 c0,19.8,7.6,37.8,20.1,51.3H181.6z"/> <path fill="#f2f4e6" d="M70.3,126.2H49c0,0.7-0.1,1.4-0.1,2.2c0,19.8,7.6,37.8,20.1,51.3h21.3c-12.5-13.5-20.1-31.5-20.1-51.3 C70.2,127.6,70.3,126.9,70.3,126.2z"/> <path fill="#8ad1ea" d="M210.8,136.1c1.1-3.7,1.1-7.6,0-11.3v-0.1c-2.6-7.9-10-13.6-18.8-13.6l0,0H192c-0.1,0-0.3,0-0.4,0 c-0.1,0-0.3,0-0.4,0h-31.4c-0.1,0-0.3,0-0.4,0c-0.1,0-0.3,0-0.4,0h-31.4c-0.1,0-0.3,0-0.4,0c-0.1,0-0.3,0-0.4,0H94.8 c-0.1,0-0.3,0-0.4,0c-0.1,0-0.3,0-0.4,0H62.5c-0.1,0-0.3,0-0.4,0c-0.2,0-0.4,0-0.5,0h-0.4c-0.2,0-0.3,0-0.4,0 c-0.4,0-0.7,0.1-1.1,0.1l-0.1,0c-9.5,1.3-16.8,9.4-16.8,19.2c0,10.7,8.7,19.4,19.4,19.4c6.5,0,12.5-3.2,16.1-8.6 c3.6,5.4,9.6,8.6,16.1,8.6c6.6,0,12.8-3.4,16.3-9c3.5,5.6,9.7,9,16.3,9c6.5,0,12.5-3.2,16.1-8.6c3.5,5.2,9.4,8.6,16.1,8.6 s12.6-3.4,16.1-8.6c3,4.4,7.6,7.4,12.9,8.3l0.3,0.1c0.2,0,0.5,0.1,0.7,0.1c1,0.2,2,0.3,3,0.3c6.3,0,12.2-3.1,15.8-8.2 c0,0,0,0,0.1,0.1C209.3,140.1,210.2,138.2,210.8,136.1L210.8,136.1z"/> <path fill="#5bb8d5" d="M65.7,130.5c0-9.8,7.3-17.9,16.8-19.2l0.1,0c0.4,0,0.7-0.1,1.1-0.1c0.1,0,0.3,0,0.4,0h-20 c-0.1,0-0.3,0-0.4,0c-0.2,0-0.4,0-0.5,0h-0.4c-0.2,0-0.3,0-0.4,0c-0.4,0-0.7,0.1-1.1,0.1l-0.1,0c-9.5,1.3-16.8,9.4-16.8,19.2 c0,10.7,8.7,19.4,19.4,19.4c4,0,7.6-1.2,10.7-3.2C68.9,143,65.7,136.9,65.7,130.5z"/></g>
</svg>