<?xml version="1.0" encoding="utf-8"?>
<!-- Svg Vector Icons : http://www.onlinewebfonts.com/icon -->
<!DOCTYPE svg PUBLIC "-//W3C//DTD SVG 1.1//EN" "http://www.w3.org/Graphics/SVG/1.1/DTD/svg11.dtd">
<svg version="1.1" xmlns="http://www.w3.org/2000/svg" xmlns:xlink="http://www.w3.org/1999/xlink" x="0px" y="0px" viewBox="0 0 256 256" enable-background="new 0 0 256 256" xml:space="preserve">
<metadata> Svg Vector Icons : http://www.onlinewebfonts.com/icon </metadata>
<g> <path fill="#f09595" d="M14.6,137.4h218.7v99.3H14.6V137.4z"/> <path fill="#f7e4b8" d="M164.9,91.1c-14.6,0-27.2-5.2-33.1-16.4L39.5,128H228l-33.6-48C187.6,87.6,177,91.1,164.9,91.1z"/> <path fill="#f09595" d="M24.8,164.9h177v14.8h-177v14.8h177v14.8h-177v22.1h206.5v-88.5H24.8V164.9z"/> <path fill="#f5b63a" d="M228,128H10v118h236V128H228z M231.3,231.3H24.8v-88.5h206.5V231.3z M131.7,74.8c-2.2-4.1-3.5-9.1-3.7-14.9 L10,128h29.5L131.7,74.8z"/> <path fill="#ea5a59" d="M24.8,164.9h177v14.8h-177V164.9z M24.8,194.4h177v14.8h-177V194.4z"/> <path fill="#f5b63a" d="M228,128h18l-44.7-63.8c-0.9,6.5-3.3,11.7-7,15.8L228,128z"/> <path fill="#ea5a59" d="M164.9,76.4c22.1,0,22.1-13.3,22.1-17.7c0-15.9-11.8-33.9-22.1-33.9s-22.1,18.1-22.1,33.9 C142.8,63.1,142.8,76.4,164.9,76.4z"/> <path fill="#d84947" d="M164.9,91.1c12.1,0,22.8-3.6,29.5-11.1c3.6-4.1,6.1-9.3,7-15.8c0.3-1.8,0.4-3.6,0.4-5.5 c0-22.4-16.5-48.7-36.9-48.7S128,36.3,128,58.7c0,0.4,0,0.8,0,1.2c0.2,5.8,1.5,10.8,3.7,14.9C137.7,85.9,150.3,91.1,164.9,91.1z  M164.9,24.8c10.3,0,22.1,18.1,22.1,33.9c0,4.4,0,17.7-22.1,17.7s-22.1-13.3-22.1-17.7C142.8,42.8,154.5,24.8,164.9,24.8z"/></g>
</svg>