<?xml version="1.0" encoding="utf-8"?>
<!-- Svg Vector Icons : http://www.onlinewebfonts.com/icon -->
<!DOCTYPE svg PUBLIC "-//W3C//DTD SVG 1.1//EN" "http://www.w3.org/Graphics/SVG/1.1/DTD/svg11.dtd">
<svg version="1.1" xmlns="http://www.w3.org/2000/svg" xmlns:xlink="http://www.w3.org/1999/xlink" x="0px" y="0px" viewBox="0 0 256 256" enable-background="new 0 0 256 256" xml:space="preserve">
<metadata> Svg Vector Icons : http://www.onlinewebfonts.com/icon </metadata>
<g> <path fill="#d26b7b" d="M23.5,74.5h205.8c2.8,0,5.6,0.1,8.4,0h0.4c2.4,0,4.7-2.6,4.6-5.6c-0.1-3-2-5.6-4.6-5.6H32.3 c-2.8,0-5.6-0.1-8.4,0h-0.4c-2.4,0-4.7,2.6-4.6,5.6C19,71.9,20.9,74.5,23.5,74.5"/> <path fill="#113132" d="M234.9,75.6c-0.9,0-1.9,0-2.8,0c-0.9,0-1.8,0-2.8,0H23.5c-3.1,0-5.6-2.9-5.7-6.7c-0.1-1.9,0.6-3.7,1.9-5 c1-1.1,2.4-1.7,3.8-1.7h0.3c0.8,0,1.8,0,2.8,0c0.9,0,1.9,0,2.8,0c0.9,0,1.8,0,2.8,0h205.8c3.1,0,5.6,2.9,5.7,6.7 c0.1,1.9-0.6,3.7-1.9,5c-1,1.1-2.4,1.7-3.8,1.7h-0.3C236.9,75.6,236,75.6,234.9,75.6z M229.3,73.3c0.9,0,1.9,0,2.8,0s1.9,0,2.8,0 c1,0,1.9,0,2.8,0h0.4c0.8,0,1.6-0.4,2.2-1.1c0.9-0.9,1.3-2.1,1.3-3.4c-0.1-2.5-1.6-4.5-3.5-4.5H32.3c-0.9,0-1.9,0-2.8,0 c-0.9,0-1.8,0-2.8,0c-1,0-1.9,0-2.8,0h-0.4c-0.8,0-1.6,0.4-2.2,1.1c-0.9,0.9-1.3,2.1-1.3,3.4c0.1,2.5,1.6,4.5,3.5,4.5H229.3z"/> <path fill="#d26b7b" d="M23.5,42.8h205.8c2.8,0,5.6,0.1,8.4,0h0.4c2.4,0,4.7-2.6,4.6-5.6c-0.1-3-2-5.6-4.6-5.6H32.3 c-2.8,0-5.6-0.1-8.4,0h-0.4c-2.4,0-4.7,2.6-4.6,5.6C19,40.2,20.9,42.8,23.5,42.8"/> <path fill="#113132" d="M234.9,43.9h-2.8c-0.9,0-1.8,0-2.8,0H23.5c-3.1,0-5.6-2.9-5.7-6.7c-0.1-1.9,0.6-3.7,1.9-5 c1-1.1,2.4-1.7,3.8-1.7h0.3c0.8,0,1.8,0,2.8,0c0.9,0,1.9,0,2.8,0c0.9,0,1.8,0,2.8,0h205.8c3.1,0,5.6,2.9,5.7,6.7 c0.1,1.9-0.6,3.7-1.9,5c-1,1.1-2.4,1.7-3.8,1.7h-0.3C236.9,43.9,236,43.9,234.9,43.9z M229.3,41.7c0.9,0,1.9,0,2.8,0 c0.9,0,1.8,0,2.8,0c1,0,1.9,0,2.8,0h0.4c0.8,0,1.6-0.4,2.2-1.1c0.9-0.9,1.3-2.1,1.3-3.4c-0.1-2.5-1.6-4.5-3.5-4.5H32.3 c-0.9,0-1.9,0-2.8,0c-0.9,0-1.8,0-2.8,0c-1,0-1.9,0-2.8,0h-0.4c-0.8,0-1.6,0.4-2.2,1.1c-0.9,0.9-1.3,2.1-1.3,3.4 c0.1,2.5,1.6,4.5,3.5,4.5H229.3L229.3,41.7z"/> <path fill="#f4e9be" d="M71.3,27.1c-1.4-0.7-5.2-1.1-7.6-0.6c-4,0.9-8,2-11.9,3.3c-7.1,2.5-12.9,5.5-14.6,8.8 c-1.1,2.1-0.9,4.1,0.9,6.2c1,1.1,2.5,2.2,4.3,3.3c2,1.2,4.6,2.3,6.8,3.5c4,2.2,6.9,4.6,8.4,7.1c0.1,0.2,0.2,0.3,0.3,0.5 c0,0,0,0.1,0,0.1c0,0,0,0,0,0.1c0.1,0.3,0.2,0.5,0.3,0.8c0.2,0.5,0.3,1.1,0.3,1.7c0,0.5,0,1.1-0.1,1.6c-0.1,0.2-0.1,0.5-0.2,0.7 c0,0.1-0.1,0.2-0.1,0.4l0,0.1c0,0,0,0,0,0.1c-0.6,1.2-1.5,2.3-2.5,3.2c-0.3,0.2-0.5,0.5-0.9,0.7l-0.3,0.2c-0.1,0.1-0.5,0.3-0.5,0.3 c-0.5,0.4-1.1,0.7-1.7,1c-0.6,0.3-1.4,0.7-2.2,1.1c-0.4,0.2-7.7,4.2-7.6,4.2c-2.5,1.7-4.3,3.4-5,5.2c-0.9,2.2-0.5,4.2,1.5,6.1 c1.1,1.1,2.7,2,4.5,2.9c2.1,1,4.8,1.9,7,2.9c4.2,1.9,7.3,4,9,6.5c0.1,0.2,0.2,0.3,0.3,0.5l0.1,0.1c0,0,0,0,0,0.1 c0.1,0.3,0.3,0.5,0.4,0.8c0.2,0.5,0.4,1.1,0.4,1.6c0.1,0.5,0.1,1.1,0,1.6c0,0.3-0.1,0.5-0.1,0.8c0,0.1-0.1,0.2-0.1,0.4 c0,0,0,0,0,0.1l0,0.1c-0.5,1.2-1.3,2.4-2.2,3.3c-0.2,0.3-0.5,0.5-0.8,0.8l-0.3,0.3c-0.1,0.1-0.4,0.4-0.4,0.4 c-0.5,0.4-1,0.8-1.6,1.2c-0.6,0.4-1.3,0.8-2.1,1.2c-0.4,0.2-0.7,0.4-1.1,0.6l-0.3,0.1l-0.2,0.1c-0.8,0.3-1.5,0.7-2.4,1 c-0.4,0.1-0.8,0.3-1.2,0.4l-0.1,0l-0.2,0.1c-2.4,0.7-3.5,1.7-1.8,2.4c1.5,0.6,5.2,0.7,7.7,0c8.9-2.6,14-6.2,16.5-9.4 c3.7-4.7,2.3-9.4-3.1-13.4c-1.9-1.4-3.9-2.5-6.1-3.5c-2.2-1-5-2-7.2-3c-0.5-0.2-1-0.5-1.4-0.7l-0.3-0.2c-0.1-0.1-0.3-0.2-0.4-0.3 C50.6,86,50,85.5,49.5,85c-0.2-0.2-0.5-0.5-0.7-0.7c-0.1-0.1-0.2-0.2-0.2-0.3l-0.1-0.1c0-0.1-0.1-0.2-0.1-0.2 c-0.1-0.1-0.1-0.2-0.1-0.3c-0.1-0.2-0.2-0.5-0.2-0.7c-0.1-0.5-0.1-0.9,0-1.4c0-0.1,0-0.2,0.1-0.3c0,0,0-0.1,0-0.1 c0-0.1,0.1-0.2,0.1-0.2c0.1-0.1,0.1-0.3,0.2-0.4c1.5-2.2,13.4-8.1,15.7-9.7c1.1-0.7,2.1-1.6,3-2.6c0.5-0.6,1-1.2,1.4-1.8 c2.4-3.9,1.1-8-3.3-11.8c-1.8-1.5-3.7-2.8-5.8-4c-2.1-1.2-4.8-2.3-6.9-3.5c-0.5-0.3-0.9-0.5-1.3-0.8c-0.1,0-0.2-0.2-0.3-0.2 c-0.1-0.1-0.3-0.2-0.4-0.3c-0.6-0.4-1.1-0.9-1.6-1.5c-0.2-0.2-0.4-0.5-0.6-0.8c-0.1-0.1-0.2-0.2-0.2-0.3L48,42.7 c0-0.1-0.1-0.2-0.1-0.2c0-0.1-0.1-0.2-0.1-0.3c-0.1-0.2-0.1-0.5-0.1-0.7c0-0.5,0-0.9,0.1-1.4c0-0.1,0.1-0.2,0.1-0.3l0.1-0.1 l0.1-0.2c0.1-0.1,0.1-0.2,0.2-0.4c0.6-0.9,1.4-1.7,2.3-2.4c0.1-0.1,0.3-0.2,0.4-0.3c0.3-0.2,0.5-0.3,0.8-0.5c0.6-0.4,1.2-0.7,1.8-1 c1.2-0.6,2.6-1.3,4.1-1.8l0.6-0.2l0.3-0.1c0.3-0.1,0.6-0.2,0.9-0.3c0.8-0.3,1.6-0.5,2.4-0.8c1.3-0.4,2.7-0.9,4.2-1.3 c1-0.3,2-0.5,3.1-0.8l0.9-0.2c0.2-0.1,0,0-0.3,0.1C71.9,28.7,72.8,27.9,71.3,27.1L71.3,27.1z"/> <path fill="#113132" d="M60.3,27.1c-1.4-0.7-5.2-1.1-7.6-0.6c-4,0.9-8,2-11.9,3.3c-7.1,2.5-12.9,5.5-14.6,8.8 c-1.1,2.1-0.9,4.1,0.9,6.2c1,1.1,2.5,2.2,4.3,3.3c2,1.2,4.6,2.3,6.8,3.5c4,2.2,6.9,4.6,8.4,7.1c0.1,0.2,0.2,0.3,0.3,0.5 c0,0,0,0.1,0,0.1c0,0,0,0,0,0.1c0.1,0.3,0.2,0.5,0.3,0.8c0.2,0.5,0.3,1.1,0.3,1.7c0,0.5,0,1.1-0.1,1.6c-0.1,0.2-0.1,0.5-0.2,0.7 c0,0.1-0.1,0.2-0.1,0.4c0,0,0,0,0,0.1c0,0,0,0,0,0.1c-0.6,1.2-1.5,2.3-2.5,3.2c-0.3,0.2-0.6,0.5-0.8,0.7l-0.3,0.2 c-0.1,0.1-0.5,0.3-0.5,0.3c-0.5,0.4-1.1,0.7-1.7,1c-0.6,0.3-1.4,0.7-2.2,1.1c-0.4,0.2-7.7,4.2-7.6,4.2c-2.5,1.7-4.3,3.4-5,5.2 c-0.9,2.2-0.5,4.2,1.5,6.1c1.1,1.1,2.7,2,4.5,2.9c2.1,1,4.8,1.9,7,2.9c4.2,1.9,7.3,4,9,6.5c0.1,0.2,0.2,0.3,0.3,0.5l0.1,0.1 c0,0,0,0,0,0.1c0.1,0.3,0.3,0.5,0.4,0.8c0.2,0.5,0.4,1.1,0.4,1.6c0.1,0.5,0.1,1.1,0,1.6c0,0.3-0.1,0.5-0.1,0.8 c0,0.1-0.1,0.2-0.1,0.4c0,0,0,0,0,0.1c0,0,0,0,0,0.1c-0.5,1.2-1.3,2.4-2.2,3.3c-0.2,0.3-0.5,0.5-0.8,0.8l-0.3,0.3 c-0.1,0.1-0.4,0.4-0.4,0.4c-0.5,0.4-1,0.8-1.6,1.2c-0.6,0.4-1.3,0.8-2.1,1.2c-0.4,0.2-0.7,0.4-1.1,0.6l-0.3,0.1l-0.2,0.1 c-0.8,0.3-1.5,0.7-2.4,1c-0.4,0.1-0.8,0.3-1.2,0.4l-0.1,0l-0.2,0.1c-2.4,0.7-3.5,1.7-1.8,2.4c1.5,0.6,5.2,0.7,7.7,0 c8.9-2.6,14-6.2,16.5-9.4c3.7-4.7,2.3-9.4-3-13.4c-1.9-1.4-3.9-2.5-6.1-3.5c-2.2-1.1-5-2-7.2-3c-0.5-0.2-1-0.5-1.4-0.7l-0.3-0.2 c-0.1-0.1-0.3-0.2-0.4-0.3C39.6,86,39,85.5,38.5,85c-0.2-0.2-0.5-0.5-0.7-0.7c-0.1-0.1-0.2-0.2-0.2-0.3l-0.1-0.1 c0-0.1-0.1-0.2-0.1-0.2c0-0.1-0.1-0.2-0.1-0.3c-0.1-0.2-0.2-0.5-0.2-0.7c-0.1-0.5-0.1-0.9,0-1.4c0-0.1,0-0.2,0.1-0.3 c0,0,0-0.1,0-0.1c0-0.1,0.1-0.2,0.1-0.2c0.1-0.1,0.1-0.3,0.2-0.4c1.5-2.2,13.4-8.1,15.7-9.7c1.1-0.7,2.1-1.6,3-2.6 c0.5-0.6,1-1.2,1.4-1.8c2.4-3.9,1.1-8-3.3-11.8c-1.8-1.5-3.7-2.8-5.7-3.9c-2.1-1.2-4.8-2.3-6.9-3.5c-0.5-0.3-0.9-0.5-1.3-0.8 c-0.1,0-0.2-0.2-0.3-0.2l-0.4-0.3c-0.6-0.4-1.1-1-1.6-1.5c-0.2-0.2-0.4-0.5-0.6-0.8c-0.1-0.1-0.2-0.2-0.2-0.3L37,42.7 c0-0.1-0.1-0.2-0.1-0.2c0-0.1-0.1-0.2-0.1-0.3c-0.1-0.2-0.1-0.5-0.1-0.7c0-0.5,0-0.9,0.1-1.4c0-0.1,0.1-0.2,0.1-0.3l0.1-0.1 l0.1-0.2c0.1-0.1,0.1-0.2,0.2-0.4c0.6-0.9,1.4-1.7,2.3-2.4c0.1-0.1,0.3-0.2,0.4-0.3c0.3-0.2,0.5-0.3,0.8-0.5c0.6-0.4,1.2-0.7,1.8-1 c1.2-0.6,2.6-1.3,4.1-1.8l0.6-0.2l0.3-0.1c0.3-0.1,0.6-0.2,0.9-0.3c0.8-0.3,1.6-0.5,2.4-0.8c1.3-0.4,2.7-0.9,4.2-1.3 c1-0.3,2-0.5,3.1-0.8l0.9-0.2c0.2-0.1,0,0-0.3,0.1C60.9,28.7,61.9,27.9,60.3,27.1L60.3,27.1z"/> <path fill="#f4e9be" d="M96.1,27.1c-1.4-0.7-5.2-1.1-7.6-0.6c-4,0.9-8,2-11.9,3.3c-7.1,2.5-12.9,5.5-14.6,8.8 c-1.1,2.1-0.9,4.1,0.9,6.2c1,1.1,2.5,2.2,4.3,3.3c2,1.2,4.6,2.3,6.8,3.5c4,2.2,6.9,4.6,8.4,7.1c0.1,0.2,0.2,0.3,0.3,0.5 c0,0,0,0.1,0,0.1c0,0,0,0,0,0.1c0.1,0.3,0.2,0.5,0.3,0.8c0.2,0.5,0.3,1.1,0.3,1.7c0,0.5,0,1.1-0.1,1.6c-0.1,0.2-0.1,0.5-0.2,0.7 c0,0.1-0.1,0.2-0.1,0.4c0,0,0,0,0,0.1c0,0,0,0,0,0.1c-0.6,1.2-1.5,2.3-2.5,3.2c-0.3,0.2-0.6,0.5-0.8,0.7l-0.3,0.2 c-0.1,0.1-0.5,0.3-0.5,0.3c-0.5,0.4-1.1,0.7-1.7,1s-1.4,0.7-2.2,1.1c-0.4,0.2-7.7,4.2-7.6,4.2c-2.5,1.7-4.3,3.4-5,5.2 c-0.9,2.2-0.5,4.2,1.5,6.1c1.1,1.1,2.7,2,4.5,2.9c2.1,1,4.8,1.9,7,2.9c4.2,1.9,7.3,4,9,6.5c0.1,0.2,0.2,0.3,0.3,0.5l0.1,0.1 c0,0,0,0,0,0.1c0.1,0.3,0.3,0.5,0.4,0.8c0.2,0.5,0.4,1.1,0.4,1.6c0.1,0.5,0.1,1.1,0,1.6c0,0.3-0.1,0.5-0.1,0.8 c0,0.1-0.1,0.2-0.1,0.4c0,0,0,0,0,0.1c0,0,0,0,0,0.1c-0.5,1.2-1.3,2.4-2.2,3.3c-0.2,0.3-0.5,0.5-0.8,0.8l-0.3,0.3 c-0.1,0.1-0.4,0.4-0.4,0.4c-0.5,0.4-1,0.8-1.6,1.2c-0.6,0.4-1.3,0.8-2.1,1.2c-0.4,0.2-0.7,0.4-1.1,0.6l-0.3,0.1l-0.2,0.1 c-0.8,0.3-1.5,0.7-2.4,1c-0.4,0.1-0.8,0.3-1.2,0.4l-0.1,0l-0.2,0.1c-2.4,0.7-3.5,1.7-1.8,2.4c1.5,0.6,5.2,0.7,7.7,0 c8.9-2.6,14-6.2,16.5-9.4c3.7-4.7,2.3-9.4-3-13.4c-1.9-1.4-3.9-2.5-6.1-3.5c-2.2-1-4.9-2-7.2-3c-0.5-0.2-1-0.5-1.4-0.7l-0.3-0.2 c-0.1-0.1-0.3-0.2-0.4-0.3c-0.6-0.4-1.2-0.9-1.8-1.4c-0.2-0.2-0.5-0.5-0.7-0.7c-0.1-0.1-0.2-0.2-0.2-0.3l-0.1-0.1 c0-0.1-0.1-0.2-0.1-0.2c0-0.1-0.1-0.2-0.1-0.3c-0.1-0.2-0.2-0.5-0.2-0.7c-0.1-0.5-0.1-0.9,0-1.4c0-0.1,0-0.2,0.1-0.3 c0-0.2,0-0.1,0-0.1c0-0.1,0.1-0.2,0.1-0.2c0.1-0.1,0.1-0.3,0.2-0.4c1.5-2.2,13.4-8.1,15.7-9.7c1.1-0.7,2.1-1.6,3-2.6 c0.5-0.6,1-1.2,1.4-1.8c2.4-3.9,1.1-8-3.3-11.8c-1.8-1.5-3.7-2.8-5.8-4c-2.1-1.2-4.8-2.3-6.9-3.5c-0.5-0.3-0.9-0.5-1.3-0.8 c-0.1,0-0.2-0.2-0.3-0.2l-0.4-0.3c-0.6-0.4-1.1-1-1.6-1.5c-0.2-0.2-0.4-0.5-0.6-0.8C73,43.1,73,43,72.9,42.9l-0.1-0.1 c0-0.1-0.1-0.2-0.1-0.2c0-0.1-0.1-0.2-0.1-0.3c-0.1-0.2-0.1-0.5-0.1-0.7c0-0.5,0-0.9,0.1-1.4c0-0.1,0.1-0.2,0.1-0.3l0.1-0.1 c0-0.1,0.1-0.2,0.1-0.2c0.1-0.1,0.1-0.2,0.2-0.4c0.6-0.9,1.4-1.7,2.3-2.4c0.1-0.1,0.3-0.2,0.4-0.3c0.3-0.2,0.5-0.3,0.8-0.5 c0.6-0.4,1.2-0.7,1.8-1c1.2-0.6,2.6-1.3,4.1-1.8l0.6-0.2l0.3-0.1c0.3-0.1,0.6-0.2,0.9-0.3c0.8-0.3,1.6-0.5,2.4-0.8 c1.3-0.4,2.8-0.9,4.2-1.3c1-0.3,2-0.5,3.1-0.8l0.9-0.2c0.2-0.1,0,0-0.3,0.1C96.7,28.7,97.6,27.9,96.1,27.1L96.1,27.1z"/> <path fill="#113132" d="M85.1,27.1c-1.4-0.7-5.2-1.1-7.6-0.6c-4,0.9-8,2-11.9,3.3c-7.1,2.5-12.9,5.5-14.6,8.8 c-1.1,2.1-0.9,4.1,0.9,6.2c1,1.1,2.5,2.2,4.3,3.3c2,1.2,4.6,2.3,6.8,3.5c4,2.2,6.9,4.6,8.4,7.1c0.1,0.2,0.2,0.3,0.3,0.5l0,0.1 c0,0,0,0,0,0.1c0.1,0.3,0.2,0.5,0.3,0.8c0.2,0.5,0.3,1.1,0.3,1.7c0,0.5,0,1.1-0.1,1.6c-0.1,0.2-0.1,0.5-0.2,0.7 c0,0.1-0.1,0.2-0.1,0.4l0,0.1l0,0.1c-0.6,1.2-1.5,2.3-2.5,3.2c-0.3,0.2-0.6,0.5-0.8,0.7l-0.3,0.2c-0.1,0.1-0.5,0.3-0.5,0.3 c-0.5,0.4-1.1,0.7-1.7,1c-0.6,0.3-1.4,0.7-2.2,1.1c-0.4,0.2-7.7,4.2-7.6,4.2c-2.5,1.7-4.3,3.4-5,5.2c-0.9,2.2-0.5,4.2,1.5,6.1 c1.1,1.1,2.7,2,4.5,2.9c2.1,1,4.8,1.9,7,2.9c4.2,1.9,7.3,4,9,6.5c0.1,0.2,0.2,0.3,0.3,0.5c0,0,0,0.1,0.1,0.1c0,0,0,0,0,0.1 c0.1,0.3,0.3,0.5,0.4,0.8c0.2,0.5,0.3,1.1,0.4,1.6c0.1,0.5,0.1,1.1,0,1.6c0,0.3-0.1,0.5-0.1,0.8c0,0.1-0.1,0.2-0.1,0.4 c0,0,0,0.1,0,0.1c0,0,0,0,0,0.1c-0.5,1.2-1.3,2.4-2.2,3.3c-0.2,0.3-0.5,0.5-0.8,0.8l-0.3,0.3c-0.1,0.1-0.4,0.4-0.4,0.4 c-0.5,0.4-1,0.8-1.6,1.2c-0.6,0.4-1.3,0.8-2.1,1.2c-0.4,0.2-0.7,0.4-1.1,0.6l-0.3,0.1l-0.2,0.1c-0.8,0.3-1.5,0.7-2.4,1 c-0.4,0.1-0.8,0.3-1.2,0.4l-0.1,0l-0.2,0.1c-2.4,0.7-3.5,1.7-1.8,2.4c1.5,0.6,5.2,0.7,7.7,0c8.9-2.6,14-6.2,16.5-9.4 c3.7-4.7,2.3-9.4-3-13.4c-1.9-1.4-3.9-2.5-6.1-3.5c-2.2-1-5-2-7.2-3c-0.5-0.2-1-0.5-1.4-0.7l-0.3-0.2c-0.1-0.1-0.3-0.2-0.4-0.3 c-0.6-0.4-1.2-0.9-1.8-1.4c-0.2-0.2-0.5-0.5-0.7-0.7c-0.1-0.1-0.2-0.2-0.2-0.3c0,0,0-0.1-0.1-0.1c0-0.1-0.1-0.2-0.1-0.2 c0-0.1-0.1-0.2-0.1-0.3c-0.1-0.2-0.1-0.5-0.2-0.7c-0.1-0.5-0.1-0.9,0-1.4c0-0.1,0-0.2,0.1-0.3c0,0,0-0.1,0-0.1 c0-0.1,0.1-0.2,0.1-0.2c0-0.1,0.1-0.3,0.2-0.4c1.5-2.2,13.4-8.1,15.7-9.7c1.1-0.7,2.1-1.6,3-2.6c0.5-0.6,1-1.2,1.4-1.8 c2.4-3.9,1.1-8-3.3-11.8c-1.8-1.5-3.7-2.8-5.7-3.9c-2.1-1.2-4.8-2.3-6.9-3.5c-0.5-0.3-0.9-0.5-1.3-0.8l-0.3-0.2l-0.4-0.3 c-0.6-0.4-1.1-1-1.6-1.5c-0.2-0.2-0.4-0.5-0.6-0.8c-0.1-0.1-0.2-0.2-0.2-0.3l-0.1-0.1c0-0.1-0.1-0.2-0.1-0.2c0-0.1-0.1-0.2-0.1-0.3 c-0.1-0.2-0.1-0.5-0.1-0.7c0-0.5,0-0.9,0.1-1.4c0-0.1,0.1-0.2,0.1-0.3l0.1-0.1l0.1-0.2c0.1-0.1,0.1-0.2,0.2-0.4 c0.6-0.9,1.4-1.7,2.3-2.4c0.1-0.1,0.3-0.2,0.4-0.3c0.3-0.2,0.5-0.3,0.8-0.5c0.6-0.4,1.2-0.7,1.8-1c1.2-0.6,2.6-1.3,4.1-1.8l0.6-0.2 c0.2-0.1,0.2-0.1,0.3-0.1c0.3-0.1,0.6-0.2,0.9-0.3c0.8-0.3,1.6-0.5,2.4-0.8c1.3-0.4,2.8-0.9,4.2-1.3c1-0.3,2-0.5,3.1-0.8 c0.3-0.1,0.6-0.1,0.9-0.2c0.2-0.1,0,0-0.3,0.1C85.7,28.7,86.7,27.9,85.1,27.1z"/> <path fill="#f4e9be" d="M120.9,27.1c-1.4-0.7-5.2-1.1-7.6-0.6c-4,0.9-8,2-11.9,3.3c-7.2,2.5-12.9,5.5-14.6,8.8 c-1.1,2.1-0.8,4.1,0.9,6.2c1,1.1,2.5,2.2,4.3,3.3c2,1.2,4.6,2.3,6.8,3.5c4,2.2,6.9,4.6,8.4,7.1c0.1,0.2,0.2,0.3,0.3,0.5 c0,0,0,0.1,0,0.1l0,0.1c0.1,0.3,0.2,0.5,0.3,0.8c0.2,0.5,0.3,1.1,0.3,1.7c0,0.5,0,1.1-0.1,1.6c-0.1,0.2-0.1,0.5-0.2,0.7 c0,0.1-0.1,0.2-0.1,0.4c0,0,0,0.1,0,0.1l0,0.1c-0.6,1.2-1.5,2.3-2.5,3.2c-0.3,0.2-0.6,0.5-0.9,0.7c-0.1,0.1-0.2,0.2-0.3,0.2 c-0.1,0.1-0.5,0.3-0.5,0.3c-0.5,0.4-1.1,0.7-1.7,1c-0.6,0.3-1.4,0.7-2.2,1.1c-0.4,0.2-7.7,4.2-7.6,4.2c-2.5,1.7-4.3,3.4-5,5.2 c-0.9,2.2-0.5,4.2,1.5,6.1c1.1,1.1,2.7,2,4.5,2.9c2.1,1,4.8,1.9,7,2.9c4.2,1.9,7.3,4,9,6.5c0.1,0.2,0.2,0.3,0.3,0.5 c0,0,0,0.1,0.1,0.1c0,0,0,0,0,0.1c0.1,0.3,0.3,0.5,0.4,0.8c0.2,0.5,0.3,1.1,0.4,1.6c0.1,0.5,0.1,1.1,0,1.6c0,0.3-0.1,0.5-0.1,0.8 c0,0.1-0.1,0.2-0.1,0.4c0,0,0,0,0,0.1c0,0,0,0,0,0.1c-0.5,1.2-1.3,2.4-2.2,3.3c-0.2,0.3-0.5,0.5-0.8,0.8l-0.3,0.3 c-0.1,0.1-0.4,0.4-0.4,0.4c-0.5,0.4-1.1,0.8-1.6,1.2c-0.7,0.4-1.4,0.8-2.1,1.2c-0.4,0.2-0.7,0.4-1.1,0.6l-0.3,0.1l-0.2,0.1 c-0.8,0.3-1.5,0.7-2.4,1c-0.4,0.1-0.8,0.3-1.2,0.4l-0.1,0l-0.2,0.1c-2.4,0.7-3.5,1.7-1.8,2.4c1.5,0.6,5.2,0.7,7.7,0 c8.9-2.6,14-6.2,16.5-9.4c3.7-4.7,2.3-9.4-3-13.4c-1.9-1.4-3.9-2.5-6.1-3.5c-2.2-1-5-2-7.2-3c-0.5-0.2-1-0.5-1.4-0.7l-0.3-0.2 c-0.1-0.1-0.3-0.2-0.4-0.3c-0.6-0.4-1.2-0.9-1.7-1.4c-0.2-0.2-0.5-0.5-0.7-0.7c-0.1-0.1-0.2-0.2-0.2-0.3c0,0,0-0.1-0.1-0.1 c0-0.1-0.1-0.2-0.1-0.2c0-0.1-0.1-0.2-0.1-0.3c-0.1-0.2-0.1-0.5-0.2-0.7c-0.1-0.5-0.1-0.9,0-1.4c0-0.1,0-0.2,0.1-0.3 c0,0,0-0.1,0-0.1l0.1-0.2c0.1-0.1,0.1-0.3,0.2-0.4c1.5-2.2,13.4-8.1,15.7-9.7c1.1-0.7,2.1-1.6,3-2.6c0.5-0.6,1-1.2,1.4-1.8 c2.4-3.9,1.1-8-3.3-11.8c-1.8-1.5-3.7-2.8-5.8-4c-2.1-1.2-4.8-2.3-6.9-3.5c-0.5-0.3-0.9-0.5-1.3-0.8l-0.3-0.2l-0.4-0.3 c-0.6-0.4-1.1-1-1.6-1.5c-0.2-0.2-0.4-0.5-0.6-0.8c-0.1-0.1-0.2-0.2-0.2-0.3l-0.1-0.1c0-0.1-0.1-0.2-0.1-0.2c0-0.1-0.1-0.2-0.1-0.3 c-0.1-0.2-0.1-0.5-0.1-0.7c0-0.5,0-0.9,0.1-1.4c0-0.1,0.1-0.2,0.1-0.3c0,0,0-0.1,0.1-0.1l0.1-0.2c0.1-0.1,0.1-0.2,0.2-0.4 c0.6-0.9,1.4-1.7,2.3-2.4l0.4-0.3c0.3-0.2,0.5-0.3,0.8-0.5c0.6-0.4,1.2-0.7,1.8-1c1.2-0.6,2.6-1.3,4.1-1.8l0.6-0.2l0.3-0.1 c0.3-0.1,0.6-0.2,0.9-0.3c0.8-0.3,1.6-0.5,2.4-0.8c1.4-0.4,2.8-0.9,4.2-1.3c1-0.3,2-0.5,3.1-0.8l0.9-0.2c0.2-0.1,0,0-0.3,0.1 C121.5,28.7,122.4,27.9,120.9,27.1L120.9,27.1z"/> <path fill="#113132" d="M109.9,27.1c-1.4-0.7-5.2-1.1-7.6-0.6c-4,0.9-8,2-11.9,3.3c-7.2,2.5-12.9,5.5-14.6,8.8 c-1.1,2.1-0.8,4.1,0.9,6.2c1,1.1,2.5,2.2,4.3,3.3c2,1.2,4.6,2.3,6.8,3.5c4,2.2,6.9,4.6,8.4,7.1c0.1,0.2,0.2,0.3,0.3,0.5l0,0.1 l0,0.1c0.1,0.3,0.2,0.5,0.3,0.8c0.2,0.5,0.3,1.1,0.3,1.7c0,0.5,0,1.1-0.1,1.6c-0.1,0.2-0.1,0.5-0.2,0.7c0,0.1-0.1,0.2-0.1,0.4 l0,0.1l0,0.1c-0.6,1.2-1.5,2.3-2.5,3.2c-0.3,0.2-0.5,0.5-0.8,0.7l-0.3,0.2c-0.1,0.1-0.5,0.3-0.5,0.3c-0.5,0.4-1.1,0.7-1.7,1 c-0.6,0.3-1.4,0.7-2.2,1.1c-0.4,0.2-7.7,4.2-7.6,4.2c-2.5,1.7-4.3,3.4-5,5.2c-0.9,2.2-0.5,4.2,1.5,6.1c1.1,1.1,2.7,2,4.5,2.9 c2.1,1,4.8,1.9,7,2.9c4.2,1.9,7.3,4,9,6.5c0.1,0.2,0.2,0.3,0.3,0.5l0.1,0.1c0,0,0,0,0,0.1c0.1,0.3,0.3,0.5,0.4,0.8 c0.2,0.5,0.3,1.1,0.4,1.6c0.1,0.5,0.1,1.1,0,1.6c0,0.3-0.1,0.5-0.1,0.8c0,0.1-0.1,0.2-0.1,0.4c0,0,0,0,0,0.1l0,0.1 c-0.5,1.2-1.3,2.4-2.2,3.3c-0.2,0.3-0.5,0.5-0.8,0.8l-0.3,0.3c-0.1,0.1-0.4,0.4-0.4,0.4c-0.5,0.4-1,0.8-1.6,1.2 c-0.6,0.4-1.3,0.8-2.1,1.2c-0.4,0.2-0.7,0.4-1.1,0.6l-0.3,0.1l-0.2,0.1c-0.8,0.3-1.5,0.7-2.4,1c-0.4,0.1-0.8,0.3-1.2,0.4l-0.1,0 l-0.2,0.1c-2.4,0.7-3.5,1.7-1.8,2.4c1.5,0.6,5.2,0.7,7.7,0c8.9-2.6,14-6.2,16.5-9.4c3.7-4.7,2.3-9.4-3.1-13.4 c-1.9-1.4-3.9-2.5-6.1-3.5c-2.2-1-5-2-7.2-3c-0.5-0.2-1-0.5-1.4-0.7l-0.3-0.2c-0.1-0.1-0.3-0.2-0.4-0.3c-0.6-0.4-1.2-0.9-1.8-1.4 c-0.2-0.2-0.5-0.5-0.7-0.7c-0.1-0.1-0.2-0.2-0.2-0.3c0,0,0-0.1-0.1-0.1c0-0.1-0.1-0.2-0.1-0.2c0-0.1-0.1-0.2-0.1-0.3 c-0.1-0.2-0.1-0.5-0.2-0.7c-0.1-0.5-0.1-0.9,0-1.4c0-0.1,0-0.2,0.1-0.3l0-0.1l0.1-0.2c0.1-0.1,0.1-0.3,0.2-0.4 c1.5-2.2,13.4-8.1,15.7-9.7c1.1-0.7,2.1-1.6,3-2.6c0.5-0.6,1-1.2,1.4-1.8c2.4-3.9,1.1-8-3.3-11.8c-1.8-1.5-3.7-2.8-5.8-4 c-2.1-1.2-4.8-2.3-6.9-3.5c-0.5-0.3-0.9-0.5-1.3-0.8c-0.1,0-0.2-0.2-0.3-0.2l-0.4-0.3c-0.6-0.4-1.1-1-1.6-1.5 c-0.2-0.2-0.4-0.5-0.6-0.8c-0.1-0.1-0.2-0.2-0.2-0.3l-0.1-0.1c0-0.1-0.1-0.2-0.1-0.2c0-0.1-0.1-0.2-0.1-0.3 c-0.1-0.2-0.1-0.5-0.1-0.7c0-0.5,0-0.9,0.1-1.4c0-0.1,0.1-0.2,0.1-0.3l0.1-0.1l0.1-0.2c0.1-0.1,0.1-0.2,0.2-0.4 c0.6-0.9,1.4-1.7,2.3-2.4c0.1-0.1,0.3-0.2,0.4-0.3c0.3-0.2,0.5-0.3,0.8-0.5c0.6-0.4,1.2-0.7,1.8-1c1.2-0.6,2.6-1.3,4.1-1.8l0.6-0.2 l0.3-0.1c0.3-0.1,0.6-0.2,0.9-0.3c0.8-0.3,1.6-0.5,2.4-0.8c1.3-0.4,2.8-0.9,4.2-1.3c1-0.3,2-0.5,3.1-0.8l0.9-0.2 c0.2-0.1,0,0-0.3,0.1C110.5,28.7,111.4,27.9,109.9,27.1L109.9,27.1z"/> <path fill="#f4e9be" d="M145.7,27.1c-1.4-0.7-5.2-1.1-7.6-0.6c-4,0.9-8,2-11.9,3.3c-7.2,2.5-12.9,5.5-14.6,8.8 c-1.1,2.1-0.8,4.1,0.9,6.2c1,1.1,2.5,2.2,4.3,3.3c2,1.2,4.6,2.3,6.8,3.5c4,2.2,6.9,4.6,8.4,7.1c0.1,0.2,0.2,0.3,0.3,0.5 c0,0,0,0.1,0,0.1l0,0.1c0.1,0.3,0.2,0.5,0.3,0.8c0.2,0.5,0.3,1.1,0.3,1.7c0,0.5,0,1.1-0.1,1.6c-0.1,0.2-0.1,0.5-0.2,0.7 c0,0.1-0.1,0.2-0.1,0.4c0,0,0,0.1,0,0.1l0,0.1c-0.6,1.2-1.5,2.3-2.5,3.2c-0.3,0.2-0.5,0.5-0.9,0.7l-0.3,0.2 c-0.1,0.1-0.5,0.3-0.5,0.3c-0.5,0.4-1.1,0.7-1.7,1s-1.4,0.7-2.2,1.1c-0.4,0.2-7.7,4.2-7.6,4.2c-2.5,1.7-4.3,3.4-5,5.2 c-0.9,2.2-0.5,4.2,1.5,6.1c1.1,1.1,2.7,2,4.5,2.9c2.1,1,4.8,1.9,7,2.9c4.2,1.9,7.3,4,9,6.5c0.1,0.2,0.2,0.3,0.3,0.5l0.1,0.1l0,0.1 c0.1,0.3,0.3,0.5,0.4,0.8c0.2,0.5,0.3,1.1,0.4,1.6c0.1,0.5,0.1,1.1,0,1.6c0,0.3-0.1,0.5-0.1,0.8c0,0.1-0.1,0.2-0.1,0.4 c0,0,0,0,0,0.1l0,0.1c-0.5,1.2-1.3,2.4-2.2,3.3c-0.2,0.3-0.5,0.5-0.8,0.8l-0.3,0.3c-0.1,0.1-0.4,0.4-0.4,0.4 c-0.5,0.4-1,0.8-1.6,1.2c-0.6,0.4-1.3,0.8-2.1,1.2c-0.4,0.2-0.7,0.4-1.1,0.6l-0.3,0.1l-0.2,0.1c-0.8,0.3-1.5,0.7-2.4,1 c-0.4,0.1-0.8,0.3-1.2,0.4l-0.1,0l-0.2,0.1c-2.4,0.7-3.5,1.7-1.8,2.4c1.5,0.6,5.2,0.7,7.7,0c8.9-2.6,14-6.2,16.5-9.4 c3.7-4.7,2.3-9.4-3-13.4c-1.9-1.4-3.9-2.5-6.1-3.5c-2.2-1-5-2-7.2-3c-0.5-0.2-1-0.5-1.4-0.7l-0.3-0.2c-0.1-0.1-0.3-0.2-0.4-0.3 c-0.6-0.4-1.2-0.9-1.7-1.4c-0.2-0.2-0.5-0.5-0.7-0.7c-0.1-0.1-0.2-0.2-0.2-0.3c0,0,0-0.1-0.1-0.1c0-0.1-0.1-0.2-0.1-0.2 c-0.1-0.1-0.1-0.2-0.1-0.3c-0.1-0.2-0.2-0.5-0.2-0.7c-0.1-0.5-0.1-0.9,0-1.4c0-0.1,0-0.2,0.1-0.3l0-0.1l0.1-0.2 c0.1-0.1,0.1-0.3,0.2-0.4c1.5-2.2,13.4-8.1,15.7-9.7c1.1-0.7,2.1-1.6,3-2.6c0.5-0.6,1-1.2,1.4-1.8c2.4-3.9,1.1-8-3.3-11.8 c-1.8-1.5-3.7-2.8-5.8-4c-2.1-1.2-4.8-2.3-6.9-3.5c-0.5-0.3-0.9-0.5-1.3-0.8c-0.1,0-0.2-0.2-0.3-0.2l-0.4-0.3 c-0.6-0.4-1.1-1-1.6-1.5c-0.2-0.2-0.4-0.5-0.6-0.8c-0.1-0.1-0.2-0.2-0.2-0.3l-0.1-0.1c0-0.1-0.1-0.2-0.1-0.2c0-0.1-0.1-0.2-0.1-0.3 c-0.1-0.2-0.1-0.5-0.1-0.7c0-0.5,0-0.9,0.1-1.4c0-0.1,0.1-0.2,0.1-0.3l0.1-0.1l0.1-0.2c0.1-0.1,0.1-0.2,0.2-0.4 c0.6-0.9,1.4-1.7,2.3-2.4c0.1-0.1,0.3-0.2,0.4-0.3c0.3-0.2,0.5-0.3,0.8-0.5c0.6-0.4,1.2-0.7,1.8-1c1.2-0.6,2.6-1.3,4.1-1.8l0.6-0.2 l0.3-0.1c0.3-0.1,0.6-0.2,0.9-0.3c0.8-0.3,1.6-0.5,2.4-0.8c1.3-0.4,2.7-0.9,4.2-1.3c1-0.3,2-0.5,3.1-0.8l0.9-0.2 c0.2-0.1,0,0-0.3,0.1C146.3,28.7,147.2,27.9,145.7,27.1L145.7,27.1z"/> <path fill="#113132" d="M134.7,27.1c-1.4-0.7-5.2-1.1-7.6-0.6c-4,0.9-8,2-11.9,3.3c-7.1,2.5-12.9,5.5-14.6,8.8 c-1.1,2.1-0.9,4.1,0.9,6.2c1,1.1,2.5,2.2,4.3,3.3c2,1.2,4.6,2.3,6.8,3.5c4,2.2,6.9,4.6,8.4,7.1c0.1,0.2,0.2,0.3,0.3,0.5 c0,0,0,0.1,0,0.1c0,0,0,0,0,0.1c0.1,0.3,0.2,0.5,0.3,0.8c0.2,0.5,0.3,1.1,0.3,1.7c0,0.5,0,1.1-0.1,1.6c-0.1,0.2-0.1,0.5-0.2,0.7 c0,0.1-0.1,0.2-0.1,0.4c0,0,0,0,0,0.1c0,0,0,0,0,0.1c-0.6,1.2-1.5,2.3-2.5,3.2c-0.3,0.2-0.6,0.5-0.8,0.7l-0.3,0.2 c-0.1,0.1-0.5,0.3-0.5,0.3c-0.5,0.4-1.1,0.7-1.7,1s-1.4,0.7-2.2,1.1c-0.4,0.2-7.7,4.2-7.6,4.2c-2.5,1.7-4.3,3.4-5,5.2 c-0.9,2.2-0.5,4.2,1.5,6.1c1.1,1.1,2.7,2,4.5,2.9c2.1,1,4.8,1.9,7,2.9c4.2,1.9,7.3,4,9,6.5c0.1,0.2,0.2,0.3,0.3,0.5l0.1,0.1l0,0.1 c0.1,0.3,0.3,0.5,0.4,0.8c0.2,0.5,0.4,1.1,0.4,1.6c0.1,0.5,0.1,1.1,0,1.6c0,0.3-0.1,0.5-0.1,0.8c0,0.1-0.1,0.2-0.1,0.4 c0,0,0,0,0,0.1c0,0,0,0,0,0.1c-0.5,1.2-1.3,2.4-2.2,3.3c-0.2,0.3-0.5,0.5-0.8,0.8l-0.3,0.3c-0.1,0.1-0.4,0.4-0.4,0.4 c-0.5,0.4-1,0.8-1.6,1.2s-1.3,0.8-2.1,1.2c-0.4,0.2-0.7,0.4-1.1,0.6l-0.3,0.1l-0.2,0.1c-0.8,0.3-1.5,0.7-2.4,1 c-0.4,0.1-0.8,0.3-1.2,0.4l-0.1,0l-0.2,0.1c-2.4,0.7-3.5,1.7-1.8,2.4c1.5,0.6,5.2,0.7,7.7,0c8.9-2.6,14-6.2,16.5-9.4 c3.7-4.7,2.3-9.4-3-13.4c-1.9-1.4-3.9-2.5-6.1-3.5c-2.2-1-5-2-7.2-3c-0.5-0.2-1-0.5-1.4-0.7l-0.3-0.2c-0.1-0.1-0.3-0.2-0.4-0.3 c-0.6-0.4-1.2-0.9-1.7-1.4c-0.2-0.2-0.5-0.5-0.7-0.7c-0.1-0.1-0.2-0.2-0.2-0.3l-0.1-0.1c0-0.1-0.1-0.2-0.1-0.2 c-0.1-0.1-0.1-0.2-0.1-0.3c-0.1-0.2-0.2-0.5-0.2-0.7c-0.1-0.5-0.1-0.9,0-1.4c0-0.1,0-0.2,0.1-0.3c0,0,0-0.1,0-0.1l0.1-0.2 c0.1-0.1,0.1-0.3,0.2-0.4c1.5-2.2,13.4-8.1,15.7-9.7c1.1-0.7,2.1-1.6,3-2.6c0.5-0.6,1-1.2,1.4-1.8c2.4-3.9,1.1-8-3.3-11.8 c-1.8-1.5-3.7-2.8-5.8-3.9c-2.1-1.2-4.8-2.3-6.9-3.5c-0.5-0.3-0.9-0.5-1.3-0.8c-0.1,0-0.2-0.2-0.3-0.2c-0.1-0.1-0.3-0.2-0.4-0.3 c-0.6-0.4-1.1-0.9-1.6-1.5c-0.2-0.2-0.4-0.5-0.6-0.8c-0.1-0.1-0.2-0.2-0.2-0.3l-0.1-0.1c0-0.1-0.1-0.2-0.1-0.2 c0-0.1-0.1-0.2-0.1-0.3c-0.1-0.2-0.1-0.5-0.1-0.7c0-0.5,0-0.9,0.1-1.4c0-0.1,0.1-0.2,0.1-0.3l0.1-0.1c0-0.1,0.1-0.2,0.1-0.2 c0.1-0.1,0.1-0.2,0.2-0.4c0.6-0.9,1.4-1.7,2.3-2.4c0.1-0.1,0.3-0.2,0.4-0.3c0.3-0.2,0.5-0.3,0.8-0.5c0.6-0.4,1.2-0.7,1.8-1 c1.2-0.6,2.6-1.3,4.1-1.8l0.6-0.2l0.3-0.1c0.3-0.1,0.6-0.2,0.9-0.3c0.8-0.3,1.6-0.5,2.4-0.8c1.3-0.4,2.7-0.9,4.2-1.3 c1-0.3,2-0.5,3.1-0.8l0.9-0.2c0.2-0.1,0,0-0.3,0.1C135.3,28.7,136.2,27.9,134.7,27.1L134.7,27.1z"/> <path fill="#f4e9be" d="M170.5,27.1c-1.4-0.7-5.2-1.1-7.6-0.6c-4,0.9-8,2-11.9,3.3c-7.1,2.5-12.9,5.5-14.6,8.8 c-1.1,2.1-0.9,4.1,0.9,6.2c1,1.1,2.5,2.2,4.3,3.3c2,1.2,4.6,2.3,6.8,3.5c4,2.2,6.9,4.6,8.4,7.1c0.1,0.2,0.2,0.3,0.3,0.5 c0,0,0,0.1,0,0.1c0,0,0,0,0,0.1c0.1,0.3,0.2,0.5,0.3,0.8c0.2,0.5,0.3,1.1,0.3,1.7c0,0.5,0,1.1-0.1,1.6c-0.1,0.2-0.1,0.5-0.2,0.7 c0,0.1-0.1,0.2-0.1,0.4c0,0,0,0,0,0.1c0,0,0,0,0,0.1c-0.6,1.2-1.5,2.3-2.5,3.2c-0.3,0.2-0.6,0.5-0.8,0.7l-0.3,0.2 c-0.1,0.1-0.5,0.3-0.5,0.3c-0.5,0.4-1.1,0.7-1.7,1c-0.6,0.3-1.4,0.7-2.2,1.1c-0.4,0.2-7.7,4.2-7.6,4.2c-2.5,1.7-4.3,3.4-5,5.2 c-0.9,2.2-0.5,4.2,1.5,6.1c1.1,1.1,2.7,2,4.5,2.9c2.1,1,4.8,1.9,7,2.9c4.2,1.9,7.3,4,9,6.5c0.1,0.2,0.2,0.3,0.3,0.5l0.1,0.1 c0,0,0,0,0,0.1c0.1,0.3,0.3,0.5,0.4,0.8c0.2,0.5,0.4,1.1,0.4,1.6c0.1,0.5,0.1,1.1,0,1.6c0,0.3-0.1,0.5-0.1,0.8 c0,0.1-0.1,0.2-0.1,0.4c0,0,0,0,0,0.1c0,0,0,0,0,0.1c-0.5,1.2-1.3,2.4-2.2,3.3c-0.2,0.3-0.5,0.5-0.8,0.8l-0.3,0.3 c-0.1,0.1-0.4,0.4-0.4,0.4c-0.5,0.4-1,0.8-1.6,1.2c-0.6,0.4-1.3,0.8-2.1,1.2c-0.4,0.2-0.7,0.4-1.1,0.6l-0.3,0.1l-0.2,0.1 c-0.8,0.3-1.5,0.7-2.4,1c-0.4,0.1-0.8,0.3-1.2,0.4l-0.1,0l-0.2,0.1c-2.4,0.7-3.5,1.7-1.8,2.4c1.5,0.6,5.2,0.7,7.7,0 c8.9-2.6,14-6.2,16.5-9.4c3.7-4.7,2.3-9.4-3-13.4c-1.9-1.4-3.9-2.5-6.1-3.5c-2.2-1-5-2-7.2-3c-0.5-0.2-1-0.5-1.4-0.7l-0.3-0.2 c-0.1-0.1-0.3-0.2-0.4-0.3c-0.6-0.4-1.2-0.9-1.7-1.4c-0.2-0.2-0.5-0.5-0.7-0.7c-0.1-0.1-0.2-0.2-0.2-0.3l-0.1-0.1 c0-0.1-0.1-0.2-0.1-0.2c0-0.1-0.1-0.2-0.1-0.3c-0.1-0.2-0.2-0.5-0.2-0.7c-0.1-0.5-0.1-0.9,0-1.4c0-0.1,0-0.2,0.1-0.3 c0,0,0-0.1,0-0.1c0-0.1,0.1-0.2,0.1-0.2c0.1-0.1,0.1-0.3,0.2-0.4c1.5-2.2,13.4-8.1,15.7-9.7c1.1-0.7,2.1-1.6,3-2.6 c0.5-0.6,1-1.2,1.4-1.8c2.4-3.9,1.1-8-3.3-11.8c-1.8-1.5-3.7-2.8-5.8-4c-2.1-1.2-4.8-2.3-6.9-3.5c-0.5-0.3-0.9-0.5-1.3-0.8 c-0.1,0-0.2-0.2-0.3-0.2l-0.4-0.3c-0.6-0.4-1.1-1-1.6-1.5c-0.2-0.2-0.4-0.5-0.6-0.8c-0.1-0.1-0.2-0.2-0.2-0.3l-0.1-0.1 c0-0.1-0.1-0.2-0.1-0.2c0-0.1-0.1-0.2-0.1-0.3c-0.1-0.2-0.1-0.5-0.1-0.7c0-0.5,0-0.9,0.1-1.4c0-0.1,0.1-0.2,0.1-0.3l0.1-0.1 l0.1-0.2c0.1-0.1,0.1-0.2,0.2-0.4c0.6-0.9,1.4-1.7,2.3-2.4c0.1-0.1,0.3-0.2,0.4-0.3c0.3-0.2,0.5-0.3,0.8-0.5c0.6-0.4,1.2-0.7,1.8-1 c1.2-0.6,2.6-1.3,4.1-1.8l0.6-0.2l0.3-0.1c0.3-0.1,0.6-0.2,0.9-0.3c0.8-0.3,1.6-0.5,2.4-0.8c1.3-0.4,2.7-0.9,4.2-1.3 c1-0.3,2-0.5,3.1-0.8l0.9-0.2c0.2-0.1,0,0-0.3,0.1C171.1,28.7,172,27.9,170.5,27.1L170.5,27.1z"/> <path fill="#113132" d="M159.5,27.1c-1.4-0.7-5.2-1.1-7.6-0.6c-4,0.9-8,2-11.9,3.3c-7.1,2.5-12.9,5.5-14.6,8.8 c-1.1,2.1-0.9,4.1,0.9,6.2c1,1.1,2.5,2.2,4.3,3.3c2,1.2,4.6,2.3,6.8,3.5c4,2.2,6.9,4.6,8.4,7.1c0.1,0.2,0.2,0.3,0.3,0.5l0,0.1 l0,0.1c0.1,0.3,0.2,0.5,0.3,0.8c0.2,0.5,0.3,1.1,0.3,1.7c0,0.5,0,1.1-0.1,1.6c-0.1,0.2-0.1,0.5-0.2,0.7c0,0.1-0.1,0.2-0.1,0.4 c0,0,0,0,0,0.1c0,0,0,0,0,0.1c-0.6,1.2-1.5,2.3-2.5,3.2c-0.3,0.2-0.6,0.5-0.8,0.7l-0.3,0.2c-0.1,0.1-0.5,0.3-0.5,0.3 c-0.6,0.4-1.1,0.7-1.7,1c-0.7,0.4-1.4,0.7-2.2,1.1c-0.4,0.2-7.7,4.2-7.6,4.2c-2.5,1.7-4.3,3.4-5,5.2c-0.9,2.2-0.5,4.2,1.5,6.1 c1.1,1.1,2.7,2,4.5,2.9c2.1,1,4.8,1.9,7,2.9c4.2,1.9,7.3,4,9,6.5c0.1,0.2,0.2,0.3,0.3,0.5l0.1,0.1l0,0.1c0.1,0.3,0.3,0.5,0.4,0.8 c0.2,0.5,0.4,1.1,0.4,1.6c0.1,0.5,0.1,1.1,0,1.6c0,0.3-0.1,0.5-0.1,0.8c0,0.1-0.1,0.2-0.1,0.4c0,0,0,0.1,0,0.1c0,0,0,0,0,0.1 c-0.5,1.2-1.3,2.4-2.2,3.3c-0.2,0.3-0.5,0.5-0.8,0.8l-0.3,0.3c-0.1,0.1-0.4,0.4-0.4,0.4c-0.5,0.4-1,0.8-1.6,1.2 c-0.6,0.4-1.3,0.8-2.1,1.2c-0.4,0.2-0.7,0.4-1.1,0.6l-0.3,0.1l-0.2,0.1c-0.8,0.3-1.5,0.7-2.4,1c-0.4,0.1-0.8,0.3-1.2,0.4l-0.1,0 l-0.2,0.1c-2.4,0.7-3.5,1.7-1.8,2.4c1.5,0.6,5.2,0.7,7.7,0c8.9-2.6,14-6.2,16.5-9.4c3.7-4.7,2.3-9.4-3-13.4 c-1.9-1.4-3.9-2.5-6.1-3.5c-2.2-1.1-5-2-7.2-3c-0.5-0.2-1-0.5-1.4-0.7l-0.3-0.2c-0.1-0.1-0.3-0.2-0.4-0.3c-0.6-0.4-1.2-0.9-1.8-1.4 c-0.2-0.2-0.5-0.5-0.7-0.7c-0.1-0.1-0.2-0.2-0.2-0.3l-0.1-0.1c0-0.1-0.1-0.2-0.1-0.2c0-0.1-0.1-0.2-0.1-0.3 c-0.1-0.2-0.2-0.5-0.2-0.7c-0.1-0.5-0.1-0.9,0-1.4c0-0.1,0-0.2,0.1-0.3c0-0.2,0-0.1,0-0.1c0-0.1,0.1-0.2,0.1-0.2 c0-0.1,0.1-0.3,0.2-0.4c1.5-2.2,13.4-8.1,15.7-9.7c1.1-0.7,2.1-1.6,3-2.6c0.5-0.6,1-1.2,1.4-1.8c2.4-3.9,1.1-8-3.3-11.8 c-1.8-1.5-3.7-2.8-5.8-4c-2.1-1.2-4.8-2.3-6.9-3.5c-0.5-0.3-0.9-0.5-1.3-0.8c-0.1,0-0.2-0.2-0.3-0.2l-0.4-0.3 c-0.6-0.4-1.1-1-1.6-1.5c-0.2-0.2-0.4-0.5-0.6-0.8c-0.1-0.1-0.1-0.2-0.2-0.3l-0.1-0.1c0-0.1-0.1-0.2-0.1-0.2c0-0.1-0.1-0.2-0.1-0.3 c-0.1-0.2-0.1-0.5-0.1-0.7c0-0.5,0-0.9,0.1-1.4c0-0.1,0.1-0.2,0.1-0.3l0.1-0.1c0-0.1,0.1-0.2,0.1-0.2c0.1-0.1,0.1-0.2,0.2-0.4 c0.6-0.9,1.4-1.7,2.3-2.4c0.1-0.1,0.3-0.2,0.4-0.3c0.3-0.2,0.5-0.3,0.8-0.5c0.6-0.4,1.2-0.7,1.8-1c1.2-0.6,2.6-1.3,4.1-1.8l0.6-0.2 l0.3-0.1c0.3-0.1,0.6-0.2,0.9-0.3c0.8-0.3,1.6-0.5,2.4-0.8c1.3-0.4,2.8-0.9,4.2-1.3c1-0.3,2-0.5,3.1-0.8l0.9-0.2 c0.2-0.1,0,0-0.3,0.1C160.1,28.7,161,27.9,159.5,27.1L159.5,27.1z"/> <path fill="#f4e9be" d="M157.8,222.6c0,2-2,3.6-4.5,3.6h-50.7c-2.5,0-4.5-1.6-4.5-3.6v-6.9c0-2,2-3.6,4.5-3.6h50.7 c2.5,0,4.5,1.6,4.5,3.6V222.6z"/> <path fill="#113132" d="M154.5,222.6c0,0.6-6.4,0.3-6.6,0.3h-44c-0.5,0-1.9,0.2-2.3-0.3c-0.3-0.3-0.1-1.6-0.1-2v-4.1 c0-1.1,0.5-1.1,1.5-1.1c1.2,0,2.3,0,3.5,0h45.6c0.5,0,2.1-0.2,2.3,0.3c0.4,0.6,0,2.7,0,3.4L154.5,222.6c0,4.3,6.7,4.3,6.7,0 c0-2.3,0.1-4.6,0-6.9c-0.2-4.3-3.8-6.9-7.9-7c-3.3-0.1-6.7,0-10.1,0h-35.4c-4.1,0-9.2-0.6-11.8,3.4c-1.7,2.6-1.1,6.2-1.1,9.1 c0,1.5,0,3,0.8,4.4c1.3,2.5,4,3.8,6.8,4c2.7,0.2,5.6,0,8.4,0h35.8c3.3,0,7.5,0.6,10.6-0.9c2.4-1.2,3.8-3.4,4-6.1 c0.1-1.8-1.6-3.3-3.3-3.3C155.9,219.3,154.6,220.8,154.5,222.6L154.5,222.6z"/> <path fill="#d26b7b" d="M128,214.9c63.1,0,114.3-45.1,114.7-100.8H13.3C13.7,169.8,64.9,214.9,128,214.9z"/> <path fill="#ffffff" d="M68.8,191.3c6.3,3.7,13,6.8,19.9,9.2c1.7,0.6,3.7-0.7,4.1-2.3c0.5-1.8-0.6-3.5-2.3-4.1 c-6.3-2.3-12.5-5.2-18.3-8.5C68.5,183.3,65.1,189.1,68.8,191.3L68.8,191.3z M27.6,145.2c5.7,14.2,15.2,26.3,26.9,36 c1.4,1.2,3.4,1.4,4.7,0c1.2-1.2,1.4-3.6,0-4.7c-10.8-8.9-20-20-25.2-33c-0.7-1.7-2.2-2.9-4.1-2.3C28.3,141.6,26.9,143.6,27.6,145.2 z M15.3,137.5h216.2c2.9,0,5.9,0.2,8.8,0h0.4c1.4,0,1.4-2.2,0-2.2H24.5c-2.9,0-5.9-0.2-8.8,0h-0.4 C13.9,135.3,13.9,137.5,15.3,137.5L15.3,137.5z M13.5,121.9h218c2.9,0,5.9,0.2,8.8,0h0.4c1.4,0,1.4-2.2,0-2.2h-218 c-2.9,0-5.9-0.2-8.8,0h-0.4C12,119.7,12,121.9,13.5,121.9L13.5,121.9z M24.3,126.6h17.5c2.2,0,2.2-3.3,0-3.3H24.3 C22.1,123.2,22.1,126.6,24.3,126.6z M24.3,133.5h17.5c2.2,0,2.2-3.3,0-3.3H24.3C22.1,130.1,22.1,133.5,24.3,133.5z"/> <path fill="#ffffff" d="M31.3,124.9v6.9c0,2.2,3.3,2.2,3.3,0v-6.9C34.7,122.7,31.3,122.7,31.3,124.9z M48.1,126.6h17.5 c2.2,0,2.2-3.3,0-3.3H48.1C45.9,123.2,45.9,126.6,48.1,126.6z M48.1,133.5h17.5c2.2,0,2.2-3.3,0-3.3H48.1 C45.9,130.1,45.9,133.5,48.1,133.5z"/> <path fill="#ffffff" d="M55.1,124.9v6.9c0,2.2,3.3,2.2,3.3,0v-6.9C58.5,122.7,55.1,122.7,55.1,124.9z M71.9,126.6h17.5 c2.2,0,2.2-3.3,0-3.3H71.9C69.7,123.2,69.7,126.6,71.9,126.6z M71.9,133.5h17.5c2.2,0,2.2-3.3,0-3.3H71.9 C69.7,130.1,69.7,133.5,71.9,133.5z"/> <path fill="#ffffff" d="M78.9,124.9v6.9c0,2.2,3.3,2.2,3.3,0v-6.9C82.3,122.7,78.9,122.7,78.9,124.9z M95.6,126.6h17.5 c2.2,0,2.2-3.3,0-3.3H95.6C93.5,123.2,93.5,126.6,95.6,126.6z M95.6,133.5h17.5c2.2,0,2.2-3.3,0-3.3H95.6 C93.5,130.1,93.5,133.5,95.6,133.5z"/> <path fill="#ffffff" d="M102.7,124.9v6.9c0,2.2,3.3,2.2,3.3,0v-6.9C106.1,122.7,102.7,122.7,102.7,124.9z M119.4,126.6h17.5 c2.2,0,2.2-3.3,0-3.3h-17.5C117.3,123.2,117.3,126.6,119.4,126.6z M119.4,133.5h17.5c2.2,0,2.2-3.3,0-3.3h-17.5 C117.3,130.1,117.3,133.5,119.4,133.5z"/> <path fill="#ffffff" d="M126.5,124.9v6.9c0,2.2,3.3,2.2,3.3,0v-6.9C129.9,122.7,126.5,122.7,126.5,124.9z M143.2,126.6h17.5 c2.2,0,2.2-3.3,0-3.3h-17.5C141.1,123.2,141.1,126.6,143.2,126.6z M143.2,133.5h17.5c2.2,0,2.2-3.3,0-3.3h-17.5 C141.1,130.1,141.1,133.5,143.2,133.5z"/> <path fill="#ffffff" d="M150.3,124.9v6.9c0,2.2,3.3,2.2,3.3,0v-6.9C153.7,122.7,150.3,122.7,150.3,124.9z M167,126.6h17.5 c2.2,0,2.2-3.3,0-3.3H167C164.9,123.2,164.9,126.6,167,126.6z M167,133.5h17.5c2.2,0,2.2-3.3,0-3.3H167 C164.9,130.1,164.9,133.5,167,133.5z"/> <path fill="#ffffff" d="M174.1,124.9v6.9c0,2.2,3.3,2.2,3.3,0v-6.9C177.5,122.7,174.1,122.7,174.1,124.9z M190.8,126.6h17.5 c2.2,0,2.2-3.3,0-3.3h-17.5C188.7,123.2,188.7,126.6,190.8,126.6z M190.8,133.5h17.5c2.2,0,2.2-3.3,0-3.3h-17.5 C188.7,130.1,188.7,133.5,190.8,133.5z"/> <path fill="#ffffff" d="M197.9,124.9v6.9c0,2.2,3.3,2.2,3.3,0v-6.9C201.3,122.7,197.9,122.7,197.9,124.9z M214.6,126.6h17.5 c2.2,0,2.2-3.3,0-3.3h-17.5C212.5,123.2,212.5,126.6,214.6,126.6z M214.6,133.5h17.5c2.2,0,2.2-3.3,0-3.3h-17.5 C212.5,130.1,212.5,133.5,214.6,133.5z"/> <path fill="#ffffff" d="M221.7,124.9v6.9c0,2.2,3.3,2.2,3.3,0v-6.9C225.1,122.7,221.7,122.7,221.7,124.9z"/> <path fill="#113132" d="M128,218.2c23.8,0,47.7-6.4,68-19.1c18.7-11.7,34.1-28.7,42.7-49.2c4.8-11.4,7.2-23.5,7.3-35.8 c0-1.8-1.5-3.3-3.3-3.3h-201c-9.3,0-18.6-0.3-27.9,0h-0.4c-1.8,0-3.3,1.5-3.3,3.3c0.2,22.1,8.3,43.2,22.1,60.4 c14.2,17.6,34,30.4,55.4,37.4C100.6,216.1,114.3,218.2,128,218.2c4.3,0,4.3-6.7,0-6.7c-22.6,0-45.1-6-64.4-18 c-17.4-10.9-31.9-26.7-40-45.7c-4.5-10.7-6.9-22.1-6.9-33.7l-3.3,3.4h220c2.9,0,6,0.2,8.9,0h0.4l-3.3-3.4 c-0.2,20.5-7.7,40.4-20.6,56.2c-13.5,16.6-32,28.6-52.2,35.2c-12.4,4-25.4,6-38.5,6C123.7,211.5,123.7,218.2,128,218.2z"/></g>
</svg>