<?xml version="1.0" encoding="utf-8"?>
<!-- Svg Vector Icons : http://www.onlinewebfonts.com/icon -->
<!DOCTYPE svg PUBLIC "-//W3C//DTD SVG 1.1//EN" "http://www.w3.org/Graphics/SVG/1.1/DTD/svg11.dtd">
<svg version="1.1" xmlns="http://www.w3.org/2000/svg" xmlns:xlink="http://www.w3.org/1999/xlink" x="0px" y="0px" viewBox="0 0 256 256" enable-background="new 0 0 256 256" xml:space="preserve">
<metadata> Svg Vector Icons : http://www.onlinewebfonts.com/icon </metadata>
<g> <path fill="#f2f2f2" d="M226.1,156.2h15.7c0,13.3-10.7,24-24,24H38.1c-6.6,0-12.6-2.7-17-7c-4.3-4.3-7-10.4-7-17H226.1z"/> <path fill="#e6e6e5" d="M54.8,156.2H14.1c0,6.6,2.7,12.6,7,17c4.3,4.3,10.3,7,17,7h40.7c-6.6,0-12.6-2.7-17-7 C57.5,168.8,54.8,162.8,54.8,156.2z"/> <path fill="#ea542c" d="M149.3,100v16.4c0,2.9-1.1,5.5-2.9,7.5c-2,2.2-4.9,3.6-8.2,3.6c-2.9,0-5.8-1.2-7.8-3.2 c-0.1-0.1-0.2-0.3-0.3-0.4c-1.8-2-2.9-4.6-2.9-7.5V75.8h44.3V100c0,3.2-1.4,6.1-3.6,8.2c-2,1.8-4.6,2.9-7.4,2.9 c-2.9,0-5.5-1.1-7.4-2.9C150.7,106.1,149.3,103.2,149.3,100L149.3,100z"/> <path fill="#edad3e" d="M28.7,139.5h197.4v16.7H28.7V139.5z M226.1,123.8v15.7H28.7v-15.7h101.3c0.1,0.1,0.2,0.3,0.3,0.4 c2,2,4.8,3.2,7.8,3.2c3.2,0,6.1-1.4,8.2-3.6H226.1L226.1,123.8z"/> <path fill="#edad3e" d="M226.1,108.2v15.7h-79.7c1.8-2,2.9-4.6,2.9-7.5v-8.2h3.6c2,1.8,4.6,2.9,7.4,2.9c2.9,0,5.5-1.1,7.4-2.9 H226.1L226.1,108.2z M130.1,123.8H28.7v-15.7h98.4v8.2C127.2,119.2,128.3,121.9,130.1,123.8z"/> <path fill="#edad3e" d="M28.7,92.5h98.4v15.7H28.7V92.5z M226.1,92.5v15.7h-58.3c2.2-2,3.6-4.9,3.6-8.2v-7.5H226.1z M171.4,75.8 h54.7v16.7h-54.7V75.8z M28.7,75.8h98.4v16.7H28.7V75.8z"/> <path fill="#d89731" d="M28.7,75.8h28v80.5h-28V75.8z"/> <path fill="#ffffff" d="M139.6,118.8c-2.3,0-4.2-1.9-4.2-4.2V86.7c0-2.3,1.9-4.2,4.2-4.2c2.3,0,4.2,1.9,4.2,4.2v27.8 C143.8,116.9,142,118.8,139.6,118.8z M161.4,103.4c-2.3,0-4.2-1.9-4.2-4.2V87.5c0-2.3,1.9-4.2,4.2-4.2s4.2,1.9,4.2,4.2v11.7 C165.5,101.5,163.7,103.4,161.4,103.4z"/> <path fill="#333333" d="M241.8,152h-11.5V75.8c0-2.3-1.9-4.2-4.2-4.2H28.7c-2.3,0-4.2,1.9-4.2,4.2V152H14.2c-2.3,0-4.2,1.9-4.2,4.2 c0,15.5,12.7,28.2,28.2,28.2h179.6c15.5,0,28.2-12.7,28.2-28.2C245.9,153.9,244.1,152,241.8,152L241.8,152z M32.9,128h95.5 c2.7,2.2,6.1,3.6,9.8,3.6c3.7,0,7.2-1.3,9.8-3.6h73.8v7.3h-189V128z M221.9,119.6h-68.8c0.2-1.1,0.4-2.2,0.4-3.3v-2.8 c2.1,1.1,4.5,1.7,6.9,1.7c3.2,0,6.3-1,8.9-2.9h52.6V119.6z M221.9,104h-46.8c0.3-1.3,0.5-2.6,0.5-4v-3.3h46.3L221.9,104L221.9,104z  M167.3,100c0,2-0.8,3.8-2.3,5.1c-1.3,1.1-2.9,1.8-4.7,1.8c-1.7,0-3.4-0.6-4.7-1.8c-1.5-1.3-2.3-3.1-2.3-5.1v-9.8 c0-2.3-1.9-4.2-4.2-4.2c-2.3,0-4.2,1.9-4.2,4.2v26.2c0,3.8-3.1,6.9-6.9,6.9s-6.9-3.1-6.9-6.9V80h35.9L167.3,100L167.3,100z  M123,104H32.9v-7.3H123V104z M123,112.3v4c0,1.1,0.1,2.2,0.4,3.3H32.9v-7.3L123,112.3L123,112.3z M221.9,88.3h-46.3V80h46.3V88.3 L221.9,88.3z M123,80v8.3H32.9V80H123z M32.9,143.7h189v8.3h-189V143.7z M217.7,176H38.1c-9.5,0-17.5-6.7-19.4-15.7h218.4 C235.2,169.3,227.3,176,217.7,176z"/></g>
</svg>