<?xml version="1.0" encoding="utf-8"?>
<!-- Svg Vector Icons : http://www.onlinewebfonts.com/icon -->
<!DOCTYPE svg PUBLIC "-//W3C//DTD SVG 1.1//EN" "http://www.w3.org/Graphics/SVG/1.1/DTD/svg11.dtd">
<svg version="1.1" xmlns="http://www.w3.org/2000/svg" xmlns:xlink="http://www.w3.org/1999/xlink" x="0px" y="0px" viewBox="0 0 256 256" enable-background="new 0 0 256 256" xml:space="preserve">
<metadata> Svg Vector Icons : http://www.onlinewebfonts.com/icon </metadata>
<g> <path fill="#bbbbba" d="M220.1,46.8l8.6-17.9c1.6-3.3,5.6-4.7,8.9-3.1l0.9,0.5c3.3,1.6,4.7,5.6,3.1,8.9l-20,41.7"/> <path fill="#e3e2e2" d="M213.7,100.5l-6.5-5.8l17.2-65.9c0.9-3.3,3-4.7,4.8-3.1c1.8,1.6,2.6,5.6,1.7,8.9L213.7,100.5z"/> <path fill="#040000" d="M210,104.7c-0.5,0-1.1-0.1-1.6-0.4l-13-6.2c-0.9-0.4-1.6-1.2-1.9-2.1c-0.3-0.9-0.3-2,0.2-2.9l31.6-65.9 c1.2-2.5,3.3-4.4,5.9-5.3c2.6-0.9,5.4-0.8,7.9,0.4l0.9,0.5c2.5,1.2,4.4,3.3,5.3,5.9s0.8,5.4-0.4,7.9l-31.6,65.9 C212.7,103.9,211.4,104.7,210,104.7L210,104.7z M202,93l6.2,3l30-62.5c0.7-1.5,0.1-3.2-1.4-3.9l-0.9-0.5c-0.7-0.3-1.5-0.4-2.2-0.1 s-1.3,0.8-1.7,1.5L202,93z"/> <path fill="#040000" d="M200.3,143.1c-0.5,0-1.1-0.1-1.6-0.4c-1.9-0.9-2.6-3.1-1.8-5l13.2-27.4c0.8-1.7,0.1-3.8-1.6-4.6 c-1.7-0.8-3.8-0.1-4.6,1.6c-0.9,1.9-3.1,2.6-5,1.8c-1.9-0.9-2.6-3.1-1.8-5c2.6-5.4,9.1-7.7,14.6-5.1c2.6,1.3,4.6,3.5,5.6,6.2 s0.8,5.7-0.5,8.3L203.7,141C203,142.3,201.7,143.1,200.3,143.1z"/> <path fill="#040000" d="M189.5,132.3c-0.5,0-1.1-0.1-1.6-0.4c-1.9-0.9-2.6-3.1-1.8-5l11-22.9c0.8-1.7,0.1-3.8-1.6-4.6 c-1.7-0.8-3.8-0.1-4.6,1.6l-5.6,11.7c-0.9,1.9-3.1,2.6-5,1.8c-1.9-0.9-2.6-3.1-1.8-5l5.6-11.7c1.3-2.6,3.5-4.6,6.2-5.6 c2.7-1,5.7-0.8,8.3,0.5c5.4,2.6,7.7,9.1,5.1,14.6l-11,22.8C192.2,131.5,190.9,132.3,189.5,132.3L189.5,132.3z"/> <path fill="#040000" d="M201.9,144.3c-1.4,0-2.8-0.8-3.4-2.2c-0.8-1.8,0-4,1.8-4.9l16.1-33.5l-24.3-11.7l-8.7,18 c-0.9,1.9-3.1,2.6-5,1.8c-1.9-0.9-2.6-3.1-1.8-5l8.8-18.3c0.8-1.7,2.3-3,4.1-3.7c1.8-0.6,3.8-0.5,5.5,0.3l24.8,11.9 c3.6,1.7,5.1,6,3.4,9.6L207,140.6c-0.7,1.5-2,2.7-3.5,3.4C203,144.2,202.5,144.3,201.9,144.3L201.9,144.3z"/> <path fill="#e94541" d="M69.2,93.9c11,0,20,8.3,20,18.7c0,10.3-9,18.7-20,18.7"/> <path fill="#eb6262" d="M60.1,113.7c0,8.8,4.2,16,9.3,16s9.3-7.2,9.3-16c0-8.8-4.2-16-9.3-16C64.3,97.7,60.1,104.8,60.1,113.7 C60.1,113.7,60.1,113.7,60.1,113.7z"/> <path fill="#040000" d="M63.7,136.6c-0.3,0-0.7-0.1-1.1-0.2c-4.8-1.4-9.1-4.4-12.1-8.4c-3.1-4.2-4.8-9.1-4.8-14.3 c0-13.1,10.6-23.7,23.7-23.7c13.1,0,23.7,10.6,23.7,23.7c0,5.6-2,11-5.6,15.3c-1.3,1.6-3.7,1.8-5.3,0.5c-1.6-1.3-1.8-3.7-0.5-5.3 c2.5-2.9,3.8-6.6,3.8-10.5c0-9-7.3-16.3-16.3-16.3s-16.3,7.3-16.3,16.3c0,7.1,4.8,13.5,11.6,15.6c2,0.6,3.1,2.7,2.5,4.6 C66.8,135.5,65.4,136.6,63.7,136.6L63.7,136.6z"/> <path fill="#f6c557" d="M133.5,146.2h57.8c0-31.9-25.9-57.8-57.8-57.8V146.2z"/> <path fill="#f9e19b" d="M89,165.4c0-50.9,19.9-75.6,44.4-75.6c24.6,0,47.1,32.2,47.1,75.6"/> <path fill="#040000" d="M190.7,139.8c-1.8,0-3.4-1.3-3.7-3.2c-3.8-26.4-26.8-46.3-53.5-46.3c-15.9,0-30.9,7-41.2,19.1 c-1.3,1.6-3.7,1.8-5.3,0.4c-1.6-1.3-1.8-3.7-0.4-5.3c11.7-13.8,28.8-21.7,46.9-21.7c14.9,0,29.2,5.4,40.4,15.2 c11.1,9.7,18.3,23,20.4,37.5c0.3,2.1-1.1,3.9-3.2,4.2C191,139.7,190.8,139.8,190.7,139.8z"/> <path fill="#040000" d="M169,139.8c-1.7,0-3.2-1.2-3.6-2.9c-3.5-14.9-16.6-25.3-31.9-25.3c-11.9,0-22.8,6.5-28.6,16.8 c-1,1.8-3.3,2.5-5.1,1.4c-1.8-1-2.5-3.3-1.4-5.1c7.1-12.7,20.6-20.7,35.2-20.7c9.1,0,18.1,3.1,25.2,8.9c7,5.6,12,13.5,14,22.2 c0.5,2-0.8,4-2.8,4.5C169.6,139.7,169.3,139.8,169,139.8z"/> <path fill="#040000" d="M148.7,148.1c-2.1,0-3.7-1.7-3.7-3.7c0-6.3-5.1-11.5-11.5-11.5c-3.4,0-6.6,1.5-8.8,4.2 c-1.3,1.6-3.7,1.8-5.3,0.5c-1.6-1.3-1.8-3.7-0.5-5.3c3.6-4.3,8.9-6.9,14.6-6.9c10.4,0,18.9,8.5,18.9,18.9 C152.4,146.4,150.7,148.1,148.7,148.1z"/> <path fill="#f6c557" d="M179.2,185.8h48.5c0-26.8-21.7-48.6-48.5-48.7V185.8L179.2,185.8z"/> <path fill="#f9e19b" d="M143.6,187.1c0-25.4,15.8-46,35.4-46s35.4,20.6,35.4,46"/> <path fill="#040000" d="M227.7,189.5c-2.1,0-3.7-1.7-3.7-3.7c0-24.8-20.2-45-45-45c-13.6,0-26.3,6.1-34.9,16.6 c-1.3,1.6-3.7,1.8-5.3,0.5c-1.6-1.3-1.8-3.7-0.5-5.3c10-12.3,24.8-19.3,40.7-19.3c28.9,0,52.4,23.5,52.4,52.4 C231.4,187.9,229.8,189.5,227.7,189.5L227.7,189.5z"/> <path fill="#040000" d="M209.8,189.5c-2.1,0-3.7-1.7-3.7-3.7c0-14.9-12.1-27-27-27c-12.2,0-23,8.2-26.1,20c-0.5,2-2.6,3.2-4.6,2.6 c-2-0.5-3.2-2.6-2.6-4.6c4-15.1,17.7-25.6,33.3-25.6c19,0,34.5,15.5,34.5,34.5C213.5,187.9,211.8,189.5,209.8,189.5z"/> <path fill="#040000" d="M191.8,189.5c-2.1,0-3.7-1.7-3.7-3.7c0-5-4.1-9.1-9.1-9.1c-5,0-9.1,4.1-9.1,9.1c0,2.1-1.7,3.7-3.7,3.7 s-3.7-1.7-3.7-3.7c0-9.1,7.4-16.6,16.6-16.6s16.6,7.4,16.6,16.6C195.6,187.9,193.9,189.5,191.8,189.5L191.8,189.5z"/> <path fill="#f6c557" d="M88.1,185.6h61.2c0-32.6-26.4-59.1-59.1-59.1c-0.7,0-1.4,0-2.1,0.1L88.1,185.6L88.1,185.6z"/> <path fill="#f9e19b" d="M47.2,187c0-31.2,17.8-57.2,43.1-57.2c25.3,0,43.1,26,43.1,57.2"/> <path fill="#040000" d="M149.3,189.4c-2.1,0-3.7-1.7-3.7-3.7c0-26.4-18.8-49.3-44.7-54.3c-3.5-0.7-7-1-10.6-1 c-30.5,0-55.3,24.8-55.3,55.3c0,2.1-1.7,3.7-3.7,3.7c-2.1,0-3.7-1.7-3.7-3.7c0-16.8,6.5-32.5,18.4-44.4 c11.9-11.9,27.6-18.4,44.4-18.4c4.1,0,8.1,0.4,12,1.1c29.4,5.7,50.8,31.6,50.8,61.7C153.1,187.7,151.4,189.4,149.3,189.4 L149.3,189.4z"/> <path fill="#040000" d="M127.6,189.4c-2.1,0-3.7-1.7-3.7-3.7c0-18.5-15.1-33.6-33.6-33.6s-33.6,15.1-33.6,33.6 c0,2.1-1.7,3.7-3.7,3.7c-2.1,0-3.7-1.7-3.7-3.7c0-22.6,18.4-41.1,41-41.1c22.6,0,41,18.4,41,41.1 C131.3,187.7,129.6,189.4,127.6,189.4z"/> <path fill="#040000" d="M105.8,189.4c-2.1,0-3.7-1.7-3.7-3.7c0-6.5-5.3-11.8-11.8-11.8c-6.5,0-11.8,5.3-11.8,11.8 c0,2.1-1.7,3.7-3.7,3.7c-2.1,0-3.7-1.7-3.7-3.7c0-10.6,8.6-19.3,19.3-19.3c10.6,0,19.3,8.6,19.3,19.3 C109.5,187.7,107.9,189.4,105.8,189.4z"/> <path fill="#72ab36" d="M78.7,90.9c7,1.7,14.5,1.6,21.7-0.4c-0.7-2.3-1.7-4.5-2.9-6.7c-4.7-8.9-12.2-15.3-20.7-19 M109.8,85.1 c2.1-1.3,4.2-2.7,6-4.2c16-13,22.2-34.6,15.8-53.9c-2.6,1-5.1,2.2-7.6,3.7c-3.8,2.2-7.1,4.8-10,7.8"/> <path fill="#91c461" d="M61.7,66.7c0.5,2.1,1.2,4.1,2,6.1c6.6,16.5,21,24.1,33.9,19.1c-0.5-2.1-1.2-4.1-2-6.1 C89,69.3,74.7,61.8,61.7,66.7z M119.1,33.6c-1.8,0.9-3.5,2-5.2,3.3C99.8,48,93.9,70.5,98.8,90.3c1.8-0.9,3.5-2,5.2-3.3 C118.1,75.9,124,53.5,119.1,33.6z"/> <path fill="#040000" d="M88.8,95.9c-6.1,0-12.2-1.2-17.9-3.5c-9.8-4.1-18-11.5-23-20.9c-1.2-2.3-2.3-4.7-3.1-7.2 c-0.3-1-0.2-2,0.2-2.9c0.5-0.9,1.3-1.6,2.3-1.8c10-2.9,20.9-2.2,30.5,1.8c9.8,4.1,18,11.5,23,20.9c1.2,2.3,2.3,4.7,3.1,7.2 c0.3,1,0.2,2-0.2,2.9c-0.5,0.9-1.3,1.6-2.3,1.8C97.3,95.3,93.1,95.9,88.8,95.9z M53.4,65.7c0.3,0.7,0.7,1.5,1.1,2.2 c7.9,14.8,24.6,22.7,40.9,19.9c-0.3-0.7-0.7-1.5-1.1-2.2C86.3,70.8,69.6,62.9,53.4,65.7z"/> <path fill="#040000" d="M102.2,92.4c-0.6,0-1.1-0.1-1.6-0.4c-0.9-0.4-1.6-1.2-1.9-2.2c-3.8-11.4-3.5-23.8,0.6-35.1 c4.2-11.5,12.3-21.2,22.9-27.4c2.6-1.5,5.3-2.9,8.2-3.9c1-0.4,2-0.3,2.9,0.1c0.9,0.4,1.6,1.2,1.9,2.2c3.8,11.4,3.5,23.8-0.6,35.1 c-4.2,11.5-12.3,21.2-22.9,27.4c-2.6,1.5-5.3,2.9-8.2,3.9C103.1,92.4,102.7,92.4,102.2,92.4z M129.2,32.1c-1.1,0.5-2.2,1.1-3.3,1.7 c-17.2,10.2-25.8,30.6-21.3,49.8c1.1-0.5,2.2-1.1,3.3-1.7C125.2,71.7,133.7,51.3,129.2,32.1z"/> <path fill="#ababab" d="M134.7,188.3h99.2c4.4,0,8,3.6,8,8c0,4.4-3.6,8-8,8h-99.2"/> <path fill="#cccccc" d="M216.6,204.3H39.1c-4.4,0-8-3.6-8-8c0-4.4,3.6-8,8-8h177.5c4.4,0,8,3.6,8,8 C224.6,200.7,221,204.3,216.6,204.3z"/> <path fill="#040000" d="M233.9,208H21.7c-6.5,0-11.7-5.3-11.7-11.7c0-6.5,5.3-11.7,11.7-11.7h212.2c6.5,0,11.7,5.3,11.7,11.7 C245.6,202.8,240.4,208,233.9,208L233.9,208z M21.7,192c-2.3,0-4.3,1.9-4.3,4.3c0,2.3,1.9,4.3,4.3,4.3h212.2c2.3,0,4.3-1.9,4.3-4.3 c0-2.3-1.9-4.3-4.3-4.3H21.7L21.7,192z"/> <path fill="#d8d8d8" d="M134.7,204.3h94.1v5.3c0,11.7-9.6,21.3-21.3,21.3h-72.7"/> <path fill="#f0efef" d="M188.8,230.9h-120c-11.7,0-21.3-9.6-21.3-21.3v-5.3h162.6v5.3C210.1,221.3,200.5,230.9,188.8,230.9 L188.8,230.9z"/> <path fill="#040000" d="M207.5,234.7H50.2c-13.8,0-25.1-11.2-25.1-25.1v-5.3c0-2.1,1.7-3.7,3.7-3.7h199.9c2.1,0,3.7,1.7,3.7,3.7 v5.3C232.5,223.4,221.3,234.7,207.5,234.7L207.5,234.7z M32.6,208v1.6c0,9.7,7.9,17.6,17.6,17.6h157.3c9.7,0,17.6-7.9,17.6-17.6 V208H32.6z"/></g>
</svg>