<?xml version="1.0" encoding="utf-8"?>
<!-- Svg Vector Icons : http://www.onlinewebfonts.com/icon -->
<!DOCTYPE svg PUBLIC "-//W3C//DTD SVG 1.1//EN" "http://www.w3.org/Graphics/SVG/1.1/DTD/svg11.dtd">
<svg version="1.1" xmlns="http://www.w3.org/2000/svg" xmlns:xlink="http://www.w3.org/1999/xlink" x="0px" y="0px" viewBox="0 0 256 256" enable-background="new 0 0 256 256" xml:space="preserve">
<metadata> Svg Vector Icons : http://www.onlinewebfonts.com/icon </metadata>
<g> <path fill="#edad3e" d="M222.4,101L188,144.1c-5.2-5.4-12.6-8.8-20.7-8.8c-15.9,0-28.8,12.9-28.8,28.8c0,10.5,5.6,19.6,13.9,24.7 L128,219.5L33.6,101C59.5,80.3,92.3,68,128,68C163.7,68,196.5,80.3,222.4,101L222.4,101z M172.1,100.1c0-4.9-3.9-8.8-8.8-8.8 c-4.9,0-8.8,3.9-8.8,8.8c0,4.9,3.9,8.8,8.8,8.8C168.2,108.9,172.1,105,172.1,100.1z M115.3,108.9c0-11.1-9-20-20-20 c-11.1,0-20,9-20,20c0,11.1,9,20,20,20C106.3,129,115.3,120,115.3,108.9z"/> <path fill="#ea542c" d="M154.5,100.1c0,4.9,3.9,8.8,8.8,8.8c4.9,0,8.8-3.9,8.8-8.8c0,0,0,0,0,0c0-4.9-3.9-8.8-8.8-8.8 C158.4,91.3,154.5,95.2,154.5,100.1C154.5,100.1,154.5,100.1,154.5,100.1z"/> <path fill="#96c84f" d="M188,144.1l-35.6,44.8c-8.3-5.1-13.9-14.2-13.9-24.7c0-15.9,12.9-28.8,28.8-28.8 C175.4,135.4,182.8,138.7,188,144.1L188,144.1z"/> <path fill="#ea542c" d="M75.2,108.9c0,11.1,9,20,20,20c11.1,0,20-9,20-20c0-11.1-9-20-20-20C84.2,88.9,75.2,97.8,75.2,108.9 C75.2,108.9,75.2,108.9,75.2,108.9z"/> <path fill="#ad7021" d="M242,76.3L222.4,101c-25.9-20.7-58.7-33-94.4-33c-35.7,0-68.5,12.3-94.4,33L14,76.3 c31.3-24.9,70.9-39.8,114-39.8C171.1,36.5,210.7,51.4,242,76.3L242,76.3z"/> <path fill="#ffffff" d="M101.1,118.1c-1,0-1.9-0.3-2.7-1c-1.7-1.5-1.8-4-0.3-5.7c0.6-0.7,1-1.6,1-2.5c0-2.1-1.7-3.8-3.7-3.8 c-1,0-1.9,0.4-2.6,1.1c-1.6,1.6-4.1,1.6-5.7,0c-1.6-1.6-1.6-4.1,0-5.7c2.2-2.2,5.2-3.4,8.3-3.4c6.5,0,11.8,5.3,11.8,11.8 c0,2.9-1,5.6-2.9,7.8C103.3,117.6,102.2,118.1,101.1,118.1z M155.6,156.5c-1,0-2-0.4-2.8-1.2c-1.6-1.6-1.6-4.1,0-5.7 c3.9-3.9,9-6,14.5-6c2.2,0,4,1.8,4,4s-1.8,4-4,4c-3.4,0-6.5,1.3-8.9,3.7C157.6,156.1,156.6,156.5,155.6,156.5z M194.7,120.3 c-0.9,0-1.7-0.3-2.5-0.9c-1.7-1.4-2-3.9-0.7-5.6l9.7-12.3c1.4-1.7,3.9-2,5.6-0.7s2,3.9,0.7,5.6l-9.7,12.3 C197.1,119.8,195.9,120.3,194.7,120.3z M224.5,82.6c-0.8,0-1.6-0.2-2.3-0.7c-11.8-8.1-24.7-14.7-38.2-19.5 c-13.4-4.8-27.4-7.8-41.6-9c-2.2-0.2-3.8-2.1-3.7-4.3c0.2-2.2,2.1-3.8,4.3-3.7c14.9,1.3,29.6,4.4,43.7,9.5 c14.2,5.1,27.7,11.9,40.1,20.5c1.8,1.3,2.3,3.7,1,5.6C227,82,225.7,82.6,224.5,82.6z"/> <path fill="#ffffff" d="M124.3,48.8c0,2.2,1.8,4,4,4c2.2,0,4-1.8,4-4c0,0,0,0,0,0c0-2.2-1.8-4-4-4 C126.1,44.8,124.3,46.6,124.3,48.8C124.3,48.8,124.3,48.8,124.3,48.8z"/> <path fill="#ffffff" d="M182.8,125.8c0,2.2,1.8,4,4,4s4-1.8,4-4c0-2.2-1.8-4-4-4S182.8,123.6,182.8,125.8L182.8,125.8z"/> <path fill="#333333" d="M244.5,73.2c-16.2-12.9-34.3-23-53.7-29.9c-20.1-7.2-41.2-10.8-62.8-10.8c-21.5,0-42.7,3.6-62.8,10.8 c-19.4,6.9-37.5,17-53.7,29.9c-1.7,1.4-2,3.9-0.6,5.6l114,143.2c0.8,1,1.9,1.5,3.1,1.5c1.2,0,2.4-0.6,3.1-1.5l114-143.2 C246.5,77.1,246.2,74.6,244.5,73.2L244.5,73.2z M128,213.1L39.3,101.6c11.9-9,25.1-16.1,39.2-21.2C94.4,74.8,111,72,128,72 c17,0,33.7,2.9,49.5,8.5c14.1,5,27.3,12.1,39.2,21.2l-29.2,36.7c-5.7-4.5-12.8-7-20.2-7c-18.1,0-32.9,14.7-32.9,32.8 c0,10.1,4.5,19.3,12.1,25.5L128,213.1L128,213.1z M142.4,164.2c0-13.7,11.1-24.8,24.8-24.8c5.6,0,10.9,1.8,15.3,5.2l-30.9,38.9 C145.8,178.8,142.4,171.8,142.4,164.2z M221.7,95.4c-12.6-9.6-26.6-17.1-41.5-22.4c-16.7-6-34.3-9-52.2-9c-17.9,0-35.5,3-52.2,9 c-14.9,5.3-28.8,12.8-41.5,22.4L19.7,77c14.7-11.2,30.9-20,48.2-26.2C87.1,44,107.3,40.5,128,40.5c20.6,0,40.9,3.5,60.1,10.3 c17.3,6.2,33.6,15,48.2,26.2L221.7,95.4z"/> <path fill="#333333" d="M95.3,84.9c-13.3,0-24,10.8-24,24c0,13.3,10.8,24,24,24s24-10.8,24-24C119.3,95.7,108.5,84.9,95.3,84.9z  M95.3,125c-8.8,0-16-7.2-16-16c0-8.8,7.2-16,16-16s16,7.2,16,16C111.3,117.8,104.1,125,95.3,125z M163.3,112.9 c7.1,0,12.8-5.8,12.8-12.8c0-7.1-5.8-12.8-12.8-12.8c-7.1,0-12.8,5.8-12.8,12.8S156.2,112.9,163.3,112.9z M163.3,95.3 c2.7,0,4.8,2.2,4.8,4.8s-2.2,4.8-4.8,4.8c-2.7,0-4.8-2.2-4.8-4.8S160.6,95.3,163.3,95.3z"/> <path fill="#333333" d="M186.5,101.7c0,2.2,1.8,4,4,4s4-1.8,4-4s-1.8-4-4-4S186.5,99.5,186.5,101.7z"/> <path fill="#333333" d="M93.6,145.8c0,2.2,1.8,4,4,4c2.2,0,4-1.8,4-4c0,0,0,0,0,0c0-2.2-1.8-4-4-4 C95.4,141.8,93.6,143.6,93.6,145.8C93.6,145.8,93.6,145.8,93.6,145.8z"/> <path fill="#333333" d="M123.2,179.4c0,2.2,1.8,4,4,4c2.2,0,4-1.8,4-4c0-2.2-1.8-4-4-4C125,175.4,123.2,177.2,123.2,179.4 C123.2,179.4,123.2,179.4,123.2,179.4z"/></g>
</svg>