<?xml version="1.0" encoding="utf-8"?>
<!-- Svg Vector Icons : http://www.onlinewebfonts.com/icon -->
<!DOCTYPE svg PUBLIC "-//W3C//DTD SVG 1.1//EN" "http://www.w3.org/Graphics/SVG/1.1/DTD/svg11.dtd">
<svg version="1.1" xmlns="http://www.w3.org/2000/svg" xmlns:xlink="http://www.w3.org/1999/xlink" x="0px" y="0px" viewBox="0 0 256 256" enable-background="new 0 0 256 256" xml:space="preserve">
<metadata> Svg Vector Icons : http://www.onlinewebfonts.com/icon </metadata>
<g> <path fill="#f5a94a" d="M241.1,157.8c0-79.5-74.4-129-153.9-129L15,212.5L241.1,157.8z"/> <path fill="#57275b" d="M15,217.5c-1.4,0-2.8-0.6-3.8-1.7c-1.2-1.4-1.6-3.4-0.9-5.1L82.5,27c0.7-1.9,2.6-3.2,4.6-3.2 c41.3,0,80.3,12.7,109.8,35.8c31.6,24.7,49,59.6,49,98.2c0,2.3-1.6,4.3-3.8,4.8L16.1,217.4C15.7,217.5,15.4,217.5,15,217.5 L15,217.5z M90.6,33.8L23.1,205.5L236,153.9C233.6,77,160.6,35.1,90.6,33.8L90.6,33.8z"/> <path fill="#e4382c" d="M128.6,168.4c0,11,8.9,19.9,19.9,19.9c11,0,19.9-8.9,19.9-19.9c0-11-8.9-19.9-19.9-19.9 C137.5,148.6,128.6,157.5,128.6,168.4z"/> <path fill="#57275b" d="M148.5,193.3c-13.7,0-24.8-11.1-24.8-24.8s11.1-24.8,24.8-24.8s24.8,11.1,24.8,24.8 S162.2,193.3,148.5,193.3z M148.5,153.5c-8.2,0-14.9,6.7-14.9,14.9c0,8.2,6.7,14.9,14.9,14.9s14.9-6.7,14.9-14.9 C163.4,160.2,156.7,153.5,148.5,153.5z"/> <path fill="#e37529" d="M99.2,84c0,11,8.9,19.9,19.8,19.9c11,0,19.9-8.9,19.9-19.8c0,0,0,0,0,0c0-11-8.9-19.9-19.9-19.9 S99.2,73,99.2,84z"/> <path fill="#57275b" d="M119.1,108.8c-13.7,0-24.8-11.1-24.8-24.8c0-13.7,11.1-24.8,24.8-24.8c13.7,0,24.8,11.1,24.8,24.8 C143.9,97.7,132.8,108.8,119.1,108.8z M119.1,69.1c-8.2,0-14.9,6.7-14.9,14.9s6.7,14.9,14.9,14.9c8.2,0,14.9-6.7,14.9-14.9 S127.3,69.1,119.1,69.1z M67.5,170.1c-2,0-3.8-1.2-4.6-3.1c-1.1-2.5,0.2-5.4,2.7-6.5l26.2-10.8c2.5-1.1,5.4,0.2,6.5,2.7 c1.1,2.5-0.2,5.4-2.7,6.5l-26.2,10.8C68.8,170,68.1,170.1,67.5,170.1L67.5,170.1z"/> <path fill="#f5a94a" d="M15,212.5l2.3,14.7l223.5-52.2l0.3-17.3L15,212.5z"/> <path fill="#57275b" d="M17.3,232.2c-1,0-2-0.3-2.8-0.8c-1.1-0.8-1.9-2-2.1-3.4l-2.3-14.7c-0.4-2.6,1.2-5,3.7-5.6L239.9,153 c1.5-0.3,3.1,0,4.3,1c1.2,1,1.9,2.4,1.9,4l-0.3,17.3c0,2.3-1.6,4.2-3.8,4.8L18.4,232.1C18,232.1,17.6,232.2,17.3,232.2z  M20.6,216.3l0.8,4.9l214.5-50l0.1-7L20.6,216.3z"/> <path fill="#90ae23" d="M189.5,113.8c0,6.4,5.2,11.6,11.6,11.6c6.4,0,11.6-5.2,11.6-11.6c0,0,0,0,0,0c0-6.4-5.2-11.6-11.6-11.6 C194.6,102.2,189.5,107.4,189.5,113.8C189.5,113.8,189.5,113.8,189.5,113.8z"/> <path fill="#57275b" d="M201,130.4c-9.1,0-16.5-7.4-16.5-16.5c0-9.1,7.4-16.5,16.5-16.5c9.1,0,16.5,7.4,16.5,16.5 C217.6,122.9,210.2,130.4,201,130.4z M201,107.2c-3.6,0-6.6,3-6.6,6.6c0,3.6,3,6.6,6.6,6.6c3.6,0,6.6-3,6.6-6.6 C207.7,110.2,204.7,107.2,201,107.2z"/></g>
</svg>