<!--?xml version="1.0" encoding="utf-8"?-->
<!-- Svg Vector Icons : http://www.onlinewebfonts.com/icon -->

<svg version="1.1" xmlns="http://www.w3.org/2000/svg" xmlns:xlink="http://www.w3.org/1999/xlink" x="0px" y="0px" viewBox="0 0 256 256" enable-background="new 0 0 256 256" xml:space="preserve">
<metadata> Svg Vector Icons : http://www.onlinewebfonts.com/icon </metadata>
<g> <path fill="#ea5a59" data-title="Layer 0" xs="0" d="M230.1,171.7c-0.4-2.8-0.8-5.7-1.4-8.5c-12.7-68.6-67.3-123.3-136-136c-2.8-0.5-5.7-1-8.5-1.4l-6,22.4 c67.9,7.7,121.8,61.6,129.7,129.4L230.1,171.7z"/> <path fill="#f5b63a" data-title="Layer 1" xs="1" d="M243.3,160.5c-13.8-74.9-72.9-134-147.8-147.8c-7.3-1.4-14.7-2.3-22.2-2.7L53.4,84.1 c1.5-0.2,3.1-0.4,4.7-0.4c1,0,2,0.1,2.9,0.1c2.5,0.2,4.9,0.7,7.2,1.5l6.1-22.7c27.9,2.7,54.1,14.1,75.1,32.8 c1.4-0.2,2.9-0.3,4.3-0.3c2.6,0,5,0.3,7.4,0.9c14.8,3.4,25.7,16.5,25.7,32.3c0,1.2-0.1,2.3-0.2,3.4c-0.4,3.9-1.5,7.7-3.2,11.1 c5.2,12.2,8.6,25.3,9.9,38.7l-59,15.8c0.6,2.4,0.9,4.8,1,7.4c0,0.2,0,0.4,0,0.7c0,2.5-0.3,4.9-0.8,7.2l74.1-19.9l37.1-10 C245.6,175.2,244.6,167.8,243.3,160.5L243.3,160.5z M78.3,48.3l6-22.4c2.8,0.4,5.7,0.8,8.5,1.4c68.7,12.7,123.3,67.3,136,136 c0.5,2.8,1,5.7,1.4,8.5l-22.2,5.9C200.1,109.8,146.2,56,78.3,48.3z"/> <path fill="#f6db69" data-title="Layer 2" xs="2" d="M91.3,116.9c0,18.3-14.9,33.2-33.2,33.2c-2.4,0-4.7-0.3-7-0.7l-20.3,75.8l39.6-10.6 c-0.8-2.9-1.3-5.9-1.3-9.1c0-18.3,14.9-33.2,33.2-33.2c15.6,0,28.6,10.7,32.2,25.1l59-15.8c-1.3-13.5-4.7-26.5-9.9-38.7 c-5.4,11.1-16.7,18.7-29.8,18.7c-18.3,0-33.2-14.9-33.2-33.2c0-16.8,12.6-30.7,28.9-32.9c-21-18.7-47.2-30.1-75.1-32.8l-6.1,22.7 C81.7,89.6,91.3,102.1,91.3,116.9z"/> <path fill="#F5B63A" data-title="Layer 3" xs="3" d="M73.3,221.4c-1.2-2.2-2.1-4.5-2.8-6.9l-39.6,10.6l20.3-75.8c-2.4-0.5-4.8-1.3-7-2.4c-2.4-1.1-4.5-2.4-6.5-4 L10,246l67.9-18.2C76.2,225.9,74.6,223.7,73.3,221.4z"/> <path fill="#ea5a59" data-title="Layer 4" xs="4" d="M153.8,146.8c10.2,0,18.4-8.3,18.4-18.4c0-10.2-8.3-18.4-18.4-18.4c-10.2,0-18.4,8.3-18.4,18.4 C135.4,138.5,143.6,146.8,153.8,146.8z"/> <path fill="#d84947" data-title="Layer 5" xs="5" d="M120.6,128.4c0,18.3,14.9,33.2,33.2,33.2c13.1,0,24.5-7.7,29.8-18.7c1.7-3.4,2.8-7.1,3.2-11.1 c0.1-1.1,0.2-2.3,0.2-3.4c0-15.8-11-28.9-25.7-32.3c-2.4-0.6-4.9-0.9-7.4-0.9c-1.5,0-2.9,0.1-4.3,0.3 C133.2,97.6,120.6,111.5,120.6,128.4z M153.8,109.9c10.2,0,18.4,8.3,18.4,18.4c0,10.2-8.3,18.4-18.4,18.4 c-10.2,0-18.4-8.3-18.4-18.4C135.4,118.2,143.6,109.9,153.8,109.9z"/> <path fill="#ea5a59" data-title="Layer 6" xs="6" d="M120.5,208.8c0.2-1.1,0.3-2.2,0.3-3.4c0-1.5-0.2-2.9-0.5-4.2c-1.9-8.1-9.2-14.2-17.9-14.2 c-10.2,0-18.4,8.3-18.4,18.4c0,1.8,0.3,3.6,0.9,5.3c0.8,2.5,2,4.7,3.6,6.7c2.1,2.5,4.9,4.4,8.1,5.5l19.6-5.3 C118.3,215.1,119.9,212.1,120.5,208.8L120.5,208.8z"/> <path fill="#d84947" data-title="Layer 7" xs="7" d="M135.5,204.7c0-2.5-0.4-5-1-7.4c-3.6-14.4-16.6-25.1-32.2-25.1c-18.3,0-33.2,14.9-33.2,33.2 c0,3.2,0.5,6.2,1.3,9.1c0.7,2.4,1.6,4.7,2.8,6.9c1.3,2.3,2.9,4.4,4.6,6.4l8.4-2.2l10.3-2.7c-3.2-1.1-6-3-8.1-5.5 c-1.7-1.9-2.9-4.2-3.6-6.7c-0.5-1.7-0.9-3.4-0.9-5.3c0-10.2,8.3-18.4,18.4-18.4c8.7,0,16,6.1,17.9,14.2c0.3,1.4,0.5,2.8,0.5,4.2 c0,1.2-0.1,2.3-0.3,3.4c-0.6,3.3-2.2,6.3-4.4,8.8l10.3-2.7l8.4-2.2c0.5-2.3,0.8-4.7,0.8-7.2C135.6,205.2,135.5,205,135.5,204.7 L135.5,204.7z"/> <path fill="#ea5a59" data-title="Layer 8" xs="8" d="M48.1,132.3c2.1,1.3,4.4,2.3,6.9,2.7c1,0.2,2.1,0.3,3.1,0.3c10.2,0,18.4-8.3,18.4-18.4 c0-7.9-5-14.6-12.1-17.2c-2-0.7-4.1-1.2-6.4-1.2c-0.3,0-0.6,0.1-1,0.1c-3,0.2-5.8,1.1-8.3,2.5l-0.7,2.6l-6,22.3 C43.6,128.5,45.6,130.7,48.1,132.3z"/> <path fill="#d84947" data-title="Layer 9" xs="9" d="M44.2,147c2.2,1,4.6,1.8,7,2.4c2.2,0.5,4.6,0.7,7,0.7c18.3,0,33.2-14.9,33.2-33.2c0-14.8-9.7-27.3-23-31.6 c-2.3-0.7-4.7-1.2-7.2-1.5c-1-0.1-2-0.1-2.9-0.1c-1.6,0-3.2,0.2-4.7,0.4l-2.2,8l-2.1,7.9l-0.3,1.1c2.5-1.5,5.3-2.3,8.3-2.5 c0.3,0,0.6-0.1,1-0.1c2.2,0,4.4,0.5,6.4,1.2c7,2.6,12.1,9.3,12.1,17.2c0,10.2-8.3,18.4-18.4,18.4c-1.1,0-2.1-0.1-3.1-0.3 c-2.5-0.4-4.9-1.3-6.9-2.7c-2.5-1.6-4.5-3.8-5.9-6.4l-2.4,9.1l-2.1,8C39.6,144.5,41.8,145.9,44.2,147z"/></g>
</svg>