<?xml version="1.0" encoding="utf-8"?>
<!-- Svg Vector Icons : http://www.onlinewebfonts.com/icon -->
<!DOCTYPE svg PUBLIC "-//W3C//DTD SVG 1.1//EN" "http://www.w3.org/Graphics/SVG/1.1/DTD/svg11.dtd">
<svg version="1.1" xmlns="http://www.w3.org/2000/svg" xmlns:xlink="http://www.w3.org/1999/xlink" x="0px" y="0px" viewBox="0 0 256 256" enable-background="new 0 0 256 256" xml:space="preserve">
<metadata> Svg Vector Icons : http://www.onlinewebfonts.com/icon </metadata>
<g> <path fill="#6b4820" d="M194.8,22.5l-44.9,83.8c-0.7,1.3-0.3,3,1,3.8c1.3,0.7,2.9,0.3,3.6-1.1l44.9-83.8c0.7-1.3,0.3-3-1-3.8 C197.1,20.7,195.5,21.2,194.8,22.5z M227,35.1L182.1,119c-0.7,1.3-0.3,3,1,3.8c1.3,0.7,2.9,0.3,3.6-1.1l44.9-83.8 c0.7-1.3,0.3-3-1-3.8C229.4,33.3,227.7,33.8,227,35.1L227,35.1z"/> <path fill="#f4ebd9" d="M34.5,134.3c0,0-7.2-15.1,8.5-19.8c3.3-6.1,14.6-33.6,41.3-14.6c2.8-6.9,27.2-36.9,60.8-5.2 c9.6-5.8,34.4-11.8,38.2,12.7c7.2-5.8,18.7-5.5,18.2,10.4c5,1.9,15.4,3.6,17.1,16.5c-44.8,23.9-148,29.7-148,29.7l-27-16.5 L34.5,134.3L34.5,134.3z"/> <path fill="#d48e47" d="M24,134.3c1.3,60.4,46.4,109,101.7,109c55.4,0,100.4-48.5,101.7-109H24L24,134.3z"/> <path fill="#5a2b20" d="M125.7,228.5c-35.6,0-67.5-17-89.6-43.9c17.2,34.9,50.8,58.7,89.6,58.7c38.7,0,72.4-23.7,89.6-58.7 C193.3,211.5,161.3,228.5,125.7,228.5z"/> <path fill="#ffffff" d="M95.7,99.5c0,0,0,0,0.1-0.1c0-0.1,0.1-0.2,0.2-0.3c0.1-0.1,0.2-0.3,0.3-0.5c0.1-0.2,0.2-0.4,0.4-0.7 c0.3-0.5,0.7-1,1.2-1.6c0.1-0.2,0.3-0.3,0.4-0.5c0.1-0.2,0.3-0.3,0.4-0.5c0.3-0.3,0.6-0.6,1-0.9c0.4-0.3,0.7-0.6,1.1-1 c0.2-0.2,0.4-0.3,0.6-0.5l0.7-0.5c0.5-0.3,0.9-0.6,1.4-0.9c0.3-0.1,0.5-0.3,0.8-0.4c0.3-0.1,0.5-0.3,0.8-0.4 c0.3-0.1,0.5-0.3,0.8-0.4c0.3-0.1,0.6-0.2,0.8-0.3c0.6-0.2,1.2-0.4,1.8-0.6c0.3-0.1,0.6-0.2,0.9-0.2c0.3-0.1,0.6-0.1,0.9-0.2 c0.6-0.1,1.3-0.2,1.9-0.3c0.6-0.1,1.3-0.1,1.9-0.1h1l0.5,0h0.2l0.2,0c1.3,0.1,2.5,0.3,3.7,0.6c1.2,0.3,2.3,0.7,3.3,1.1 c0.3,0.1,0.5,0.2,0.7,0.4l0.7,0.4c0.5,0.3,0.9,0.5,1.3,0.8c0.2,0.1,0.4,0.3,0.6,0.4s0.4,0.3,0.5,0.4c0.2,0.1,0.3,0.3,0.5,0.4 c0.1,0.1,0.2,0.1,0.2,0.2c0.1,0.1,0.2,0.1,0.2,0.2c0.3,0.3,0.5,0.5,0.8,0.8c0.1,0.1,0.2,0.2,0.3,0.4c0.1,0.1,0.2,0.2,0.3,0.4 c0.2,0.2,0.3,0.4,0.5,0.6c0.1,0.2,0.2,0.3,0.3,0.5c0.1,0.1,0.2,0.2,0.2,0.3c0,0.1,0.1,0.1,0.1,0.1l-0.2,0.4c0,0-0.1-0.1-0.4-0.2 c-0.2-0.1-0.6-0.3-1-0.5c-0.2-0.1-0.5-0.2-0.7-0.3c-0.3-0.1-0.6-0.2-0.9-0.4c-0.3-0.1-0.7-0.2-1-0.4c-0.2-0.1-0.4-0.1-0.6-0.2 c-0.2-0.1-0.4-0.1-0.6-0.2c-0.4-0.1-0.8-0.2-1.3-0.4c-0.4-0.1-0.9-0.2-1.4-0.3c-0.9-0.2-1.9-0.3-3-0.5c-1-0.1-2.1-0.2-3.2-0.2 c-0.3,0-0.6,0-0.8,0c-0.3,0-0.6,0-0.8,0c-0.3,0-0.6,0.1-0.8,0.1c-0.3,0-0.6,0-0.8,0.1c-0.6,0.1-1.1,0.1-1.7,0.2 c-0.3,0.1-0.5,0.1-0.8,0.1c-0.3,0.1-0.5,0.1-0.8,0.2c-0.5,0.1-1.1,0.2-1.6,0.4c-0.3,0.1-0.5,0.1-0.8,0.2c-0.3,0.1-0.5,0.1-0.8,0.2 c-0.5,0.2-1,0.3-1.5,0.5c-0.5,0.2-0.9,0.3-1.4,0.5c-0.5,0.2-0.9,0.4-1.3,0.5c-0.4,0.2-0.8,0.4-1.2,0.5c-0.8,0.4-1.5,0.7-2.1,1 c-0.6,0.3-1.1,0.6-1.6,0.9c-0.4,0.3-0.7,0.5-1,0.6c-0.1,0.1-0.2,0.1-0.3,0.2c-0.1,0-0.1,0.1-0.1,0.1L95.7,99.5z M50.5,120.7v-0.1 c0-0.1,0-0.2,0-0.4c0-0.2,0.1-0.3,0.1-0.6c0-0.2,0.1-0.5,0.2-0.7c0.1-0.6,0.3-1.2,0.6-1.9c0.1-0.2,0.2-0.4,0.2-0.6 c0.1-0.2,0.2-0.4,0.3-0.6c0.2-0.4,0.4-0.8,0.6-1.2c0.2-0.4,0.5-0.8,0.8-1.3c0.1-0.2,0.3-0.4,0.4-0.6c0.2-0.2,0.3-0.4,0.5-0.6 c0.3-0.4,0.7-0.9,1.1-1.3c0.2-0.2,0.4-0.4,0.6-0.6l0.6-0.6c0.2-0.2,0.4-0.4,0.7-0.6c0.2-0.2,0.5-0.4,0.7-0.6c0.5-0.4,1-0.8,1.5-1.1 c0.3-0.2,0.5-0.3,0.8-0.5c0.3-0.2,0.6-0.3,0.8-0.5c0.6-0.3,1.1-0.6,1.7-0.9c0.6-0.3,1.2-0.5,1.8-0.7c0.3-0.1,0.6-0.2,0.9-0.3 l0.5-0.1l0.2-0.1l0.2-0.1c1.2-0.3,2.5-0.5,3.7-0.6c1.2-0.1,2.4-0.1,3.5,0c0.3,0,0.6,0.1,0.8,0.1c0.3,0,0.5,0.1,0.8,0.1 c0.5,0.1,1,0.2,1.5,0.4c0.2,0.1,0.5,0.1,0.7,0.2c0.2,0.1,0.4,0.1,0.6,0.2c0.2,0.1,0.4,0.2,0.6,0.2c0.1,0,0.2,0.1,0.3,0.1 c0.1,0.1,0.2,0.1,0.3,0.1c0.4,0.2,0.7,0.3,1,0.5c0.2,0.1,0.3,0.2,0.4,0.2c0.1,0.1,0.3,0.2,0.4,0.2c0.2,0.2,0.5,0.3,0.6,0.4 c0.2,0.1,0.3,0.3,0.5,0.3c0.1,0.1,0.2,0.2,0.3,0.2c0.1,0.1,0.1,0.1,0.1,0.1l-0.1,0.5l-0.4-0.1c-0.3,0-0.6-0.1-1.1-0.1 c-0.2,0-0.5-0.1-0.8-0.1c-0.3,0-0.6,0-1-0.1c-0.3,0-0.7,0-1.1,0h-1.2c-0.4,0-0.9,0-1.3,0.1c-0.5,0-0.9,0.1-1.4,0.1 c-0.9,0.1-1.9,0.3-3,0.5c-1,0.2-2.1,0.5-3.1,0.9c-0.3,0.1-0.5,0.2-0.8,0.3c-0.3,0.1-0.5,0.2-0.8,0.3c-0.3,0.1-0.5,0.2-0.8,0.3 c-0.3,0.1-0.5,0.2-0.8,0.3c-0.5,0.2-1,0.5-1.5,0.7c-0.3,0.1-0.5,0.3-0.7,0.4c-0.2,0.1-0.5,0.3-0.7,0.4c-0.5,0.3-0.9,0.6-1.4,0.8 c-0.2,0.1-0.5,0.3-0.7,0.4c-0.2,0.2-0.4,0.3-0.7,0.5c-0.4,0.3-0.8,0.6-1.3,0.9c-0.4,0.3-0.8,0.6-1.2,0.9c-0.4,0.3-0.7,0.6-1.1,0.9 c-0.3,0.3-0.7,0.6-1,0.9c-0.6,0.6-1.2,1.1-1.6,1.6c-0.5,0.5-0.9,0.9-1.2,1.3c-0.3,0.4-0.6,0.7-0.7,0.9c-0.1,0.1-0.1,0.2-0.2,0.2 c0,0.1-0.1,0.1-0.1,0.1L50.5,120.7L50.5,120.7z M153.6,99.5C153.6,99.5,153.7,99.4,153.6,99.5c0.1-0.1,0.2-0.2,0.3-0.2 c0.1-0.1,0.2-0.2,0.4-0.3c0.2-0.1,0.3-0.2,0.6-0.3c0.4-0.2,0.9-0.4,1.5-0.6c0.2-0.1,0.3-0.1,0.5-0.1c0.2-0.1,0.3-0.1,0.5-0.1 c0.3-0.1,0.7-0.2,1.1-0.2c0.8-0.1,1.6-0.2,2.4-0.2c0.4,0,0.9,0,1.3,0.1c0.2,0,0.5,0,0.7,0.1c0.2,0,0.5,0.1,0.7,0.1 c0.5,0.1,0.9,0.2,1.4,0.3c0.2,0.1,0.5,0.1,0.7,0.2c0.2,0.1,0.5,0.2,0.7,0.3c0.2,0.1,0.5,0.2,0.7,0.3c0.2,0.1,0.5,0.2,0.7,0.3 c0.5,0.2,0.9,0.5,1.3,0.7c0.4,0.3,0.9,0.6,1.3,0.9c0.2,0.2,0.4,0.3,0.6,0.5c0.2,0.2,0.4,0.3,0.6,0.5c0.8,0.7,1.5,1.4,2,2.2 c0.6,0.8,1.1,1.6,1.5,2.4c0.1,0.2,0.2,0.4,0.3,0.6c0.1,0.2,0.2,0.4,0.2,0.6c0.1,0.4,0.3,0.8,0.4,1.2c0,0.2,0.1,0.4,0.1,0.6 c0,0.2,0.1,0.4,0.1,0.5c0,0.2,0.1,0.4,0.1,0.5c0,0.1,0,0.2,0,0.2c0,0.1,0,0.2,0,0.3c0,0.3,0.1,0.6,0,0.9c0,0.3,0,0.5,0,0.8 c0,0.2,0,0.4-0.1,0.6c0,0.2-0.1,0.3-0.1,0.5c0,0.1,0,0.2-0.1,0.3c0,0.1,0,0.1,0,0.1l-0.5,0.2c0,0-0.1-0.1-0.2-0.3 c-0.1-0.2-0.2-0.4-0.4-0.8c-0.1-0.2-0.2-0.3-0.3-0.5c-0.1-0.2-0.3-0.4-0.4-0.6c-0.1-0.2-0.3-0.5-0.5-0.7c-0.2-0.2-0.3-0.5-0.5-0.8 c-0.2-0.3-0.4-0.5-0.6-0.8c-0.2-0.3-0.5-0.5-0.7-0.8c-0.5-0.5-1-1.1-1.6-1.6c-0.6-0.5-1.2-1.1-1.9-1.6c-0.3-0.3-0.7-0.5-1-0.7 c-0.4-0.2-0.7-0.5-1.1-0.7c-0.4-0.2-0.7-0.4-1.1-0.6l-0.6-0.3c-0.2-0.1-0.4-0.2-0.6-0.3c-0.4-0.2-0.8-0.3-1.1-0.5 c-0.4-0.2-0.8-0.3-1.1-0.5c-0.4-0.1-0.7-0.3-1.1-0.4c-0.4-0.1-0.7-0.2-1.1-0.3c-0.7-0.2-1.4-0.4-2-0.5c-0.6-0.1-1.2-0.3-1.7-0.3 c-0.5-0.1-1-0.2-1.4-0.2c-0.4-0.1-0.7-0.1-0.9-0.1c-0.1,0-0.2,0-0.2,0h-0.1L153.6,99.5L153.6,99.5z M182.6,113.7 C182.6,113.7,182.6,113.7,182.6,113.7c0.1-0.1,0.1-0.2,0.2-0.3c0.1-0.1,0.2-0.2,0.3-0.3s0.2-0.2,0.4-0.3c0.3-0.2,0.6-0.5,1-0.7 c0.4-0.2,0.8-0.5,1.4-0.6c1-0.4,2.2-0.6,3.5-0.4c0.3,0,0.6,0.1,1,0.1c0.2,0,0.3,0.1,0.5,0.1c0.2,0,0.3,0.1,0.5,0.1 c0.3,0.1,0.6,0.2,0.9,0.4c0.3,0.1,0.6,0.3,0.9,0.5c0.3,0.2,0.6,0.4,0.9,0.6c0.1,0.1,0.3,0.2,0.4,0.3c0.1,0.1,0.3,0.2,0.4,0.3 c0.3,0.2,0.5,0.5,0.7,0.7c0.2,0.3,0.4,0.5,0.6,0.8c0.4,0.6,0.7,1.1,0.9,1.7c0.1,0.3,0.2,0.6,0.3,0.9c0.1,0.3,0.1,0.6,0.1,0.8 c0,0.1,0,0.3,0,0.4c0,0.1,0,0.3,0,0.4v0.5c0,0.1,0,0.1,0,0.2c0,0.2,0,0.4-0.1,0.6c0,0.2-0.1,0.4-0.1,0.6c-0.1,0.2-0.1,0.3-0.2,0.5 s-0.1,0.2-0.1,0.3c0,0.1-0.1,0.2-0.1,0.2c0,0.1,0,0.1,0,0.1l-0.5,0.2c0,0,0-0.1-0.1-0.2c-0.1-0.1-0.2-0.3-0.3-0.5 c-0.1-0.2-0.3-0.4-0.4-0.7c-0.1-0.1-0.2-0.3-0.3-0.4c-0.1-0.1-0.2-0.3-0.3-0.5c-0.1-0.2-0.3-0.3-0.4-0.5c-0.1-0.2-0.3-0.3-0.4-0.5 c-0.3-0.3-0.6-0.6-1-1c-0.4-0.3-0.7-0.6-1.2-0.9c-0.2-0.2-0.4-0.3-0.6-0.4c-0.2-0.1-0.4-0.3-0.7-0.4c-0.2-0.1-0.4-0.3-0.7-0.4 c-0.2-0.1-0.5-0.2-0.7-0.3c-0.2-0.1-0.5-0.2-0.7-0.3c-0.2-0.1-0.5-0.2-0.7-0.3c-0.2-0.1-0.5-0.2-0.7-0.2c-0.2-0.1-0.4-0.2-0.7-0.2 c-0.4-0.1-0.8-0.2-1.2-0.3c-0.4-0.1-0.7-0.2-1-0.2c-0.3-0.1-0.6-0.1-0.8-0.1c-0.2,0-0.4-0.1-0.5-0.1c-0.1,0-0.2,0-0.2,0 L182.6,113.7L182.6,113.7z"/> <path fill="#754621" d="M76.6,122.1c0,2,1.6,3.7,3.6,3.7s3.7-1.6,3.7-3.6c0,0,0,0,0,0c0-2-1.6-3.7-3.6-3.7 C78.2,118.5,76.6,120.1,76.6,122.1C76.6,122.1,76.6,122.1,76.6,122.1z"/> <path fill="#754621" d="M86.1,114.1c0,2,1.6,3.7,3.6,3.7c2,0,3.7-1.6,3.7-3.6c0,0,0,0,0,0c0-2-1.6-3.7-3.6-3.7 C87.8,110.4,86.1,112.1,86.1,114.1C86.1,114.1,86.1,114.1,86.1,114.1z"/> <path fill="#754621" d="M128.6,114.8c0,2,1.6,3.7,3.7,3.7c2,0,3.7-1.6,3.7-3.7c0-2-1.6-3.7-3.7-3.7 C130.2,111.2,128.6,112.8,128.6,114.8C128.6,114.8,128.6,114.8,128.6,114.8z"/> <path fill="#5a2b20" d="M96.8,228.3h62.7V246H96.8V228.3z"/> <path fill="#754621" d="M83.2,29.6c0.5,0,1,0.1,1.4,0.2c0.2,0.1,0.5,0.1,0.7,0.2c0.2,0.1,0.5,0.2,0.7,0.3s0.5,0.2,0.7,0.3 c0.2,0.1,0.4,0.2,0.7,0.4c0.2,0.1,0.4,0.3,0.6,0.4c0.2,0.2,0.4,0.3,0.6,0.5c0.4,0.3,0.8,0.7,1.1,1c0.2,0.2,0.4,0.4,0.5,0.6 s0.3,0.4,0.5,0.6l0.4,0.6c0.1,0.2,0.3,0.4,0.4,0.7c0.1,0.2,0.2,0.5,0.4,0.7l0.2,0.4l0.2,0.4c0.1,0.2,0.2,0.5,0.3,0.7l0.3,0.7 c0.1,0.3,0.1,0.5,0.2,0.7c0.1,0.3,0.1,0.5,0.2,0.7l0.2,0.8c0.1,0.3,0.1,0.5,0.1,0.8c0.1,0.5,0.1,1,0.1,1.5c0,0.3,0,0.5,0,0.8v0.8 c0,0.5-0.1,1-0.1,1.5c-0.1,0.5-0.1,1-0.2,1.5c-0.1,0.5-0.2,1-0.3,1.5l0,0.2l0,0.1l-0.7,2.1l-0.3,1l-0.3,1c-0.1,0.3-0.2,0.7-0.3,1 c-0.1,0.3-0.2,0.7-0.3,1c-0.2,0.7-0.3,1.4-0.5,2.1c-0.1,0.3-0.1,0.7-0.2,1s-0.1,0.7-0.1,1c0,0.2,0,0.4-0.1,0.5c0,0.2,0,0.4,0,0.5 c0,0.2,0,0.4,0,0.5v0.8l0,0.3l0,0.3l0,0.3l0.1,0.6c0,0.2,0,0.4,0.1,0.6c0.1,0.4,0.1,0.7,0.2,1.1l0.1,0.6c0.1,0.2,0.1,0.4,0.2,0.6 c-0.2-0.1-0.3-0.3-0.5-0.4c-0.2-0.1-0.3-0.3-0.4-0.4c-0.2-0.2-0.3-0.3-0.4-0.5c-0.1-0.2-0.3-0.3-0.4-0.5c-0.2-0.3-0.5-0.7-0.7-1.1 c-0.1-0.2-0.2-0.4-0.3-0.6L88,62.4l-0.1-0.3c-0.1-0.2-0.2-0.4-0.2-0.6l-0.2-0.6c-0.1-0.2-0.1-0.4-0.2-0.6c-0.1-0.2-0.1-0.4-0.2-0.6 c-0.1-0.4-0.2-0.8-0.2-1.3c-0.1-0.4-0.1-0.8-0.1-1.3c-0.1-0.8,0-1.7,0-2.5c0-0.4,0.1-0.8,0.1-1.2c0.1-0.4,0.1-0.8,0.2-1.2 c0.1-0.4,0.1-0.8,0.2-1.2c0.1-0.4,0.2-0.8,0.3-1.2c0.1-0.4,0.2-0.8,0.3-1.1c0.1-0.4,0.2-0.8,0.3-1.1l-0.1,0.3 c0.1-0.4,0.1-0.8,0.2-1.3l0.2-1.2l0.1-1.2c0-0.4,0.1-0.8,0.1-1.2s0-0.8,0-1.2l0-0.6l0-0.6c0-0.1,0-0.2,0-0.3l0-0.3 c0-0.2,0-0.4-0.1-0.6l-0.1-0.6c0-0.2-0.1-0.4-0.1-0.6l-0.1-0.3l-0.1-0.3c-0.1-0.2-0.1-0.4-0.2-0.6c-0.1-0.2-0.1-0.4-0.2-0.6 l-0.2-0.6l-0.2-0.6l-0.3-0.6c-0.1-0.2-0.2-0.4-0.3-0.6c-0.1-0.2-0.2-0.4-0.3-0.5c-0.1-0.2-0.2-0.4-0.3-0.5 c-0.1-0.2-0.2-0.4-0.4-0.5c-0.2-0.4-0.5-0.7-0.8-1c-0.1-0.2-0.3-0.3-0.4-0.5c-0.2-0.2-0.3-0.3-0.5-0.5 C83.9,30.2,83.5,29.9,83.2,29.6z M129.4,10c-0.3,0.3-0.6,0.6-0.9,0.9c-0.2,0.2-0.3,0.3-0.4,0.4c-0.1,0.2-0.3,0.3-0.4,0.5l-0.2,0.2 c-0.1,0.1-0.1,0.2-0.2,0.2c-0.1,0.2-0.3,0.3-0.4,0.5c-0.1,0.2-0.2,0.3-0.4,0.5l-0.3,0.5l-0.3,0.5l-0.3,0.5l-0.3,0.5 c-0.1,0.2-0.2,0.3-0.3,0.5c-0.2,0.3-0.3,0.7-0.4,1l-0.1,0.3l-0.1,0.3c-0.1,0.2-0.1,0.3-0.2,0.5c0,0.2-0.1,0.3-0.1,0.5l-0.1,0.5 c0,0.2-0.1,0.3-0.1,0.5c0,0.2,0,0.3-0.1,0.5c0,0.3,0,0.7-0.1,1c0,0.2,0,0.3,0,0.5v0.3c0,0.1,0,0.2,0,0.3l0.1,0.5l0.1,0.5 c0,0.3,0.1,0.7,0.2,1c0,0.2,0.1,0.3,0.1,0.5c0.1,0.2,0.1,0.3,0.1,0.5c0.1,0.4,0.2,0.7,0.3,1l-0.1-0.2c0.2,0.4,0.4,0.8,0.5,1.2 c0.2,0.4,0.4,0.8,0.5,1.3c0.4,0.9,0.7,1.8,1,2.7c0.2,0.5,0.3,0.9,0.4,1.4c0.1,0.5,0.2,0.9,0.3,1.4c0.1,0.2,0.1,0.5,0.1,0.7 c0,0.3,0.1,0.5,0.1,0.7c0.1,0.5,0.1,1,0.1,1.5c0,0.5,0,1,0,1.5c0,0.5-0.1,1-0.1,1.5c-0.1,0.5-0.2,1-0.3,1.5c-0.1,0.5-0.3,1-0.4,1.4 c-0.1,0.2-0.2,0.5-0.3,0.7l-0.3,0.7c-0.2,0.4-0.4,0.9-0.7,1.3c-0.1,0.2-0.3,0.4-0.4,0.6l-0.2,0.3l-0.2,0.3 c-0.3,0.4-0.6,0.7-0.9,1.1c0.1-0.5,0.2-0.9,0.2-1.4l0.1-0.3l0-0.3c0-0.2,0.1-0.4,0.1-0.7c0-0.2,0.1-0.4,0.1-0.7l0-0.7l0-0.6V42 c0-0.4,0-0.8-0.1-1.3c0-0.2,0-0.4-0.1-0.6c0-0.2-0.1-0.4-0.1-0.6c-0.1-0.4-0.1-0.8-0.2-1.2c-0.1-0.4-0.2-0.8-0.3-1.2 c-0.1-0.4-0.2-0.8-0.3-1.2s-0.3-0.8-0.4-1.2l-0.2-0.6l-0.2-0.6l-0.2-0.6l-0.2-0.6l-0.5-1.2L121,30l-0.5-1.2 c-0.2-0.4-0.4-0.8-0.5-1.3l-0.1-0.1l0-0.1c-0.1-0.5-0.3-0.9-0.4-1.4c-0.1-0.2-0.1-0.5-0.1-0.7c-0.1-0.2-0.1-0.5-0.1-0.7 c-0.1-0.5-0.1-0.9-0.2-1.4c0-0.2,0-0.5,0-0.7l0-0.7c0-0.1,0-0.2,0-0.4l0-0.4c0-0.2,0.1-0.5,0.1-0.7c0.1-0.5,0.2-1,0.3-1.5 c0.1-0.5,0.3-0.9,0.5-1.4c0.1-0.2,0.2-0.5,0.3-0.7c0.1-0.2,0.2-0.4,0.3-0.7c0.1-0.2,0.2-0.4,0.4-0.6l0.2-0.3 c0.1-0.1,0.1-0.2,0.2-0.3c0.3-0.4,0.6-0.8,0.9-1.1c0.2-0.2,0.3-0.3,0.5-0.5c0.2-0.2,0.3-0.3,0.5-0.5s0.4-0.3,0.5-0.4l0.6-0.4 c0.4-0.3,0.8-0.5,1.2-0.7c0.4-0.2,0.8-0.4,1.2-0.5c0.4-0.2,0.8-0.3,1.3-0.4C128.5,10.1,128.9,10,129.4,10L129.4,10z"/></g>
</svg>