<?xml version="1.0" encoding="utf-8"?>
<!-- Svg Vector Icons : http://www.onlinewebfonts.com/icon -->
<!DOCTYPE svg PUBLIC "-//W3C//DTD SVG 1.1//EN" "http://www.w3.org/Graphics/SVG/1.1/DTD/svg11.dtd">
<svg version="1.1" xmlns="http://www.w3.org/2000/svg" xmlns:xlink="http://www.w3.org/1999/xlink" x="0px" y="0px" viewBox="0 0 256 256" enable-background="new 0 0 256 256" xml:space="preserve">
<metadata> Svg Vector Icons : http://www.onlinewebfonts.com/icon </metadata>
<g> <path fill="#5d9035" d="M21.6,116l0.6-3.6c0,0-10.4-1.9-11.9-8.3c-1.5-6.4,2.1-9.5,4.2-11.3c2.1-1.8-9.5-8.3-1.2-19 c8.3-10.7,18.4-2.4,18.4-2.4S32,52.9,41.8,57.3c9.8,4.3,13.6,16,13.6,16s5.8-7.1,10.7-1.2c4.9,5.9,5.3,15.4,5.3,15.4 s7.4-0.7,10.1,5.9c2.7,6.6,1.8,19.6-1.2,24.9c-3,5.3-58.7,2.4-58.7,2.4L21.6,116L21.6,116z"/> <path fill="#ebf3de" d="M41.3,88.4c0,0,6.6,16.8,12.5,24.3c5.9,7.6-11.9,4.2-11.9,4.2S33.9,96.9,41.3,88.4z"/> <path fill="#5d9035" d="M225.6,123.1l-0.8-5c0,0,14.4-2.6,16.4-11.6c2-9-2.9-13.2-5.7-15.8c-2.9-2.5,13.1-11.6,1.6-26.6 c-11.5-15-25.4-3.3-25.4-3.3s-0.4-26-14-19.9c-13.6,6-18.9,22.4-18.9,22.4s-8-10-14.8-1.7c-6.7,8.3-7.4,21.6-7.4,21.6 s-10.2-1-14,8.3c-3.8,9.3-2.5,27.4,1.6,34.9c4.1,7.5,81.3,3.3,81.3,3.3V123.1z"/> <path fill="#ebf3de" d="M201.5,82.5c0,0-5,23.4-9.5,34c-4.5,10.6,9,5.8,9,5.8S207.1,94.4,201.5,82.5z"/> <path fill="#99b030" d="M76.2,85.7c0,0-9.5-5.8-4.7-13.1c-1.9-7.5,9.4-14,13.1-13.1c3.3-10.8,7-22,17.8-22.5 c5.7,0.4,7.1,5.9,7.1,5.9s8.4-15.2,15.4-17.2c7-2,9.5,3.8,7.1,9.5c5.3-2.3,18.3-8.4,23.7-3c5.4,5.5-6.5,23.1-6.5,23.1 s8.7-6.1,11.3-0.6c2.6,5.5,1.2,11.3,1.2,11.3S150.3,80.3,149.2,81c-1.1,0.7,28.9,3.4-5.3,22.5c6.8,2.3,10,7.7,9.5,14.8 c-0.5,7.2-80.7,7.7-80.7,7.7L76.2,85.7L76.2,85.7z"/> <path fill="#ebf3de" d="M131.6,63.2c0,0-9.1,31.2-15.1,45c-6,13.8,6.5,9.1,6.5,9.1S133.9,80.1,131.6,63.2z"/> <path fill="#f4c51e" d="M162.6,107.1c1,2.6-0.2,5.5-2.8,6.6l-5.4,2.1c-2.6,1-5.5-0.2-6.6-2.8c-1-2.6,0.2-5.5,2.8-6.6l5.4-2.1 C158.6,103.2,161.6,104.5,162.6,107.1L162.6,107.1z M107.2,85.7c0,3.7-3,6.7-6.7,6.7c-3.7,0-6.7-3-6.7-6.7v-0.6 c0-3.7,3-6.7,6.7-6.7c3.7,0,6.7,3,6.7,6.7V85.7z M186.9,95.9c0,3.9-3.2,7.1-7.1,7.1c-3.9,0-7.1-3.2-7.1-7.1v-0.4 c0-3.9,3.2-7.1,7.1-7.1c3.9,0,7.1,3.2,7.1,7.1V95.9L186.9,95.9z M221.6,111.4c0,2.9-2.4,5.3-5.3,5.3h-1.5c-2.9,0-5.3-2.4-5.3-5.3 s2.4-5.3,5.3-5.3h1.5C219.2,106.1,221.6,108.5,221.6,111.4z M76.2,113.6c0,2.4-2,4.4-4.4,4.4h-3.4c-2.4,0-4.4-2-4.4-4.4 c0-2.4,2-4.4,4.4-4.4h3.4C74.2,109.3,76.2,111.2,76.2,113.6z M140.5,114.3c0,4-3.3,7.3-7.3,7.3s-7.3-3.3-7.3-7.3v-0.9 c0-4,3.3-7.3,7.3-7.3s7.3,3.3,7.3,7.3V114.3z"/> <path fill="#be3b28" d="M76.8,88.1c0,0,12.4-7.2,20.2-2.4c7.7,4.8,14,9,13.6,17.8c-0.3,8.8-3.4,16.9-6.5,17.2 c-3.1,0.3-33.6,6.4-33.2-12.5C71.3,89.4,71,93.9,76.8,88.1z M159.7,117.8c0.8-0.1,1.6-0.2,2.3-0.2h32.9c2,0,3.9,0.3,5.6,0.9 c0.8-1.1,1.4-2,1.7-2.3c1.9-2.5-1.9-10.3-8-16.6c-6.1-6.3-13.5-4.6-22.3-2.3c-8.8,2.3-12.1,16.3-12.1,16.3 C159.8,115.5,159.7,116.8,159.7,117.8z"/> <path fill="#f4c51e" d="M85.1,216.8c0,0-8,7.6,1.8,13.6c18.5,0.4,91.4-0.6,91.4-0.6s7-7.8,0.6-13.6 C172.4,210.4,85.1,216.8,85.1,216.8z"/> <path fill="#2961a5" d="M17.6,116l228.4-0.6c0,0-8.6,86.1-70.6,101.4c-57,1-91.4,0.6-91.4,0.6S22.6,192.9,17.6,116z"/></g>
</svg>