<?xml version="1.0" encoding="utf-8"?>
<!-- Svg Vector Icons : http://www.onlinewebfonts.com/icon -->
<!DOCTYPE svg PUBLIC "-//W3C//DTD SVG 1.1//EN" "http://www.w3.org/Graphics/SVG/1.1/DTD/svg11.dtd">
<svg version="1.1" xmlns="http://www.w3.org/2000/svg" xmlns:xlink="http://www.w3.org/1999/xlink" x="0px" y="0px" viewBox="0 0 256 256" enable-background="new 0 0 256 256" xml:space="preserve">
<metadata> Svg Vector Icons : http://www.onlinewebfonts.com/icon </metadata>
<g> <path fill="#edad3e" d="M241.9,159.3v10.4c0,12.4-10.1,22.5-22.5,22.5H36.5c-12.4,0-22.5-10.1-22.5-22.5v-10.4 c0-4.7,3.8-8.6,8.6-8.6h50.3L90,167.8l17.1-17.1h126.3C238.1,150.7,241.9,154.5,241.9,159.3z M241.9,106.3c0,4.7-3.8,8.5-8.5,8.5 H22.6c-2.4,0-4.5-1-6.1-2.5c-1.5-1.5-2.5-3.7-2.5-6.1c0-18.9,12.4-35,29.5-40.4l23.2,23.2c4.1,4.1,10.8,4.1,15,0 c4.1-4.1,4.1-10.8,0-15L71.5,63.9h31.2l25.3,25.3c4.1,4.1,10.8,4.1,15,0c4.1-4.1,4.1-10.8,0-15l-10.3-10.3h31.2L189,89.1 c4.1,4.1,10.8,4.1,15,0c4.1-4.1,4.1-10.8,0-15l-10.3-10.3h5.7c11.7,0,22.4,4.8,30,12.4C237.2,84,241.9,94.6,241.9,106.3z"/> <path fill="#d89731" d="M72.7,192.2H36.5c-12.4,0-22.5-10.1-22.5-22.5v-10.4c0-4.7,3.8-8.6,8.6-8.6h36.2c-4.7,0-8.5,3.8-8.5,8.6 v10.4C50.3,182.1,60.3,192.2,72.7,192.2z M52.7,112.4c1.5,1.5,3.7,2.5,6.1,2.5H22.6c-2.4,0-4.5-1-6.1-2.5c-1.5-1.5-2.5-3.7-2.5-6.1 c0-18.9,12.4-35,29.5-40.4L58.7,81c-5.3,7.1-8.4,15.8-8.4,25.3C50.3,108.7,51.2,110.8,52.7,112.4z"/> <path fill="#edad3e" d="M97.2,90.2c-4.1,2.9-9.9,2.5-13.6-1.1L58.4,63.8c11.5,0.1,22,4.8,29.5,12.4C91.9,80.2,95.1,85,97.2,90.2z  M58.4,63.8h-0.5H58.4z"/> <path fill="#96c84f" d="M232.9,132.8v17.9H107.1l17.9-17.9H232.9z"/> <path fill="#ea542c" d="M232.9,114.9v17.9H23.1v-17.9H232.9z"/> <path fill="#d8482a" d="M49.8,114.9v17.9H23.1v-17.9H49.8z"/> <path fill="#ad7021" d="M204,74.1c4.1,4.1,4.1,10.8,0,15c-4.1,4.1-10.8,4.1-15,0l-25.3-25.3h29.9L204,74.1z M142.8,74.1 c4.1,4.1,4.1,10.8,0,15c-4.1,4.1-10.8,4.1-15,0l-25.3-25.3h29.9L142.8,74.1L142.8,74.1z"/> <path fill="#ead644" d="M125,132.8l-17.9,17.9L90,167.8l-17.1-17.1L55,132.8H125z"/> <path fill="#ad7021" d="M81.7,74.1c4.1,4.1,4.1,10.8,0,15c-4.1,4.1-10.8,4.1-15,0L43.5,65.9c4.2-1.4,8.6-2,13-2h14.9L81.7,74.1z"/> <path fill="#96c84f" d="M72.9,150.7H23.1v-17.9H55L72.9,150.7z"/> <path fill="#8cb545" d="M49.8,131.9v17.9H23.1v-17.9H49.8z"/> <path fill="#ffffff" d="M228.7,103.6c-1.9,0-3.5-1.3-4-3.2c-1.1-4.7-3.5-9-6.9-12.5c-0.3-0.3-0.7-0.7-1.1-1 c-1.7-1.5-1.8-4.1-0.3-5.7c1.5-1.7,4.1-1.8,5.7-0.3c0.5,0.4,0.9,0.9,1.4,1.3c4.5,4.5,7.7,10.2,9.1,16.4c0.5,2.2-0.9,4.4-3.1,4.9 C229.3,103.6,229,103.6,228.7,103.6L228.7,103.6z M178.8,100.6c-1,0-2.1-0.4-2.9-1.2l-9.9-9.9c-1.6-1.6-1.6-4.2,0-5.7 c1.6-1.6,4.2-1.6,5.7,0l9.9,9.9c1.6,1.6,1.6,4.2,0,5.7C180.9,100.2,179.8,100.6,178.8,100.6L178.8,100.6z M115.8,98.8 c-1,0-2.1-0.4-2.9-1.2l-10-10c-1.6-1.6-1.6-4.2,0-5.7c1.6-1.6,4.2-1.6,5.7,0l10,10c1.6,1.6,1.6,4.2,0,5.7 C117.9,98.4,116.9,98.8,115.8,98.8z"/> <path fill="#ffffff" d="M93.4,76.3c0,2.2,1.8,4.1,4.1,4.1c2.2,0,4.1-1.8,4.1-4.1c0-2.2-1.8-4.1-4.1-4.1 C95.2,72.2,93.4,74.1,93.4,76.3z"/> <path fill="#ffffff" d="M157.1,78.8c0,2.2,1.8,4.1,4.1,4.1c2.2,0,4.1-1.8,4.1-4.1c0-2.2-1.8-4.1-4.1-4.1 C158.9,74.8,157.1,76.6,157.1,78.8z"/> <path fill="#ffffff" d="M230.8,177.5c-2.2,0-4.1-1.8-4.1-4.1v-10.8c0-2.2,1.8-4.1,4.1-4.1c2.2,0,4.1,1.8,4.1,4.1v10.8 C234.9,175.7,233,177.5,230.8,177.5z"/> <path fill="#333333" d="M237,147.2v-28.8c5.2-1.6,9-6.4,9-12.1c0-25.7-20.9-46.6-46.6-46.6H56.6C30.9,59.7,10,80.6,10,106.3 c0,5.7,3.8,10.5,9,12.1v28.8c-5.2,1.6-9,6.4-9,12.1v10.4c0,14.6,11.9,26.5,26.5,26.5h182.9c14.6,0,26.5-11.9,26.5-26.5v-10.4 C246,153.6,242.2,148.7,237,147.2z M228.8,128.7H27.1v-9.8h201.7L228.8,128.7z M27.1,136.9h26.2l9.8,9.8h-36V136.9L27.1,136.9z  M64.8,136.9h50.4L90,162.1L64.8,136.9z M126.7,136.9h102.1v9.8H116.9L126.7,136.9z M201.1,86.2c-2.6,2.6-6.7,2.6-9.2,0l-18.3-18.3 H192l9.1,9.1C203.6,79.5,203.6,83.7,201.1,86.2L201.1,86.2z M140,77c2.6,2.6,2.6,6.7,0,9.2c-2.6,2.6-6.7,2.6-9.2,0l-18.3-18.3h18.4 L140,77z M69.8,67.9l9.1,9.1c2.6,2.6,2.6,6.7,0,9.2c-2.6,2.6-6.7,2.6-9.2,0l-18-18c1.6-0.2,3.3-0.3,4.9-0.3 C56.6,67.9,69.8,67.9,69.8,67.9z M42.5,70.6L63.9,92c2.9,2.9,6.6,4.3,10.4,4.3c3.8,0,7.5-1.4,10.4-4.3c5.7-5.7,5.7-15,0-20.7 l-3.3-3.3h19.7L125,92c2.9,2.9,6.6,4.3,10.4,4.3c3.8,0,7.5-1.4,10.4-4.3c5.7-5.7,5.7-15,0-20.7l-3.3-3.3h19.7L186.2,92 c2.9,2.9,6.6,4.3,10.4,4.3c3.8,0,7.5-1.4,10.4-4.3c5.7-5.7,5.7-15,0-20.7l-3.1-3.1c19.2,2.2,34.1,18.4,34.1,38.2 c0,2.5-2,4.5-4.5,4.5H22.6c-2.5,0-4.5-2-4.5-4.5C18.1,90.1,28.2,76.2,42.5,70.6L42.5,70.6z M237.9,169.7c0,10.1-8.3,18.4-18.4,18.4 H36.5c-10.1,0-18.4-8.3-18.4-18.4v-10.4c0-2.5,2-4.5,4.5-4.5h48.6l15.9,15.9c0.8,0.8,1.8,1.2,2.9,1.2c1.1,0,2.1-0.4,2.9-1.2 l15.9-15.9h124.6c2.5,0,4.5,2,4.5,4.5L237.9,169.7L237.9,169.7z"/></g>
</svg>