<?xml version="1.0" encoding="utf-8"?>
<!-- Svg Vector Icons : http://www.onlinewebfonts.com/icon -->
<!DOCTYPE svg PUBLIC "-//W3C//DTD SVG 1.1//EN" "http://www.w3.org/Graphics/SVG/1.1/DTD/svg11.dtd">
<svg version="1.1" xmlns="http://www.w3.org/2000/svg" xmlns:xlink="http://www.w3.org/1999/xlink" x="0px" y="0px" viewBox="0 0 256 256" enable-background="new 0 0 256 256" xml:space="preserve">
<metadata> Svg Vector Icons : http://www.onlinewebfonts.com/icon </metadata>
<g> <path fill="#ecc64c" d="M14.7,104.4h226.6v118.3H14.7V104.4z"/> <path fill="#3d2b1f" d="M241.3,227.5H14.7c-2.6,0-4.7-2.1-4.7-4.7V104.4c0-2.6,2.1-4.7,4.7-4.7h226.6c2.6,0,4.7,2.1,4.7,4.7v118.3 C246,225.3,243.9,227.5,241.3,227.5L241.3,227.5z M19.4,218h217.1V109.1H19.4V218z"/> <path fill="#e7863b" d="M14.7,171h226.6v51.7H14.7V171z"/> <path fill="#3d2b1f" d="M241.3,227.5H14.7c-2.6,0-4.7-2.1-4.7-4.7V171c0-2.6,2.1-4.7,4.7-4.7h226.6c2.6,0,4.7,2.1,4.7,4.7v51.7 C246,225.3,243.9,227.5,241.3,227.5L241.3,227.5z M19.4,218h217.1v-42.3H19.4V218z"/> <path fill="#e7863b" d="M239.7,104.4c-5.9,11-18.2,38.6-34.4,38.6c-10.6,0-13.7-2.2-17.3-4.8c-4.3-3-9.1-6.5-23.4-6.5 c-14.7,0-18.2,7.6-21,13.7c-2.8,6.1-4.9,10.6-15.7,10.6c-7.5,0-10.5-5.2-14.8-13.7c-4.5-8.9-10-20.1-27.1-20.1 c-16,0-20.1,8.4-23.1,14.5c-3,6.1-4.9,9.3-12.5,9.3c-22.1,0-31.9-32.8-34.2-41.7L239.7,104.4L239.7,104.4z"/> <path fill="#3d2b1f" d="M127.9,160.8c-10.8,0-15-8.3-19-16.3c-4.3-8.6-8.7-17.5-22.9-17.5c-13.1,0-16,6-18.8,11.8 c-3.4,7-6.6,12-16.7,12c-25.2,0-36.1-34.6-38.8-45.2c-0.4-1.4-0.1-2.9,0.8-4.1c0.9-1.2,2.3-1.8,3.7-1.8h223.5 c1.7,0,3.2,0.9,4.1,2.3c0.8,1.4,0.9,3.2,0.1,4.7c-0.7,1.2-1.4,2.6-2.2,4.2c-7.1,13.8-19.1,36.9-36.4,36.9c-11.2,0-15.4-2.3-20-5.7 c-3.9-2.8-7.9-5.6-20.7-5.6c-11.7,0-14,5.1-16.7,11C144.9,154,141.8,160.8,127.9,160.8z M86,117.6c20,0,26.8,13.7,31.3,22.7 c4.4,8.7,6.1,11.1,10.6,11.1c7.8,0,8.7-2,11.4-7.9c2.8-6.2,7.6-16.5,25.3-16.5c15.9,0,21.6,4.1,26.2,7.4c3.2,2.3,5.5,3.9,14.5,3.9 c10.7,0,20.6-17.8,26.6-29.2H22.6c3.7,11.3,12.6,32.2,27.9,32.2c4.7,0,5.4-0.8,8.2-6.6C61.8,128.3,67,117.6,86,117.6z"/> <path fill="#ecc64c" d="M14.7,222.7v-22.2c11.8,6.8,27.1,5.5,37.4-4.1c9.6-8.9,25.3-8.9,34.9,0c6,5.6,13.8,8.4,21.6,8.4 c7.8,0,15.5-2.8,21.6-8.4c9.6-8.9,25.3-8.9,34.9,0c12.1,11.2,31,11.2,43.1,0c8.9-8.3,23.7-8.6,33.3-1.2v27.5H14.7L14.7,222.7z"/> <path fill="#3d2b1f" d="M241.3,227.5H14.7c-2.6,0-4.7-2.1-4.7-4.7v-22.2c0-1.7,0.9-3.2,2.3-4.1c1.5-0.8,3.3-0.8,4.7,0 c10.2,5.9,23.3,4.4,31.8-3.5c11.4-10.6,29.9-10.6,41.3,0c5,4.6,11.5,7.1,18.3,7.1c6.9,0,13.4-2.5,18.3-7.1 c11.4-10.6,29.9-10.6,41.3,0c10.3,9.5,26.4,9.5,36.7,0c10.6-9.8,27.8-10.4,39.4-1.5c1.2,0.9,1.8,2.3,1.8,3.7v27.5 C246,225.3,243.9,227.5,241.3,227.5L241.3,227.5z M19.4,218h217.1v-20.3c-7.8-4.7-18.8-3.9-25.3,2.2c-13.9,12.9-35.6,12.9-49.5,0 c-7.8-7.3-20.6-7.3-28.5,0c-6.7,6.2-15.5,9.7-24.7,9.7c-9.3,0-18-3.4-24.7-9.7c-7.8-7.3-20.6-7.3-28.5,0 c-9.6,8.9-23.5,11.8-35.9,7.9V218L19.4,218z"/> <path fill="#ffffff" d="M14.7,104.4l144.9-71.2l81.7,71.2H14.7z"/> <path fill="#3d2b1f" d="M241.3,109.1H14.7c-2.2,0-4.1-1.5-4.6-3.6s0.6-4.3,2.5-5.3L157.5,29c1.7-0.8,3.7-0.6,5.2,0.7l81.7,71.1 c1.5,1.3,2,3.4,1.3,5.2C245,107.9,243.2,109.1,241.3,109.1z M35,99.7h193.7l-69.8-60.8L35,99.7z"/> <path fill="#91cae0" d="M159.6,33.3l-32.8,16.1l63.2,55.1h51.3L159.6,33.3z"/> <path fill="#3d2b1f" d="M241.3,109.1H190c-1.1,0-2.2-0.4-3.1-1.2l-63.2-55.1c-1.2-1-1.8-2.6-1.6-4.2c0.2-1.6,1.2-2.9,2.6-3.6 L157.5,29c1.7-0.8,3.7-0.6,5.2,0.7l81.7,71.1c1.5,1.3,2,3.4,1.3,5.2C245,107.9,243.2,109.1,241.3,109.1z M191.8,99.7h36.9 l-69.8-60.8l-23.6,11.6L191.8,99.7z"/> <path fill="#dc5553" d="M112.2,86.6c-14.1,0-25.6-11.5-25.6-25.6c0-14.1,11.5-25.6,25.6-25.6c14.1,0,25.6,11.5,25.6,25.6 C137.8,75.1,126.4,86.6,112.2,86.6z"/> <path fill="#3d2b1f" d="M112.3,39.2c12.1,0,21.8,9.8,21.8,21.8s-9.8,21.8-21.8,21.8c-12.1,0-21.8-9.8-21.8-21.8 S100.2,39.2,112.3,39.2 M112.3,31.6c-16.2,0-29.4,13.2-29.4,29.4c0,16.2,13.2,29.4,29.4,29.4c16.2,0,29.3-13.2,29.3-29.4 S128.4,31.6,112.3,31.6z"/></g>
</svg>