<?xml version="1.0" encoding="utf-8"?>
<!-- Svg Vector Icons : http://www.onlinewebfonts.com/icon -->
<!DOCTYPE svg PUBLIC "-//W3C//DTD SVG 1.1//EN" "http://www.w3.org/Graphics/SVG/1.1/DTD/svg11.dtd">
<svg version="1.1" xmlns="http://www.w3.org/2000/svg" xmlns:xlink="http://www.w3.org/1999/xlink" x="0px" y="0px" viewBox="0 0 256 256" enable-background="new 0 0 256 256" xml:space="preserve">
<metadata> Svg Vector Icons : http://www.onlinewebfonts.com/icon </metadata>
<g> <path fill="#f1ab40" d="M205.5,150.3c-12.7,0-23.8,7.2-29.3,17.7c-3.8-8.2-10.6-14.8-19-18.4c-2.3-24.3-22.8-43.4-47.7-43.4 c-12.9,0-24.7,5.1-33.3,13.5V94.9c0-6.1-4.9-11-11-11c-2.1,0-3.8-1.7-3.8-3.8V61.7h-7.2v18.5c0,6.1,4.9,11,11,11 c2.1,0,3.8,1.7,3.8,3.8v33.2h0.3c-4.5,6.9-7.1,14.9-7.6,23.1c-2.5-0.6-5-0.9-7.6-0.9c-18.3,0-33.1,14.9-33.1,33.1h7.2 c0-14.4,11.6-25.9,25.9-25.9s25.9,11.5,25.9,25.9h7.2c0-8.5-3.2-16.2-8.5-22.1h1v-7.4c0-16.3,13.3-29.5,29.6-29.5 c13.9,0,25.5,9.6,28.7,22.5c-1.3,0.2-2.5,0.4-3.8,0.7c-2.9-11.2-13-19.2-24.9-19.2c-14.2,0-25.7,11.3-25.7,25.7H91 c0-10.6,8.3-18.5,18.5-18.5c8.8,0,16.2,5.9,18.1,14.3c-1.1,0.5-2.2,1.1-3.2,1.7c-1.1-7-7.2-12.5-14.6-12.5 c-8.1,0-14.8,6.8-14.8,14.5h7.2c0-3.8,3.4-7.3,7.6-7.3s7.6,3.5,7.6,7.6v2.9c-7,6.7-11.4,16.2-11.4,26.6h7.2 c0-15.1,11.4-27.6,26-29.4v0h7.2c0,0,0,0,0-0.1c14.6,1.8,26,14.2,26,29.4h7.2c0-14.4,11.6-25.9,25.9-25.9s25.9,11.5,25.9,25.9h7.2 C238.6,165.2,223.8,150.3,205.5,150.3L205.5,150.3z M145.6,146.8c-3.4-17-18.3-29.5-36.1-29.5c-20.3,0-36.8,16.4-36.8,36.7v2 c-1.2-0.8-2.5-1.6-3.8-2.2c0.2-22.4,18.4-40.3,40.7-40.3c20.1,0,36.9,14.5,40.1,33.8C148.3,147,147,146.9,145.6,146.8z"/> <path fill="#33a1d2" d="M235,46.9H113.2c-4.1,0-7.4-3.3-7.4-7.4c0-4.1,3.3-7.4,7.4-7.4H235c4.1,0,7.4,3.3,7.4,7.4 C242.4,43.6,239.1,46.9,235,46.9z"/> <path fill="#f2f2f2" d="M235,46.9h-12c-3.5,0-6.4-2.9-6.4-6.4v-1.9c0-3.5,2.9-6.4,6.4-6.4h12c4.1,0,7.4,3.3,7.4,7.4 C242.4,43.6,239.1,46.9,235,46.9z"/> <path fill="#040000" d="M235,28.6H113.2c-4.8,0-8.8,3-10.3,7.3H83.2c-1.6-6.3-7.4-11-14.2-11H57.9v7.2H69c4.1,0,7.5,3.3,7.5,7.5 S73.1,47,69,47H57.9v7.2H69c6.9,0,12.7-4.8,14.2-11.2h19.6c1.5,4.3,5.6,7.5,10.4,7.5H235c6.1,0,11-4.9,11-11S241.1,28.6,235,28.6z  M109.5,39.5c0-2.1,1.7-3.8,3.8-3.8h99.8v7.5h-99.8C111.2,43.3,109.5,41.6,109.5,39.5z M235,43.3h-14.7v-7.5H235 c2.1,0,3.8,1.7,3.8,3.8S237.1,43.3,235,43.3z M16.9,24.8h18.7V32H16.9V24.8z M16.9,35.9h18.7v7.2H16.9V35.9z M16.9,47.4h18.7v7.2 H16.9V47.4z"/> <path fill="#040000" d="M57.8,35.9h7.7v7.2h-7.7V35.9z"/> <path fill="#f1ab40" d="M76.3,183.5H69c0-8.2-6.7-14.8-14.8-14.8c-8.2,0-14.8,6.7-14.8,14.8h-7.2c0-12,9.9-22.1,22.1-22.1 C66.4,161.4,76.3,171.4,76.3,183.5z"/> <path fill="#f1ab40" d="M65.2,183.5H58c0-1.9-1.7-3.8-3.8-3.8c-2.1,0-3.8,1.9-3.8,3.8h-7.2c0-6.3,4.9-11,11-11 C60.3,172.5,65.2,177.2,65.2,183.5z M227.5,183.5h-7.2c0-8.2-6.7-14.8-14.8-14.8s-14.8,6.7-14.8,14.8h-7.2c0-12,9.9-22.1,22.1-22.1 S227.5,171.4,227.5,183.5z"/> <path fill="#f1ab40" d="M216.5,183.5h-7.2c0-1.9-1.7-3.8-3.8-3.8c-2.1,0-3.8,1.9-3.8,3.8h-7.2c0-6.3,4.9-11,11-11 C211.6,172.5,216.5,177.2,216.5,183.5z M157.4,183.5h-7.2c0-4.3-3.3-7.5-7.5-7.5s-7.5,3.1-7.5,7.5h-7.2c0-8.2,6.6-14.7,14.7-14.7 C150.9,168.8,157.4,175.3,157.4,183.5L157.4,183.5z"/> <path fill="#f1ab40" d="M168.5,183.5h-7.2c0-10.1-8.3-18.5-18.5-18.5c-10.2,0-18.5,8.4-18.5,18.5H117c0-14.4,11.5-25.7,25.7-25.7 C157,157.7,168.5,169,168.5,183.5z"/> <path fill="#b8292d" d="M161.2,146.6c0,8.2,6.6,14.8,14.8,14.8c8.2,0,14.8-6.6,14.8-14.8c0,0,0,0,0,0c0-8.2-6.6-14.8-14.8-14.8 C167.8,131.8,161.2,138.4,161.2,146.6C161.2,146.6,161.2,146.6,161.2,146.6z"/> <path fill="#e72d2d" d="M176,131.8c-2,0-3.8,0.4-5.5,1.1c5.4,2.2,9.2,7.5,9.2,13.7c0,6.2-3.8,11.5-9.2,13.7 c1.7,0.7,3.6,1.1,5.5,1.1c8.2,0,14.8-6.6,14.8-14.8C190.7,138.4,184.1,131.8,176,131.8z"/> <path fill="#b8292d" d="M80,165c0,8.2,6.6,14.8,14.8,14.8s14.8-6.6,14.8-14.8c0-8.2-6.6-14.8-14.8-14.8C86.6,150.2,80,156.8,80,165 C80,165,80,165,80,165z"/> <path fill="#e72d2d" d="M94.8,150.3c-2,0-3.8,0.4-5.5,1.1c5.4,2.2,9.2,7.5,9.2,13.7s-3.8,11.5-9.2,13.7c1.7,0.7,3.6,1.1,5.5,1.1 c8.2,0,14.8-6.6,14.8-14.8C109.5,156.9,102.9,150.3,94.8,150.3z"/> <path fill="#33a1d2" d="M214.5,231.4H41.5c-15.4,0-27.9-12.5-27.9-27.9v-12.7h228.8v12.7C242.4,218.9,229.9,231.4,214.5,231.4z"/> <path fill="#57b3da" d="M209.2,190.7v11.4c0,16.2-11.7,29.4-27.9,29.4H213c16.2,0,29.3-13.2,29.3-29.4v-11.4H209.2z"/> <path fill="#13698f" d="M46.7,190.7v11.4c0,16.2,13.4,29.4,29.6,29.4H44.6c-16.2,0-31.1-13.2-31.1-29.4v-11.4H46.7z"/> <path fill="#f2f2f2" d="M13.6,190.8h228.8v11.1H13.6V190.8z"/> <path fill="#e6e6e5" d="M13.6,190.8h195.6v11.1H13.6V190.8z"/> <path fill="#cccccc" d="M13.6,190.8h33.2v11.1H13.6V190.8z"/> <path fill="#040000" d="M24.6,197.9h7.2v7.2h-7.2V197.9z M35.7,197.9h7.7v7.2h-7.7V197.9z M46.7,197.9h7.2v7.2h-7.2V197.9z  M57.8,197.9h7.7v7.2h-7.7V197.9z M68.8,197.9H76v7.2h-7.2V197.9z M80.4,197.9h7.2v7.2h-7.2V197.9z M90.9,197.9h7.7v7.2h-7.7V197.9 z M102.5,197.9h7.2v7.2h-7.2V197.9z M113.1,197.9h7.7v7.2h-7.7V197.9z M124.6,197.9h6.7v7.2h-6.7V197.9z M135.2,197.9h7.7v7.2h-7.7 V197.9z M146.2,197.9h7.2v7.2h-7.2V197.9z M157.8,197.9h7.2v7.2h-7.2V197.9z M168.3,197.9h7.7v7.2h-7.7V197.9z M179.9,197.9h7.2 v7.2h-7.2V197.9z M190.5,197.9h7.7v7.2h-7.7V197.9z M202,197.9h7.2v7.2H202V197.9z M212.6,197.9h7.7v7.2h-7.7V197.9z M224.1,197.9 h7.2v7.2h-7.2V197.9z"/> <path fill="#f1ab40" d="M53.9,21h7.2v37h-7.2V21z M43.4,21h7.2v37h-7.2V21z M31.8,21H39v37h-7.2V21z"/> <path fill="#040000" d="M10,187.2v14.7c0,18.3,14.9,33.1,33.1,33.1h169.8c18.3,0,33.1-14.9,33.1-33.1v-14.7H10z M212.9,227.8H43.1 c-13.2,0-24.1-9.9-25.7-22.7h3.8v-7.2h-4v-3.4h221.6v3.4h-3.6v7.2h3.4C237,217.9,226.1,227.8,212.9,227.8L212.9,227.8z M94.8,183.4 c10.1,0,18.4-8.2,18.4-18.4s-8.2-18.4-18.4-18.4s-18.4,8.2-18.4,18.4C76.4,175.1,84.7,183.4,94.8,183.4z M94.8,153.9 c3.4,0,6.4,1.5,8.4,3.9H98v7.2h6.2V159c1.2,1.8,1.8,3.9,1.8,6c0,4.5-2.7,8.4-6.5,10.2v-4.5h-6.2v5.4c-4.2-0.6-7.7-3.5-9-7.4h3.3 v-7.2h-3.3C85.7,157,89.9,153.9,94.8,153.9L94.8,153.9z M176,164.9c10.1,0,18.4-8.2,18.4-18.4s-8.2-18.4-18.4-18.4 c-10.1,0-18.4,8.2-18.4,18.4C157.6,156.7,165.8,164.9,176,164.9z M176,135.4c2.2,0,4.2,0.6,5.9,1.7v5.8h4.6 c0.4,1.2,0.6,2.4,0.6,3.7c0,3.4-1.5,6.4-3.8,8.4v-6.4h-6.2v7.2h5.1c-1.8,1.3-4,1.9-6.2,1.9c-6.1,0-11.1-5-11.2-11.1h6.6v-7.2h-4 C169.5,136.9,172.6,135.4,176,135.4L176,135.4z"/></g>
</svg>