<?xml version="1.0" encoding="utf-8"?>
<!-- Svg Vector Icons : http://www.onlinewebfonts.com/icon -->
<!DOCTYPE svg PUBLIC "-//W3C//DTD SVG 1.1//EN" "http://www.w3.org/Graphics/SVG/1.1/DTD/svg11.dtd">
<svg version="1.1" xmlns="http://www.w3.org/2000/svg" xmlns:xlink="http://www.w3.org/1999/xlink" x="0px" y="0px" viewBox="0 0 256 256" enable-background="new 0 0 256 256" xml:space="preserve">
<metadata> Svg Vector Icons : http://www.onlinewebfonts.com/icon </metadata>
<g> <path fill="#f3a074" d="M243.2,113.5l0.1,16.7c0,12.7-10,23.2-22.3,23.2c-5.5,0-10.6-1.7-14.8-4.7c-20.1-14.2-43.3-20.8-67.6-20.8 l-11.9,0c-24.2,0.1-47.3,6.7-67.3,20.8c-4.2,3-9.2,4.7-14.7,4.7c-12.4,0-22.5-10.5-22.5-23.4v-14.4c0-28.2,21.8-51,48.8-51 l123.5,0.3c26.9,0,48.8,22.8,48.8,51"/> <path fill="#ffffff" d="M191.5,126.9c-1.7,0-3-1.4-3-3V64.6c0-1.7,1.4-3,3-3c1.7,0,3,1.4,3,3v59.2 C194.6,125.5,193.2,126.9,191.5,126.9z M134,116.5c-1.7,0-3-1.4-3-3V64.7c0-1.7,1.4-3,3-3c1.7,0,3,1.4,3,3v48.8 C137.1,115.2,135.7,116.5,134,116.5z M76.5,126.9c-1.7,0-3-1.4-3-3V64.7c0-1.7,1.4-3,3-3s3,1.4,3,3v59.2 C79.6,125.6,78.2,126.9,76.5,126.9z"/> <path fill="#af583c" d="M197.2,194.4H60.6c-14.6,0-26.4-11.9-26.4-26.4v-14.7c0-1.7,1.4-3,3-3c1.7,0,3,1.4,3,3V168 c0,11.2,9.2,20.4,20.4,20.4h136.6c11.2,0,20.4-9.2,20.4-20.4v-14.7c0-1.7,1.4-3,3-3s3,1.4,3,3V168 C223.6,182.6,211.8,194.4,197.2,194.4L197.2,194.4z M219.8,142c-6.1,0-12-1.8-17.1-5.2c-19.9-13.4-42.9-20.3-68.4-20.3H134l-12.4,0 c-25.5,0.1-48.5,6.9-68.3,20.3c-5,3.4-10.9,5.2-16.9,5.2c-14.6,0-26.4-11.9-26.4-26.4c0-1.7,1.4-3,3-3s3,1.4,3,3 c0,11.2,9.2,20.4,20.4,20.4c4.8,0,9.5-1.4,13.6-4.2c20.8-14.1,44.9-21.3,71.6-21.3l12.4,0h0.3c26.7,0,50.9,7.2,71.8,21.3 c4.1,2.8,8.8,4.2,13.7,4.2c11.1,0,20.2-9,20.2-20.2c0-1.7,1.4-3,3-3c1.7,0,3,1.4,3,3C246,130.2,234.2,142,219.8,142L219.8,142z"/> <path fill="#af583c" d="M243,118.8c-1.7,0-3-1.4-3-3c0-12.7-3.2-29.8-18.3-40c-1.4-0.9-1.8-2.8-0.8-4.2c0.9-1.4,2.8-1.7,4.2-0.8 c13.7,9.2,21,24.7,21,45C246,117.5,244.6,118.8,243,118.8z"/> <path fill="#af583c" d="M219.8,156.4c-6.1,0-12-1.8-17.1-5.2c-19.9-13.5-43.1-20.4-68.7-20.3l-12.4,0c-25.5,0.1-48.5,6.9-68.3,20.3 c-5,3.4-10.9,5.2-16.9,5.2C21.9,156.4,10,144.5,10,130v-14.4c0-29.8,24.1-54,53.8-54l128.4,0.3c4.7,0,9.3,0.6,13.8,1.8 c1.6,0.4,2.6,2.1,2.1,3.7s-2.1,2.6-3.7,2.1c-4-1.1-8.1-1.6-12.3-1.6L63.8,67.6c-26.3,0-47.7,21.5-47.7,48V130 c0,11.2,9.2,20.4,20.4,20.4c4.8,0,9.5-1.4,13.6-4.2c20.8-14.1,44.9-21.3,71.6-21.3l12.4,0h0.3c26.8,0,50.9,7.2,71.8,21.3 c4.1,2.8,8.8,4.2,13.7,4.2c11.1,0,20.2-9,20.2-20.2l-0.1-16.7c0-1.7,1.4-3,3-3c1.7,0,3,1.4,3,3l0.1,16.7 C246,144.6,234.2,156.4,219.8,156.4L219.8,156.4z"/> <path fill="#af583c" d="M185.5,126.9c-1.7,0-3-1.4-3-3V64.6c0-1.7,1.4-3,3-3c1.7,0,3,1.4,3,3v59.2 C188.5,125.5,187.1,126.9,185.5,126.9z M128,116.5c-1.7,0-3-1.4-3-3V64.7c0-1.7,1.4-3,3-3s3,1.4,3,3v48.8 C131,115.2,129.6,116.5,128,116.5z M70.5,126.9c-1.7,0-3-1.4-3-3V64.7c0-1.7,1.4-3,3-3s3,1.4,3,3v59.2 C73.5,125.6,72.2,126.9,70.5,126.9z M79.5,159.4h-5.8c-1.7,0-3-1.4-3-3s1.4-3,3-3h5.8c1.7,0,3,1.4,3,3S81.2,159.4,79.5,159.4z  M120.8,151.8H115c-1.7,0-3-1.4-3-3s1.4-3,3-3h5.8c1.7,0,3,1.4,3,3S122.5,151.8,120.8,151.8z M166.8,153.5h-5.8c-1.7,0-3-1.4-3-3 s1.4-3,3-3h5.8c1.7,0,3,1.4,3,3S168.5,153.5,166.8,153.5z M98.2,179.2h-5.8c-1.7,0-3-1.4-3-3s1.4-3,3-3h5.8c1.7,0,3,1.4,3,3 S99.9,179.2,98.2,179.2z"/> <path fill="#af583c" d="M139.5,166.9h-5.8c-1.7,0-3-1.4-3-3c0-1.7,1.4-3,3-3h5.8c1.7,0,3,1.4,3,3 C142.5,165.5,141.1,166.9,139.5,166.9z"/> <path fill="#af583c" d="M185.5,179.2h-5.7c-1.7,0-3-1.4-3-3s1.4-3,3-3h5.7c1.7,0,3,1.4,3,3C188.5,177.8,187.1,179.2,185.5,179.2z" /></g>
</svg>