<?xml version="1.0" encoding="utf-8"?>
<!-- Svg Vector Icons : http://www.onlinewebfonts.com/icon -->
<!DOCTYPE svg PUBLIC "-//W3C//DTD SVG 1.1//EN" "http://www.w3.org/Graphics/SVG/1.1/DTD/svg11.dtd">
<svg version="1.1" xmlns="http://www.w3.org/2000/svg" xmlns:xlink="http://www.w3.org/1999/xlink" x="0px" y="0px" viewBox="0 0 256 256" enable-background="new 0 0 256 256" xml:space="preserve">
<metadata> Svg Vector Icons : http://www.onlinewebfonts.com/icon </metadata>
<g> <path fill="#f49c19" d="M240.1,160.1c-2.5-51.5-46.7-93.9-100.9-93.9c-54.2,0-98.4,42.4-100.9,93.9h-0.2v9.2c0,5.1,4.3,9.2,9.6,9.2 l175.8,16.9c5.3,0,16.9-21,16.9-26.1v-9.2L240.1,160.1L240.1,160.1z"/> <path fill="#87bb4c" d="M24.1,168.6c1.6-6.5-5.7-7.6-9.3-11.5c-2.5-2.7-4.4-7.5-4.7-11.1c-1.3-11.9,16.4,0,18.4-9.7 c1-4.9-5-8.4-8.2-11c-3.7-3-6.6-6.6-7.3-11.3c-0.8-5.5,1.6-11.1,8.2-10.1c3.8,0.6,8.3,5.9,11.2,2.3c1.4-1.7-0.1-4.7-0.1-6.4 c-0.1-3.6,0.1-7,1.8-10.2c4.3-7.6,8.6-1.6,14.5-5c5.6-3.2,2.1-11.8,10.1-8.8c5.9,2.2,8.7,4.1,12.6-3.3c3.2-6.2,2.6-13.6,11.1-15.2 c8-1.6,8.3,2.6,10.3,8.6c1.3,3.9,3,11.6,8.5,11.7c6,0.1,8.9-8.1,10.7-12c2.7-6.1,7.2-11.1,14.8-10.7c6.3,0.4,4.3,6.6,9.9,9.4 c5.6,2.8,8.7-4.2,14.4-2c6.1,2.4,0.8,8.5,0.6,12.9c-0.9,18.1,20.6-5.5,24.6-6.7c7.1-2.3,9.4,1.5,8.2,6.9c-1.8,8.2-0.4,9.1,7.8,7.7 c5.4-1,14.3-3.2,14.8,4.4c0.3,4.9-6.9,8.8-6.2,13.3c1.8,10.9,33.1-2.7,40.1,4.6c2.4,2.5,2,9.9,0,12.5c-2.4,3-8.5,4.4-8.2,9.2 c0.3,5.4,7.7,2.8,11.1,5.9c5.1,4.5,0.5,7.3-3.4,8.9c-2.7,1.1-5.6,2.6-5.7,6c-0.1,3.7,3.8,5,5.8,7.8c1.8,2.7,7.4,16.5,3.8,18.9 c-3.4,2.2-5.3-3.5-7.3-4.6c-4-2.2-4.2,0.4-6.3,3.1c-3,4.1-7.2,6.9-11.9,9.1c-12.8,6.1-18.9-3.8-30.6-7.6L24.1,168.6z"/> <path fill="#785548" d="M229.1,150.5c0,6.2-5,11.2-11.2,11.2l0,0h-11.2c-6.2,0-11.2-5-11.2-11.2l0,0v-11.2c0-6.2,5-11.2,11.2-11.2 l0,0h11.2c6.2,0,11.2,5,11.2,11.2l0,0V150.5z M150.5,94.3c0,6.2-5,11.2-11.2,11.2l0,0H128c-6.2,0-11.2-5-11.2-11.2V83.1 c0-6.2,5-11.2,11.2-11.2h11.2c6.2,0,11.2,5,11.2,11.2l0,0V94.3z M54.9,135.9c-4.4,4.4-11.5,4.4-15.9,0l-7.9-7.9 c-4.4-4.4-4.4-11.5,0-15.9l7.9-7.9c4.4-4.4,11.5-4.4,15.9,0l7.9,7.9c4.4,4.4,4.4,11.5,0,15.9L54.9,135.9z"/> <path fill="#e94419" d="M194.4,124.7c-4.4,4.4-11.5,4.4-15.9,0l-7.9-7.9c-4.4-4.4-4.4-11.5,0-15.9l7.9-7.9c4.4-4.4,11.5-4.4,15.9,0 l7.9,7.9c4.4,4.4,4.4,11.5,0,15.9L194.4,124.7z M93.3,107.9c-4.4,4.4-11.5,4.4-15.9,0l-7.9-7.9c-4.4-4.4-4.4-11.5,0-15.9l7.9-7.9 c4.4-4.4,11.5-4.4,15.9,0l7.9,7.9c4.4,4.4,4.4,11.5,0,15.9L93.3,107.9z"/> <path fill="#f5bb1d" d="M239.7,173.2c-0.4-0.5-0.8-1.1-1.3-1.6c-15.4,33.3-20.6,12.6-20.6,12.6l-0.3-1.7 c-2.6-51.4-46.7-93.8-100.9-93.8c-54.2,0-98.4,42.4-100.9,93.9h-0.2v9.2c0,5.1,4.3,9.2,9.6,9.2h183c0.5,0,1-0.1,1.5-0.1 C232,199.4,238.1,182.4,239.7,173.2L239.7,173.2z"/> <path fill="#ea7a15" d="M49.3,161.7c0,3.1,2.5,5.6,5.6,5.6c3.1,0,5.6-2.5,5.6-5.6c0,0,0,0,0,0c0-3.1-2.5-5.6-5.6-5.6 C51.8,156.1,49.3,158.6,49.3,161.7z"/> <path fill="#ea7a15" d="M60.6,144.9c0,3.1,2.5,5.6,5.6,5.6c3.1,0,5.6-2.5,5.6-5.6c0,0,0,0,0,0c0-3.1-2.5-5.6-5.6-5.6 C63.1,139.2,60.6,141.8,60.6,144.9z"/> <path fill="#ea7a15" d="M71.8,161.7c0,3.1,2.5,5.6,5.6,5.6c3.1,0,5.6-2.5,5.6-5.6c0,0,0,0,0,0c0-3.1-2.5-5.6-5.6-5.6 C74.3,156.1,71.8,158.6,71.8,161.7C71.8,161.7,71.8,161.7,71.8,161.7z"/></g>
</svg>