<?xml version="1.0" encoding="utf-8"?>
<!-- Svg Vector Icons : http://www.onlinewebfonts.com/icon -->
<!DOCTYPE svg PUBLIC "-//W3C//DTD SVG 1.1//EN" "http://www.w3.org/Graphics/SVG/1.1/DTD/svg11.dtd">
<svg version="1.1" xmlns="http://www.w3.org/2000/svg" xmlns:xlink="http://www.w3.org/1999/xlink" x="0px" y="0px" viewBox="0 0 256 256" enable-background="new 0 0 256 256" xml:space="preserve">
<metadata> Svg Vector Icons : http://www.onlinewebfonts.com/icon </metadata>
<g> <path fill="#f6c94d" d="M184.2,10c-24.8,0-44.9,20.1-44.9,44.9c0,3.9,0.5,7.6,1.5,11.2h65.9l-32.5,32.5c3.2,0.7,6.6,1.2,10.1,1.2 c24.8,0,44.9-20.1,44.9-44.9C229.2,30.1,209,10,184.2,10L184.2,10z"/> <path fill="#4e97d3" d="M140.7,66.2H26.8l84.1,84.1l-2.6,84.5H83.1c-3.1,0-5.6,2.5-5.6,5.6c0,3.1,2.5,5.6,5.6,5.6h67.4 c3.1,0,5.6-2.5,5.6-5.6c0-3.1-2.5-5.6-5.6-5.6h-25.3l-2.6-84.5l51.6-51.6l32.5-32.5L140.7,66.2L140.7,66.2z"/></g>
</svg>