<?xml version="1.0" encoding="utf-8"?>
<!-- Svg Vector Icons : http://www.onlinewebfonts.com/icon -->
<!DOCTYPE svg PUBLIC "-//W3C//DTD SVG 1.1//EN" "http://www.w3.org/Graphics/SVG/1.1/DTD/svg11.dtd">
<svg version="1.1" xmlns="http://www.w3.org/2000/svg" xmlns:xlink="http://www.w3.org/1999/xlink" x="0px" y="0px" viewBox="0 0 256 256" enable-background="new 0 0 256 256" xml:space="preserve">
<metadata> Svg Vector Icons : http://www.onlinewebfonts.com/icon </metadata>
<g> <path fill="#46a15e" d="M183.5,120.8c0,14.1,11.4,25.5,25.5,25.5s25.5-11.4,25.5-25.5c0-14.1-11.4-25.5-25.5-25.5 C194.9,95.3,183.5,106.7,183.5,120.8C183.5,120.8,183.5,120.8,183.5,120.8L183.5,120.8z"/> <path fill="#1a1a1a" d="M209,95.3c14.1,0,25.5,11.4,25.5,25.5c0,14.1-11.4,25.5-25.5,25.5s-25.5-11.4-25.5-25.5 C183.5,106.7,194.9,95.3,209,95.3 M209,89.2c-17.4,0-31.6,14.2-31.6,31.6c0,17.4,14.2,31.6,31.6,31.6s31.6-14.2,31.6-31.6 C240.6,103.4,226.4,89.2,209,89.2z"/> <path fill="#46a15e" d="M35.9,164.3c0,19.9,16.1,36,36,36c19.9,0,36-16.1,36-36c0,0,0,0,0,0c0-19.9-16.1-36-36-36 C52,128.3,35.9,144.4,35.9,164.3L35.9,164.3z"/> <path fill="#1a1a1a" d="M71.9,128.3c19.9,0,36,16.1,36,36c0,19.9-16.1,36-36,36c-19.9,0-36-16.1-36-36 C35.9,144.4,52.1,128.3,71.9,128.3 M71.9,122.2c-11.2,0-21.8,4.4-29.7,12.3c-7.9,7.9-12.3,18.5-12.3,29.7s4.4,21.8,12.3,29.7 c7.9,7.9,18.5,12.3,29.7,12.3s21.8-4.4,29.7-12.3c7.9-7.9,12.3-18.5,12.3-29.7s-4.4-21.8-12.3-29.7 C93.7,126.6,83.1,122.2,71.9,122.2z"/> <path fill="#a1cd6a" d="M97.9,216.8h59.9c0,0,3.4-38.7,42.1-61.2l-9.5-16.2c0,0-30.1,11.2-45.1,39.6c0.5-20.6,14.3-59.2,14.3-59.2 l-24.7-11.4c0,0-19.1,51.2-19.5,56.9c-16-28.1-35.1-41.1-35.1-41.1l-12.8,18.5C67.5,142.6,92.6,164.7,97.9,216.8z"/> <path fill="#1a1a1a" d="M134.9,108.3l24.7,11.4c0,0-13.9,38.6-14.3,59.2c15-28.4,45.1-39.6,45.1-39.6l9.5,16.2 c-38.7,22.6-42.1,61.2-42.1,61.2H97.9c-5.3-52.1-30.4-74.2-30.4-74.2l12.8-18.5c0,0,19.1,13,35.1,41.1 C115.9,159.5,134.9,108.3,134.9,108.3 M134.9,102.2c-0.8,0-1.6,0.2-2.3,0.5c-1.6,0.6-2.8,1.9-3.4,3.5c-0.1,0.1-4.8,13-9.6,26.4 c-2.8,7.7-4.8,13.6-6.2,18c-14.5-21-29-31-29.7-31.5c-1-0.7-2.3-1.1-3.4-1.1c-1.9,0-3.8,0.9-5,2.6l-12.8,18.5c-1.8,2.6-1.4,6,1,8 c0.3,0.2,6,5.6,12.3,16.6c5.9,10.4,13.5,28.1,16,53.6c0.3,3.1,2.9,5.5,6.1,5.5h59.9c3.2,0,5.8-2.4,6.1-5.5c0-0.3,1-9.3,6.2-20.6 c7-15.2,18.1-27.3,32.9-35.9c1.4-0.8,2.4-2.2,2.8-3.7c0.4-1.6,0.2-3.2-0.6-4.6l-9.5-16.2c-1.1-1.9-3.1-3-5.3-3 c-0.7,0-1.4,0.1-2.1,0.4c-0.3,0.1-8.3,3.1-18.2,9.8c-5.5,3.7-10.4,7.8-14.9,12.2c4.1-16.9,10.1-33.6,10.2-33.9 c1.1-3-0.3-6.3-3.2-7.6l-24.7-11.5C136.7,102.4,135.8,102.2,134.9,102.2z"/> <path fill="#79a244" d="M130.7,216.8l27.2-0.1c0,0,1.4-15.9,12.7-33.3c1.3-1.8,8.7-13.8,22-23.1c-0.7-2.4-5-4.8-6.2-6.1 c-13,7.6-35.2,38-35.2,38s-7.9-0.7-5.7-13.4c0.2-7.7,4.7-27.6,4.7-27.6l6.9-23.5l-6-2C150.9,125.7,125.7,178.9,130.7,216.8z"/> <path fill="#4cb46c" d="M208.5,131.9c4.7-6.9,7.5-15.2,7.5-24.1c0-23.7-19.2-42.8-42.8-42.8c-1.1,0-2.2,0-3.3,0.1 c-8.5-15.4-24.9-25.8-43.8-25.8c-18.8,0-35.2,10.4-43.7,25.7c-19.7,0.5-36.4,13.4-42.4,31.2c-13.9,5.1-23.8,18.4-23.8,34 c0,20,16.2,36.2,36.2,36.2c9.7,0,18.5-3.8,25-10c2,0.3,4,0.4,6.1,0.4c14.8,0,28-7,36.4-17.9c2,0.2,4.1,0.4,6.2,0.4 c5.4,0,10.7-0.9,15.6-2.5c7.8,8.5,19,13.8,31.5,13.8c1.2,0,2.3-0.1,3.5-0.2c-2.2,4.5-3.5,9.5-3.5,14.8c0,18.5,15,33.4,33.4,33.4 c18.5,0,33.4-15,33.4-33.4C239.9,147.4,226,132.9,208.5,131.9L208.5,131.9z"/> <path fill="#1a1a1a" d="M220.8,195.5c-4.6,2.2-9.8,3.3-15.3,3.2c-17.8-0.5-32.2-15.2-32.4-32.9c-0.1-5.5,1.2-10.7,3.5-15.3 c-1.2,0.1-2.3,0.2-3.5,0.2c-12.5,0-23.7-5.3-31.5-13.8c-4.9,1.6-10.1,2.5-15.6,2.5c-2.1,0-4.2-0.1-6.2-0.4 c-8.4,10.9-21.6,17.9-36.4,17.9c-2.1,0-4.1-0.2-6.1-0.4c-6.5,6.2-15.2,10-24.9,10c-19.6,0.1-35.8-15.7-36.4-35.2 c-0.4-16.1,9.6-29.9,23.8-35.1c6-17.8,22.7-30.7,42.4-31.2c8.6-15.3,24.9-25.7,43.7-25.7c18.8,0,35.3,10.4,43.8,25.8 c1.1-0.1,2.2-0.1,3.3-0.1c23.7,0,42.8,19.2,42.8,42.8c0,9-2.7,17.3-7.5,24.1c17.6,1,31.5,15.6,31.5,33.4c0,7.8-2.6,14.9-7.1,20.6 c-0.9,1.1-0.9,2.7,0,3.8c0,0,0,0,0,0.1c1.2,1.5,3.5,1.5,4.7,0c5.5-6.9,8.4-15.4,8.4-24.4c0-17.8-11.8-32.9-28.1-37.9 c2.7-6.2,4.1-12.8,4.1-19.7c0-6.6-1.3-13-3.8-19c-2.5-5.8-6-11.1-10.5-15.6c-4.5-4.5-9.7-8-15.6-10.5c-6-2.5-12.4-3.8-18.9-3.8 c-10.3-16-28-25.7-47.2-25.7c-10.2,0-20.2,2.8-28.8,8c-7.5,4.5-13.8,10.6-18.5,17.9c-9.6,0.9-18.6,4.3-26.4,10.1 C44.6,75,38.7,82.6,35.1,91.5c-6.9,3.1-12.9,7.9-17.3,14.2c-5.1,7.2-7.9,15.7-7.8,24.6c0,11.2,4.5,22,12.4,29.9 c8,8,18.6,12.4,29.9,12.4c10,0,19.5-3.5,27.1-9.8c1.3,0.1,2.7,0.2,4,0.2c8.2,0,16-1.9,23.3-5.5c5.9-3,11.3-7.1,15.7-12.1 c1.2,0.1,2.4,0.1,3.6,0.1c4.7,0,9.3-0.6,13.8-1.7c3.9,3.7,8.4,6.6,13.3,8.8c4.8,2.1,9.7,3.5,14.9,4c-0.7,2.9-1,5.8-1,8.9 c0,10.8,4.3,21,12.1,28.5c7.5,7.2,17.5,11.1,27.8,11c5.8-0.1,11.3-1.4,16.4-3.7c1.7-0.8,2.3-3,1.2-4.5c0,0,0,0,0-0.1 C223.6,195.3,222.1,194.9,220.8,195.5L220.8,195.5z"/> <path fill="#299041" d="M119.8,138.8c-8.4,10.9-21.6,17.9-36.4,17.9c-2.1,0-4.1-0.2-6.1-0.4c-6.5,6.2-15.3,10-25,10 c-20,0-36.2-16.2-36.2-36.2c0,0,19.9,31.2,41.6,23.8c21.7-7.4,19.5-6.3,19.5-6.3c-0.2,0.3,18.1,7.2,32.1-3.2 C117.5,138.4,119.8,138.8,119.8,138.8L119.8,138.8z M189.1,184.9c4.8,1.2,9.9,1.8,13.8,1.7c9.3-0.3,22.9-8.6,20-27.3 c-3.2-20.7-23-25-23-25s9.3-11.4,3-33.5c-9-31.1-40.7-35-40.7-35c-1.6-18.7-24.1-25.7-18.6-23.6c11.2,4.2,20.5,12.3,26.2,22.7 c1.1-0.1,2.2-0.1,3.3-0.1c23.7,0,42.8,19.2,42.8,42.8c0,9-2.7,17.3-7.5,24.1c17.6,1,31.5,15.6,31.5,33.4c0,18.5-15,33.4-33.4,33.4 c-14,0-25.9-8.6-30.9-20.7C181.1,180.7,182.4,183.3,189.1,184.9L189.1,184.9z"/> <path fill="#1a1a1a" d="M128.9,91.4c-0.4,0-0.7-0.1-1.1-0.2c-1.6-0.6-2.4-2.3-1.8-3.9c0.1-0.3,2.8-7.4,9.6-14.5 c6.3-6.5,17.6-14.3,35.2-14.2c1.7,0,3,1.4,3,3s-1.4,3-3,3c-12.3-0.1-22.6,4-30.6,12.2c-6,6.2-8.4,12.5-8.5,12.5 C131.3,90.7,130.1,91.4,128.9,91.4z M105.3,115.4c-1.4,0-2.6-1-3-2.4c-0.2-0.7-4.2-17.5-23.7-18.2c-1.7-0.1-3-1.5-2.9-3.2 c0.1-1.7,1.5-3,3.2-2.9c12.6,0.5,19.9,6.7,23.9,11.8c4.2,5.5,5.5,11,5.5,11.2c0.4,1.6-0.7,3.3-2.3,3.6 C105.7,115.3,105.5,115.4,105.3,115.4L105.3,115.4z M62.8,98.3c-0.9,0-1.8-0.4-2.4-1.2c-1-1.3-0.8-3.3,0.5-4.3 c0.5-0.4,1.8-1.2,2.9-1.8c1.5-0.9,3.3-0.3,4.2,1.1c0.9,1.5,0.3,3.3-1.1,4.2c-0.9,0.5-1.9,1.1-2.2,1.3 C64.1,98.1,63.4,98.3,62.8,98.3z"/></g>
</svg>