<?xml version="1.0" encoding="utf-8"?>
<!-- Svg Vector Icons : http://www.onlinewebfonts.com/icon -->
<!DOCTYPE svg PUBLIC "-//W3C//DTD SVG 1.1//EN" "http://www.w3.org/Graphics/SVG/1.1/DTD/svg11.dtd">
<svg version="1.1" xmlns="http://www.w3.org/2000/svg" xmlns:xlink="http://www.w3.org/1999/xlink" x="0px" y="0px" viewBox="0 0 256 256" enable-background="new 0 0 256 256" xml:space="preserve">
<metadata> Svg Vector Icons : http://www.onlinewebfonts.com/icon </metadata>
<g><g><path fill="#000000" d="M128,157.7c24.8,0,50.7,5.4,77.6,16.2c26.9,10.8,40.4,24.9,40.4,42.4V246H10v-29.7c0-17.5,13.5-31.6,40.4-42.4C77.3,163.1,103.1,157.7,128,157.7L128,157.7z M128,128c-16.1,0-29.9-5.8-41.4-17.2C75.1,99.3,69.3,85.5,69.3,69.3c0-16.1,5.8-30,17.2-41.8C98.1,15.9,111.9,10,128,10c16.1,0,29.9,5.9,41.4,17.6c11.5,11.7,17.2,25.6,17.2,41.8c0,16.1-5.8,29.9-17.2,41.4C157.9,122.3,144.1,128,128,128z"/></g></g>
</svg>