<?xml version="1.0" encoding="utf-8"?>
<!-- Svg Vector Icons : http://www.onlinewebfonts.com/icon -->
<!DOCTYPE svg PUBLIC "-//W3C//DTD SVG 1.1//EN" "http://www.w3.org/Graphics/SVG/1.1/DTD/svg11.dtd">
<svg version="1.1" xmlns="http://www.w3.org/2000/svg" xmlns:xlink="http://www.w3.org/1999/xlink" x="0px" y="0px" viewBox="0 0 256 256" enable-background="new 0 0 256 256" xml:space="preserve">
<metadata> Svg Vector Icons : http://www.onlinewebfonts.com/icon </metadata>
<g><g><path fill="#000000" d="M213.8,246H42.2c-11.8,0-21.5-9.6-21.5-21.5V31.5c0-11.8,9.6-21.5,21.5-21.5h171.6c11.8,0,21.5,9.6,21.5,21.5v193.1C235.3,236.4,225.7,246,213.8,246L213.8,246z M74.4,192.4h64.4c5.9,0,10.7-4.8,10.7-10.7c0-5.9-4.8-10.7-10.7-10.7H74.4c-5.9,0-10.7,4.8-10.7,10.7C63.6,187.6,68.4,192.4,74.4,192.4L74.4,192.4z M181.6,63.6H74.4c-5.9,0-10.7,4.8-10.7,10.7s4.8,10.7,10.7,10.7h107.3c5.9,0,10.7-4.8,10.7-10.7S187.6,63.6,181.6,63.6L181.6,63.6z M181.6,117.3H74.4c-5.9,0-10.7,4.8-10.7,10.7c0,5.9,4.8,10.7,10.7,10.7h107.3c5.9,0,10.7-4.8,10.7-10.7C192.4,122.1,187.6,117.3,181.6,117.3L181.6,117.3z"/></g></g>
</svg>