<?xml version="1.0" encoding="utf-8"?>
<!-- Svg Vector Icons : http://www.onlinewebfonts.com/icon -->
<!DOCTYPE svg PUBLIC "-//W3C//DTD SVG 1.1//EN" "http://www.w3.org/Graphics/SVG/1.1/DTD/svg11.dtd">
<svg version="1.1" xmlns="http://www.w3.org/2000/svg" xmlns:xlink="http://www.w3.org/1999/xlink" x="0px" y="0px" viewBox="0 0 256 256" enable-background="new 0 0 256 256" xml:space="preserve">
<metadata> Svg Vector Icons : http://www.onlinewebfonts.com/icon </metadata>
<g><g><path fill="#000000" d="M198.8,176H246v-15.7h-47.2V176z M230.2,10.8c0-4.7-1.6-7.1-6.3-8.7c-3.2-1.6-6.3-0.8-9.4,0.8L10,65.9h220.2V10.8z M230.2,81.6H10v157.3c0,8.7,7.1,15.7,15.7,15.7h204.5c8.7,0,15.7-7.1,15.7-15.7v-47.2h-55.1c-4.7,0-7.9-3.2-7.9-7.9v-31.5c0-4.7,3.2-7.9,7.9-7.9H246V97.4C246,88.7,238.9,81.6,230.2,81.6z"/></g></g>
</svg>