<?xml version="1.0" encoding="utf-8"?>
<!-- Svg Vector Icons : http://www.onlinewebfonts.com/icon -->
<!DOCTYPE svg PUBLIC "-//W3C//DTD SVG 1.1//EN" "http://www.w3.org/Graphics/SVG/1.1/DTD/svg11.dtd">
<svg version="1.1" xmlns="http://www.w3.org/2000/svg" xmlns:xlink="http://www.w3.org/1999/xlink" x="0px" y="0px" viewBox="0 0 256 256" enable-background="new 0 0 256 256" xml:space="preserve">
<metadata> Svg Vector Icons : http://www.onlinewebfonts.com/icon </metadata>
<g><g><path fill="#000000" d="M181.1,69H74.9c-3.3,0-5.9,2.6-5.9,5.9v11.8c0,3.3,2.6,5.9,5.9,5.9h106.2c3.3,0,5.9-2.6,5.9-5.9V74.9C187,71.6,184.4,69,181.1,69z M181.1,116.2H74.9c-3.3,0-5.9,2.6-5.9,5.9v11.8c0,3.3,2.6,5.9,5.9,5.9h106.2c3.3,0,5.9-2.7,5.9-5.9v-11.8C187,118.8,184.4,116.2,181.1,116.2z M210.6,10H45.4c-13,0-23.6,10.5-23.6,23.6v188.8c0,13,10.6,23.6,23.6,23.6h165.2c13,0,23.6-10.6,23.6-23.6V33.6C234.2,20.5,223.6,10,210.6,10z M210.6,210.6c0,6.5-5.3,11.8-11.8,11.8H57.2c-6.5,0-11.8-5.3-11.8-11.8V45.4c0-6.5,5.3-11.8,11.8-11.8h141.6c6.5,0,11.8,5.3,11.8,11.8V210.6z M145.7,163.4H74.9c-3.3,0-5.9,2.7-5.9,5.9v11.8c0,3.3,2.6,5.9,5.9,5.9h70.8c3.3,0,5.9-2.6,5.9-5.9v-11.8C151.6,166.1,149,163.4,145.7,163.4z"/></g></g>
</svg>