<?xml version="1.0" encoding="utf-8"?>
<!-- Svg Vector Icons : http://www.onlinewebfonts.com/icon -->
<!DOCTYPE svg PUBLIC "-//W3C//DTD SVG 1.1//EN" "http://www.w3.org/Graphics/SVG/1.1/DTD/svg11.dtd">
<svg version="1.1" xmlns="http://www.w3.org/2000/svg" xmlns:xlink="http://www.w3.org/1999/xlink" x="0px" y="0px" viewBox="0 0 256 256" enable-background="new 0 0 256 256" xml:space="preserve">
<metadata> Svg Vector Icons : http://www.onlinewebfonts.com/icon </metadata>
<g><g><path fill="#000000" d="M230.2,65.6V10.6c0-4.3-1.9-6.8-5.9-8.4c-3.1-1.2-6.1-0.5-9.8,0.5L10,65.6v15.7v157.3c0,8.7,7,15.7,15.7,15.7h204.5c8.7,0,15.7-7,15.7-15.7V81.4C246,72.7,238.9,65.6,230.2,65.6z M214.5,18.5v47.2H61.1L214.5,18.5z M230.2,167.9c0,4.3,0,2.5,0,7.9h-31.5c0-5.1,0-3.5,0-7.9c0-4.3,0-4.3,0-7.9h31.5C230.2,165.9,230.2,163.6,230.2,167.9z M230.2,144.3h-39.3c-4.3,0-7.9,3.5-7.9,7.9v31.5c0,4.4,3.5,7.9,7.9,7.9h39.3v39.3c0,4.3-3.5,7.9-7.9,7.9H33.6c-4.3,0-7.9-3.5-7.9-7.9c0,0,0-144,0-149.5h196.7c4.3,0,7.9,3.5,7.9,7.9V144.3L230.2,144.3z"/></g></g>
</svg>