<?xml version="1.0" encoding="utf-8"?>
<!-- Svg Vector Icons : http://www.onlinewebfonts.com/icon -->
<!DOCTYPE svg PUBLIC "-//W3C//DTD SVG 1.1//EN" "http://www.w3.org/Graphics/SVG/1.1/DTD/svg11.dtd">
<svg version="1.1" xmlns="http://www.w3.org/2000/svg" xmlns:xlink="http://www.w3.org/1999/xlink" x="0px" y="0px" viewBox="0 0 256 256" enable-background="new 0 0 256 256" xml:space="preserve">
<metadata> Svg Vector Icons : http://www.onlinewebfonts.com/icon </metadata>
<g><g><path fill="#000000" d="M128,10C62.9,10,10,57.9,10,116.9c0,26.5,10.6,51.8,30.2,71.3v50.4c0,2.9,1.7,5.6,4.2,6.7c1,0.5,2,0.7,3.2,0.7c1.7,0,3.4-0.5,4.7-1.7l38.1-30.7c3.2-2.5,3.7-7.3,1.2-10.5c-1.3-1.9-3.5-2.9-5.7-2.9c-1.7,0-3.4,0.5-4.7,1.7l-26,20.9V185c0-2-0.8-4-2.4-5.4c-18-17-27.8-39.3-27.8-62.7C25,66.1,71.2,25,128,25s103,41.3,103,91.9c0,50.7-46.2,91.9-103,91.9h-0.8c-4,0-7.4,3.4-7.4,7.4c0,2,0.7,3.9,2.2,5.2c1.3,1.3,3.2,2.2,5.2,2.2h0.8c65.1,0,118-47.9,118-106.9C246,57.9,193.1,10,128,10z"/><path fill="#000000" d="M63.1,105.6c-3,3-4.7,7.2-4.7,11.5s1.7,8.4,4.7,11.5c3,3,7.2,4.7,11.5,4.7c4.2,0,8.4-1.7,11.5-4.7c3-3,4.7-7.2,4.7-11.5s-1.7-8.4-4.7-11.5s-7.2-4.7-11.5-4.7C70.3,100.7,66.1,102.5,63.1,105.6z"/><path fill="#000000" d="M139.5,128.5c3-3,4.7-7.2,4.7-11.5s-1.7-8.4-4.7-11.5c-3-3-7.2-4.7-11.5-4.7c-4.2,0-8.4,1.7-11.5,4.7s-4.7,7.2-4.7,11.5s1.7,8.4,4.7,11.5c3,3,7.2,4.7,11.5,4.7C132.2,133.2,136.4,131.5,139.5,128.5z"/><path fill="#000000" d="M192.9,128.5c3-3,4.7-7.2,4.7-11.5s-1.7-8.4-4.7-11.5c-3-3-7.2-4.7-11.5-4.7s-8.4,1.7-11.5,4.7c-3,3-4.7,7.2-4.7,11.5s1.7,8.4,4.7,11.5c3,3,7.2,4.7,11.5,4.7S189.9,131.5,192.9,128.5z"/></g></g>
</svg>