<?xml version="1.0" encoding="utf-8"?>
<!-- Svg Vector Icons : http://www.onlinewebfonts.com/icon -->
<!DOCTYPE svg PUBLIC "-//W3C//DTD SVG 1.1//EN" "http://www.w3.org/Graphics/SVG/1.1/DTD/svg11.dtd">
<svg version="1.1" xmlns="http://www.w3.org/2000/svg" xmlns:xlink="http://www.w3.org/1999/xlink" x="0px" y="0px" viewBox="0 0 256 256" enable-background="new 0 0 256 256" xml:space="preserve">
<metadata> Svg Vector Icons : http://www.onlinewebfonts.com/icon </metadata>
<g><g><path fill="#000000" d="M214.9,246H41.1c-11.3,0-18.6-12.9-18.6-24.9V34.9c0-12.4,6-24.9,18.6-24.9h167.5c12.4,0,25,12.9,25,24.9v186.3C233.6,233.1,226.3,246,214.9,246z M208.7,47.3c0-6.9-5.6-12.4-12.4-12.4H59.7c-6.9,0-12.4,5.6-12.4,12.4v161.5c0,6.9,5.6,12.4,12.4,12.4h136.6c6.9,0,12.4-5.6,12.4-12.4V47.3L208.7,47.3z M65.9,65.9h124.2v18.6H65.9V65.9z M140.4,115.6H65.9V96.9h74.5V115.6z M140.4,146.6H65.9V128h74.5V146.6z"/></g></g>
</svg>