<?xml version="1.0" encoding="utf-8"?>
<!-- Svg Vector Icons : http://www.onlinewebfonts.com/icon -->
<!DOCTYPE svg PUBLIC "-//W3C//DTD SVG 1.1//EN" "http://www.w3.org/Graphics/SVG/1.1/DTD/svg11.dtd">
<svg version="1.1" xmlns="http://www.w3.org/2000/svg" xmlns:xlink="http://www.w3.org/1999/xlink" x="0px" y="0px" viewBox="0 0 256 256" enable-background="new 0 0 256 256" xml:space="preserve">
<metadata> Svg Vector Icons : http://www.onlinewebfonts.com/icon </metadata>
<g><g><g><path fill="#000000" d="M68.8,45L10,89.1v83v83h42.4h42.4l0.1-47.3l0.2-47.4l33.6-0.2l33.6-0.1v47.5v47.5h41.9H246l-0.1-83L245.7,89l-58.6-44.1C154.9,20.7,128.3,0.9,128,0.9C127.7,0.9,101,20.8,68.8,45z M180,52.2c28.3,21.3,52.6,39.6,53.9,40.7l2.4,1.9v75.1V245h-32h-32v-47.5v-47.5h-43.6H85.1v47.5V245H52.4H19.6l0.1-75.2l0.2-75.3L73.7,54c29.6-22.2,54-40.5,54.3-40.5C128.3,13.5,151.6,30.9,180,52.2z"/></g></g></g>
</svg>