<?xml version="1.0" encoding="utf-8"?>
<!-- Svg Vector Icons : http://www.onlinewebfonts.com/icon -->
<!DOCTYPE svg PUBLIC "-//W3C//DTD SVG 1.1//EN" "http://www.w3.org/Graphics/SVG/1.1/DTD/svg11.dtd">
<svg version="1.1" xmlns="http://www.w3.org/2000/svg" xmlns:xlink="http://www.w3.org/1999/xlink" x="0px" y="0px" viewBox="0 0 256 256" enable-background="new 0 0 256 256" xml:space="preserve">
<metadata> Svg Vector Icons : http://www.onlinewebfonts.com/icon </metadata>
<g><g><path fill="#000000" d="M208.5,240.6H47.5c-20.7,0-37.5-16.9-37.5-37.5V52.9c0-20.7,16.9-37.5,37.5-37.5h160.9c20.7,0,37.5,16.8,37.5,37.5v42.9h-69.7c-17.7,0-32.2,14.4-32.2,32.2s14.4,32.2,32.2,32.2H246v42.9C246,223.8,229.1,240.6,208.5,240.6z M47.5,26.1c-14.8,0-26.8,12-26.8,26.8v150.2c0,14.8,12,26.8,26.8,26.8h160.9c14.8,0,26.8-12,26.8-26.8v-32.2h-59c-23.6,0-42.9-19.2-42.9-42.9c0-23.6,19.2-42.9,42.9-42.9h59V52.9c0-14.8-12-26.8-26.8-26.8H47.5z M187,149.5c-11.8,0-21.4-9.6-21.4-21.4s9.6-21.4,21.4-21.4c11.8,0,21.4,9.6,21.4,21.4S198.8,149.5,187,149.5z M187,117.3c-5.9,0-10.7,4.8-10.7,10.7s4.8,10.7,10.7,10.7c5.9,0,10.7-4.8,10.7-10.7C197.7,122.1,192.9,117.3,187,117.3z"/><path fill="#000000" d="M235.4,82.5H246v85.6h-10.6V82.5z"/></g></g>
</svg>